<svg width="501" height="425" viewBox="0 0 501 425" fill="none" xmlns="http://www.w3.org/2000/svg">
<path d="M461.765 352.746C461.659 352.746 463.321 345.5 463.474 345.052C465.288 339.904 471.839 331.009 477.953 331.174C478.97 331.228 479.964 331.496 480.87 331.96C481.775 332.425 482.573 333.076 483.21 333.87C483.848 334.664 484.31 335.583 484.567 336.568C484.825 337.553 484.871 338.581 484.704 339.586C484.15 343.862 480.204 347.432 476.657 349.458C472.487 351.838 461.777 352.746 461.765 352.746Z" fill="#263238"/>
<path d="M462.448 323.268C462.342 323.268 465.076 316.341 465.3 315.928C467.88 311.098 475.691 303.298 481.711 304.394C482.707 304.602 483.648 305.018 484.472 305.614C485.297 306.21 485.987 306.973 486.497 307.853C487.007 308.733 487.326 309.711 487.433 310.723C487.54 311.735 487.433 312.758 487.119 313.725C485.941 317.884 481.476 320.794 477.694 322.267C473.181 323.999 462.46 323.268 462.448 323.268Z" fill="#263238"/>
<path d="M470.13 290.504C470.012 290.504 472.745 283.576 472.969 283.164C475.549 278.345 483.372 270.546 489.392 271.63C490.389 271.839 491.329 272.256 492.154 272.853C492.978 273.451 493.667 274.215 494.176 275.097C494.685 275.978 495.003 276.957 495.108 277.969C495.214 278.982 495.105 280.005 494.788 280.972C493.61 285.12 489.145 288.041 485.363 289.514C480.863 291.234 470.13 290.504 470.13 290.504Z" fill="#263238"/>
<path d="M475.868 259.259C475.75 259.259 478.483 252.331 478.707 251.907C481.287 247.089 489.11 239.289 495.131 240.385C496.127 240.593 497.067 241.009 497.892 241.605C498.716 242.201 499.406 242.964 499.916 243.844C500.426 244.724 500.746 245.702 500.853 246.714C500.96 247.725 500.853 248.748 500.538 249.716C499.36 253.875 494.883 256.785 491.113 258.258C486.601 259.978 475.868 259.259 475.868 259.259Z" fill="#263238"/>
<path d="M473.429 232.103C473.311 232.103 474.124 224.727 474.23 224.268C475.408 218.931 480.922 209.341 487.025 208.811C488.04 208.75 489.056 208.904 490.008 209.261C490.959 209.619 491.825 210.174 492.548 210.888C493.272 211.603 493.837 212.462 494.206 213.409C494.576 214.356 494.742 215.37 494.694 216.386C494.694 220.71 491.16 224.704 487.837 227.119C483.973 229.923 473.429 232.103 473.429 232.103Z" fill="#263238"/>
<path d="M458.796 351.944C458.902 351.944 457.724 344.616 457.618 344.169C456.146 338.902 450.196 329.595 444.081 329.359C443.063 329.348 442.054 329.551 441.12 329.955C440.186 330.36 439.347 330.957 438.659 331.707C437.971 332.458 437.449 333.345 437.127 334.31C436.804 335.276 436.689 336.299 436.789 337.312C437.059 341.624 440.771 345.441 444.176 347.691C448.158 350.342 458.785 351.944 458.796 351.944Z" fill="#263238"/>
<path d="M462.024 319.168C462.142 319.168 459.856 312.099 459.668 311.652C457.406 306.668 450.113 298.374 444.034 299.069C443.026 299.213 442.06 299.567 441.199 300.109C440.338 300.651 439.6 301.368 439.035 302.214C438.469 303.059 438.088 304.015 437.916 305.018C437.744 306.021 437.785 307.049 438.037 308.035C438.956 312.252 443.209 315.469 446.908 317.177C451.267 319.192 462.012 319.168 462.024 319.168Z" fill="#263238"/>
<path d="M469.329 288.277C469.435 288.277 467.162 281.208 466.973 280.772C464.723 275.789 457.43 267.494 451.351 268.189C450.344 268.332 449.378 268.685 448.516 269.225C447.654 269.766 446.916 270.482 446.349 271.326C445.782 272.171 445.4 273.125 445.226 274.128C445.053 275.13 445.092 276.157 445.342 277.143C446.273 281.373 450.514 284.578 454.225 286.298C458.573 288.301 469.318 288.277 469.329 288.277Z" fill="#263238"/>
<path d="M474.666 259.53C474.783 259.53 472.498 252.461 472.309 252.014C470.047 247.042 462.766 238.748 456.675 239.443C455.668 239.585 454.703 239.938 453.841 240.478C452.98 241.019 452.242 241.735 451.677 242.58C451.111 243.425 450.729 244.38 450.557 245.382C450.385 246.384 450.427 247.411 450.678 248.397C451.597 252.626 455.85 255.831 459.562 257.539C463.909 259.554 474.666 259.53 474.666 259.53Z" fill="#263238"/>
<path d="M473.206 232.986C473.324 232.986 470.284 226.188 470.037 225.776C467.244 221.063 459.091 213.629 453.118 214.996C452.132 215.248 451.211 215.706 450.414 216.338C449.617 216.971 448.963 217.765 448.494 218.668C448.025 219.571 447.751 220.562 447.691 221.578C447.631 222.594 447.786 223.611 448.146 224.562C449.525 228.651 454.096 231.384 457.972 232.668C462.52 234.188 473.206 232.986 473.206 232.986Z" fill="#263238"/>
<path d="M466.773 209.494C466.867 209.494 467.303 202.107 467.279 201.636C466.961 196.169 463.156 185.801 457.23 184.258C456.239 184.029 455.21 184.011 454.212 184.206C453.214 184.401 452.268 184.804 451.435 185.388C450.603 185.973 449.903 186.726 449.381 187.599C448.859 188.472 448.526 189.445 448.405 190.455C447.746 194.732 450.55 199.256 453.389 202.236C456.723 205.63 466.761 209.482 466.773 209.494Z" fill="#263238"/>
<path d="M460.8 392.332C460.8 392.332 460.411 389.209 459.94 383.79C459.468 378.37 458.926 370.618 458.679 361.299C458.549 356.586 458.502 351.591 458.596 346.242C458.596 343.556 458.738 340.87 458.844 337.995C458.938 336.605 459.044 335.203 459.138 333.777C459.233 332.352 459.468 330.891 459.621 329.43C460.428 323.482 461.557 317.583 463.003 311.758C464.452 305.808 466.101 299.835 467.715 293.873C469.329 287.912 470.92 281.95 472.169 276.024C473.439 270.237 474.294 264.367 474.725 258.458C475.029 252.927 474.839 247.379 474.16 241.881C473.602 236.899 472.748 231.953 471.603 227.072C470.566 222.56 469.353 218.483 468.246 214.89C467.138 211.297 465.995 208.21 465.053 205.677C463.132 200.611 461.825 197.807 461.825 197.807C461.825 197.807 463.191 200.587 465.218 205.606C466.231 208.115 467.397 211.19 468.623 214.76C469.848 218.33 471.12 222.395 472.251 226.907C473.523 231.754 474.511 236.672 475.208 241.634C476.019 247.187 476.335 252.802 476.151 258.411C475.836 264.401 475.1 270.361 473.948 276.248C472.77 282.257 471.356 288.289 469.86 294.297C468.363 300.306 466.796 306.326 465.489 312.217C464.19 317.979 463.207 323.808 462.543 329.677C462.425 331.103 462.213 332.458 462.166 333.895C462.119 335.333 462.025 336.735 461.954 338.125C461.954 340.811 461.872 343.591 461.895 346.219C461.895 351.509 462.072 356.504 462.308 361.111C462.744 370.335 463.486 378.005 464.04 383.354C464.593 388.703 465.065 391.719 465.065 391.719C465.106 391.998 465.091 392.283 465.022 392.557C464.953 392.83 464.831 393.088 464.662 393.314C464.494 393.541 464.283 393.732 464.04 393.876C463.798 394.021 463.529 394.117 463.25 394.158C462.971 394.199 462.686 394.184 462.413 394.115C462.139 394.046 461.881 393.924 461.655 393.756C461.429 393.587 461.237 393.376 461.093 393.133C460.948 392.891 460.852 392.623 460.811 392.343V392.332H460.8Z" fill="#263238"/>
<path d="M447.698 380.161H477.07V386.24H474.513L469.211 419.417H455.568L450.255 386.24H447.698V380.161Z" fill="#263238" stroke="#263238" stroke-linecap="round" stroke-linejoin="round"/>
<path d="M254.163 402.346C254.163 402.346 253.15 408.319 253.892 409.662C254.634 411.005 255.824 412.773 255.824 412.773H265.179L265.685 409.886C266.975 411.318 268.558 412.455 270.327 413.22C272.813 414.104 275.216 413.22 278.127 413.444C280.589 413.633 286.374 413.444 286.374 413.444L286.209 410.322L269.326 402.758L263.282 398.046C263.282 398.046 257.98 402.829 254.163 402.346Z" fill="#263238" stroke="#263238" stroke-linecap="round" stroke-linejoin="round"/>
<path d="M184.486 402.346C184.486 402.346 186.089 407.212 185.5 408.543C184.911 409.874 183.944 412.773 183.944 412.773H174.602L173.777 409.886C172.64 411.325 171.173 412.468 169.5 413.22C167.144 414.104 164.599 413.22 161.725 413.444C159.286 413.633 153.477 413.444 153.477 413.444L153.312 410.322L169.371 402.758L175.745 399.224C175.745 399.224 180.716 402.829 184.486 402.346Z" fill="#263238" stroke="#263238" stroke-linecap="round" stroke-linejoin="round"/>
<path d="M259.206 172.653C259.206 172.653 263.07 222.677 264.413 246.594C265.756 270.511 266.38 281.361 266.534 298.197C266.687 315.033 267.429 348.304 267.429 360.804C267.442 373.565 266.611 386.313 264.943 398.965L253.645 404.985C253.645 404.985 249.992 372.892 248.52 361.393C247.188 350.99 242.323 308.659 240.119 295.57C237.916 282.481 227.878 236.968 227.878 236.968C227.878 236.968 214.483 284.719 211.019 303.793C207.555 322.868 194.525 365.882 191.733 376.344C188.94 386.806 184.487 402.322 184.487 402.322C182.917 402.783 181.268 402.911 179.645 402.699C178.917 402.642 178.213 402.407 177.597 402.015C176.981 401.622 176.47 401.085 176.11 400.449C176.11 400.449 179.397 369.134 180.752 353.912C182.437 335.062 182.967 310.038 185.017 299.564C187.067 289.09 186.996 269.026 189.376 255.56C190.731 247.914 197.623 174.762 197.623 174.762C197.623 174.762 235.843 190.231 259.206 172.653Z" fill="#263238" stroke="#263238" stroke-linecap="round" stroke-linejoin="round"/>
<path d="M264.943 398.965L256.142 406.104" stroke="white" stroke-width="0.5" stroke-linecap="round" stroke-linejoin="round"/>
<path d="M175.756 399.2L182.742 404.561" stroke="white" stroke-width="0.5" stroke-linecap="round" stroke-linejoin="round"/>
<path d="M233.651 189.489L232.944 218.66L237.893 213.723" stroke="white" stroke-width="0.5" stroke-linecap="round" stroke-linejoin="round"/>
<path d="M230.564 236.12L244.62 218.636" stroke="white" stroke-width="0.5" stroke-linecap="round" stroke-linejoin="round"/>
<path d="M248.519 219.909L236.796 231.408" stroke="white" stroke-width="0.5" stroke-linecap="round" stroke-linejoin="round"/>
<path d="M222.199 221.193C218.573 213.165 212.376 206.574 204.586 202.46" stroke="white" stroke-width="0.5" stroke-linecap="round" stroke-linejoin="round"/>
<path d="M240.072 181.595L239.4 185.012L233.933 186.284L234.558 182.031" stroke="white" stroke-width="0.5" stroke-linecap="round" stroke-linejoin="round"/>
<path d="M233.934 186.284C233.934 186.284 223.696 185.86 218.5 184.152L219.596 180.747" stroke="white" stroke-width="0.5" stroke-linecap="round" stroke-linejoin="round"/>
<path d="M214.859 179.899L213.823 184.152C213.823 184.152 205.705 183.728 204.397 182.455" stroke="white" stroke-width="0.5" stroke-linecap="round" stroke-linejoin="round"/>
<path d="M239.4 184.976C242.187 184.894 244.917 184.168 247.376 182.856L251.088 180.723L249.65 177.743" stroke="white" stroke-width="0.5" stroke-linecap="round" stroke-linejoin="round"/>
<path d="M264.247 74.7604C264.247 74.7604 271.646 81.1813 273.861 85.4227C276.076 89.664 305.153 148.949 305.035 153.002C304.917 157.054 300.617 164.783 293.03 164.783C285.442 164.783 256.684 118.576 256.684 118.576L264.247 74.7604Z" fill="white"/>
<mask id="mask0_1_7719" style="mask-type:luminance" maskUnits="userSpaceOnUse" x="256" y="74" width="50" height="91">
<path d="M264.247 74.7604C264.247 74.7604 271.646 81.1813 273.861 85.4227C276.076 89.664 305.153 148.949 305.035 153.002C304.917 157.054 300.617 164.783 293.03 164.783C285.442 164.783 256.684 118.576 256.684 118.576L264.247 74.7604Z" fill="white"/>
</mask>
<g mask="url(#mask0_1_7719)">
<g style="mix-blend-mode:multiply" opacity="0.5">
<path d="M265.155 81.8764L265.65 82.1474C266.522 82.654 268.478 83.7968 270.622 85.2223C273.045 87.0809 275.253 89.2028 277.208 91.549C277.208 91.549 274.545 84.4801 270.645 81.0988C268.477 79.2355 266.46 77.2027 264.613 75.0195L265.155 81.8764Z" fill="#ECEFF1"/>
</g>
</g>
<path d="M264.247 74.7604C264.247 74.7604 271.646 81.1813 273.861 85.4227C276.076 89.664 305.153 148.949 305.035 153.002C304.917 157.054 300.617 164.783 293.03 164.783C285.442 164.783 256.684 118.576 256.684 118.576L264.247 74.7604Z" stroke="#263238" stroke-linecap="round" stroke-linejoin="round"/>
<path opacity="0.5" d="M282.78 136.755C281.802 135.577 274.533 123.877 273.79 119.507C273.048 115.136 274.968 109.539 274.968 106.618C274.968 103.696 270.35 111.719 270.103 110.753C269.855 109.787 266.945 99.3248 266.945 99.3248L258.027 110.859L256.695 118.599C256.695 118.599 267.958 136.684 278.256 150.221C285.584 147.865 296.646 144.271 299.026 142.834C302.714 140.654 283.758 137.98 282.78 136.755Z" fill="#ECEFF1"/>
<path d="M228.726 66.7488L264.295 74.7602C264.295 74.7602 266.769 92.9863 266.486 102.836C266.203 112.685 258.875 173.596 258.875 173.596C258.875 173.596 240.025 192.823 197.705 174.774C197.705 174.774 196.233 171.934 195.679 150.704C195.149 129.768 179.409 90.8892 180.669 86.4593C183.261 77.3757 214.388 68.6456 218.476 68.3982C221.925 68.0704 225.349 67.5194 228.726 66.7488Z" fill="white" stroke="#263238" stroke-linecap="round" stroke-linejoin="round"/>
<g style="mix-blend-mode:multiply" opacity="0.5">
<path d="M231.942 173.49L199.366 160.718L204.998 98.8418L242.051 116.184L264.259 106.193L248.377 170.768L231.942 173.49Z" fill="#ECEFF1"/>
</g>
<g style="mix-blend-mode:multiply" opacity="0.5">
<path d="M241.58 77.4347C243.1 77.4347 257.155 80.2505 265.143 81.8764C264.684 77.7057 264.283 74.8075 264.283 74.8075L228.715 66.796C225.337 67.5706 221.914 68.1255 218.465 68.4572C214.376 68.7046 183.25 77.4347 180.658 86.5183C180.245 87.991 181.683 93.222 183.815 100.326C186.925 92.303 189.706 85.6936 190.66 84.7629C192.804 82.6186 214.223 77.0577 214.223 77.0577L241.58 77.4347Z" fill="#ECEFF1"/>
</g>
<path d="M238.387 84.9396L233.498 95.8728L244.219 171.628L236.361 182.232L228.903 173.584L230.988 96.8389L221.115 85.3166L227.43 73.3701L238.387 84.9396Z" fill="#263238"/>
<path d="M276.265 109.422L247.765 125.232L211.113 106.052L205.305 160.188L241.604 177.684L269.09 161.143L276.265 109.422Z" fill="#ECEFF1" stroke="#263238" stroke-linecap="round" stroke-linejoin="round"/>
<path d="M246.681 137.391L247.765 128.696" stroke="#263238" stroke-width="0.5" stroke-linecap="round" stroke-linejoin="round"/>
<path d="M241.603 177.684L246.08 142.162" stroke="#263238" stroke-width="0.5" stroke-linecap="round" stroke-linejoin="round"/>
<path d="M232.037 63.7092C232.037 63.7092 238.458 63.7092 241.25 67.9506C244.043 72.1919 249.403 88.9571 249.403 88.9571L230.081 83.5258L218.371 95.6254C218.371 95.6254 207.638 79.7203 212.009 69.6236C216.379 59.5268 232.037 63.7092 232.037 63.7092Z" fill="white" stroke="#263238" stroke-linecap="round" stroke-linejoin="round"/>
<g style="mix-blend-mode:multiply" opacity="0.5">
<path d="M243.206 71.8738C242.653 70.5191 241.999 69.2076 241.25 67.9506C238.458 63.6503 232.037 63.7092 232.037 63.7092C232.037 63.7092 216.403 59.5268 212.009 69.6C210.595 72.8635 210.83 76.7396 211.643 80.4861C212.409 78.4833 214.141 74.4658 216.356 72.239C219.348 69.2465 219.702 71.8503 219.702 71.8503L236.455 70.519C238.674 71.1142 240.929 71.5668 243.206 71.8738Z" fill="#ECEFF1"/>
</g>
<path d="M234.794 53.9541C234.794 53.9541 235.878 76.2448 233.062 80.6393C230.246 85.0338 227.042 83.349 224.697 80.6393C222.353 77.9295 219.702 71.8738 219.702 71.8738L216.839 55.3797C216.839 55.3797 233.522 58.4546 234.794 53.9541Z" fill="white" stroke="#263238" stroke-linecap="round" stroke-linejoin="round"/>
<g style="mix-blend-mode:multiply" opacity="0.5">
<path d="M228.749 71.8738C231.176 71.1786 233.331 69.7558 234.923 67.7974C234.923 66.5368 234.923 65.2879 234.923 64.0744C232.178 60.9288 225.875 54.9909 218.853 56.8995C218.252 57.0644 217.675 57.2529 217.145 57.4414L219.689 71.8738C219.689 71.8738 222.352 77.9767 224.685 80.6393L222.329 70.1184C223.151 70.9488 224.177 71.5482 225.304 71.8563C226.431 72.1645 227.619 72.1705 228.749 71.8738Z" fill="#ECEFF1"/>
</g>
<path d="M244.619 33.6781C244.619 33.6781 247.847 33.4424 247.918 38.8266C247.988 44.2107 244.819 48.7348 242.64 46.8616C240.46 44.9883 244.018 31.2275 244.619 33.6781Z" fill="white" stroke="#263238" stroke-linecap="round" stroke-linejoin="round"/>
<path d="M222.458 5.80294C207.767 9.26671 203.832 18.7626 203.95 27.3632C203.95 30.6502 205.469 36.3407 207.484 42.3375L207.225 41.7955C207.225 41.7955 202.807 34.0904 202.159 38.7206C201.511 43.3507 205.882 48.1458 207.331 49.6892C207.733 50.0596 208.252 50.2786 208.798 50.3087C209.344 50.3388 209.883 50.1781 210.323 49.8541C213.245 56.923 216.509 63.2497 218.641 64.9698C223.26 68.7046 229.751 70.625 234.911 66.148C240.072 61.671 245.173 36.1404 245.173 36.1404C246.398 10.3153 237.15 2.36273 222.458 5.80294Z" fill="white"/>
<mask id="mask1_1_7719" style="mask-type:luminance" maskUnits="userSpaceOnUse" x="202" y="5" width="44" height="64">
<path d="M222.458 5.80294C207.767 9.26671 203.832 18.7626 203.95 27.3632C203.95 30.6502 205.469 36.3407 207.484 42.3375L207.225 41.7955C207.225 41.7955 202.807 34.0904 202.159 38.7206C201.511 43.3507 205.882 48.1458 207.331 49.6892C207.733 50.0596 208.252 50.2786 208.798 50.3087C209.344 50.3388 209.883 50.1781 210.323 49.8541C213.245 56.923 216.509 63.2497 218.641 64.9698C223.26 68.7046 229.751 70.625 234.911 66.148C240.072 61.671 245.173 36.1404 245.173 36.1404C246.398 10.3153 237.15 2.36273 222.458 5.80294Z" fill="white"/>
</mask>
<g mask="url(#mask1_1_7719)">
<g style="mix-blend-mode:multiply" opacity="0.5">
<path d="M214.635 32.9947C214.635 32.9947 219.76 28.718 224.897 28.718C230.034 28.718 240.731 33.4306 242.004 37.2714C242.781 39.6277 241.862 47.2268 241.002 52.9997C243.476 44.8705 245.22 36.1757 245.22 36.1757C246.398 10.3624 237.138 2.38625 222.458 5.85003C207.778 9.3138 203.832 18.8097 203.949 27.4102C203.949 30.6973 205.469 36.3878 207.484 42.3846L207.225 41.8426C207.225 41.8426 202.807 34.1375 202.159 38.7676C201.511 43.3978 205.882 48.1929 207.331 49.7362C207.733 50.1067 208.251 50.3257 208.797 50.3558C209.343 50.3859 209.883 50.2252 210.323 49.9012C213.245 56.9701 216.508 63.2968 218.641 65.0169C218.641 65.0169 213.728 53.954 212.02 49.2532C210.311 44.5524 210.783 36.376 214.635 32.9947Z" fill="#ECEFF1"/>
</g>
</g>
<path d="M222.458 5.80294C207.767 9.26671 203.832 18.7626 203.95 27.3632C203.95 30.6502 205.469 36.3407 207.484 42.3375L207.225 41.7955C207.225 41.7955 202.807 34.0904 202.159 38.7206C201.511 43.3507 205.882 48.1458 207.331 49.6892C207.733 50.0596 208.252 50.2786 208.798 50.3087C209.344 50.3388 209.883 50.1781 210.323 49.8541C213.245 56.923 216.509 63.2497 218.641 64.9698C223.26 68.7046 229.751 70.625 234.911 66.148C240.072 61.671 245.173 36.1404 245.173 36.1404C246.398 10.3153 237.15 2.36273 222.458 5.80294Z" stroke="#263238" stroke-linecap="round" stroke-linejoin="round"/>
<path d="M239.73 43.657C238.995 44.7633 237.854 45.5364 236.554 45.8097C235.254 46.0829 233.898 45.8345 232.779 45.1179" stroke="#263238" stroke-linecap="round" stroke-linejoin="round"/>
<path d="M224.049 45.2122C223.313 46.3185 222.172 47.0916 220.872 47.3649C219.572 47.6381 218.216 47.3897 217.098 46.6731" stroke="#263238" stroke-linecap="round" stroke-linejoin="round"/>
<path d="M224.803 41.6541C222.904 40.7012 220.849 40.0986 218.736 39.8751C215.932 39.7573 213.175 42.0429 213.175 42.0429" stroke="#263238" stroke-linecap="round" stroke-linejoin="round"/>
<path d="M231.565 53.5536C231.466 54.2695 231.089 54.9176 230.516 55.3583C229.943 55.7991 229.22 55.9971 228.502 55.9099C227.753 55.9327 227.012 55.7477 226.361 55.3755C225.71 55.0033 225.175 54.4584 224.815 53.801" stroke="#263238" stroke-linecap="round" stroke-linejoin="round"/>
<path d="M234.04 59.2439C234.04 59.2439 227.159 61.2939 222.741 59.5149C223.319 60.5526 224.108 61.4571 225.058 62.1695C226.008 62.882 227.097 63.3865 228.255 63.6502C230.87 64.3453 234.04 59.2439 234.04 59.2439Z" fill="#263238"/>
<path d="M240.59 38.5557C240.59 38.5557 238.01 38.3318 235.571 38.3554C233.332 38.3554 231.106 41.2654 231.106 41.2654L230.316 44.7999" stroke="#263238" stroke-linecap="round" stroke-linejoin="round"/>
<path d="M219.359 25.8433C224.702 30.3177 230.541 34.164 236.761 37.3068C246.893 42.3728 254.669 32.5942 249.921 27.7873C245.173 22.9804 256.106 33.0654 257.826 27.0333C259.546 21.0011 243.806 0.300977 227.995 0.00643894C212.184 -0.288099 208.355 9.62018 208.355 9.62018C208.355 9.62018 206.494 4.51877 205.092 7.33456C204.277 8.86703 203.81 10.5607 203.725 12.2946C203.725 12.2946 200.521 14.6509 199.107 16.0529C197.693 17.4549 199.507 18.9394 199.507 18.9394C199.507 18.9394 196.68 26.0083 198.188 31.4631L206.305 43.2447C207.285 43.2129 208.244 42.9563 209.108 42.4946C209.972 42.0328 210.718 41.3785 211.289 40.5821C213.41 37.8016 211.855 29.1304 211.855 29.1304C211.855 29.1304 211.984 38.4614 214.47 36.4114C216.956 34.3614 213.292 25.2425 213.292 25.2425L219.359 25.8433Z" fill="#263238"/>
<path d="M212.302 16.2061C212.302 16.2061 219.536 21.6491 224.767 26.6209C229.998 31.5927 237.974 33.5013 240.343 32.4057" stroke="white" stroke-width="0.5" stroke-miterlimit="10" stroke-linecap="round"/>
<path d="M234.652 23.0511C234.652 23.0511 224.284 20.6948 221.845 16.1943C219.406 11.6937 211.854 12.2239 211.854 12.2239C213.741 10.4843 216.043 9.25856 218.539 8.6644C221.035 8.07023 223.642 8.12753 226.11 8.8308" stroke="white" stroke-width="0.5" stroke-miterlimit="10" stroke-linecap="round"/>
<path d="M208.367 18.4327C208.367 18.4327 216.473 30.6502 211.36 34.4085" stroke="white" stroke-width="0.5" stroke-miterlimit="10" stroke-linecap="round"/>
<path d="M180.669 86.4711C180.669 86.4711 158.673 146.439 159.686 153.131C160.7 159.823 172.245 157.16 175.886 156.253C179.526 155.346 193.558 133.079 193.652 128.284C194.559 127.717 195.335 126.963 195.928 126.074C196.521 125.184 196.918 124.178 197.093 123.123C197.953 119.259 198.542 105.451 192.957 95.0952" fill="white"/>
<mask id="mask2_1_7719" style="mask-type:luminance" maskUnits="userSpaceOnUse" x="159" y="86" width="39" height="72">
<path d="M180.669 86.4711C180.669 86.4711 158.673 146.439 159.686 153.131C160.7 159.823 172.245 157.16 175.886 156.253C179.526 155.346 193.558 133.079 193.652 128.284C194.559 127.717 195.335 126.963 195.928 126.074C196.521 125.184 196.918 124.178 197.093 123.123C197.953 119.259 198.542 105.451 192.957 95.0952" fill="white"/>
</mask>
<g mask="url(#mask2_1_7719)">
<g style="mix-blend-mode:multiply" opacity="0.5">
<path d="M180.669 86.4711C180.669 86.4711 158.673 146.439 159.686 153.131C160.252 156.795 163.975 157.643 167.816 157.526C170.502 149.95 171.55 136.107 173.565 129.25C175.792 121.58 183.049 101.728 187.467 91.2897L180.669 86.4711Z" fill="#ECEFF1"/>
</g>
</g>
<path d="M180.669 86.4711C180.669 86.4711 158.673 146.439 159.686 153.131C160.7 159.823 172.245 157.16 175.886 156.253C179.526 155.346 193.558 133.079 193.652 128.284C194.559 127.717 195.335 126.963 195.928 126.074C196.521 125.184 196.918 124.178 197.093 123.123C197.953 119.259 198.542 105.451 192.957 95.0952" stroke="#263238" stroke-linecap="round" stroke-linejoin="round"/>
<path d="M197.293 147.653C197.293 147.653 169.017 145.933 165.388 145.638C161.759 145.344 157.412 150.351 160.829 157.278C164.245 164.206 169.677 164.606 176.345 163.346C183.013 162.085 197.74 153.096 197.74 153.096L197.293 147.653Z" fill="white"/>
<mask id="mask3_1_7719" style="mask-type:luminance" maskUnits="userSpaceOnUse" x="159" y="145" width="39" height="19">
<path d="M197.293 147.653C197.293 147.653 169.017 145.933 165.388 145.638C161.759 145.344 157.412 150.351 160.829 157.278C164.245 164.206 169.677 164.606 176.345 163.346C183.013 162.085 197.74 153.096 197.74 153.096L197.293 147.653Z" fill="white"/>
</mask>
<g mask="url(#mask3_1_7719)">
<path opacity="0.5" d="M197.293 147.653C197.293 147.653 169.017 145.933 165.388 145.638C161.759 145.344 157.412 150.351 160.829 157.278C164.245 164.206 169.677 164.606 176.345 163.346C183.013 162.085 197.74 153.096 197.74 153.096L197.293 147.653Z" fill="#ECEFF1" stroke="#263238" stroke-linecap="round" stroke-linejoin="round"/>
</g>
<path d="M197.293 147.653C197.293 147.653 169.017 145.933 165.388 145.638C161.759 145.344 157.412 150.351 160.829 157.278C164.245 164.206 169.677 164.606 176.345 163.346C183.013 162.085 197.74 153.096 197.74 153.096L197.293 147.653Z" stroke="#263238" stroke-linecap="round" stroke-linejoin="round"/>
<path d="M201.805 140.76C201.805 140.76 205.458 136.884 206.424 136.967C207.39 137.049 214.482 136.66 215.083 138.322C215.684 139.983 214.73 139.252 213.752 139.806C212.774 140.36 207.92 140.984 207.92 140.984C207.92 140.984 212.102 141.326 213.363 142.068C214.624 142.81 219.961 147.735 219.937 148.701C219.914 149.667 219.266 149.879 217.97 149.879C216.674 149.879 217.628 150.81 217.275 151.741C216.921 152.672 214.365 152.471 214.365 152.471C214.365 152.471 214.588 155.699 212.656 155.535C210.724 155.37 207.26 152.848 207.26 152.848C207.26 152.848 200.109 155.464 197.541 155.264C195.854 155.187 194.177 155.566 192.687 156.359C194.846 150.693 197.927 145.422 201.805 140.76Z" fill="white"/>
<mask id="mask4_1_7719" style="mask-type:luminance" maskUnits="userSpaceOnUse" x="192" y="136" width="28" height="21">
<path d="M201.804 140.76C201.804 140.76 205.457 136.884 206.423 136.967C207.389 137.049 214.481 136.66 215.082 138.321C215.683 139.983 214.729 139.252 213.751 139.806C212.773 140.36 207.919 140.984 207.919 140.984C207.919 140.984 212.102 141.326 213.362 142.068C214.623 142.81 219.96 147.735 219.936 148.701C219.913 149.667 219.265 149.879 217.969 149.879C216.673 149.879 217.627 150.81 217.274 151.741C216.92 152.671 214.364 152.471 214.364 152.471C214.364 152.471 214.587 155.699 212.655 155.534C210.723 155.369 207.259 152.848 207.259 152.848C207.259 152.848 200.108 155.464 197.54 155.263C195.853 155.187 194.176 155.566 192.686 156.359C194.845 150.693 197.927 145.422 201.804 140.76Z" fill="white"/>
</mask>
<g mask="url(#mask4_1_7719)">
<g style="mix-blend-mode:multiply" opacity="0.5">
<path d="M201.804 140.76C197.937 145.39 194.856 150.624 192.686 156.253C194.176 155.46 195.853 155.081 197.54 155.157C198.384 155.172 199.227 155.081 200.049 154.886C200.561 152.633 200.865 150.338 200.956 148.029C200.956 144.601 206.423 136.967 206.423 136.967C205.445 136.884 201.804 140.76 201.804 140.76Z" fill="#ECEFF1"/>
</g>
</g>
<path d="M201.805 140.76C201.805 140.76 205.458 136.884 206.424 136.967C207.39 137.049 214.482 136.66 215.083 138.322C215.684 139.983 214.73 139.252 213.752 139.806C212.774 140.36 207.92 140.984 207.92 140.984C207.92 140.984 212.102 141.326 213.363 142.068C214.624 142.81 219.961 147.735 219.937 148.701C219.914 149.667 219.266 149.879 217.97 149.879C216.674 149.879 217.628 150.81 217.275 151.741C216.921 152.672 214.365 152.471 214.365 152.471C214.365 152.471 214.588 155.699 212.656 155.535C210.724 155.37 207.26 152.848 207.26 152.848C207.26 152.848 200.109 155.464 197.541 155.264C195.854 155.187 194.177 155.566 192.687 156.359C194.846 150.693 197.927 145.422 201.805 140.76Z" stroke="#263238" stroke-linecap="round" stroke-linejoin="round"/>
<path d="M217.969 149.773L211.666 144.766L206.529 144.024" stroke="#263238" stroke-linecap="round" stroke-linejoin="round"/>
<path d="M214.353 152.365L207.367 148.583L204.162 148.006" stroke="#263238" stroke-linecap="round" stroke-linejoin="round"/>
<path d="M279.233 135.989C279.233 135.989 275.581 132.125 274.615 132.195C273.649 132.266 266.557 131.901 265.956 133.55C265.355 135.2 266.309 134.481 267.287 135.046C269.192 135.597 271.145 135.972 273.119 136.166C273.119 136.166 268.936 136.507 267.676 137.261C266.415 138.015 261.078 142.928 261.102 143.883C261.125 144.837 261.773 145.061 263.069 145.061C264.365 145.061 263.411 145.991 263.764 146.922C264.118 147.853 266.674 147.641 266.674 147.641C266.674 147.641 266.45 150.869 268.383 150.716C270.315 150.563 273.779 148.03 273.779 148.03C273.779 148.03 280.93 150.645 283.498 150.386C285.187 150.307 286.865 150.69 288.352 151.493C286.184 145.86 283.103 140.622 279.233 135.989Z" fill="white" stroke="#263238" stroke-linecap="round" stroke-linejoin="round"/>
<path d="M263.069 145.002L269.361 140.006L274.498 139.264" stroke="#263238" stroke-linecap="round" stroke-linejoin="round"/>
<path d="M266.675 147.594L273.661 143.824L276.866 143.235" stroke="#263238" stroke-linecap="round" stroke-linejoin="round"/>
<path d="M283.439 141.856C283.439 141.856 295.563 140.466 299.722 143.588C303.88 146.71 303.185 154.663 303.185 154.663" stroke="#263238" stroke-linecap="round" stroke-linejoin="round"/>
<path d="M187.668 398.222C187.668 398.222 188.964 395.642 193.099 396.161C197.234 396.679 199.826 401.592 196.975 403.135C194.124 404.679 187.668 398.222 187.668 398.222Z" fill="#ECEFF1" stroke="#263238" stroke-linecap="round" stroke-linejoin="round"/>
<path d="M193.782 278.239C193.782 278.239 203.514 280.195 208.191 283.305C212.868 286.416 213.634 287.193 214.801 293.426C215.967 299.658 211.69 316.388 211.69 324.953C211.69 333.518 205.458 385.675 205.458 389.975C205.458 394.276 209.746 403.206 209.358 406.316C209.192 408.553 209.456 410.8 210.135 412.937C210.135 412.937 212.857 414.881 209.358 415.294C205.858 415.706 205.458 416.071 202.348 414.516C199.237 412.961 197.635 405.173 194.949 402.841C192.263 400.508 190.672 397.786 190.672 395.831C190.672 393.875 196.893 386.5 196.893 386.5C196.893 386.5 196.115 375.602 195.715 366.259C195.314 356.916 191.002 336.287 191.002 327.38C191.002 318.473 196.893 297.408 196.893 297.408C196.893 297.408 181.777 299.257 175.886 295.37C169.995 291.482 176.664 274.351 193.782 278.239Z" fill="white" stroke="#263238" stroke-linecap="round" stroke-linejoin="round"/>
<path d="M194.949 402.794C194.949 402.794 187.88 396.726 187.668 398.269C187.456 399.813 187.408 411.983 187.927 413.267C188.445 414.552 202.406 415.859 209.652 417.155C216.898 418.451 214.046 413.786 212.491 412.749C210.936 411.712 194.949 402.794 194.949 402.794Z" fill="#ECEFF1" stroke="#263238" stroke-linecap="round" stroke-linejoin="round"/>
<path opacity="0.2" d="M194.949 402.794C194.949 402.794 187.88 396.726 187.668 398.269C187.456 399.813 187.408 411.983 187.927 413.267C188.445 414.552 202.406 415.859 209.652 417.155C216.898 418.451 214.046 413.786 212.491 412.749C210.936 411.712 194.949 402.794 194.949 402.794Z" fill="black"/>
<path d="M196.975 409.65C198.39 407.954 200.045 406.474 201.888 405.256C204.077 403.702 206.533 402.563 209.134 401.898L212.491 408.354C210.176 408.901 207.925 409.691 205.776 410.711C204.145 411.699 202.665 412.917 201.381 414.328C201.381 414.328 197.493 411.724 196.975 409.65Z" fill="#263238" stroke="#263238" stroke-linecap="round" stroke-linejoin="round"/>
<path d="M203.962 402.417C203.635 402.458 203.32 402.565 203.037 402.732C202.753 402.899 202.506 403.123 202.312 403.389C202.118 403.655 201.98 403.957 201.907 404.279C201.834 404.6 201.828 404.932 201.888 405.256C202.148 407.848 202.407 416.119 203.444 416.378C204.48 416.637 217.405 418.734 222.058 418.958C226.712 419.182 231.884 419.217 231.884 416.896C231.884 414.575 231.107 413.538 230.082 413.538C229.057 413.538 226.712 412.761 223.614 410.958C220.515 409.156 213.01 402.169 210.654 401.91C208.298 401.651 205.258 400.084 203.962 402.417Z" fill="#ECEFF1" stroke="#263238" stroke-linecap="round" stroke-linejoin="round"/>
<path opacity="0.2" d="M203.962 402.417C203.635 402.458 203.32 402.565 203.037 402.732C202.753 402.899 202.506 403.123 202.312 403.389C202.118 403.655 201.98 403.957 201.907 404.279C201.834 404.6 201.828 404.932 201.888 405.256C202.148 407.848 202.407 416.119 203.444 416.378C204.48 416.637 217.405 418.734 222.058 418.958C226.712 419.182 231.884 419.217 231.884 416.896C231.884 414.575 231.107 413.538 230.082 413.538C229.057 413.538 226.712 412.761 223.614 410.958C220.515 409.156 213.01 402.169 210.654 401.91C208.298 401.651 205.258 400.084 203.962 402.417Z" fill="black"/>
<path d="M95.5481 413.538C95.5481 412.373 95.2026 411.234 94.5554 410.266C93.9081 409.297 92.9881 408.542 91.9117 408.096C90.8353 407.65 89.6508 407.533 88.5081 407.761C87.3654 407.988 86.3158 408.549 85.492 409.373C84.6681 410.197 84.1071 411.246 83.8798 412.389C83.6525 413.532 83.7692 414.716 84.215 415.793C84.6609 416.869 85.4159 417.789 86.3846 418.436C87.3534 419.084 88.4923 419.429 89.6574 419.429C91.2197 419.429 92.718 418.808 93.8228 417.704C94.9275 416.599 95.5481 415.101 95.5481 413.538Z" fill="#263238" stroke="#263238" stroke-linecap="round" stroke-linejoin="round"/>
<path d="M89.6571 416.472C91.2837 416.472 92.6024 415.153 92.6024 413.526C92.6024 411.9 91.2837 410.581 89.6571 410.581C88.0304 410.581 86.7117 411.9 86.7117 413.526C86.7117 415.153 88.0304 416.472 89.6571 416.472Z" fill="white" stroke="#263238" stroke-linecap="round" stroke-linejoin="round"/>
<path d="M158.673 413.538C158.673 412.373 158.327 411.234 157.68 410.265C157.033 409.297 156.113 408.542 155.036 408.096C153.96 407.65 152.776 407.533 151.633 407.761C150.49 407.988 149.441 408.549 148.617 409.373C147.793 410.197 147.232 411.246 147.005 412.389C146.777 413.532 146.894 414.716 147.34 415.793C147.786 416.869 148.541 417.789 149.509 418.436C150.478 419.084 151.617 419.429 152.782 419.429C154.344 419.429 155.843 418.808 156.948 417.704C158.052 416.599 158.673 415.101 158.673 413.538Z" fill="#263238" stroke="#263238" stroke-linecap="round" stroke-linejoin="round"/>
<path d="M155.728 413.538C155.728 412.956 155.556 412.386 155.232 411.902C154.908 411.418 154.448 411.04 153.91 410.817C153.372 410.594 152.78 410.536 152.208 410.65C151.637 410.763 151.112 411.044 150.7 411.456C150.288 411.868 150.008 412.392 149.894 412.964C149.781 413.535 149.839 414.127 150.062 414.666C150.285 415.204 150.662 415.664 151.147 415.987C151.631 416.311 152.2 416.484 152.783 416.484C153.564 416.484 154.313 416.173 154.866 415.621C155.418 415.069 155.728 414.32 155.728 413.538Z" fill="white" stroke="#263238" stroke-linecap="round" stroke-linejoin="round"/>
<path d="M179.303 413.538C179.303 412.373 178.957 411.234 178.31 410.266C177.663 409.297 176.743 408.542 175.666 408.096C174.59 407.65 173.406 407.533 172.263 407.761C171.12 407.988 170.071 408.549 169.247 409.373C168.423 410.197 167.862 411.246 167.635 412.389C167.407 413.532 167.524 414.716 167.97 415.793C168.416 416.869 169.171 417.789 170.139 418.436C171.108 419.084 172.247 419.429 173.412 419.429C174.974 419.429 176.473 418.808 177.578 417.704C178.682 416.599 179.303 415.101 179.303 413.538Z" fill="#263238" stroke="#263238" stroke-linecap="round" stroke-linejoin="round"/>
<path d="M176.357 413.538C176.36 412.952 176.188 412.379 175.864 411.891C175.54 411.403 175.078 411.022 174.537 410.797C173.997 410.571 173.401 410.512 172.826 410.626C172.252 410.739 171.724 411.021 171.309 411.436C170.895 411.85 170.613 412.378 170.499 412.953C170.386 413.527 170.445 414.123 170.67 414.664C170.896 415.204 171.277 415.666 171.765 415.99C172.253 416.314 172.826 416.486 173.412 416.484C174.193 416.484 174.942 416.173 175.495 415.621C176.047 415.069 176.357 414.319 176.357 413.538Z" fill="white" stroke="#263238" stroke-linecap="round" stroke-linejoin="round"/>
<path d="M143.64 312.406H131.175V406.788H143.64V312.406Z" fill="#263238" stroke="#263238" stroke-linecap="round" stroke-linejoin="round"/>
<path d="M146.975 361.723H127.865V406.788H146.975V361.723Z" fill="#263238" stroke="#263238" stroke-linecap="round" stroke-linejoin="round"/>
<path d="M88.4441 405.009H176.487C177.737 405.009 178.936 405.505 179.82 406.389C180.704 407.273 181.2 408.471 181.2 409.721V410.346H83.7314V409.721C83.7314 408.471 84.228 407.273 85.1117 406.389C85.9955 405.505 87.1942 405.009 88.4441 405.009Z" fill="#263238" stroke="#263238" stroke-linecap="round" stroke-linejoin="round"/>
<path d="M124.684 275.906H108.661V301.732H124.684V275.906Z" fill="#263238" stroke="#263238" stroke-linecap="round" stroke-linejoin="round"/>
<path d="M189.317 298.162H85.4979C80.7285 298.162 76.8621 302.028 76.8621 306.798V309.119C76.8621 313.888 80.7285 317.755 85.4979 317.755H189.317C194.086 317.755 197.953 313.888 197.953 309.119V306.798C197.953 302.028 194.086 298.162 189.317 298.162Z" fill="#ECEFF1" stroke="#263238" stroke-linecap="round" stroke-linejoin="round"/>
<path opacity="0.1" d="M189.317 298.162H85.4979C80.7285 298.162 76.8621 302.028 76.8621 306.798V309.119C76.8621 313.888 80.7285 317.755 85.4979 317.755H189.317C194.086 317.755 197.953 313.888 197.953 309.119V306.798C197.953 302.028 194.086 298.162 189.317 298.162Z" fill="black"/>
<path d="M197.953 307.952C197.953 305.356 196.921 302.865 195.085 301.029C193.249 299.193 190.759 298.162 188.163 298.162H134.745C133.43 298.116 132.119 298.336 130.891 298.808C129.662 299.279 128.542 299.994 127.595 300.908C126.649 301.822 125.896 302.917 125.382 304.129C124.868 305.34 124.603 306.642 124.603 307.958C124.603 309.274 124.868 310.576 125.382 311.788C125.896 312.999 126.649 314.094 127.595 315.009C128.542 315.923 129.662 316.637 130.891 317.109C132.119 317.58 133.43 317.8 134.745 317.755H188.163C190.76 317.751 193.25 316.717 195.086 314.879C196.922 313.041 197.953 310.55 197.953 307.952Z" fill="#ECEFF1" stroke="#263238" stroke-miterlimit="10"/>
<path opacity="0.1" d="M197.953 308.259C197.953 306.973 197.7 305.7 197.208 304.512C196.716 303.324 195.995 302.245 195.085 301.336C194.176 300.426 193.097 299.705 191.909 299.213C190.721 298.721 189.448 298.468 188.163 298.468H134.745C133.43 298.422 132.119 298.642 130.891 299.114C129.662 299.586 128.542 300.3 127.595 301.214C126.649 302.128 125.896 303.224 125.382 304.435C124.868 305.646 124.603 306.949 124.603 308.264C124.603 309.58 124.868 310.883 125.382 312.094C125.896 313.305 126.649 314.401 127.595 315.315C128.542 316.229 129.662 316.943 130.891 317.415C132.119 317.887 133.43 318.106 134.745 318.061H188.163C189.449 318.061 190.723 317.807 191.912 317.314C193.101 316.822 194.18 316.099 195.09 315.189C195.999 314.279 196.72 313.198 197.211 312.009C197.702 310.82 197.955 309.545 197.953 308.259Z" fill="black"/>
<path d="M148.235 275.918H85.7929C84.333 275.919 82.8878 275.627 81.5425 275.06C80.1973 274.493 78.9792 273.662 77.9602 272.617C76.9411 271.571 76.1418 270.332 75.6093 268.973C75.0768 267.614 74.8219 266.162 74.8596 264.702L76.403 203.827C76.4707 200.974 77.6528 198.26 79.6963 196.267C81.7397 194.274 84.482 193.161 87.3363 193.165H138.857C141.471 193.16 144 194.093 145.985 195.795C147.969 197.496 149.278 199.853 149.672 202.437L159.039 263.359C159.273 264.914 159.168 266.501 158.733 268.012C158.297 269.523 157.541 270.923 156.516 272.115C155.49 273.307 154.219 274.264 152.79 274.92C151.361 275.577 149.808 275.917 148.235 275.918Z" fill="#ECEFF1" stroke="#263238" stroke-linecap="round" stroke-linejoin="round"/>
<path opacity="0.1" d="M148.235 275.918H85.7929C84.333 275.919 82.8878 275.627 81.5425 275.06C80.1973 274.493 78.9792 273.662 77.9602 272.617C76.9411 271.571 76.1418 270.332 75.6093 268.973C75.0768 267.614 74.8219 266.162 74.8596 264.702L76.403 203.827C76.4707 200.974 77.6528 198.26 79.6963 196.267C81.7397 194.274 84.482 193.161 87.3363 193.165H138.857C141.471 193.16 144 194.093 145.985 195.795C147.969 197.496 149.278 199.853 149.672 202.437L159.039 263.359C159.273 264.914 159.168 266.501 158.733 268.012C158.297 269.523 157.541 270.923 156.516 272.115C155.49 273.307 154.219 274.264 152.79 274.92C151.361 275.577 149.808 275.917 148.235 275.918Z" fill="black"/>
<path d="M127.841 314.632L100.461 332.658" stroke="#263238" stroke-linecap="round" stroke-linejoin="round"/>
<path d="M99.4241 329.889L94.7115 333.059C94.3425 333.31 94.0337 333.64 93.8073 334.025C93.5809 334.41 93.4424 334.841 93.4019 335.286C93.3614 335.73 93.4197 336.179 93.5728 336.598C93.7259 337.018 93.9699 337.398 94.2873 337.712L94.6879 338.089C95.2173 338.61 95.9208 338.916 96.6627 338.949C97.4046 338.982 98.1323 338.738 98.7054 338.266L103.017 334.732C103.338 334.467 103.599 334.139 103.787 333.768C103.974 333.397 104.083 332.991 104.106 332.577C104.129 332.162 104.066 331.747 103.922 331.357C103.777 330.968 103.553 330.613 103.265 330.314C102.777 329.802 102.124 329.48 101.422 329.402C100.719 329.325 100.012 329.497 99.4241 329.889Z" fill="#263238" stroke="#263238" stroke-linecap="round" stroke-linejoin="round"/>
<path d="M132.118 405.009H159.133C160.383 405.009 161.582 405.505 162.465 406.389C163.349 407.273 163.846 408.471 163.846 409.721V410.346H132.118V405.009Z" fill="#263238" stroke="#263238" stroke-linecap="round" stroke-linejoin="round"/>
<path d="M153.748 244.544C159.077 244.544 163.398 242.086 163.398 239.054C163.398 236.022 159.077 233.563 153.748 233.563C148.419 233.563 144.099 236.022 144.099 239.054C144.099 242.086 148.419 244.544 153.748 244.544Z" fill="white" stroke="#263238" stroke-linecap="round" stroke-linejoin="round"/>
<path d="M180.599 284.083C180.599 284.083 196.163 284.86 199.673 293.037C200.397 295.837 200.792 298.711 200.852 301.602C200.852 305.879 215.249 388.397 215.637 389.964C216.026 391.53 224.591 403.583 225.758 406.305C226.924 409.026 228.114 411.371 228.114 411.371C228.114 411.371 231.649 412.926 231.236 414.092C230.824 415.258 222.671 415.647 219.172 415.647C215.673 415.647 211.773 407.094 209.44 406.305C207.108 405.515 204.374 402.77 204.374 401.25C204.374 399.73 205.552 388.408 205.552 388.408C204.059 379.172 201.448 370.152 197.777 361.546C192.569 349.682 186.089 332.352 185.312 324.187C184.534 316.023 184.534 308.223 184.534 308.223L174.708 306.656C174.708 306.656 173.53 286.416 180.599 284.083Z" fill="white" stroke="#263238" stroke-linecap="round" stroke-linejoin="round"/>
<path d="M212.232 410.169C212.232 410.169 215.343 397.504 223.354 402.417L226.712 408.095C226.712 408.095 219.219 408.095 216.886 415.341C215.747 414.925 214.727 414.236 213.916 413.334C213.104 412.432 212.526 411.346 212.232 410.169Z" fill="#263238" stroke="#263238" stroke-linecap="round" stroke-linejoin="round"/>
<path d="M148.388 260.449L148.011 260.508C144.477 246.111 139.705 231.396 139.705 231.396C139.705 231.396 116.295 237.581 102.794 233.387C102.794 233.387 95.9251 267.212 95.9251 276.048C95.9251 283.117 94.4642 290.303 99.813 294.451C100.33 295.212 100.995 295.862 101.768 296.362C102.541 296.862 103.407 297.201 104.314 297.361C118.911 300.106 144.064 299.151 148.259 299.988C152.453 300.824 174.708 306.656 174.708 306.656C174.708 306.656 176.04 294.38 179.81 286.416C183.58 278.451 200.793 279.806 200.793 279.806L148.388 260.449Z" fill="#263238" stroke="#263238" stroke-linecap="round" stroke-linejoin="round"/>
<path d="M142.981 166.126C142.981 166.126 139.752 162.073 136.265 166.538C132.778 171.004 135.546 186.508 137.267 192.705C138.987 198.902 168.04 224.61 170.773 226.518C173.507 228.427 209.122 236.474 212.233 235.001C215.343 233.528 216.238 226.071 214.471 222.041C212.704 218.012 179.421 209.459 179.421 209.459L142.981 166.126Z" fill="white"/>
<mask id="mask5_1_7719" style="mask-type:luminance" maskUnits="userSpaceOnUse" x="134" y="164" width="82" height="72">
<path d="M142.981 166.126C142.981 166.126 139.752 162.073 136.265 166.538C132.778 171.004 135.546 186.508 137.267 192.705C138.987 198.902 168.04 224.61 170.773 226.518C173.507 228.427 209.122 236.474 212.233 235.001C215.343 233.528 216.238 226.071 214.471 222.041C212.704 218.012 179.421 209.459 179.421 209.459L142.981 166.126Z" fill="white"/>
</mask>
<g mask="url(#mask5_1_7719)">
<g style="mix-blend-mode:multiply" opacity="0.5">
<path d="M170.774 226.542C173.507 228.438 209.123 236.497 212.233 235.024C214.024 234.176 215.072 231.325 215.308 228.297C209.806 226.082 203.279 224.586 200.251 224.763C195.857 225.01 198.802 229.11 191.757 227.955C184.711 226.801 176.676 223.243 169.372 219.072C162.067 214.901 148.954 202.578 148.954 202.578L159.24 203.756L147.517 200.139L157.708 196.31L148.954 195.792C149.515 194.405 149.776 192.916 149.72 191.421C149.72 188.393 143.947 177.153 143.947 177.153L137.821 193.989C142.097 201.671 168.194 224.739 170.774 226.542Z" fill="#ECEFF1"/>
</g>
</g>
<path d="M142.981 166.126C142.981 166.126 139.752 162.073 136.265 166.538C132.778 171.004 135.546 186.508 137.267 192.705C138.987 198.902 168.04 224.61 170.773 226.518C173.507 228.427 209.122 236.474 212.233 235.001C215.343 233.528 216.238 226.071 214.471 222.041C212.704 218.012 179.421 209.459 179.421 209.459L142.981 166.126Z" stroke="#263238" stroke-linecap="round" stroke-linejoin="round"/>
<path d="M154.42 198.678L146.421 201.777L159.875 206.254" stroke="#263238" stroke-width="0.5" stroke-linecap="round" stroke-linejoin="round"/>
<path d="M212.315 222.006C211.287 222.217 210.346 222.733 209.617 223.488C208.887 224.243 208.403 225.201 208.227 226.235C207.532 229.923 211.161 233.069 211.161 233.069C211.161 233.069 218.807 235.696 221.092 229.534C223.378 223.373 216.015 221.77 212.315 222.006Z" fill="white"/>
<mask id="mask6_1_7719" style="mask-type:luminance" maskUnits="userSpaceOnUse" x="208" y="221" width="14" height="13">
<path d="M212.314 222.006C211.286 222.217 210.345 222.733 209.616 223.488C208.886 224.243 208.402 225.201 208.226 226.235C207.531 229.923 211.16 233.069 211.16 233.069C211.16 233.069 218.806 235.696 221.091 229.534C223.377 223.373 216.014 221.77 212.314 222.006Z" fill="white"/>
</mask>
<g mask="url(#mask6_1_7719)">
<g style="mix-blend-mode:multiply" opacity="0.5">
<path d="M211.16 233.069C211.16 233.069 217.687 235.295 220.479 230.807C216.643 228.672 212.543 227.052 208.285 225.988C208.26 226.069 208.24 226.152 208.226 226.235C207.531 229.923 211.16 233.069 211.16 233.069Z" fill="#ECEFF1"/>
</g>
</g>
<path d="M212.315 222.006C211.287 222.217 210.346 222.733 209.617 223.488C208.887 224.243 208.403 225.201 208.227 226.235C207.532 229.923 211.161 233.069 211.161 233.069C211.161 233.069 218.807 235.696 221.092 229.534C223.378 223.373 216.015 221.77 212.315 222.006Z" stroke="#263238" stroke-linecap="round" stroke-linejoin="round"/>
<path d="M234.9 230.524C237.036 230.867 239.003 231.892 240.508 233.446C242.734 235.955 240.92 236.98 239.495 236.615C238.069 236.25 233.38 229.322 234.9 230.524Z" fill="white" stroke="#263238" stroke-linecap="round" stroke-linejoin="round"/>
<path d="M233.416 230.064C235.485 230.7 237.291 231.99 238.564 233.74C240.426 236.521 238.482 237.275 237.127 236.733C235.772 236.191 232.072 228.662 233.416 230.064Z" fill="white" stroke="#263238" stroke-linecap="round" stroke-linejoin="round"/>
<path d="M220.079 224.574C220.079 224.574 216.544 225.87 216.156 228.109C216.092 228.808 216.174 229.512 216.397 230.177C216.62 230.843 216.979 231.454 217.452 231.973C217.452 231.973 220.986 234.801 222.329 235.095C223.672 235.39 226.688 237.11 227.042 235.472C227.395 233.835 223.814 232.385 223.814 232.385C223.814 232.385 230.659 232.798 230.883 234.176C231.106 235.555 233.581 236.98 235.772 237.016C237.963 237.051 235.312 232.621 234.782 231.514C234.252 230.406 224.462 224.657 220.079 224.574Z" fill="white" stroke="#263238" stroke-linecap="round" stroke-linejoin="round"/>
<path d="M107.884 155.134C107.884 155.134 86.3469 167.658 84.6622 168.482C82.9774 169.307 81.3044 182.267 81.3044 183.492C81.3044 184.717 102.841 233.387 102.841 233.387C102.841 233.387 108.143 237.876 123.659 237.876C139.175 237.876 140.377 235.519 140.377 235.519L141.614 214.984C141.614 214.984 146.916 201.105 147.328 198.655C147.741 196.204 142.981 166.126 142.981 166.126L120.949 151.435C120.949 151.435 111.972 146.156 107.884 155.134Z" fill="white"/>
<mask id="mask7_1_7719" style="mask-type:luminance" maskUnits="userSpaceOnUse" x="81" y="149" width="67" height="89">
<path d="M107.884 155.134C107.884 155.134 86.3469 167.658 84.6622 168.482C82.9774 169.307 81.3044 182.267 81.3044 183.492C81.3044 184.717 102.841 233.387 102.841 233.387C102.841 233.387 108.143 237.876 123.659 237.876C139.175 237.876 140.377 235.519 140.377 235.519L141.614 214.984C141.614 214.984 146.916 201.105 147.328 198.655C147.741 196.204 142.981 166.126 142.981 166.126L120.949 151.435C120.949 151.435 111.972 146.156 107.884 155.134Z" fill="white"/>
</mask>
<g mask="url(#mask7_1_7719)">
<g style="mix-blend-mode:multiply" opacity="0.5">
<path d="M86.8535 177.389C88.5383 174.691 104.043 164.583 104.043 164.583L109.769 161.213L117.109 150.08C114.163 149.538 110.228 149.985 107.884 155.134C107.884 155.134 86.2998 167.658 84.6622 168.471C83.0245 169.284 81.3044 182.255 81.3044 183.48C81.3044 183.751 82.3177 186.249 83.8964 190.007C84.509 184.435 85.6754 179.274 86.8535 177.389Z" fill="#ECEFF1"/>
</g>
</g>
<path d="M107.884 155.134C107.884 155.134 86.3469 167.658 84.6622 168.482C82.9774 169.307 81.3044 182.267 81.3044 183.492C81.3044 184.717 102.841 233.387 102.841 233.387C102.841 233.387 108.143 237.876 123.659 237.876C139.175 237.876 140.377 235.519 140.377 235.519L141.614 214.984C141.614 214.984 146.916 201.105 147.328 198.655C147.741 196.204 142.981 166.126 142.981 166.126L120.949 151.435C120.949 151.435 111.972 146.156 107.884 155.134Z" stroke="#263238" stroke-linecap="round" stroke-linejoin="round"/>
<path d="M115.105 174.562L121.385 181.336L120.077 210.142L129.267 212.569L130.233 199.986L133.614 213.052L140.389 206.278L125.744 180.853L127.676 173.113L119.453 163.923L114.139 176.506" fill="#263238"/>
<path d="M115.105 174.562L121.385 181.336L120.077 210.142L129.267 212.569L130.233 199.986L133.614 213.052L140.389 206.278L125.744 180.853L127.676 173.113L119.453 163.923L114.139 176.506" stroke="#263238" stroke-linecap="round" stroke-linejoin="round"/>
<path d="M103.677 155.205C103.677 155.205 105.02 164.17 106.811 168.164C108.602 172.158 112.643 178.933 112.643 178.933L121.161 170.403L129.691 176.294C129.691 176.294 128.796 161.496 125.65 154.769C122.504 148.041 107.259 141.302 103.677 155.205Z" fill="white" stroke="#263238" stroke-linecap="round" stroke-linejoin="round"/>
<g style="mix-blend-mode:multiply" opacity="0.5">
<path d="M109.768 161.213L118.286 148.254C116.732 147.573 115.068 147.174 113.374 147.075C111.913 147.37 110.263 147.735 108.52 148.124C106.387 149.302 104.62 151.517 103.677 155.193C103.677 155.193 104.349 159.717 105.386 163.782L109.768 161.213Z" fill="#ECEFF1"/>
</g>
<path d="M124.754 152.507C123.601 155.047 122.991 157.799 122.964 160.589C122.964 165.066 123.859 170.014 123.859 172.253V178.98C123.859 178.98 118.475 172.253 114.434 167.316C110.393 162.38 107.259 157.891 107.707 153.862C108.154 149.832 112.195 134.116 112.195 134.116C114.33 134.096 116.427 134.674 118.251 135.784C120.075 136.893 121.552 138.491 122.516 140.395C126.098 147.123 124.754 152.507 124.754 152.507Z" fill="white" stroke="#263238" stroke-linecap="round" stroke-linejoin="round"/>
<g style="mix-blend-mode:multiply" opacity="0.5">
<path d="M110.782 144.707L109.439 145.355C108.614 148.89 107.884 152.271 107.707 153.861C107.271 157.749 110.181 162.109 114.01 166.821L114.493 157.549L124.755 152.542L116.508 144.401L110.782 144.707Z" fill="#ECEFF1"/>
</g>
<path d="M133.472 147.688C133.472 147.688 130.503 153.19 133.708 153.414C136.913 153.638 136.217 150.893 136.677 149.985C137.136 149.078 139.198 151.164 138.055 155.476C136.913 159.788 131.187 162.804 127.746 159.364C124.306 155.923 125.237 152.295 126.38 149.526C127.523 146.757 132.129 145.402 133.472 147.688Z" fill="#263238" stroke="#263238" stroke-linecap="round" stroke-linejoin="round"/>
<path d="M127.04 99.0538C126.038 98.9125 124.99 98.8064 123.906 98.7475C119.959 98.5472 115.659 98.8064 112.584 101.269C106.198 106.382 107.27 116.655 107.73 123.807C108.248 131.924 108.142 143.765 114.233 149.644C124.519 159.564 140.6 148.949 140.6 137.191C140.6 132.219 140.789 124.643 141.119 122.947C141.548 120.851 141.844 118.73 142.002 116.597C142.709 105.769 136.571 100.409 127.04 99.0538Z" fill="white" stroke="#263238" stroke-linecap="round" stroke-linejoin="round"/>
<g style="mix-blend-mode:multiply" opacity="0.5">
<path d="M130.834 151.764C127.956 151.724 125.084 151.504 122.233 151.105C117.862 150.433 111.795 143.352 114.823 133.586C117.851 123.819 117.862 118.753 117.862 118.753L107.554 112.308C107.317 116.14 107.38 119.985 107.742 123.807C108.26 131.924 108.154 143.765 114.245 149.644C119.241 154.474 125.603 154.427 130.834 151.764Z" fill="#ECEFF1"/>
</g>
<path d="M124.99 130.393C125.635 130.393 126.157 129.496 126.157 128.39C126.157 127.284 125.635 126.387 124.99 126.387C124.346 126.387 123.824 127.284 123.824 128.39C123.824 129.496 124.346 130.393 124.99 130.393Z" fill="#263238"/>
<path d="M136.501 128.885C136.43 129.992 135.841 130.852 135.205 130.805C134.568 130.758 134.097 129.839 134.168 128.732C134.238 127.624 134.816 126.764 135.464 126.811C136.112 126.858 136.571 127.777 136.501 128.885Z" fill="#263238"/>
<path d="M121.373 123.595C121.373 123.595 123.729 118.623 127.511 120.967L121.373 123.595Z" fill="white"/>
<path d="M121.373 123.595C121.373 123.595 123.729 118.623 127.511 120.967" stroke="#263238" stroke-linecap="round" stroke-linejoin="round"/>
<path d="M133.649 121.839C133.649 121.839 136.441 118.635 138.032 123.889L133.649 121.839Z" fill="white"/>
<path d="M133.649 121.839C133.649 121.839 136.441 118.635 138.032 123.889" stroke="#263238" stroke-linecap="round" stroke-linejoin="round"/>
<path d="M131.835 132.372C131.835 132.572 131.835 132.773 131.835 132.949C132.129 134.999 133.59 136.484 133.013 137.332C132.435 138.18 129.478 138.51 129.478 138.51" fill="white"/>
<path d="M131.835 132.372C131.835 132.572 131.835 132.773 131.835 132.949C132.129 134.999 133.59 136.484 133.013 137.332C132.435 138.18 129.478 138.51 129.478 138.51" stroke="#263238" stroke-linecap="round" stroke-linejoin="round"/>
<path d="M128.383 143.187C128.383 143.187 123.234 144.778 121.314 140.619L128.383 143.187Z" fill="white"/>
<path d="M128.383 143.187C128.383 143.187 123.234 144.778 121.314 140.619" stroke="#263238" stroke-linecap="round" stroke-linejoin="round"/>
<path d="M123.988 133.291C127.333 133.291 130.044 130.58 130.044 127.235C130.044 123.891 127.333 121.179 123.988 121.179C120.644 121.179 117.932 123.891 117.932 127.235C117.932 130.58 120.644 133.291 123.988 133.291Z" stroke="#263238" stroke-width="0.5" stroke-linecap="round" stroke-linejoin="round"/>
<path d="M137.691 133.291C140.69 133.291 143.122 130.58 143.122 127.235C143.122 123.891 140.69 121.18 137.691 121.18C134.691 121.18 132.259 123.891 132.259 127.235C132.259 130.58 134.691 133.291 137.691 133.291Z" stroke="#263238" stroke-width="0.5" stroke-linecap="round" stroke-linejoin="round"/>
<path d="M117.933 127.235L109.285 127.601" stroke="#263238" stroke-width="0.5" stroke-linecap="round" stroke-linejoin="round"/>
<path d="M143.122 127.235H140.907" stroke="#263238" stroke-width="0.5" stroke-linecap="round" stroke-linejoin="round"/>
<path d="M130.033 125.385H132.542" stroke="#263238" stroke-width="0.5" stroke-linecap="round" stroke-linejoin="round"/>
<path d="M137.725 91.9024C133.204 91.113 128.634 90.6406 124.047 90.4887C124.047 90.4887 116.024 86.7068 105.196 90.9599C89.7038 97.0156 90.0454 117.704 93.8862 130.888C95.0644 134.87 97.833 140.914 95.2882 144.908C93.6859 147.429 89.1029 146.086 89.798 142.622C90.4931 139.158 91.6242 140.336 92.5431 139.877C93.4621 139.417 92.0836 138.958 90.0219 138.275C87.9601 137.591 86.1575 139.453 85.8983 143.989C85.215 156.359 103.441 164.547 110.392 153.732C113.22 149.019 110.71 140.831 109.485 134.881C109.096 132.822 108.832 130.741 108.696 128.649C110.895 128.438 112.935 127.408 114.41 125.763C115.502 124.266 116.434 122.659 117.19 120.967C118.015 120.967 118.875 121.026 119.817 121.121C129.243 122.063 132.094 106.017 132.094 106.017C132.094 106.017 136.806 114.982 138.22 118.293L139.634 121.592C139.634 121.592 143.416 122.063 147.186 114.04C150.956 106.017 146.691 93.3516 137.725 91.9024Z" fill="#263238" stroke="#263238" stroke-linecap="round" stroke-linejoin="round"/>
<path d="M131.552 102.247C131.552 102.247 143.146 106.229 143.499 113.109C143.852 119.99 142.05 120.343 142.05 120.343" stroke="white" stroke-width="0.5" stroke-miterlimit="10" stroke-linecap="round"/>
<path d="M130.115 99.7136C130.115 99.7136 140.966 97.1806 144.594 104.426" stroke="white" stroke-width="0.5" stroke-miterlimit="10" stroke-linecap="round"/>
<path d="M116.72 92.4679C116.72 92.4679 127.571 97.8992 129.385 102.977C131.199 108.055 121.786 117.81 115.624 119.624C109.462 121.439 104.773 119.259 100.426 122.523C96.0785 125.786 97.8929 134.823 97.8929 134.823" stroke="white" stroke-width="0.5" stroke-miterlimit="10" stroke-linecap="round"/>
<path d="M94.5938 124.69C94.5938 124.69 91.6956 117.81 97.8573 114.193C104.019 110.576 109.439 114.193 116.319 109.846C123.199 105.498 124.283 100.079 124.283 100.079" stroke="white" stroke-width="0.5" stroke-miterlimit="10" stroke-linecap="round"/>
<path d="M110.534 130.935C110.534 130.935 106.728 121.686 102.911 124.95C99.094 128.213 105.633 136.92 109.98 135.836" fill="white"/>
<path d="M110.534 130.935C110.534 130.935 106.728 121.686 102.911 124.95C99.094 128.213 105.633 136.92 109.98 135.836" stroke="#263238" stroke-linecap="round" stroke-linejoin="round"/>
<g opacity="0.37">
<path d="M110.534 130.935C110.534 130.935 106.728 121.686 102.911 124.95C99.094 128.213 105.633 136.92 109.98 135.836" fill="#ECEFF1"/>
<path d="M110.534 130.935C110.534 130.935 106.728 121.686 102.911 124.95C99.094 128.213 105.633 136.92 109.98 135.836" stroke="#263238" stroke-linecap="round" stroke-linejoin="round"/>
</g>
<path d="M87.2893 169.413C87.2893 169.413 85.4396 168.023 81.3279 171.121C77.2161 174.22 73.3871 188.311 75.9555 194.284C78.5239 200.257 85.3807 231.313 88.5735 233.01C91.7663 234.706 126.098 234.565 130.151 233.611C134.203 232.656 137.031 227.355 136.348 222.772C135.664 218.189 131.14 216.999 129.809 216.963C128.478 216.928 101.133 215.373 101.133 215.373L92.6381 179.486" fill="white"/>
<mask id="mask8_1_7719" style="mask-type:luminance" maskUnits="userSpaceOnUse" x="75" y="169" width="62" height="66">
<path d="M87.2893 169.413C87.2893 169.413 85.4396 168.023 81.3279 171.121C77.2161 174.22 73.3871 188.311 75.9555 194.284C78.5239 200.257 85.3807 231.313 88.5735 233.01C91.7663 234.706 126.098 234.565 130.151 233.611C134.203 232.656 137.031 227.355 136.348 222.772C135.664 218.189 131.14 216.999 129.809 216.963C128.478 216.928 101.133 215.373 101.133 215.373L92.6381 179.486" fill="white"/>
</mask>
<g mask="url(#mask8_1_7719)">
<g style="mix-blend-mode:multiply" opacity="0.5">
<path d="M131.234 225.918C129.279 223.502 98.1519 227.708 94.8295 225.918C91.5071 224.127 89.9048 220.722 92.3318 218.424C94.7588 216.127 87.6899 215.609 87.7488 213.582C87.8077 211.556 91.8606 211.002 91.6014 208.292C91.3422 205.583 82.5885 205.017 82.8006 197.265C83.0126 189.513 84.9566 180.134 86.712 177.484C87.6842 176.366 88.8015 175.383 90.0344 174.562L87.2893 169.401C87.2893 169.401 85.4396 168.011 81.3279 171.11C77.2161 174.208 73.3871 188.311 75.9555 194.284C78.5239 200.257 85.3807 231.313 88.5735 233.01C91.7663 234.707 126.098 234.565 130.151 233.611C131.461 233.192 132.651 232.465 133.623 231.491C134.594 230.518 135.319 229.326 135.735 228.015C133.555 227.39 131.812 226.624 131.234 225.918Z" fill="#ECEFF1"/>
</g>
</g>
<path d="M87.2893 169.413C87.2893 169.413 85.4396 168.023 81.3279 171.121C77.2161 174.22 73.3871 188.311 75.9555 194.284C78.5239 200.257 85.3807 231.313 88.5735 233.01C91.7663 234.706 126.098 234.565 130.151 233.611C134.203 232.656 137.031 227.355 136.348 222.772C135.664 218.189 131.14 216.999 129.809 216.963C128.478 216.928 101.133 215.373 101.133 215.373L92.6381 179.486" stroke="#263238" stroke-linecap="round" stroke-linejoin="round"/>
<path d="M90.7295 221.994C92.7559 216.033 101.121 215.915 101.121 215.915C97.7846 215.041 94.2963 214.916 90.9062 215.55" stroke="#263238" stroke-width="0.5" stroke-linecap="round" stroke-linejoin="round"/>
<path d="M134.863 218.448C133.625 218.978 132.568 219.858 131.823 220.979C131.078 222.101 130.677 223.416 130.668 224.763C130.527 229.593 133.732 230.488 134.521 231.042C135.31 231.596 140.07 234.153 141.99 232.586C143.911 231.019 146.173 226.801 144.347 223.266C142.521 219.732 136.736 218.495 134.863 218.448Z" fill="white"/>
<mask id="mask9_1_7719" style="mask-type:luminance" maskUnits="userSpaceOnUse" x="130" y="218" width="16" height="16">
<path d="M134.864 218.448C133.626 218.978 132.569 219.858 131.824 220.98C131.079 222.102 130.678 223.416 130.669 224.763C130.528 229.594 133.733 230.489 134.522 231.043C135.311 231.596 140.071 234.153 141.991 232.586C143.912 231.019 146.174 226.801 144.348 223.267C142.522 219.732 136.737 218.495 134.864 218.448Z" fill="white"/>
</mask>
<g mask="url(#mask9_1_7719)">
<g style="mix-blend-mode:multiply" opacity="0.5">
<path d="M141.992 232.586C142.481 232.171 142.916 231.696 143.288 231.172L139.282 229.04C135.606 228.026 132.107 226.99 131.235 225.918C131.083 225.758 130.892 225.64 130.681 225.576C130.905 229.699 133.768 230.524 134.522 231.043C135.276 231.561 140.071 234.153 141.992 232.586Z" fill="#ECEFF1"/>
</g>
</g>
<path d="M134.863 218.448C133.625 218.978 132.568 219.858 131.823 220.979C131.078 222.101 130.677 223.416 130.668 224.763C130.527 229.593 133.732 230.488 134.521 231.042C135.31 231.596 140.07 234.153 141.99 232.586C143.911 231.019 146.173 226.801 144.347 223.266C142.521 219.732 136.736 218.495 134.863 218.448Z" stroke="#263238" stroke-linecap="round" stroke-linejoin="round"/>
<path d="M141.496 222.772C141.496 222.772 138.575 223.891 138.174 226.094C137.773 228.297 137.915 229.487 138.421 229.629C138.928 229.77 140.613 230.536 140.613 230.536L145.808 233.234C145.808 233.234 149.932 237.946 151.287 238.323C152.642 238.7 151.475 237.817 151.287 236.792C150.697 235.324 149.934 233.931 149.013 232.645L155.163 238.088C155.163 238.088 157.189 238.818 156.718 237.275C156.247 235.731 153.101 232.562 153.101 232.562L158.91 237.829C158.91 237.829 160.088 238.37 160.088 237.687C160.154 237.345 160.13 236.991 160.019 236.661C159.907 236.33 159.712 236.034 159.451 235.802C158.792 235.272 154.833 230.736 154.833 230.736L160.347 234.117C160.347 234.117 161.525 235.684 162.35 235.708C163.174 235.731 162.703 235.201 162.079 233.352C161.454 231.502 157.26 228.792 155.764 227.732C154.268 226.671 146.091 222.901 141.496 222.772Z" fill="white" stroke="#263238" stroke-linecap="round" stroke-linejoin="round"/>
<path d="M405.097 221.358H359.078L367.36 194.496H413.379L405.097 221.358Z" fill="#263238" stroke="#263238" stroke-linecap="round" stroke-linejoin="round"/>
<path d="M401.479 223.891H355.472L363.755 197.017H409.762L401.479 223.891Z" fill="white" stroke="#263238" stroke-linecap="round" stroke-linejoin="round"/>
<path d="M335.362 213.252H411.188C413.063 213.252 414.861 213.997 416.187 215.323C417.512 216.648 418.257 218.446 418.257 220.321V240.091H335.362V213.252Z" fill="#263238" stroke="#263238" stroke-linecap="round" stroke-linejoin="round"/>
<path d="M404.684 213.252H321.754V240.126H404.684V213.252Z" fill="white" stroke="#263238" stroke-linecap="round" stroke-linejoin="round"/>
<path d="M386.022 232.916H319.774V236.462H386.022V232.916Z" fill="white" stroke="#263238" stroke-linecap="round" stroke-linejoin="round"/>
<path d="M386.022 229.369H333.912V232.916H386.022V229.369Z" fill="#263238" stroke="#263238" stroke-linecap="round" stroke-linejoin="round"/>
<path d="M320.046 237.51H267.771V239.949H320.046V237.51Z" fill="white" stroke="#263238" stroke-linecap="round" stroke-linejoin="round"/>
<path d="M360.244 151.187H247.565V223.856H360.244V151.187Z" fill="white" stroke="#263238" stroke-linecap="round" stroke-linejoin="round"/>
<path d="M360.244 151.187H253.716V223.856H360.244V151.187Z" fill="#263238" stroke="#263238" stroke-linecap="round" stroke-linejoin="round"/>
<path d="M321.259 184.953H296.6V241.057H321.259V184.953Z" fill="white" stroke="#263238" stroke-linecap="round" stroke-linejoin="round"/>
<path d="M323.534 184.953H298.875V241.057H323.534V184.953Z" fill="#263238" stroke="#263238" stroke-linecap="round" stroke-linejoin="round"/>
<path d="M297.236 185.613H324.11V224.032" stroke="white" stroke-linejoin="round"/>
<path d="M246.788 236.203H171.303V240.149H246.788V236.203Z" fill="white" stroke="#263238" stroke-linecap="round" stroke-linejoin="round"/>
<path d="M266.298 236.203H190.814V240.149H266.298V236.203Z" fill="white" stroke="#263238" stroke-linecap="round" stroke-linejoin="round"/>
<path d="M168.394 246.653H52.7344L47.2442 415.671C47.2139 416.139 47.2772 416.608 47.4302 417.052C47.5832 417.495 47.823 417.904 48.1355 418.253C48.4481 418.603 48.8271 418.887 49.2505 419.089C49.674 419.291 50.1334 419.407 50.6019 419.429C51.4685 419.404 52.2941 419.055 52.9157 418.451C53.5374 417.846 53.9099 417.031 53.9597 416.166L64.9989 278.051C65.139 275.587 66.1963 273.266 67.9625 271.543C69.7288 269.82 72.076 268.822 74.542 268.743H146.586C149.051 268.822 151.397 269.821 153.161 271.544C154.925 273.267 155.98 275.588 156.117 278.051L167.168 416.142C167.218 417.005 167.589 417.819 168.208 418.423C168.827 419.027 169.65 419.377 170.514 419.405C170.983 419.384 171.443 419.27 171.867 419.07C172.291 418.87 172.67 418.587 172.984 418.238C173.298 417.889 173.539 417.482 173.693 417.039C173.848 416.596 173.913 416.127 173.884 415.659L168.394 246.653Z" fill="#ECEFF1" stroke="#263238" stroke-linecap="round" stroke-linejoin="round"/>
<path d="M168.653 254.429L168.394 246.653H130.563H90.5651H52.7345L52.4753 254.429H168.653Z" fill="#263238" stroke="#263238" stroke-linecap="round" stroke-linejoin="round"/>
<path d="M431.782 246.653H316.087L310.609 415.671C310.58 416.138 310.645 416.606 310.798 417.048C310.952 417.49 311.192 417.897 311.505 418.246C311.817 418.594 312.196 418.877 312.618 419.079C313.041 419.28 313.499 419.395 313.967 419.417C314.831 419.389 315.654 419.039 316.273 418.435C316.892 417.831 317.263 417.017 317.313 416.154L328.387 278.051C328.527 275.587 329.585 273.266 331.351 271.543C333.117 269.821 335.464 268.822 337.93 268.743H409.974C412.439 268.822 414.785 269.821 416.549 271.544C418.314 273.267 419.368 275.588 419.506 278.051L430.557 416.142C430.601 417.01 430.969 417.829 431.589 418.438C432.208 419.047 433.034 419.401 433.903 419.429C434.37 419.407 434.829 419.291 435.251 419.09C435.674 418.889 436.052 418.606 436.365 418.258C436.677 417.909 436.917 417.502 437.071 417.06C437.225 416.618 437.289 416.15 437.26 415.683L431.782 246.653Z" fill="#ECEFF1" stroke="#263238" stroke-linecap="round" stroke-linejoin="round"/>
<path d="M432.547 254.429L432.3 246.653H394.469H354.459H316.629L316.381 254.429H432.547Z" fill="#263238" stroke="#263238" stroke-linecap="round" stroke-linejoin="round"/>
<path d="M439.404 240.126H43.3562V249.033H439.404V240.126Z" fill="white" stroke="#263238" stroke-linecap="round" stroke-linejoin="round"/>
<path d="M439.416 240.126H155.552V249.033H439.416V240.126Z" fill="white" stroke="#263238" stroke-linecap="round" stroke-linejoin="round"/>
</svg>
