<svg width="301" height="226" viewBox="0 0 301 226" fill="none" xmlns="http://www.w3.org/2000/svg">
<g clip-path="url(#clip0_1_7425)">
<g opacity="0.5">
<path d="M149.24 61.7081L124.198 61.4606" stroke="#171716" stroke-width="0.375" stroke-miterlimit="10"/>
<path d="M124.446 36.4181L149.488 36.6656" stroke="#171716" stroke-width="0.375" stroke-miterlimit="10"/>
<path d="M74.3681 35.9231L99.4106 36.1706L99.1631 61.2131L74.1206 60.9656" stroke="#171716" stroke-width="0.375" stroke-miterlimit="10"/>
<path d="M124.873 11.3831L124.626 36.4256L99.4106 36.1706L99.6581 11.1356" stroke="#171716" stroke-width="0.375" stroke-miterlimit="10"/>
<path d="M99.5832 36.1781L124.626 36.4256L124.378 61.4606L99.3357 61.2131" stroke="#171716" stroke-width="0.375" stroke-miterlimit="10"/>
</g>
<g opacity="0.5">
<path d="M92.8105 180.193L117.853 180.508" stroke="#171716" stroke-width="0.375" stroke-miterlimit="10"/>
<path d="M117.538 205.558L92.5032 205.243" stroke="#171716" stroke-width="0.375" stroke-miterlimit="10"/>
<path d="M167.616 206.181L142.573 205.866L142.888 180.816L167.931 181.131" stroke="#171716" stroke-width="0.375" stroke-miterlimit="10"/>
<path d="M117.051 225.201L117.366 205.551L142.573 205.866L142.266 225.516" stroke="#171716" stroke-width="0.375" stroke-miterlimit="10"/>
<path d="M142.401 205.866L117.366 205.551L117.681 180.501L142.716 180.816" stroke="#171716" stroke-width="0.375" stroke-miterlimit="10"/>
</g>
<g opacity="0.5">
<path d="M248.113 147.351L248.353 122.316" stroke="#171716" stroke-width="0.375" stroke-miterlimit="10"/>
<path d="M273.395 122.563L273.148 147.598" stroke="#171716" stroke-width="0.375" stroke-miterlimit="10"/>
<path d="M273.891 72.4856L273.643 97.5206L248.608 97.2731L248.856 72.2381" stroke="#171716" stroke-width="0.375" stroke-miterlimit="10"/>
<path d="M293.031 122.983L273.396 122.736L273.643 97.5206L293.278 97.7681" stroke="#171716" stroke-width="0.375" stroke-miterlimit="10"/>
<path d="M273.643 97.7006L273.396 122.736L248.353 122.488L248.601 97.4531" stroke="#171716" stroke-width="0.375" stroke-miterlimit="10"/>
</g>
<path d="M250.843 55.2806H55.7456V184.446H250.843V55.2806Z" fill="#171716"/>
<path d="M243.816 49.8731H48.718V179.038H243.816V49.8731Z" fill="white"/>
<path d="M185.931 197.361C185.931 197.361 185.811 147.861 187.498 146.706C189.186 145.551 190.438 153.313 191.646 152.083C192.853 150.853 190.371 133.296 192.396 132.583C195.111 131.601 196.896 149.083 196.896 149.083C196.896 149.083 196.101 129.756 198.703 129.583C200.541 129.463 202.656 149.451 202.656 149.451C202.656 149.451 203.151 131.271 205.063 131.181C206.976 131.091 208.813 148.911 208.813 148.911C208.813 148.911 207.966 135.411 210.156 134.998C212.346 134.586 221.016 168.688 224.353 195.036" fill="#FFCBC2"/>
<path d="M178.963 186.606L227.593 181.738L229.768 199.033L178.963 202.821V186.606Z" fill="white"/>
<path d="M178.963 195.793L232.048 190.386L234.088 210.381L178.963 214.168V195.793Z" fill="#171716"/>
<path d="M104.023 71.8856V98.6906H77.218C77.267 103.922 78.8599 109.022 81.7968 113.351C84.7336 117.68 88.8837 121.046 93.7262 123.025C98.5687 125.005 103.888 125.51 109.016 124.477C114.145 123.444 118.854 120.92 122.553 117.221C126.253 113.522 128.777 108.813 129.809 103.684C130.842 98.5555 130.337 93.2363 128.358 88.3938C126.378 83.5513 123.013 79.4012 118.684 76.4644C114.354 73.5275 109.254 71.9346 104.023 71.8856V71.8856Z" stroke="#171716" stroke-width="0.75" stroke-miterlimit="10"/>
<path d="M99.3281 67.1756H99.0731C92.0296 67.1756 85.2746 69.9736 80.2941 74.9541C75.3136 79.9346 72.5156 86.6896 72.5156 93.7331C72.5156 93.8156 72.5156 93.9056 72.5156 93.9881H99.3281V67.1756Z" fill="#E5EAF9" stroke="#171716" stroke-width="0.75" stroke-miterlimit="10"/>
<path d="M147.081 126.561L172.251 98.8257L190.236 112.693L219.516 85.9781" stroke="#171716" stroke-width="0.75" stroke-miterlimit="10"/>
<path d="M222.156 82.8431L216.973 83.6831L221.796 88.0781L222.156 82.8431Z" fill="#171716"/>
<path d="M71.9607 140.938H134.653" stroke="#171716" stroke-width="3" stroke-miterlimit="10" stroke-linecap="round"/>
<path d="M71.9607 151.746H157.888" stroke="#171716" stroke-width="3" stroke-miterlimit="10" stroke-linecap="round"/>
<path d="M71.9607 162.553H126.006" stroke="#171716" stroke-width="3" stroke-miterlimit="10" stroke-linecap="round"/>
<path opacity="0.1" d="M233.008 18.5306H154.108V59.6006H233.008V18.5306Z" fill="#171716"/>
<path d="M229.761 15.8306H150.861V56.9006H229.761V15.8306Z" fill="#927CB9"/>
<path d="M190.138 45.5156C190.146 45.5854 190.146 45.6558 190.138 45.7256C190.14 45.8667 190.115 46.0068 190.063 46.1381C190.034 46.2039 189.999 46.2667 189.958 46.3256C189.921 46.3868 189.876 46.4423 189.823 46.4906C189.622 46.6882 189.355 46.8033 189.073 46.8131H188.863C188.796 46.8131 188.728 46.8131 188.661 46.7456L188.473 46.6481C188.414 46.6114 188.361 46.5659 188.316 46.5131C188.265 46.4635 188.219 46.4081 188.181 46.3481C188.141 46.2897 188.108 46.2268 188.083 46.1606C188.052 46.0964 188.029 46.0283 188.016 45.9581C188.008 45.8883 188.008 45.8179 188.016 45.7481C188.008 45.6783 188.008 45.6079 188.016 45.5381C188.038 45.465 188.068 45.3946 188.106 45.3281C188.128 45.263 188.161 45.2021 188.203 45.1481C188.242 45.0857 188.287 45.0279 188.338 44.9756L188.496 44.8406L188.683 44.7431L188.886 44.6831C189.06 44.6466 189.24 44.6542 189.41 44.7053C189.581 44.7564 189.736 44.8493 189.861 44.9756C189.914 45.0262 189.959 45.0843 189.996 45.1481C190.037 45.2029 190.07 45.2636 190.093 45.3281C190.119 45.3875 190.134 45.4509 190.138 45.5156ZM195.816 26.3456C194.909 25.2233 193.688 24.3969 192.31 23.972C190.931 23.5472 189.457 23.5432 188.076 23.9606C186.817 24.2588 185.679 24.9318 184.811 25.8906C183.944 26.8494 183.387 28.0489 183.216 29.3306C183.204 29.5363 183.271 29.7388 183.403 29.8969C183.535 30.055 183.722 30.1569 183.927 30.1817C184.131 30.2065 184.337 30.1525 184.504 30.0306C184.67 29.9088 184.783 29.7282 184.821 29.5256C184.954 28.5632 185.38 27.6648 186.04 26.9515C186.699 26.2381 187.562 25.744 188.511 25.5356C189.578 25.2168 190.715 25.2182 191.782 25.5395C192.848 25.8608 193.797 26.4879 194.511 27.3431C195.021 27.9411 195.393 28.6446 195.599 29.4032C195.805 30.1618 195.841 30.9566 195.703 31.7306C195.45 32.7578 194.986 33.7211 194.341 34.5591C193.695 35.3971 192.882 36.0915 191.953 36.5981C189.516 38.0981 188.203 39.9356 188.203 42.0056C188.203 42.2204 188.289 42.4265 188.44 42.5784C188.592 42.7303 188.798 42.8156 189.013 42.8156C189.228 42.8156 189.434 42.7303 189.586 42.5784C189.738 42.4265 189.823 42.2204 189.823 42.0056C189.823 40.5056 190.821 39.2006 192.771 38.0156C193.889 37.386 194.865 36.533 195.639 35.5098C196.413 34.4866 196.969 33.3151 197.271 32.0681C197.454 31.0681 197.419 30.0403 197.168 29.0551C196.917 28.07 196.455 27.1508 195.816 26.3606V26.3456Z" fill="#F3F5FB"/>
<path d="M55.7457 77.4356H7.37817V142.288H55.7457V77.4356Z" fill="#B5A9E0" stroke="#171716" stroke-width="0.75" stroke-miterlimit="10"/>
<path d="M55.7457 73.6556H7.37817V138.508H55.7457V73.6556Z" fill="#E5EAF9" stroke="#171716" stroke-width="0.75" stroke-miterlimit="10"/>
<path d="M51.0206 79.3256H12.1106V89.0531H51.0206V79.3256Z" fill="white" stroke="#171716" stroke-width="0.75" stroke-miterlimit="10"/>
<path fill-rule="evenodd" clip-rule="evenodd" d="M50.5781 133.266H12.3281C12.2406 133.266 12.1567 133.231 12.0948 133.169C12.0329 133.107 11.9981 133.023 11.9981 132.936V113.818V94.7006C11.9971 94.657 12.0049 94.6136 12.0212 94.5731C12.0374 94.5326 12.0617 94.4959 12.0925 94.465C12.1234 94.4342 12.1601 94.4099 12.2006 94.3937C12.2411 94.3774 12.2845 94.3696 12.3281 94.3706H50.5781C50.6657 94.3706 50.7496 94.4054 50.8115 94.4673C50.8734 94.5292 50.9081 94.6131 50.9081 94.7006V113.818V132.936C50.9081 133.023 50.8734 133.107 50.8115 133.169C50.7496 133.231 50.6657 133.266 50.5781 133.266ZM31.7831 132.606H50.2256V114.141H31.7606L31.7831 132.606ZM31.1231 132.606V114.141H12.6356V132.606H31.1231ZM31.7831 113.481H50.2256V95.0156H31.7606L31.7831 113.481ZM12.6581 113.481H31.0781V95.0156H12.6356L12.6581 113.481ZM18.5906 104.578C18.5031 104.578 18.4192 104.543 18.3573 104.481C18.2954 104.42 18.2606 104.336 18.2606 104.248C18.2606 104.161 18.2954 104.077 18.3573 104.015C18.4192 103.953 18.5031 103.918 18.5906 103.918H25.1831C25.2268 103.917 25.2701 103.925 25.3106 103.941C25.3511 103.957 25.3879 103.982 25.4188 104.012C25.4496 104.043 25.4739 104.08 25.4901 104.121C25.5063 104.161 25.5142 104.205 25.5131 104.248C25.5131 104.336 25.4784 104.42 25.4165 104.481C25.3546 104.543 25.2707 104.578 25.1831 104.578H18.5906ZM18.5906 123.703C18.5031 123.703 18.4192 123.668 18.3573 123.606C18.2954 123.545 18.2606 123.461 18.2606 123.373C18.2606 123.286 18.2954 123.202 18.3573 123.14C18.4192 123.078 18.5031 123.043 18.5906 123.043H21.5906V120.043C21.5906 119.956 21.6254 119.872 21.6873 119.81C21.7492 119.748 21.8331 119.713 21.9206 119.713C22.0082 119.713 22.0921 119.748 22.154 119.81C22.2159 119.872 22.2506 119.956 22.2506 120.043V123.043H25.2131C25.2568 123.042 25.3001 123.05 25.3406 123.066C25.3811 123.082 25.4179 123.107 25.4488 123.137C25.4796 123.168 25.5039 123.205 25.5201 123.246C25.5363 123.286 25.5442 123.33 25.5431 123.373C25.5431 123.461 25.5084 123.545 25.4465 123.606C25.3846 123.668 25.3007 123.703 25.2131 123.703H22.1981V126.666C22.1981 126.753 22.1634 126.837 22.1015 126.899C22.0396 126.961 21.9557 126.996 21.8681 126.996C21.8245 126.997 21.7811 126.989 21.7406 126.973C21.7001 126.956 21.6634 126.932 21.6325 126.901C21.6017 126.87 21.5774 126.834 21.5612 126.793C21.5449 126.753 21.5371 126.709 21.5381 126.666V123.703H18.5906ZM37.4831 101.203C37.4299 101.14 37.4023 101.059 37.4058 100.976C37.4093 100.894 37.4437 100.816 37.5021 100.757C37.5606 100.699 37.6388 100.664 37.7214 100.661C37.804 100.657 37.8849 100.685 37.9481 100.738L41.0156 103.798L44.0756 100.738C44.1375 100.677 44.221 100.642 44.3081 100.642C44.3952 100.642 44.4788 100.677 44.5406 100.738C44.5729 100.768 44.5987 100.804 44.6163 100.844C44.634 100.884 44.6431 100.927 44.6431 100.971C44.6431 101.014 44.634 101.058 44.6163 101.098C44.5987 101.138 44.5729 101.174 44.5406 101.203L41.4806 104.271L44.5406 107.331C44.5729 107.36 44.5987 107.396 44.6163 107.436C44.634 107.476 44.6431 107.519 44.6431 107.563C44.6431 107.607 44.634 107.65 44.6163 107.69C44.5987 107.73 44.5729 107.766 44.5406 107.796C44.4788 107.857 44.3952 107.891 44.3081 107.891C44.221 107.891 44.1375 107.857 44.0756 107.796L41.0156 104.736L37.9256 107.766C37.8624 107.819 37.7815 107.847 37.6989 107.843C37.6163 107.839 37.5381 107.805 37.4796 107.747C37.4212 107.688 37.3868 107.61 37.3833 107.527C37.3798 107.445 37.4074 107.364 37.4606 107.301L40.5206 104.241L37.4831 101.203ZM37.7156 121.918C37.6281 121.918 37.5442 121.883 37.4823 121.821C37.4204 121.76 37.3856 121.676 37.3856 121.588C37.3856 121.501 37.4204 121.417 37.4823 121.355C37.5442 121.293 37.6281 121.258 37.7156 121.258H44.3081C44.3957 121.258 44.4796 121.293 44.5415 121.355C44.6034 121.417 44.6381 121.501 44.6381 121.588C44.6392 121.632 44.6313 121.675 44.6151 121.716C44.5989 121.756 44.5746 121.793 44.5438 121.824C44.5129 121.855 44.4761 121.879 44.4356 121.895C44.3951 121.911 44.3517 121.919 44.3081 121.918H37.7156ZM37.7156 125.526C37.6281 125.526 37.5442 125.491 37.4823 125.429C37.4204 125.367 37.3856 125.283 37.3856 125.196C37.3856 125.108 37.4204 125.024 37.4823 124.962C37.5442 124.9 37.6281 124.866 37.7156 124.866H44.3081C44.3957 124.866 44.4796 124.9 44.5415 124.962C44.6034 125.024 44.6381 125.108 44.6381 125.196C44.6381 125.283 44.6034 125.367 44.5415 125.429C44.4796 125.491 44.3957 125.526 44.3081 125.526H37.7156Z" fill="#171716"/>
<path opacity="0.5" fill-rule="evenodd" clip-rule="evenodd" d="M75.2232 206.608L71.6382 194.653L63.0732 203.736L75.2232 206.608Z" fill="#171716"/>
<path opacity="0.5" d="M37.1441 161.926L28.4375 171.168L63.1689 203.886L71.8755 194.643L37.1441 161.926Z" fill="#171716"/>
<path fill-rule="evenodd" clip-rule="evenodd" d="M74.6832 201.748L71.0982 189.786L62.5332 198.876L74.6832 201.748Z" fill="#E5EAF9" stroke="#171716" stroke-width="0.75" stroke-miterlimit="10"/>
<path fill-rule="evenodd" clip-rule="evenodd" d="M70.0557 200.653L74.6832 201.748L73.3182 197.188L70.0557 200.653Z" fill="#171716" stroke="#171716" stroke-width="0.75" stroke-miterlimit="10"/>
<path d="M36.5987 157.072L27.8921 166.314L62.6235 199.032L71.3301 189.789L36.5987 157.072Z" fill="#E5EAF9" stroke="#171716" stroke-width="0.75" stroke-miterlimit="10"/>
<path d="M33.5387 160.32L30.9519 163.066L65.6833 195.784L68.2701 193.038L33.5387 160.32Z" fill="#171716" stroke="#171716" stroke-width="0.75" stroke-miterlimit="10"/>
<path opacity="0.5" d="M57.0431 52.5656C70.0411 52.5656 80.5781 42.0286 80.5781 29.0306C80.5781 16.0326 70.0411 5.49561 57.0431 5.49561C44.045 5.49561 33.5081 16.0326 33.5081 29.0306C33.5081 42.0286 44.045 52.5656 57.0431 52.5656Z" fill="#171716"/>
<path d="M54.8756 49.8657C67.8736 49.8657 78.4106 39.3287 78.4106 26.3307C78.4106 13.3326 67.8736 2.79565 54.8756 2.79565C41.8776 2.79565 31.3406 13.3326 31.3406 26.3307C31.3406 39.3287 41.8776 49.8657 54.8756 49.8657Z" fill="white" stroke="#171716" stroke-width="0.75" stroke-miterlimit="10"/>
<path d="M54.8756 46.8881C66.2292 46.8881 75.4331 37.6842 75.4331 26.3306C75.4331 14.977 66.2292 5.77313 54.8756 5.77313C43.522 5.77313 34.3181 14.977 34.3181 26.3306C34.3181 37.6842 43.522 46.8881 54.8756 46.8881Z" fill="#B5A9E0" stroke="#171716" stroke-width="0.75" stroke-miterlimit="10"/>
<path d="M39.2831 36.0806C39.6813 40.2325 40.6374 44.3117 42.1256 48.2081C42.1256 48.2081 43.5056 44.8106 50.2031 42.9581C50.2031 42.9581 60.7031 41.5106 58.5056 32.5556L57.0056 26.3681C57.0056 26.3681 38.2031 16.7231 39.2831 36.0806Z" fill="#171716" stroke="#171716" stroke-width="0.375" stroke-miterlimit="10"/>
<path d="M57.0056 26.3906C57.0056 26.3906 42.6206 29.6231 42.0056 44.7056" stroke="#171716" stroke-width="0.375" stroke-miterlimit="10"/>
<path d="M58.9107 44.6906C62.6313 45.4188 66.4329 45.6433 70.2132 45.3581C70.2132 45.3581 67.6107 43.2656 67.7532 36.9656C67.7532 36.9656 69.2532 27.4181 60.8457 27.0281L55.0782 26.7656C55.0782 26.7656 41.7657 40.6106 58.9107 44.6906Z" fill="#171716" stroke="#171716" stroke-width="0.375" stroke-miterlimit="10"/>
<path d="M55.0781 26.7656C55.0781 26.7656 54.1481 40.1081 67.1306 44.5556" stroke="#171716" stroke-width="0.375" stroke-miterlimit="10"/>
<path d="M56.1206 33.6581C57.2521 34.6183 58.6068 35.2787 60.0601 35.5788C61.5134 35.8789 63.0188 35.809 64.4381 35.3756" fill="#171716"/>
<path d="M56.1206 33.6581C57.2521 34.6183 58.6068 35.2787 60.0601 35.5788C61.5134 35.8789 63.0188 35.809 64.4381 35.3756" stroke="#171716" stroke-width="0.375" stroke-miterlimit="10"/>
<path d="M58.6105 38.4881C58.6105 38.4881 58.1755 41.2031 56.833 42.4481L58.6105 38.4881Z" fill="#171716"/>
<path d="M58.6105 38.4881C58.6105 38.4881 58.1755 41.2031 56.833 42.4481" stroke="#171716" stroke-width="0.375" stroke-miterlimit="10"/>
<path d="M37.8282 18.1106C34.6174 20.6005 31.7566 23.5117 29.3232 26.7656C29.3232 26.7656 32.8482 26.1356 37.8357 30.7031C37.8357 30.7031 44.5107 38.6306 50.7357 32.1431L55.0782 27.6881C55.0782 27.6881 53.2557 7.14561 37.8282 18.1106Z" fill="#BBCFF9" stroke="#171716" stroke-width="0.375" stroke-miterlimit="10"/>
<path d="M55.0781 27.6881C55.0781 27.6881 44.9156 17.5031 32.1506 24.8456" stroke="#171716" stroke-width="0.375" stroke-miterlimit="10"/>
<path d="M48.7256 23.6456C47.1516 23.8829 45.6624 24.5112 44.394 25.4729C43.1257 26.4347 42.1188 27.6991 41.4656 29.1506" stroke="#171716" stroke-width="0.375" stroke-miterlimit="10"/>
<path d="M43.0781 22.2656C43.0781 22.2656 41.2031 20.0156 41.1431 18.0356L43.0781 22.2656Z" fill="#171716"/>
<path d="M43.0781 22.2656C43.0781 22.2656 41.2031 20.0156 41.1431 18.0356" stroke="#171716" stroke-width="0.375" stroke-miterlimit="10"/>
<path d="M50.218 6.58313C53.7953 4.04404 57.701 2.00286 61.828 0.515625C61.828 0.515625 60.073 3.94312 63.2155 10.5131C63.2155 10.5131 69.2905 19.8656 60.658 24.2456L54.7105 27.2981C54.7105 27.2981 34.078 19.0106 50.218 6.58313Z" fill="#171716" stroke="#171716" stroke-width="0.375" stroke-miterlimit="10"/>
<path d="M54.6807 27.2981C54.6807 27.2981 47.3757 13.6631 58.9332 2.82562" stroke="#171716" stroke-width="0.375" stroke-miterlimit="10"/>
<path d="M52.8281 13.2656C52.8281 13.2656 51.0806 10.6256 49.0781 9.94312L52.8281 13.2656Z" fill="#171716"/>
<path d="M52.8281 13.2656C52.8281 13.2656 51.0806 10.6256 49.0781 9.94312" stroke="#171716" stroke-width="0.375" stroke-miterlimit="10"/>
<path d="M70.5131 13.0481C74.5238 14.7869 78.2825 17.0572 81.6881 19.7981C81.6881 19.7981 77.848 20.0681 73.843 26.1581C73.843 26.1581 68.9756 36.1856 60.7631 31.0631L55.0781 27.5756C55.0781 27.5756 51.5456 5.67561 70.5131 13.0481Z" fill="#BBCFF9" stroke="#171716" stroke-width="0.375" stroke-miterlimit="10"/>
<path d="M55.0781 27.5756C55.0781 27.5756 62.9831 14.2781 78.2306 18.5756" stroke="#171716" stroke-width="0.375" stroke-miterlimit="10"/>
<path d="M60.6206 21.6956C62.3208 21.5318 64.0349 21.796 65.6068 22.4641C67.1788 23.1321 68.5586 24.1829 69.6206 25.5206" stroke="#171716" stroke-width="0.375" stroke-miterlimit="10"/>
<path d="M66.1631 18.7406C66.1631 18.7406 67.5206 15.8756 67.0706 13.8056L66.1631 18.7406Z" fill="#171716"/>
<path d="M66.1631 18.7406C66.1631 18.7406 67.5206 15.8756 67.0706 13.8056" stroke="#171716" stroke-width="0.375" stroke-miterlimit="10"/>
</g>
<defs>
<clipPath id="clip0_1_7425">
<rect width="300" height="225" fill="white" transform="translate(0.328125 0.515625)"/>
</clipPath>
</defs>
</svg>
