<svg width="301" height="226" viewBox="0 0 301 226" fill="none" xmlns="http://www.w3.org/2000/svg">
<g clip-path="url(#clip0_1_7267)">
<g opacity="0.7">
<path d="M222.508 56.3831L197.473 56.1356" stroke="#171716" stroke-width="0.375" stroke-miterlimit="10"/>
<path d="M197.72 31.1006L222.755 31.3481" stroke="#171716" stroke-width="0.375" stroke-miterlimit="10"/>
<path d="M147.651 30.6056L172.686 30.8531L172.438 55.8881L147.403 55.6406" stroke="#171716" stroke-width="0.375" stroke-miterlimit="10"/>
<path d="M198.148 11.4731L197.901 31.1006L172.686 30.8531L172.933 11.2256" stroke="#171716" stroke-width="0.375" stroke-miterlimit="10"/>
<path d="M172.866 30.8531L197.901 31.1006L197.653 56.1431L172.618 55.8881" stroke="#171716" stroke-width="0.375" stroke-miterlimit="10"/>
</g>
<g opacity="0.7">
<path d="M250.041 160.393L250.288 135.358" stroke="#171716" stroke-width="0.375" stroke-miterlimit="10"/>
<path d="M275.323 135.606L275.075 160.641" stroke="#171716" stroke-width="0.375" stroke-miterlimit="10"/>
<path d="M275.818 85.5356L275.57 110.571L250.535 110.323L250.783 85.2881" stroke="#171716" stroke-width="0.375" stroke-miterlimit="10"/>
<path d="M294.95 136.026L275.323 135.778L275.57 110.571L295.198 110.818" stroke="#171716" stroke-width="0.375" stroke-miterlimit="10"/>
<path d="M275.571 110.743L275.323 135.778L250.288 135.531L250.536 110.496" stroke="#171716" stroke-width="0.375" stroke-miterlimit="10"/>
</g>
<g opacity="0.7">
<path d="M100.641 180.351L125.676 180.598" stroke="#171716" stroke-width="0.375" stroke-miterlimit="10"/>
<path d="M125.428 205.633L100.393 205.386" stroke="#171716" stroke-width="0.375" stroke-miterlimit="10"/>
<path d="M175.498 206.128L150.463 205.881L150.711 180.846L175.746 181.093" stroke="#171716" stroke-width="0.375" stroke-miterlimit="10"/>
<path d="M125.008 225.268L125.256 205.633L150.463 205.881L150.216 225.516" stroke="#171716" stroke-width="0.375" stroke-miterlimit="10"/>
<path d="M150.291 205.881L125.256 205.633L125.503 180.598L150.538 180.846" stroke="#171716" stroke-width="0.375" stroke-miterlimit="10"/>
</g>
<path d="M26.3682 20.7806L40.9557 6.19312V20.7806H26.3682Z" fill="white" stroke="#171716" stroke-width="0.75" stroke-miterlimit="10"/>
<path d="M40.9557 6.19312V20.7806H26.3682V149.923H138.756V6.19312H40.9557Z" fill="#2E2E2C" stroke="#171716" stroke-width="0.75" stroke-miterlimit="10"/>
<path opacity="0.8" d="M257.638 57.5231H62.5706V186.666H257.638V57.5231Z" fill="#171716"/>
<path d="M250.611 51.0356H55.5432V180.178H250.611V51.0356Z" fill="white"/>
<g opacity="0.6">
<path d="M66.3506 63.4706H108.928" stroke="#171716" stroke-width="3" stroke-miterlimit="10" stroke-linecap="round"/>
<path d="M66.3506 74.2706H124.708" stroke="#171716" stroke-width="3" stroke-miterlimit="10" stroke-linecap="round"/>
<path d="M66.3506 85.0781H103.056" stroke="#171716" stroke-width="3" stroke-miterlimit="10" stroke-linecap="round"/>
</g>
<g opacity="0.6">
<path d="M56.623 25.4381H98.8031" stroke="#171716" stroke-width="3" stroke-miterlimit="10" stroke-linecap="round"/>
<path d="M56.623 35.0006H114.441" stroke="#171716" stroke-width="3" stroke-miterlimit="10" stroke-linecap="round"/>
</g>
<path d="M211.168 145.603C211.168 145.603 204.681 137.496 196.033 146.683C196.033 146.683 193.873 151.543 199.821 148.843C199.821 148.843 203.676 145.033 206.841 148.303L211.168 145.603Z" fill="#171716"/>
<path d="M212.248 141.276C212.248 141.276 205.761 133.176 197.121 142.356C197.121 142.356 194.953 147.223 200.871 144.523C200.871 144.523 204.726 140.706 207.891 143.983L212.248 141.276Z" fill="#171716"/>
<path fill-rule="evenodd" clip-rule="evenodd" d="M185.646 162.373L198.126 162.096L191.653 151.423L185.646 162.373Z" fill="#171716" stroke="#171716" stroke-width="0.75" stroke-miterlimit="10"/>
<path fill-rule="evenodd" clip-rule="evenodd" d="M187.933 158.203L185.646 162.373L190.401 162.268L187.933 158.203Z" fill="#171716" stroke="#171716" stroke-width="0.75" stroke-miterlimit="10"/>
<path d="M238.835 137.57L232.25 126.713L191.46 151.455L198.045 162.312L238.835 137.57Z" fill="#171716" stroke="#171716" stroke-width="0.75" stroke-miterlimit="10"/>
<path d="M237.42 132.835L235.458 129.629L194.907 154.437L196.869 157.643L237.42 132.835Z" fill="#FFE0B3" stroke="#171716" stroke-width="0.747333" stroke-miterlimit="10"/>
<path d="M199.213 193.101C199.213 193.101 195.853 143.083 197.541 141.906C199.228 140.728 203.601 146.143 205.791 153.703C207.163 158.496 219.291 148.303 220.926 149.383C225.703 152.571 229.566 163.971 237.628 190.776" fill="#FFCBC2"/>
<path d="M192.216 182.518L240.801 177.328L244.716 205.408L192.328 209.533L192.216 182.518Z" fill="white" stroke="#171716" stroke-width="0.75" stroke-miterlimit="10"/>
<g opacity="0.3">
<path d="M128.533 111.516C128.53 107.642 129.445 103.822 131.203 100.37C132.96 96.9175 135.51 93.9304 138.644 91.6531C141.778 89.3759 145.407 87.8732 149.233 87.268C153.06 86.6629 156.975 86.9725 160.659 88.1715C164.342 89.3706 167.69 91.4249 170.427 94.1665C173.164 96.908 175.213 100.259 176.406 103.944C177.599 107.63 177.902 111.546 177.291 115.371C176.679 119.197 175.17 122.823 172.888 125.953C169.386 131.203 160.288 137.203 160.288 140.758V144.831C160.288 145.228 160.13 145.61 159.849 145.891C159.567 146.173 159.186 146.331 158.788 146.331H147.328C146.93 146.331 146.549 146.173 146.267 145.891C145.986 145.61 145.828 145.228 145.828 144.831V140.766C145.828 137.196 136.731 131.241 133.228 125.961C130.166 121.768 128.522 116.707 128.533 111.516Z" fill="#171716" stroke="#171716" stroke-width="0.75" stroke-linejoin="round"/>
</g>
<path d="M128.533 111.516C128.53 107.642 129.445 103.822 131.203 100.37C132.96 96.9175 135.51 93.9304 138.644 91.6531C141.778 89.3759 145.407 87.8732 149.233 87.268C153.06 86.6629 156.975 86.9725 160.659 88.1715C164.342 89.3706 167.69 91.4249 170.427 94.1665C173.164 96.908 175.213 100.259 176.406 103.944C177.599 107.63 177.902 111.546 177.291 115.371C176.679 119.197 175.17 122.823 172.888 125.953V125.953C169.386 131.203 160.288 137.203 160.288 140.758V144.831C160.288 145.228 160.13 145.61 159.849 145.891C159.567 146.173 159.186 146.331 158.788 146.331H147.328C146.93 146.331 146.549 146.173 146.267 145.891C145.986 145.61 145.828 145.228 145.828 144.831V140.766C145.828 137.196 136.731 131.241 133.228 125.961C130.166 121.768 128.522 116.707 128.533 111.516Z" stroke="#171716" stroke-width="0.75" stroke-linejoin="round"/>
<path d="M155.848 145.888C155.573 139.525 155.678 133.151 156.163 126.801C154.1 127.041 152.016 127.041 149.953 126.801C150.439 133.151 150.547 139.525 150.276 145.888H149.841C150.1 139.509 149.987 133.121 149.503 126.756C142.228 125.751 138.966 121.626 138.388 117.756C138.043 115.506 138.816 113.256 140.233 112.378C140.685 112.123 141.185 111.965 141.702 111.913C142.218 111.862 142.74 111.918 143.233 112.078C145.162 112.756 146.743 114.172 147.628 116.016C148.813 118.326 149.511 122.166 149.878 126.336C151.968 126.586 154.081 126.586 156.171 126.336C156.576 122.166 157.273 118.326 158.421 116.016C158.853 115.091 159.465 114.262 160.221 113.575C160.977 112.889 161.861 112.36 162.823 112.018C163.317 111.858 163.838 111.802 164.355 111.853C164.871 111.905 165.371 112.063 165.823 112.318C167.233 113.166 168.013 115.423 167.668 117.696C167.083 121.588 163.828 125.713 156.553 126.696C156.069 133.061 155.954 139.449 156.208 145.828L155.848 145.888ZM164.098 112.296C163.727 112.297 163.358 112.352 163.003 112.461C162.099 112.781 161.268 113.277 160.558 113.921C159.847 114.565 159.271 115.343 158.863 116.211C157.731 118.461 157.048 122.211 156.613 126.276C163.581 125.271 166.701 121.341 167.256 117.636C167.571 115.566 166.866 113.436 165.621 112.693C165.165 112.42 164.645 112.272 164.113 112.266L164.098 112.296ZM141.996 112.296C141.447 112.29 140.907 112.436 140.436 112.716C139.191 113.466 138.486 115.588 138.801 117.658C139.356 121.363 142.476 125.293 149.443 126.298C149.046 122.203 148.363 118.461 147.193 116.233C146.787 115.365 146.213 114.587 145.504 113.943C144.794 113.299 143.964 112.803 143.061 112.483C142.722 112.362 142.369 112.289 142.011 112.266L141.996 112.296Z" fill="#171716"/>
<path d="M173.503 112.911C173.318 112.914 173.133 112.88 172.961 112.811C172.789 112.742 172.632 112.64 172.499 112.511C172.367 112.381 172.261 112.226 172.189 112.055C172.117 111.885 172.079 111.701 172.078 111.516C172.083 107.28 170.674 103.163 168.073 99.8192C165.473 96.4754 161.83 94.0958 157.723 93.0581C157.379 92.9509 157.088 92.7157 156.912 92.4011C156.736 92.0864 156.687 91.7161 156.775 91.3664C156.864 91.0166 157.083 90.7141 157.387 90.521C157.692 90.3279 158.059 90.2588 158.413 90.3281C163.131 91.5152 167.318 94.245 170.307 98.0838C173.297 101.923 174.918 106.65 174.913 111.516C174.909 111.887 174.759 112.242 174.495 112.503C174.231 112.764 173.874 112.911 173.503 112.911Z" fill="white"/>
<path d="M153.996 92.4356C154.774 92.4356 155.406 91.8044 155.406 91.0256C155.406 90.2469 154.774 89.6156 153.996 89.6156C153.217 89.6156 152.586 90.2469 152.586 91.0256C152.586 91.8044 153.217 92.4356 153.996 92.4356Z" fill="white"/>
<path d="M160.866 142.491H145.258V149.931C145.258 151.145 145.604 152.334 146.256 153.358C146.86 154.312 147.697 155.098 148.687 155.642C149.677 156.187 150.788 156.472 151.918 156.471H154.168C155.298 156.472 156.409 156.187 157.399 155.642C158.39 155.098 159.226 154.312 159.831 153.358C160.482 152.334 160.828 151.145 160.828 149.931L160.866 142.491Z" fill="white" stroke="#171716" stroke-width="0.75" stroke-linejoin="round"/>
<path d="M160.243 154.266H160.078L145.281 152.991C145.155 152.98 145.033 152.943 144.922 152.883C144.811 152.823 144.713 152.741 144.635 152.642C144.557 152.543 144.501 152.429 144.468 152.307C144.436 152.185 144.429 152.058 144.448 151.933C144.484 151.673 144.618 151.436 144.823 151.271C145.028 151.106 145.289 151.027 145.551 151.048L160.348 152.323C160.474 152.333 160.595 152.369 160.706 152.428C160.817 152.487 160.915 152.568 160.993 152.667C161.071 152.765 161.128 152.879 161.16 153C161.193 153.122 161.2 153.249 161.181 153.373C161.149 153.606 161.039 153.822 160.869 153.984C160.698 154.146 160.478 154.246 160.243 154.266Z" fill="white" stroke="#171716" stroke-width="0.75" stroke-linejoin="round"/>
<path d="M160.866 147.643H160.731L145.123 146.301C145.003 146.286 144.886 146.247 144.781 146.187C144.675 146.127 144.583 146.046 144.509 145.95C144.435 145.853 144.381 145.743 144.35 145.626C144.319 145.508 144.311 145.386 144.328 145.266C144.367 145.008 144.501 144.774 144.704 144.61C144.906 144.447 145.163 144.365 145.423 144.381L161.038 145.723C161.164 145.733 161.287 145.769 161.398 145.828C161.51 145.888 161.608 145.97 161.686 146.069C161.764 146.169 161.821 146.283 161.853 146.406C161.885 146.528 161.891 146.656 161.871 146.781C161.828 147.018 161.704 147.233 161.521 147.39C161.338 147.547 161.107 147.637 160.866 147.643Z" fill="white" stroke="#171716" stroke-width="0.75" stroke-linejoin="round"/>
<path d="M160.866 151.048H160.731L145.123 149.706C145 149.691 144.88 149.652 144.773 149.589C144.665 149.527 144.571 149.444 144.496 149.344C144.422 149.245 144.369 149.131 144.34 149.01C144.311 148.889 144.307 148.763 144.328 148.641C144.367 148.383 144.501 148.149 144.704 147.985C144.906 147.822 145.163 147.74 145.423 147.756L161.038 149.098C161.164 149.108 161.287 149.144 161.398 149.203C161.51 149.263 161.608 149.345 161.686 149.444C161.764 149.544 161.821 149.658 161.853 149.781C161.885 149.903 161.891 150.031 161.871 150.156C161.834 150.398 161.713 150.621 161.53 150.784C161.346 150.947 161.111 151.04 160.866 151.048Z" fill="white" stroke="#171716" stroke-width="0.75" stroke-linejoin="round"/>
<path d="M153.103 74.7506V83.2031" stroke="#171716" stroke-width="0.75" stroke-linejoin="round"/>
<path d="M179.218 85.6031L173.233 91.5806" stroke="#171716" stroke-width="0.75" stroke-linejoin="round"/>
<path d="M126.966 85.5356L132.951 91.5206" stroke="#171716" stroke-width="0.75" stroke-linejoin="round"/>
<path d="M138.966 77.5481L142.198 85.3556" stroke="#171716" stroke-width="0.75" stroke-linejoin="round"/>
<path d="M167.241 77.5781L164.001 85.3931" stroke="#171716" stroke-width="0.75" stroke-linejoin="round"/>
<path d="M187.213 97.5956L179.398 100.836" stroke="#171716" stroke-width="0.75" stroke-linejoin="round"/>
<path d="M118.948 97.5131L126.756 100.753" stroke="#171716" stroke-width="0.75" stroke-linejoin="round"/>
<path opacity="0.16" d="M70.6407 163.791C71.6182 165.078 72.7434 166.246 73.9932 167.271C75.2424 168.297 76.6095 169.171 78.0657 169.873L80.3157 166.123C81.6361 166.722 83.0311 167.141 84.4632 167.368L84.2682 171.763C87.4873 172.183 90.7601 171.841 93.8232 170.766L92.7581 166.498C94.1166 165.99 95.4007 165.301 96.5757 164.451L99.5382 167.698C102.123 165.74 104.205 163.195 105.613 160.273L101.863 158.023C102.448 156.705 102.856 155.316 103.078 153.891L107.473 154.093C107.916 150.871 107.595 147.591 106.536 144.516L102.268 145.581C101.767 144.22 101.081 142.936 100.228 141.763L103.476 138.763C102.495 137.476 101.368 136.308 100.116 135.283C98.8664 134.257 97.4993 133.383 96.0432 132.681L93.7932 136.431C92.473 135.831 91.0779 135.412 89.6456 135.186L89.8482 130.791C86.6325 130.358 83.3601 130.684 80.2932 131.743L81.3582 136.011C79.9997 136.519 78.7157 137.208 77.5406 138.058L74.5406 134.811C71.961 136.775 69.8798 139.318 68.4657 142.236L72.2157 144.486C71.6157 145.806 71.1969 147.201 70.9707 148.633L66.5757 148.431C66.1388 151.644 66.4651 154.915 67.5282 157.978L71.7957 156.913C72.3028 158.271 72.9889 159.555 73.8357 160.731L70.6407 163.791ZM79.3631 145.041C80.6078 143.519 82.2757 142.401 84.1559 141.827C86.0361 141.254 88.0441 141.251 89.926 141.819C91.8079 142.387 93.4791 143.5 94.7282 145.018C95.9773 146.536 96.7482 148.39 96.9433 150.346C97.1385 152.302 96.7492 154.272 95.8247 156.007C94.9001 157.741 93.4819 159.163 91.7493 160.091C90.0168 161.02 88.0477 161.414 86.0913 161.223C84.1348 161.033 82.2789 160.266 80.7582 159.021C79.7449 158.194 78.9047 157.176 78.2859 156.024C77.6671 154.873 77.2819 153.61 77.1523 152.309C77.0226 151.008 77.1512 149.694 77.5306 148.443C77.91 147.192 78.5328 146.028 79.3631 145.018V145.041ZM81.9957 147.193C82.8152 146.192 83.9132 145.457 85.1507 145.08C86.3881 144.704 87.7095 144.702 88.9478 145.077C90.186 145.451 91.2854 146.184 92.107 147.183C92.9286 148.182 93.4354 149.402 93.5634 150.69C93.6914 151.977 93.4348 153.273 92.826 154.415C92.2173 155.556 91.2837 156.491 90.1434 157.102C89.0032 157.713 87.7074 157.972 86.4199 157.846C85.1325 157.72 83.9113 157.215 82.9107 156.396C82.2432 155.851 81.6898 155.18 81.2823 154.421C80.8749 153.662 80.6214 152.83 80.5364 151.973C80.4513 151.116 80.5365 150.251 80.7869 149.426C81.0373 148.602 81.4481 147.836 81.9957 147.171V147.193Z" fill="#171716" stroke="#171716" stroke-width="0.75" stroke-linejoin="round"/>
<path opacity="0.16" d="M83.578 122.646C84.0885 123.291 84.6724 123.875 85.318 124.386C85.9619 124.897 86.6643 125.33 87.4105 125.676L88.5355 123.741C89.2138 124.032 89.9273 124.234 90.658 124.341L90.5905 126.591C92.2322 126.784 93.8965 126.592 95.4505 126.028L94.8655 123.861C95.5569 123.594 96.2081 123.233 96.8005 122.788L98.3005 124.416C98.9484 123.905 99.5348 123.321 100.048 122.676C100.554 122.028 100.987 121.326 101.338 120.583L99.3955 119.458C99.6942 118.782 99.8962 118.068 99.9955 117.336L102.246 117.403C102.439 115.761 102.247 114.097 101.683 112.543L99.5155 113.121C99.2412 112.435 98.8808 111.788 98.443 111.193L100.078 109.641C99.5655 108.997 98.9818 108.413 98.338 107.901C97.6927 107.387 96.9875 106.954 96.238 106.611L95.1205 108.553C94.4434 108.256 93.7295 108.052 92.998 107.946L93.058 105.696C91.4188 105.502 89.757 105.695 88.2055 106.258L88.783 108.426C88.0954 108.695 87.4471 109.056 86.8555 109.498L85.3555 107.871C84.7099 108.381 84.126 108.965 83.6155 109.611C83.104 110.254 82.671 110.957 82.3255 111.703L84.2605 112.828C83.9664 113.506 83.7646 114.219 83.6605 114.951L81.4105 114.883C81.2229 116.525 81.418 118.189 81.9805 119.743L84.148 119.166C84.4163 119.854 84.7771 120.502 85.2205 121.093L83.578 122.646ZM87.8305 113.016C88.4519 112.231 89.292 111.648 90.2445 111.341C91.197 111.034 92.2193 111.016 93.1821 111.289C94.1449 111.562 95.005 112.115 95.6538 112.877C96.3026 113.639 96.7109 114.577 96.8272 115.571C96.9435 116.565 96.7625 117.571 96.3071 118.462C95.8517 119.354 95.1423 120.09 94.2686 120.578C93.3949 121.066 92.3961 121.285 91.3983 121.206C90.4006 121.126 89.4487 120.753 88.663 120.133C87.6111 119.298 86.9329 118.08 86.7769 116.746C86.6209 115.412 86.9997 114.071 87.8305 113.016ZM89.188 114.088C89.5974 113.57 90.1512 113.186 90.7793 112.982C91.4074 112.779 92.0817 112.767 92.7167 112.947C93.3518 113.127 93.9192 113.492 94.3472 113.994C94.7752 114.497 95.0444 115.115 95.121 115.771C95.1976 116.427 95.078 117.09 94.7774 117.678C94.4768 118.266 94.0087 118.751 93.4322 119.073C92.8557 119.394 92.1968 119.538 91.5388 119.485C90.8808 119.432 90.2532 119.185 89.7355 118.776C89.3888 118.504 89.0994 118.167 88.884 117.783C88.6686 117.399 88.5314 116.976 88.4805 116.539C88.4296 116.101 88.4659 115.658 88.5873 115.235C88.7088 114.812 88.9129 114.417 89.188 114.073V114.088Z" fill="#171716" stroke="#171716" stroke-width="0.75" stroke-linejoin="round"/>
<path opacity="0.16" d="M114.898 166.063C115.28 166.568 115.721 167.026 116.211 167.428C116.702 167.826 117.238 168.166 117.808 168.441L118.693 166.941C119.21 167.173 119.754 167.337 120.313 167.428L120.238 169.146C121.5 169.321 122.786 169.192 123.988 168.771L123.576 167.106C124.11 166.908 124.615 166.638 125.076 166.303L126.231 167.571C126.736 167.188 127.194 166.748 127.596 166.258C127.998 165.771 128.341 165.237 128.616 164.668L127.116 163.783C127.354 163.266 127.518 162.718 127.603 162.156L129.328 162.238C129.494 160.976 129.366 159.692 128.953 158.488L127.281 158.908C127.081 158.375 126.811 157.87 126.478 157.408L127.753 156.253C127.371 155.748 126.93 155.29 126.441 154.888C125.949 154.49 125.413 154.15 124.843 153.876L123.958 155.376C123.443 155.141 122.898 154.977 122.338 154.888L122.413 153.171C121.152 152.997 119.867 153.123 118.663 153.538L119.076 155.211C118.541 155.408 118.037 155.678 117.576 156.013L116.413 154.738C115.92 155.129 115.472 155.574 115.078 156.066C114.675 156.553 114.333 157.086 114.058 157.656L115.558 158.541C115.321 159.059 115.155 159.606 115.063 160.168L113.346 160.086C113.175 161.348 113.304 162.632 113.721 163.836L115.393 163.416C115.588 163.95 115.856 164.454 116.188 164.916L114.898 166.063ZM118.311 158.713C118.798 158.117 119.451 157.679 120.188 157.454C120.924 157.229 121.711 157.228 122.448 157.45C123.185 157.672 123.84 158.108 124.329 158.702C124.819 159.297 125.121 160.023 125.198 160.789C125.274 161.555 125.122 162.327 124.76 163.007C124.398 163.686 123.842 164.243 123.164 164.607C122.485 164.971 121.714 165.125 120.947 165.051C120.181 164.976 119.454 164.676 118.858 164.188C118.06 163.534 117.554 162.591 117.451 161.564C117.349 160.537 117.658 159.512 118.311 158.713ZM119.346 159.553C119.667 159.163 120.096 158.876 120.58 158.73C121.063 158.584 121.579 158.584 122.063 158.73C122.547 158.877 122.976 159.164 123.297 159.554C123.617 159.944 123.815 160.421 123.866 160.924C123.916 161.427 123.816 161.933 123.579 162.379C123.341 162.825 122.977 163.191 122.532 163.43C122.087 163.67 121.581 163.772 121.078 163.724C120.575 163.676 120.097 163.48 119.706 163.161C119.444 162.948 119.228 162.686 119.068 162.389C118.909 162.092 118.809 161.767 118.776 161.432C118.743 161.096 118.776 160.758 118.873 160.436C118.971 160.113 119.132 159.813 119.346 159.553Z" fill="#171716" stroke="#171716" stroke-width="0.75" stroke-linejoin="round"/>
<path d="M208.993 69.9431L230.151 91.0931" stroke="#171716" stroke-width="0.75" stroke-linejoin="round"/>
<path d="M208.993 72.9056C210.629 72.9056 211.956 71.5793 211.956 69.9431C211.956 68.307 210.629 66.9806 208.993 66.9806C207.357 66.9806 206.031 68.307 206.031 69.9431C206.031 71.5793 207.357 72.9056 208.993 72.9056Z" fill="#171716"/>
<path d="M230.361 94.2656C231.997 94.2656 233.323 92.9393 233.323 91.3031C233.323 89.667 231.997 88.3406 230.361 88.3406C228.725 88.3406 227.398 89.667 227.398 91.3031C227.398 92.9393 228.725 94.2656 230.361 94.2656Z" fill="#171716"/>
<path d="M208.993 91.5581L230.151 112.708" stroke="#171716" stroke-width="0.75" stroke-linejoin="round"/>
<path d="M208.993 94.5206C210.629 94.5206 211.956 93.1943 211.956 91.5581C211.956 89.922 210.629 88.5956 208.993 88.5956C207.357 88.5956 206.031 89.922 206.031 91.5581C206.031 93.1943 207.357 94.5206 208.993 94.5206Z" fill="#171716"/>
<path d="M230.361 115.881C231.997 115.881 233.323 114.554 233.323 112.918C233.323 111.282 231.997 109.956 230.361 109.956C228.725 109.956 227.398 111.282 227.398 112.918C227.398 114.554 228.725 115.881 230.361 115.881Z" fill="#171716"/>
<path d="M230.361 69.9431L209.203 91.0931" stroke="#171716" stroke-width="0.75" stroke-linejoin="round"/>
<path d="M230.361 72.9056C231.997 72.9056 233.323 71.5793 233.323 69.9431C233.323 68.307 231.997 66.9806 230.361 66.9806C228.725 66.9806 227.398 68.307 227.398 69.9431C227.398 71.5793 228.725 72.9056 230.361 72.9056Z" fill="#171716"/>
<path d="M219.553 83.7131C221.189 83.7131 222.516 82.3868 222.516 80.7506C222.516 79.1145 221.189 77.7881 219.553 77.7881C217.917 77.7881 216.591 79.1145 216.591 80.7506C216.591 82.3868 217.917 83.7131 219.553 83.7131Z" fill="#171716"/>
<path d="M219.553 105.328C221.189 105.328 222.516 104.002 222.516 102.366C222.516 100.729 221.189 99.4031 219.553 99.4031C217.917 99.4031 216.591 100.729 216.591 102.366C216.591 104.002 217.917 105.328 219.553 105.328Z" fill="#171716"/>
<path d="M208.993 94.2656C210.629 94.2656 211.956 92.9393 211.956 91.3031C211.956 89.667 210.629 88.3406 208.993 88.3406C207.357 88.3406 206.031 89.667 206.031 91.3031C206.031 92.9393 207.357 94.2656 208.993 94.2656Z" fill="#171716"/>
<path d="M272.226 19.0256H260.826C259.879 13.5232 256.901 8.57645 252.482 5.16386C248.063 1.75126 242.525 0.121343 236.961 0.596483C231.398 1.07162 226.216 3.61722 222.44 7.72977C218.664 11.8423 216.568 17.2223 216.568 22.8056C216.568 28.3889 218.664 33.7689 222.44 37.8815C226.216 41.994 231.398 44.5396 236.961 45.0148C242.525 45.4899 248.063 43.86 252.482 40.4474C256.901 37.0348 259.879 32.0881 260.826 26.5856H272.226V19.0256Z" fill="white" stroke="#171716" stroke-width="0.75" stroke-miterlimit="10"/>
<path d="M238.858 41.9981C249.458 41.9981 258.051 33.4054 258.051 22.8056C258.051 12.2059 249.458 3.61313 238.858 3.61313C228.258 3.61313 219.666 12.2059 219.666 22.8056C219.666 33.4054 228.258 41.9981 238.858 41.9981Z" fill="#171716" stroke="#171716" stroke-width="0.75" stroke-miterlimit="10"/>
<path d="M253.723 25.7906C253.402 25.7886 253.095 25.6598 252.869 25.4321C252.643 25.2045 252.516 24.8966 252.516 24.5756C252.519 20.9355 251.306 17.3985 249.072 14.5252C246.837 11.6518 243.707 9.60646 240.178 8.71312C239.867 8.63455 239.6 8.43554 239.435 8.15986C239.27 7.88418 239.222 7.55442 239.301 7.24312C239.379 6.93183 239.578 6.66449 239.854 6.49993C240.13 6.33536 240.459 6.28705 240.771 6.36562C244.824 7.38728 248.42 9.7342 250.987 13.0335C253.554 16.3329 254.945 20.3954 254.938 24.5756C254.936 24.8973 254.808 25.2052 254.58 25.4326C254.353 25.66 254.045 25.7887 253.723 25.7906Z" fill="white"/>
<path d="M223.723 19.8356C223.882 19.8356 224.039 19.8669 224.185 19.9275C224.332 19.9882 224.465 20.0772 224.577 20.1893C224.689 20.3014 224.778 20.4345 224.839 20.581C224.899 20.7275 224.931 20.8846 224.931 21.0431C224.926 24.6845 226.137 28.2232 228.372 31.0981C230.607 33.973 233.738 36.0195 237.268 36.9131C237.422 36.952 237.567 37.0209 237.695 37.1158C237.822 37.2108 237.93 37.3299 238.011 37.4664C238.093 37.6029 238.147 37.7541 238.17 37.9114C238.193 38.0687 238.185 38.229 238.146 38.3831C238.107 38.5373 238.038 38.6822 237.943 38.8097C237.848 38.9373 237.729 39.0448 237.592 39.1263C237.456 39.2078 237.305 39.2616 237.147 39.2846C236.99 39.3077 236.83 39.2995 236.676 39.2606C232.622 38.2372 229.027 35.8886 226.462 32.5879C223.896 29.2871 222.507 25.2237 222.516 21.0431C222.516 20.7229 222.643 20.4157 222.869 20.1893C223.096 19.9628 223.403 19.8356 223.723 19.8356Z" fill="white"/>
<path d="M242.106 39.0206C242.884 39.0206 243.516 38.3893 243.516 37.6106C243.516 36.8319 242.884 36.2006 242.106 36.2006C241.327 36.2006 240.696 36.8319 240.696 37.6106C240.696 38.3893 241.327 39.0206 242.106 39.0206Z" fill="white"/>
<path d="M48.4857 149.706C48.4839 149.217 48.3787 148.735 48.1771 148.29C47.9754 147.846 47.6819 147.449 47.3157 147.126L38.2632 140.376L40.8282 139.183C41.1675 139.03 41.4734 138.812 41.7285 138.542C41.9835 138.271 42.1827 137.952 42.3147 137.604C42.4467 137.256 42.5089 136.886 42.4977 136.514C42.4865 136.142 42.4021 135.776 42.2495 135.437C42.0968 135.098 41.8788 134.792 41.6079 134.537C41.337 134.282 41.0186 134.082 40.6707 133.95C40.3228 133.818 39.9524 133.756 39.5805 133.767C39.2086 133.779 38.8425 133.863 38.5032 134.016L32.9832 136.513L25.1607 130.513C25.5144 129.497 25.6621 128.42 25.5952 127.346C25.5282 126.272 25.2479 125.223 24.7707 124.258C23.9785 122.635 22.7244 121.282 21.1659 120.369C19.6073 119.457 17.8139 119.025 16.0107 119.128L13.5132 113.601C13.3667 113.256 13.1518 112.944 12.8814 112.685C12.611 112.426 12.2908 112.224 11.9402 112.093C11.5896 111.961 11.2158 111.901 10.8416 111.918C10.4674 111.935 10.1006 112.028 9.76322 112.191C9.41848 112.337 9.10706 112.552 8.84784 112.822C8.58862 113.093 8.38699 113.413 8.25516 113.764C8.12333 114.114 8.06405 114.488 8.0809 114.862C8.09776 115.236 8.1904 115.603 8.35322 115.941L10.8282 121.476C9.4613 122.698 8.53267 124.334 8.18454 126.135C7.83641 127.935 8.08798 129.799 8.90072 131.443C9.89994 133.335 11.4511 134.879 13.3482 135.868L12.6957 145.701L7.10822 147.568C6.7699 147.721 6.46506 147.94 6.2111 148.211C5.95715 148.481 5.75905 148.8 5.62812 149.147C5.49719 149.495 5.43599 149.865 5.44802 150.236C5.46004 150.607 5.54506 150.972 5.69822 151.311C5.85137 151.649 6.06966 151.954 6.34063 152.208C6.61159 152.462 6.92992 152.66 7.27745 152.791C7.62497 152.922 7.99488 152.983 8.36605 152.971C8.73723 152.959 9.1024 152.874 9.44072 152.721L12.3282 151.656L11.4432 162.906C11.3741 163.472 11.4621 164.047 11.6976 164.566C11.933 165.086 12.3069 165.531 12.7782 165.853L13.3032 173.353L14.7507 166.258C15.0207 166.363 16.7607 165.793 17.1957 163.821L18.2082 149.016L32.2032 142.686L44.0682 151.731C45.4707 152.871 47.4132 151.731 47.5107 151.506L53.7957 155.091L48.4857 149.706ZM15.7032 124.828C16.2139 124.596 16.7819 124.521 17.3353 124.612C17.8888 124.703 18.4029 124.956 18.8125 125.339C19.2222 125.722 19.509 126.218 19.6366 126.764C19.7643 127.31 19.727 127.882 19.5296 128.407C19.3322 128.932 18.9835 129.387 18.5277 129.713C18.0718 130.04 17.5292 130.224 16.9686 130.243C16.408 130.261 15.8546 130.113 15.3784 129.816C14.9021 129.52 14.5245 129.089 14.2932 128.578C13.8282 127.468 14.4957 125.601 15.7032 124.828ZM18.8232 142.498L19.1607 135.906C20.0609 135.624 20.9264 135.242 21.7407 134.766L26.9232 138.853L18.8232 142.498Z" fill="#171716" stroke="#171716" stroke-width="0.75" stroke-linejoin="round"/>
</g>
<defs>
<clipPath id="clip0_1_7267">
<rect width="300" height="225" fill="white" transform="translate(0.328125 0.515625)"/>
</clipPath>
</defs>
</svg>
