<svg width="503" height="426" viewBox="0 0 503 426" fill="none" xmlns="http://www.w3.org/2000/svg">
<path d="M476.224 267.733C475.923 255.366 476.781 234.277 467.1 225.594C458.594 217.97 451.981 228.316 449.594 236.663C443.812 256.911 446.526 279.238 446.544 300.14C446.544 300.456 446.544 300.773 446.544 301.13C446.093 316.516 444.44 333.16 445.943 348.517C445.943 348.517 444.466 333.13 433.68 339.724C422.894 346.319 439.073 380.923 439.073 380.923C439.073 380.923 426.324 370.487 420.436 379.28C414.548 388.072 427.792 397.953 427.792 397.953C427.792 397.953 415.529 394.112 415.529 397.953C415.529 401.795 419.454 405.092 430.736 406.745H491.546C491.546 406.745 501.359 400.696 499.397 394.112C497.434 387.527 487.125 391.319 487.125 391.319C487.125 391.319 502.827 369.893 501.846 360.556C500.864 351.22 480.751 362.21 480.751 362.21C480.751 362.21 496.444 317.714 493.5 297.941C491.183 282.367 480.388 292.991 474.509 299.011C475.893 288.661 476.466 278.195 476.224 267.733Z" fill="black" stroke="white" stroke-linecap="round" stroke-linejoin="round"/>
<path opacity="0.5" d="M476.224 267.733C475.923 255.366 476.781 234.277 467.1 225.594C458.594 217.97 451.981 228.316 449.594 236.663C443.812 256.911 446.526 279.238 446.544 300.14C446.544 300.456 446.544 300.773 446.544 301.13C446.093 316.516 444.44 333.16 445.943 348.517C445.943 348.517 444.466 333.13 433.68 339.724C422.894 346.319 439.073 380.923 439.073 380.923C439.073 380.923 426.324 370.487 420.436 379.28C414.548 388.072 427.792 397.953 427.792 397.953C427.792 397.953 415.529 394.112 415.529 397.953C415.529 401.795 419.454 405.092 430.736 406.745H491.546C491.546 406.745 501.359 400.696 499.397 394.112C497.434 387.527 487.125 391.319 487.125 391.319C487.125 391.319 502.827 369.893 501.846 360.556C500.864 351.22 480.751 362.21 480.751 362.21C480.751 362.21 496.444 317.714 493.5 297.941C491.183 282.367 480.388 292.991 474.509 299.011C475.893 288.661 476.466 278.195 476.224 267.733Z" fill="white"/>
<path d="M456.711 406.151L461.132 255.089" stroke="white" stroke-linecap="round" stroke-linejoin="round"/>
<path d="M459.169 342.982L482.218 318.813" stroke="white" stroke-linecap="round" stroke-linejoin="round"/>
<path d="M469.956 331.992L474.862 316.615" stroke="white" stroke-linecap="round" stroke-linejoin="round"/>
<path d="M440.037 361.656L457.693 383.082" stroke="white" stroke-linecap="round" stroke-linejoin="round"/>
<path d="M487.125 373.745L457.693 390.775" stroke="white" stroke-linecap="round" stroke-linejoin="round"/>
<path d="M471.432 383.628L482.218 383.081" stroke="white" stroke-linecap="round" stroke-linejoin="round"/>
<path d="M456.711 406.151L461.132 255.089" stroke="black" stroke-linecap="round" stroke-linejoin="round"/>
<path d="M459.169 342.982L482.218 318.813" stroke="black" stroke-linecap="round" stroke-linejoin="round"/>
<path d="M469.956 331.992L474.862 316.615" stroke="black" stroke-linecap="round" stroke-linejoin="round"/>
<path d="M440.037 361.656L457.693 383.082" stroke="black" stroke-linecap="round" stroke-linejoin="round"/>
<path d="M487.125 373.745L457.693 390.775" stroke="black" stroke-linecap="round" stroke-linejoin="round"/>
<path d="M471.432 383.628L482.218 383.081" stroke="black" stroke-linecap="round" stroke-linejoin="round"/>
<g opacity="0.8">
<path d="M456.712 406.151L461.133 255.089" stroke="white" stroke-linecap="round" stroke-linejoin="round"/>
<path d="M459.17 342.982L482.219 318.813" stroke="white" stroke-linecap="round" stroke-linejoin="round"/>
<path d="M469.956 331.992L474.863 316.615" stroke="white" stroke-linecap="round" stroke-linejoin="round"/>
<path d="M440.038 361.656L457.694 383.082" stroke="white" stroke-linecap="round" stroke-linejoin="round"/>
<path d="M487.126 373.745L457.693 390.775" stroke="white" stroke-linecap="round" stroke-linejoin="round"/>
<path d="M471.433 383.628L482.219 383.081" stroke="white" stroke-linecap="round" stroke-linejoin="round"/>
</g>
<path d="M372.455 375.626C372.455 390.983 383.321 403.438 383.321 403.438C383.321 403.438 394.187 390.983 394.187 375.626C394.187 360.269 383.321 347.814 383.321 347.814C383.321 347.814 372.455 360.259 372.455 375.626Z" fill="black"/>
<path d="M364.922 399.32C370.227 405.983 379.192 406.706 379.192 406.706C379.192 406.706 379.625 396.617 374.355 389.953C369.086 383.29 360.086 382.567 360.086 382.567C360.086 382.567 359.644 392.656 364.922 399.32Z" fill="black"/>
<path d="M392.613 389.725C387.069 396.112 387.105 406.211 387.105 406.211C387.105 406.211 396.114 405.943 401.648 399.547C407.183 393.151 407.165 383.062 407.165 383.062C407.165 383.062 398.147 383.329 392.613 389.725Z" fill="black"/>
<g opacity="0.5">
<path d="M372.454 375.625C372.454 390.982 383.32 403.438 383.32 403.438C383.32 403.438 394.186 390.982 394.186 375.625C394.186 360.269 383.32 347.813 383.32 347.813C383.32 347.813 372.454 360.259 372.454 375.625Z" fill="white"/>
<path d="M383.321 403.438V347.813" stroke="white" stroke-linecap="round" stroke-linejoin="round"/>
<path d="M383.32 367.586L377.237 361.635" stroke="white" stroke-linecap="round" stroke-linejoin="round"/>
<path d="M383.418 376.774L390.951 364.556" stroke="white" stroke-linecap="round" stroke-linejoin="round"/>
<path d="M383.321 382.071L374.338 373.101" stroke="white" stroke-linecap="round" stroke-linejoin="round"/>
<path d="M383.418 389.21L392.303 380.348" stroke="white" stroke-linecap="round" stroke-linejoin="round"/>
<path d="M383.418 395.378L376.46 389.21" stroke="white" stroke-linecap="round" stroke-linejoin="round"/>
<path d="M364.922 399.319C370.227 405.983 379.192 406.705 379.192 406.705C379.192 406.705 379.625 396.616 374.356 389.953C369.086 383.289 360.086 382.566 360.086 382.566C360.086 382.566 359.644 392.656 364.922 399.319Z" fill="white"/>
<path d="M379.192 406.706L360.086 382.567" stroke="white" stroke-linecap="round" stroke-linejoin="round"/>
<path d="M366.875 391.151L362.19 391.194" stroke="white" stroke-linecap="round" stroke-linejoin="round"/>
<path d="M370.076 395.091L369.148 386.546" stroke="white" stroke-linecap="round" stroke-linejoin="round"/>
<path d="M371.853 397.438L364.878 397.408" stroke="white" stroke-linecap="round" stroke-linejoin="round"/>
<path d="M374.347 400.487L375.152 392.814" stroke="white" stroke-linecap="round" stroke-linejoin="round"/>
<path d="M376.469 403.161L371.332 403.489" stroke="white" stroke-linecap="round" stroke-linejoin="round"/>
<path d="M392.613 389.725C387.07 396.111 387.105 406.21 387.105 406.21C387.105 406.21 396.114 405.943 401.649 399.547C407.183 393.151 407.166 383.061 407.166 383.061C407.166 383.061 398.148 383.329 392.613 389.725Z" fill="white"/>
<path d="M387.105 406.21L407.166 383.061" stroke="white" stroke-linecap="round" stroke-linejoin="round"/>
<path d="M400.031 391.289L399.651 386.061" stroke="white" stroke-linecap="round" stroke-linejoin="round"/>
<path d="M396.759 395.161L404.3 393.477" stroke="white" stroke-linecap="round" stroke-linejoin="round"/>
<path d="M394.805 397.319L394.31 389.527" stroke="white" stroke-linecap="round" stroke-linejoin="round"/>
<path d="M392.267 400.329L399.163 400.667" stroke="white" stroke-linecap="round" stroke-linejoin="round"/>
<path d="M390.049 402.893L389.377 397.19" stroke="white" stroke-linecap="round" stroke-linejoin="round"/>
</g>
<path d="M383.321 403.438V347.814" stroke="black" stroke-linecap="round" stroke-linejoin="round"/>
<path d="M383.321 367.586L377.238 361.636" stroke="black" stroke-linecap="round" stroke-linejoin="round"/>
<path d="M383.417 376.774L390.95 364.556" stroke="black" stroke-linecap="round" stroke-linejoin="round"/>
<path d="M383.32 382.071L374.338 373.101" stroke="black" stroke-linecap="round" stroke-linejoin="round"/>
<path d="M383.417 389.21L392.303 380.349" stroke="black" stroke-linecap="round" stroke-linejoin="round"/>
<path d="M383.417 395.379L376.459 389.21" stroke="black" stroke-linecap="round" stroke-linejoin="round"/>
<g opacity="0.7">
<path d="M383.323 403.438V347.813" stroke="white" stroke-linecap="round" stroke-linejoin="round"/>
<path d="M383.322 367.586L377.239 361.635" stroke="white" stroke-linecap="round" stroke-linejoin="round"/>
<path d="M383.42 376.774L390.952 364.556" stroke="white" stroke-linecap="round" stroke-linejoin="round"/>
<path d="M383.323 382.071L374.34 373.101" stroke="white" stroke-linecap="round" stroke-linejoin="round"/>
<path d="M383.42 389.21L392.305 380.348" stroke="white" stroke-linecap="round" stroke-linejoin="round"/>
<path d="M383.42 395.378L376.462 389.21" stroke="white" stroke-linecap="round" stroke-linejoin="round"/>
</g>
<path d="M379.191 406.706L360.085 382.567" stroke="black" stroke-linecap="round" stroke-linejoin="round"/>
<path d="M366.877 391.151L362.191 391.195" stroke="black" stroke-linecap="round" stroke-linejoin="round"/>
<path d="M370.076 395.092L369.147 386.547" stroke="black" stroke-linecap="round" stroke-linejoin="round"/>
<path d="M371.853 397.439L364.877 397.409" stroke="black" stroke-linecap="round" stroke-linejoin="round"/>
<path d="M374.347 400.488L375.151 392.814" stroke="black" stroke-linecap="round" stroke-linejoin="round"/>
<path d="M376.468 403.161L371.331 403.489" stroke="black" stroke-linecap="round" stroke-linejoin="round"/>
<g opacity="0.7">
<path d="M379.191 406.706L360.085 382.567" stroke="white" stroke-linecap="round" stroke-linejoin="round"/>
<path d="M366.877 391.151L362.191 391.195" stroke="white" stroke-linecap="round" stroke-linejoin="round"/>
<path d="M370.076 395.092L369.148 386.547" stroke="white" stroke-linecap="round" stroke-linejoin="round"/>
<path d="M371.853 397.439L364.878 397.409" stroke="white" stroke-linecap="round" stroke-linejoin="round"/>
<path d="M374.347 400.488L375.151 392.815" stroke="white" stroke-linecap="round" stroke-linejoin="round"/>
<path d="M376.468 403.161L371.332 403.49" stroke="white" stroke-linecap="round" stroke-linejoin="round"/>
</g>
<path d="M387.105 406.211L407.165 383.062" stroke="black" stroke-linecap="round" stroke-linejoin="round"/>
<path d="M400.03 391.29L399.65 386.062" stroke="black" stroke-linecap="round" stroke-linejoin="round"/>
<path d="M396.76 395.161L404.301 393.478" stroke="black" stroke-linecap="round" stroke-linejoin="round"/>
<path d="M394.805 397.319L394.31 389.527" stroke="black" stroke-linecap="round" stroke-linejoin="round"/>
<path d="M392.268 400.329L399.164 400.667" stroke="black" stroke-linecap="round" stroke-linejoin="round"/>
<path d="M390.048 402.894L389.377 397.191" stroke="black" stroke-linecap="round" stroke-linejoin="round"/>
<g opacity="0.7">
<path d="M387.104 406.211L407.165 383.062" stroke="white" stroke-linecap="round" stroke-linejoin="round"/>
<path d="M400.03 391.29L399.65 386.062" stroke="white" stroke-linecap="round" stroke-linejoin="round"/>
<path d="M396.759 395.161L404.301 393.478" stroke="white" stroke-linecap="round" stroke-linejoin="round"/>
<path d="M394.804 397.319L394.309 389.527" stroke="white" stroke-linecap="round" stroke-linejoin="round"/>
<path d="M392.268 400.329L399.164 400.667" stroke="white" stroke-linecap="round" stroke-linejoin="round"/>
<path d="M390.048 402.894L389.376 397.191" stroke="white" stroke-linecap="round" stroke-linejoin="round"/>
</g>
<path d="M26.666 267.733C26.9578 255.367 26.109 234.277 35.7902 225.594C44.2954 217.97 50.9086 228.317 53.2869 236.663C59.0779 256.911 56.3548 279.238 56.346 300.14C56.346 300.456 56.346 300.773 56.346 301.13C56.8057 316.516 58.4502 333.16 56.956 348.517C56.956 348.517 58.4237 333.13 69.2188 339.725C80.0139 346.319 63.8168 380.923 63.8168 380.923C63.8168 380.923 76.5747 370.487 82.4629 379.28C88.3512 388.072 75.1247 397.914 75.1247 397.914C75.1247 397.914 87.3875 394.072 87.3875 397.914C87.3875 401.755 83.462 405.052 72.1806 406.706H11.3442C11.3442 406.706 1.53045 400.656 3.4932 394.072C5.45595 387.488 15.756 391.319 15.756 391.319C15.756 391.319 0.0628066 369.893 1.04418 360.557C2.02556 351.22 22.1393 362.21 22.1393 362.21C22.1393 362.21 6.43732 317.714 9.38145 297.971C11.6978 282.397 22.5018 293.021 28.3724 299.041C26.9898 288.68 26.4188 278.205 26.666 267.733Z" fill="black" stroke="white" stroke-linecap="round" stroke-linejoin="round"/>
<path opacity="0.5" d="M26.666 267.733C26.9578 255.367 26.109 234.277 35.7902 225.594C44.2954 217.97 50.9086 228.317 53.2869 236.663C59.0779 256.911 56.3548 279.238 56.346 300.14C56.346 300.456 56.346 300.773 56.346 301.13C56.8057 316.516 58.4502 333.16 56.956 348.517C56.956 348.517 58.4237 333.13 69.2188 339.725C80.0139 346.319 63.8168 380.923 63.8168 380.923C63.8168 380.923 76.5747 370.487 82.4629 379.28C88.3512 388.072 75.1247 397.914 75.1247 397.914C75.1247 397.914 87.3875 394.072 87.3875 397.914C87.3875 401.755 83.462 405.052 72.1806 406.706H11.3442C11.3442 406.706 1.53045 400.656 3.4932 394.072C5.45595 387.488 15.756 391.319 15.756 391.319C15.756 391.319 0.0628066 369.893 1.04418 360.557C2.02556 351.22 22.1393 362.21 22.1393 362.21C22.1393 362.21 6.43732 317.714 9.38145 297.971C11.6978 282.397 22.5018 293.021 28.3724 299.041C26.9898 288.68 26.4188 278.205 26.666 267.733Z" fill="white"/>
<path d="M46.1688 406.151L41.7571 255.089" stroke="white" stroke-linecap="round" stroke-linejoin="round"/>
<path d="M43.7205 342.982L20.6627 318.813" stroke="white" stroke-linecap="round" stroke-linejoin="round"/>
<path d="M32.9261 331.992L28.0192 316.615" stroke="white" stroke-linecap="round" stroke-linejoin="round"/>
<path d="M62.8444 361.656L45.1885 383.082" stroke="white" stroke-linecap="round" stroke-linejoin="round"/>
<path d="M15.7563 373.745L45.1887 390.775" stroke="white" stroke-linecap="round" stroke-linejoin="round"/>
<path d="M31.4578 383.628L20.6627 383.081" stroke="white" stroke-linecap="round" stroke-linejoin="round"/>
<path d="M46.1688 406.151L41.7571 255.089" stroke="black" stroke-linecap="round" stroke-linejoin="round"/>
<path d="M43.7205 342.982L20.6627 318.813" stroke="black" stroke-linecap="round" stroke-linejoin="round"/>
<path d="M32.9261 331.992L28.0192 316.615" stroke="black" stroke-linecap="round" stroke-linejoin="round"/>
<path d="M62.8444 361.656L45.1885 383.082" stroke="black" stroke-linecap="round" stroke-linejoin="round"/>
<path d="M15.7563 373.745L45.1887 390.775" stroke="black" stroke-linecap="round" stroke-linejoin="round"/>
<path d="M31.4578 383.628L20.6627 383.081" stroke="black" stroke-linecap="round" stroke-linejoin="round"/>
<g opacity="0.8">
<path d="M46.1699 406.151L41.7581 255.089" stroke="white" stroke-linecap="round" stroke-linejoin="round"/>
<path d="M43.7201 342.982L20.6623 318.813" stroke="white" stroke-linecap="round" stroke-linejoin="round"/>
<path d="M32.9257 331.991L28.0188 316.615" stroke="white" stroke-linecap="round" stroke-linejoin="round"/>
<path d="M62.844 361.655L45.1881 383.081" stroke="white" stroke-linecap="round" stroke-linejoin="round"/>
<path d="M15.7559 373.745L45.1883 390.775" stroke="white" stroke-linecap="round" stroke-linejoin="round"/>
<path d="M31.4574 383.628L20.6623 383.081" stroke="white" stroke-linecap="round" stroke-linejoin="round"/>
</g>
<path d="M132.203 375.626C132.203 390.983 121.338 403.438 121.338 403.438C121.338 403.438 110.489 390.983 110.489 375.626C110.489 360.269 121.355 347.814 121.355 347.814C121.355 347.814 132.203 360.259 132.203 375.626Z" fill="black"/>
<path d="M139.728 399.32C134.423 405.983 125.458 406.706 125.458 406.706C125.458 406.706 125.025 396.617 130.303 389.953C135.581 383.29 144.573 382.567 144.573 382.567C144.573 382.567 144.971 392.656 139.728 399.32Z" fill="black"/>
<path d="M112.045 389.725C117.579 396.112 117.553 406.211 117.553 406.211C117.553 406.211 108.543 405.943 103 399.547C97.4566 393.151 97.492 383.062 97.492 383.062C97.492 383.062 106.501 383.329 112.045 389.725Z" fill="black"/>
<g opacity="0.5">
<path d="M132.203 375.626C132.203 390.983 121.337 403.438 121.337 403.438C121.337 403.438 110.489 390.983 110.489 375.626C110.489 360.269 121.355 347.813 121.355 347.813C121.355 347.813 132.203 360.259 132.203 375.626Z" fill="white"/>
<path d="M121.337 403.438V347.813" stroke="white" stroke-linecap="round" stroke-linejoin="round"/>
<path d="M121.337 367.586L127.42 361.636" stroke="white" stroke-linecap="round" stroke-linejoin="round"/>
<path d="M121.241 376.774L113.708 364.556" stroke="white" stroke-linecap="round" stroke-linejoin="round"/>
<path d="M121.337 382.071L130.319 373.101" stroke="white" stroke-linecap="round" stroke-linejoin="round"/>
<path d="M121.241 389.21L112.355 380.349" stroke="white" stroke-linecap="round" stroke-linejoin="round"/>
<path d="M121.24 395.379L128.189 389.21" stroke="white" stroke-linecap="round" stroke-linejoin="round"/>
<path d="M139.728 399.319C134.423 405.983 125.458 406.706 125.458 406.706C125.458 406.706 125.025 396.616 130.303 389.953C135.581 383.289 144.573 382.567 144.573 382.567C144.573 382.567 144.97 392.656 139.728 399.319Z" fill="white"/>
<path d="M125.458 406.706L144.573 382.567" stroke="white" stroke-linecap="round" stroke-linejoin="round"/>
<path d="M137.782 391.151L142.459 391.195" stroke="white" stroke-linecap="round" stroke-linejoin="round"/>
<path d="M134.583 395.092L135.511 386.547" stroke="white" stroke-linecap="round" stroke-linejoin="round"/>
<path d="M132.795 397.439L139.78 397.409" stroke="white" stroke-linecap="round" stroke-linejoin="round"/>
<path d="M130.302 400.488L129.498 392.814" stroke="white" stroke-linecap="round" stroke-linejoin="round"/>
<path d="M128.189 403.161L133.326 403.489" stroke="white" stroke-linecap="round" stroke-linejoin="round"/>
<path d="M112.046 389.725C117.581 396.112 117.554 406.211 117.554 406.211C117.554 406.211 108.545 405.943 103.001 399.547C97.458 393.151 97.4934 383.062 97.4934 383.062C97.4934 383.062 106.503 383.329 112.046 389.725Z" fill="white"/>
<path d="M117.554 406.211L97.4934 383.062" stroke="white" stroke-linecap="round" stroke-linejoin="round"/>
<path d="M104.619 391.289L105.008 386.062" stroke="white" stroke-linecap="round" stroke-linejoin="round"/>
<path d="M107.898 395.161L100.357 393.478" stroke="white" stroke-linecap="round" stroke-linejoin="round"/>
<path d="M109.844 397.319L110.348 389.527" stroke="white" stroke-linecap="round" stroke-linejoin="round"/>
<path d="M112.381 400.329L105.485 400.667" stroke="white" stroke-linecap="round" stroke-linejoin="round"/>
<path d="M114.611 402.894L115.274 397.191" stroke="white" stroke-linecap="round" stroke-linejoin="round"/>
</g>
<path d="M121.337 403.438V347.814" stroke="black" stroke-linecap="round" stroke-linejoin="round"/>
<path d="M121.337 367.586L127.42 361.636" stroke="black" stroke-linecap="round" stroke-linejoin="round"/>
<path d="M121.241 376.774L113.708 364.556" stroke="black" stroke-linecap="round" stroke-linejoin="round"/>
<path d="M121.337 382.071L130.32 373.101" stroke="black" stroke-linecap="round" stroke-linejoin="round"/>
<path d="M121.241 389.21L112.355 380.349" stroke="black" stroke-linecap="round" stroke-linejoin="round"/>
<path d="M121.24 395.379L128.19 389.21" stroke="black" stroke-linecap="round" stroke-linejoin="round"/>
<g opacity="0.7">
<path d="M121.336 403.438V347.813" stroke="white" stroke-linecap="round" stroke-linejoin="round"/>
<path d="M121.336 367.586L127.419 361.635" stroke="white" stroke-linecap="round" stroke-linejoin="round"/>
<path d="M121.239 376.774L113.706 364.556" stroke="white" stroke-linecap="round" stroke-linejoin="round"/>
<path d="M121.336 382.071L130.319 373.101" stroke="white" stroke-linecap="round" stroke-linejoin="round"/>
<path d="M121.239 389.21L112.353 380.349" stroke="white" stroke-linecap="round" stroke-linejoin="round"/>
<path d="M121.238 395.379L128.188 389.21" stroke="white" stroke-linecap="round" stroke-linejoin="round"/>
</g>
<path d="M125.458 406.706L144.573 382.567" stroke="black" stroke-linecap="round" stroke-linejoin="round"/>
<path d="M137.782 391.151L142.459 391.195" stroke="black" stroke-linecap="round" stroke-linejoin="round"/>
<path d="M134.581 395.092L135.51 386.547" stroke="black" stroke-linecap="round" stroke-linejoin="round"/>
<path d="M132.796 397.439L139.78 397.409" stroke="black" stroke-linecap="round" stroke-linejoin="round"/>
<path d="M130.302 400.488L129.498 392.814" stroke="black" stroke-linecap="round" stroke-linejoin="round"/>
<path d="M128.19 403.161L133.326 403.489" stroke="black" stroke-linecap="round" stroke-linejoin="round"/>
<g opacity="0.7">
<path d="M125.456 406.706L144.571 382.567" stroke="white" stroke-linecap="round" stroke-linejoin="round"/>
<path d="M137.782 391.151L142.459 391.195" stroke="white" stroke-linecap="round" stroke-linejoin="round"/>
<path d="M134.581 395.092L135.509 386.547" stroke="white" stroke-linecap="round" stroke-linejoin="round"/>
<path d="M132.795 397.439L139.78 397.409" stroke="white" stroke-linecap="round" stroke-linejoin="round"/>
<path d="M130.302 400.488L129.497 392.815" stroke="white" stroke-linecap="round" stroke-linejoin="round"/>
<path d="M128.189 403.161L133.326 403.489" stroke="white" stroke-linecap="round" stroke-linejoin="round"/>
</g>
<path d="M117.553 406.211L97.492 383.062" stroke="black" stroke-linecap="round" stroke-linejoin="round"/>
<path d="M104.62 391.29L105.009 386.062" stroke="black" stroke-linecap="round" stroke-linejoin="round"/>
<path d="M107.899 395.161L100.357 393.478" stroke="black" stroke-linecap="round" stroke-linejoin="round"/>
<path d="M109.844 397.319L110.348 389.527" stroke="black" stroke-linecap="round" stroke-linejoin="round"/>
<path d="M112.381 400.329L105.485 400.667" stroke="black" stroke-linecap="round" stroke-linejoin="round"/>
<path d="M114.609 402.894L115.272 397.191" stroke="black" stroke-linecap="round" stroke-linejoin="round"/>
<g opacity="0.7">
<path d="M117.554 406.211L97.4935 383.062" stroke="white" stroke-linecap="round" stroke-linejoin="round"/>
<path d="M104.619 391.29L105.008 386.062" stroke="white" stroke-linecap="round" stroke-linejoin="round"/>
<path d="M107.898 395.161L100.357 393.478" stroke="white" stroke-linecap="round" stroke-linejoin="round"/>
<path d="M109.844 397.319L110.348 389.527" stroke="white" stroke-linecap="round" stroke-linejoin="round"/>
<path d="M112.381 400.329L105.485 400.667" stroke="white" stroke-linecap="round" stroke-linejoin="round"/>
<path d="M114.611 402.894L115.274 397.191" stroke="white" stroke-linecap="round" stroke-linejoin="round"/>
</g>
<path d="M376.945 112.445H137.94C137.869 112.446 137.798 112.431 137.731 112.402C137.665 112.372 137.604 112.327 137.553 112.271C137.502 112.215 137.462 112.148 137.434 112.074C137.407 112 137.392 111.92 137.392 111.84C137.392 111.677 137.45 111.521 137.553 111.405C137.656 111.29 137.795 111.225 137.94 111.225H376.945C377.017 111.225 377.087 111.241 377.153 111.272C377.219 111.303 377.279 111.349 377.33 111.406C377.38 111.463 377.419 111.531 377.446 111.606C377.472 111.68 377.485 111.76 377.484 111.84C377.484 112 377.427 112.154 377.326 112.268C377.225 112.381 377.088 112.445 376.945 112.445Z" fill="black"/>
<g opacity="0.3">
<path d="M376.946 112.445H137.941C137.87 112.446 137.798 112.431 137.732 112.401C137.666 112.372 137.605 112.327 137.554 112.271C137.503 112.215 137.462 112.148 137.435 112.074C137.407 112 137.393 111.92 137.393 111.84C137.393 111.677 137.451 111.521 137.553 111.405C137.656 111.29 137.796 111.225 137.941 111.225H376.946C377.017 111.225 377.088 111.241 377.154 111.272C377.22 111.303 377.28 111.349 377.33 111.406C377.38 111.463 377.42 111.531 377.446 111.605C377.473 111.68 377.486 111.76 377.485 111.84C377.485 112 377.428 112.154 377.327 112.267C377.226 112.381 377.089 112.445 376.946 112.445Z" fill="white"/>
</g>
<path d="M376.468 218.605H137.463C137.392 218.606 137.321 218.592 137.254 218.562C137.188 218.532 137.127 218.488 137.076 218.431C137.025 218.375 136.985 218.308 136.957 218.234C136.929 218.16 136.915 218.081 136.915 218C136.915 217.837 136.973 217.681 137.076 217.566C137.178 217.45 137.318 217.386 137.463 217.386H376.468C376.539 217.386 376.61 217.402 376.676 217.433C376.742 217.464 376.802 217.509 376.852 217.566C376.902 217.623 376.942 217.691 376.968 217.766C376.995 217.84 377.008 217.92 377.007 218C377.007 218.08 376.993 218.158 376.966 218.232C376.939 218.305 376.899 218.372 376.849 218.428C376.799 218.484 376.739 218.529 376.674 218.559C376.609 218.589 376.538 218.605 376.468 218.605Z" fill="black"/>
<g opacity="0.3">
<path d="M376.467 218.605H137.463C137.391 218.606 137.32 218.591 137.254 218.562C137.187 218.532 137.127 218.487 137.076 218.431C137.025 218.375 136.984 218.308 136.957 218.234C136.929 218.16 136.915 218.08 136.915 218C136.915 217.837 136.972 217.681 137.075 217.565C137.178 217.45 137.318 217.385 137.463 217.385H376.467C376.539 217.385 376.61 217.401 376.676 217.432C376.742 217.463 376.802 217.509 376.852 217.566C376.902 217.623 376.942 217.691 376.968 217.766C376.995 217.84 377.008 217.92 377.007 218C377.007 218.079 376.993 218.158 376.966 218.231C376.939 218.305 376.899 218.371 376.849 218.428C376.799 218.484 376.739 218.528 376.674 218.559C376.608 218.589 376.538 218.605 376.467 218.605Z" fill="white"/>
</g>
<path d="M376.468 305.389H137.463C137.318 305.389 137.178 305.324 137.076 305.209C136.973 305.094 136.915 304.937 136.915 304.774C136.915 304.694 136.929 304.614 136.957 304.54C136.985 304.466 137.025 304.399 137.076 304.343C137.127 304.287 137.188 304.242 137.254 304.213C137.321 304.183 137.392 304.168 137.463 304.169H376.468C376.538 304.169 376.609 304.185 376.674 304.215C376.739 304.246 376.799 304.29 376.849 304.347C376.899 304.403 376.939 304.469 376.966 304.543C376.993 304.616 377.007 304.695 377.007 304.774C377.008 304.854 376.995 304.934 376.968 305.009C376.942 305.083 376.902 305.151 376.852 305.208C376.802 305.265 376.742 305.311 376.676 305.342C376.61 305.373 376.539 305.389 376.468 305.389Z" fill="black"/>
<g opacity="0.3">
<path d="M376.467 305.389H137.463C137.318 305.389 137.178 305.324 137.075 305.209C136.972 305.094 136.915 304.937 136.915 304.774C136.915 304.694 136.929 304.614 136.957 304.54C136.984 304.466 137.025 304.399 137.076 304.343C137.127 304.287 137.187 304.242 137.254 304.213C137.32 304.183 137.391 304.168 137.463 304.169H376.467C376.538 304.169 376.608 304.185 376.674 304.215C376.739 304.246 376.799 304.29 376.849 304.347C376.899 304.403 376.939 304.469 376.966 304.543C376.993 304.616 377.007 304.695 377.007 304.774C377.008 304.854 376.995 304.934 376.968 305.009C376.942 305.083 376.902 305.151 376.852 305.208C376.802 305.265 376.742 305.311 376.676 305.342C376.61 305.373 376.539 305.389 376.467 305.389Z" fill="white"/>
</g>
<path d="M188.274 320.071V410.389" stroke="#B7B6AF" stroke-width="0.265171" stroke-miterlimit="10"/>
<path d="M199.794 320.071V410.389" stroke="#B7B6AF" stroke-width="0.265171" stroke-miterlimit="10"/>
<path d="M211.315 320.071V410.389" stroke="#B7B6AF" stroke-width="0.265171" stroke-miterlimit="10"/>
<path d="M222.834 320.071V410.389" stroke="#B7B6AF" stroke-width="0.265171" stroke-miterlimit="10"/>
<path d="M234.355 320.071V410.389" stroke="#B7B6AF" stroke-width="0.265171" stroke-miterlimit="10"/>
<path d="M245.875 320.071V410.389" stroke="#B7B6AF" stroke-width="0.265171" stroke-miterlimit="10"/>
<path d="M257.395 320.071V410.389" stroke="#B7B6AF" stroke-width="0.265171" stroke-miterlimit="10"/>
<path d="M268.916 320.071V410.389" stroke="#B7B6AF" stroke-width="0.265171" stroke-miterlimit="10"/>
<path d="M280.435 320.071V410.389" stroke="#B7B6AF" stroke-width="0.265171" stroke-miterlimit="10"/>
<path d="M291.955 320.071V410.389" stroke="#B7B6AF" stroke-width="0.265171" stroke-miterlimit="10"/>
<path d="M303.474 320.071V410.389" stroke="#B7B6AF" stroke-width="0.265171" stroke-miterlimit="10"/>
<path d="M314.995 320.071V410.389" stroke="#B7B6AF" stroke-width="0.265171" stroke-miterlimit="10"/>
<path d="M188.848 328.457H314.42" stroke="#B7B6AF" stroke-width="0.265171" stroke-miterlimit="10"/>
<path d="M188.848 340.715H314.42" stroke="#B7B6AF" stroke-width="0.265171" stroke-miterlimit="10"/>
<path d="M188.848 352.972H314.42" stroke="#B7B6AF" stroke-width="0.265171" stroke-miterlimit="10"/>
<path d="M188.848 365.23H314.42" stroke="#B7B6AF" stroke-width="0.265171" stroke-miterlimit="10"/>
<path d="M188.848 377.488H314.42" stroke="#B7B6AF" stroke-width="0.265171" stroke-miterlimit="10"/>
<path d="M188.848 389.745H314.42" stroke="#B7B6AF" stroke-width="0.265171" stroke-miterlimit="10"/>
<path d="M188.848 402.003H314.42" stroke="#B7B6AF" stroke-width="0.265171" stroke-miterlimit="10"/>
<path d="M215.231 351.754L198.38 409.934H233.674L216.814 351.754C216.76 351.567 216.654 351.403 216.512 351.287C216.37 351.171 216.198 351.108 216.022 351.108C215.846 351.108 215.675 351.171 215.533 351.287C215.391 351.403 215.285 351.567 215.231 351.754Z" fill="black" stroke="#B7B6AF" stroke-width="1.06068" stroke-miterlimit="10"/>
<path d="M247.359 332.487L224.929 409.934H271.399L248.942 332.487C248.888 332.299 248.783 332.135 248.64 332.019C248.498 331.903 248.327 331.841 248.151 331.841C247.975 331.841 247.803 331.903 247.661 332.019C247.519 332.135 247.413 332.299 247.359 332.487Z" fill="#B7B6AF" stroke="#B7B6AF" stroke-width="1.06068" stroke-miterlimit="10"/>
<path d="M276.925 365.062L263.92 409.934H291.505L278.473 365.062C278.412 364.888 278.305 364.738 278.167 364.633C278.029 364.528 277.866 364.471 277.699 364.471C277.532 364.471 277.369 364.528 277.231 364.633C277.093 364.738 276.986 364.888 276.925 365.062Z" fill="black" stroke="#B7B6AF" stroke-width="1.06068" stroke-miterlimit="10"/>
<path d="M294.74 380.468L286.208 409.934H304.854L296.323 380.468C296.269 380.28 296.163 380.116 296.021 380C295.879 379.884 295.707 379.822 295.531 379.822C295.355 379.822 295.184 379.884 295.042 380C294.9 380.116 294.794 380.28 294.74 380.468Z" fill="#B7B6AF" stroke="#B7B6AF" stroke-width="1.06068" stroke-miterlimit="10"/>
<path d="M186.754 291.526C181.699 291.526 176.757 289.847 172.554 286.702C168.351 283.556 165.075 279.086 163.14 273.855C161.206 268.625 160.699 262.87 161.686 257.317C162.672 251.764 165.106 246.664 168.681 242.661C172.255 238.658 176.81 235.931 181.768 234.827C186.726 233.723 191.865 234.289 196.536 236.456C201.206 238.622 205.198 242.291 208.007 246.998C210.815 251.706 212.314 257.24 212.314 262.901C212.307 270.49 209.612 277.767 204.82 283.133C200.028 288.499 193.531 291.518 186.754 291.526ZM186.754 242.683C183.184 242.685 179.695 243.872 176.727 246.095C173.759 248.318 171.446 251.476 170.081 255.171C168.716 258.866 168.36 262.93 169.058 266.852C169.755 270.773 171.475 274.375 174.001 277.201C176.526 280.028 179.743 281.952 183.244 282.732C186.746 283.511 190.376 283.11 193.674 281.58C196.973 280.049 199.792 277.458 201.775 274.133C203.758 270.808 204.817 266.9 204.817 262.901C204.812 257.539 202.908 252.398 199.521 248.607C196.134 244.816 191.543 242.686 186.754 242.683Z" fill="#B7B6AF" stroke="#B7B6AF" stroke-width="1.06068" stroke-miterlimit="10"/>
<path d="M186.754 291.526C183.305 291.538 179.889 290.761 176.716 289.244C173.544 287.728 170.681 285.502 168.303 282.704L173.722 276.892C175.401 278.869 177.423 280.441 179.664 281.512C181.905 282.583 184.318 283.13 186.754 283.12C189.125 283.12 191.473 282.597 193.663 281.581C195.853 280.564 197.844 279.075 199.52 277.198C201.197 275.32 202.526 273.092 203.434 270.639C204.341 268.186 204.808 265.556 204.808 262.901C204.808 260.246 204.341 257.617 203.434 255.164C202.526 252.711 201.197 250.482 199.52 248.605C197.844 246.728 195.853 245.238 193.663 244.222C191.473 243.206 189.125 242.683 186.754 242.683V234.277C190.111 234.277 193.434 235.017 196.535 236.456C199.637 237.894 202.454 240.003 204.828 242.661C207.201 245.319 209.084 248.474 210.368 251.947C211.653 255.42 212.314 259.142 212.314 262.901C212.314 266.66 211.653 270.383 210.368 273.855C209.084 277.328 207.201 280.484 204.828 283.142C202.454 285.8 199.637 287.908 196.535 289.347C193.434 290.785 190.111 291.526 186.754 291.526Z" fill="black" stroke="#B7B6AF" stroke-width="1.06068" stroke-miterlimit="10"/>
<path d="M249.792 291.526C244.736 291.528 239.794 289.851 235.589 286.706C231.385 283.562 228.107 279.093 226.171 273.862C224.236 268.632 223.728 262.876 224.713 257.323C225.699 251.77 228.132 246.669 231.706 242.664C235.281 238.66 239.835 235.933 244.793 234.828C249.752 233.723 254.892 234.289 259.563 236.455C264.234 238.621 268.226 242.29 271.035 246.998C273.844 251.705 275.343 257.24 275.343 262.901C275.336 270.489 272.642 277.764 267.852 283.13C263.062 288.496 256.567 291.515 249.792 291.526ZM249.792 242.683C246.222 242.687 242.733 243.876 239.767 246.1C236.8 248.324 234.489 251.483 233.125 255.178C231.761 258.873 231.406 262.937 232.105 266.858C232.804 270.779 234.525 274.379 237.05 277.205C239.576 280.03 242.793 281.954 246.294 282.733C249.796 283.511 253.425 283.11 256.723 281.579C260.021 280.048 262.839 277.456 264.822 274.132C266.805 270.808 267.864 266.899 267.864 262.901C267.856 257.538 265.95 252.397 262.562 248.607C259.174 244.816 254.581 242.686 249.792 242.683Z" fill="#B7B6AF" stroke="#B7B6AF" stroke-width="1.06068" stroke-miterlimit="10"/>
<path d="M259.738 289.268L256.82 281.535C260.654 279.715 263.809 276.468 265.751 272.342C267.692 268.216 268.301 263.465 267.474 258.895C266.647 254.324 264.435 250.213 261.213 247.259C257.991 244.305 253.956 242.688 249.791 242.683V234.277C255.689 234.278 261.405 236.562 265.97 240.744C270.535 244.925 273.669 250.746 274.84 257.219C276.011 263.692 275.147 270.419 272.394 276.261C269.642 282.102 265.17 286.697 259.738 289.268Z" fill="black" stroke="#B7B6AF" stroke-width="1.06068" stroke-miterlimit="10"/>
<path d="M312.821 291.526C307.766 291.526 302.824 289.847 298.621 286.702C294.417 283.556 291.141 279.086 289.207 273.855C287.272 268.625 286.766 262.87 287.752 257.317C288.739 251.765 291.173 246.664 294.748 242.661C298.322 238.658 302.877 235.932 307.835 234.827C312.793 233.723 317.932 234.289 322.603 236.456C327.273 238.623 331.265 242.291 334.073 246.999C336.882 251.706 338.381 257.24 338.381 262.901C338.374 270.491 335.679 277.767 330.887 283.133C326.095 288.5 319.598 291.518 312.821 291.526ZM312.821 242.683C309.25 242.683 305.76 243.869 302.791 246.091C299.822 248.312 297.508 251.47 296.142 255.164C294.775 258.859 294.418 262.924 295.114 266.846C295.811 270.768 297.53 274.37 300.055 277.198C302.58 280.025 305.797 281.951 309.299 282.731C312.801 283.511 316.431 283.111 319.73 281.581C323.029 280.05 325.849 277.459 327.832 274.134C329.816 270.809 330.875 266.9 330.875 262.901C330.87 257.541 328.967 252.401 325.582 248.611C322.197 244.82 317.608 242.688 312.821 242.683Z" fill="#B7B6AF" stroke="#B7B6AF" stroke-width="1.06068" stroke-miterlimit="10"/>
<path d="M330.521 258.872C329.682 254.309 327.466 250.21 324.246 247.261C321.026 244.313 316.998 242.697 312.838 242.683V234.277C318.729 234.294 324.435 236.582 328.997 240.756C333.558 244.931 336.697 250.737 337.885 257.198L330.521 258.872Z" fill="black" stroke="#B7B6AF" stroke-width="1.06068" stroke-miterlimit="10"/>
<path d="M196.946 202.583H316.984" stroke="#B7B6AF" stroke-width="1.06068" stroke-miterlimit="10"/>
<path d="M196.946 202.583V199.722" stroke="#B7B6AF" stroke-width="1.06068" stroke-miterlimit="10"/>
<path d="M220.951 202.583V199.722" stroke="#B7B6AF" stroke-width="1.06068" stroke-miterlimit="10"/>
<path d="M244.963 202.583V199.722" stroke="#B7B6AF" stroke-width="1.06068" stroke-miterlimit="10"/>
<path d="M268.968 202.583V199.722" stroke="#B7B6AF" stroke-width="1.06068" stroke-miterlimit="10"/>
<path d="M292.97 202.583V199.722" stroke="#B7B6AF" stroke-width="1.06068" stroke-miterlimit="10"/>
<path d="M316.983 202.583V199.722" stroke="#B7B6AF" stroke-width="1.06068" stroke-miterlimit="10"/>
<path d="M217.591 164.375H200.307V187.296H217.591V164.375Z" fill="black" stroke="#B7B6AF" stroke-width="1.06068" stroke-miterlimit="10"/>
<path d="M241.594 137.632H224.309V191.118H241.594V137.632Z" fill="black" stroke="#B7B6AF" stroke-width="1.06068" stroke-miterlimit="10"/>
<path d="M265.607 100.195H248.322V159.8H265.607V100.195Z" fill="black" stroke="#B7B6AF" stroke-width="1.06068" stroke-miterlimit="10"/>
<path d="M289.611 155.979H272.326V167.444H289.611V155.979Z" fill="black" stroke="#B7B6AF" stroke-width="1.06068" stroke-miterlimit="10"/>
<path d="M313.615 149.097H296.33V178.9H313.615V149.097Z" fill="black" stroke="#B7B6AF" stroke-width="1.06068" stroke-miterlimit="10"/>
<path d="M217.591 187.306H200.307V202.593H217.591V187.306Z" fill="#B7B6AF" stroke="#B7B6AF" stroke-width="1.06068" stroke-miterlimit="10"/>
<path d="M241.594 191.128H224.309V202.593H241.594V191.128Z" fill="#B7B6AF" stroke="#B7B6AF" stroke-width="1.06068" stroke-miterlimit="10"/>
<path d="M265.607 159.791H248.322V202.584H265.607V159.791Z" fill="#B7B6AF" stroke="#B7B6AF" stroke-width="1.06068" stroke-miterlimit="10"/>
<path d="M289.611 167.434H272.326V202.583H289.611V167.434Z" fill="#B7B6AF" stroke="#B7B6AF" stroke-width="1.06068" stroke-miterlimit="10"/>
<path d="M313.615 178.9H296.33V202.583H313.615V178.9Z" fill="#B7B6AF" stroke="#B7B6AF" stroke-width="1.06068" stroke-miterlimit="10"/>
<path d="M348.972 89.3731C348.764 89.3748 348.559 89.3186 348.375 89.2098C348.192 89.1009 348.035 88.9427 347.919 88.7494L310.733 28.0156L273.008 73.0659L234.487 44.9466L197.221 54.6299L159.372 89.0563C159.109 89.2952 158.772 89.4076 158.436 89.3686C158.099 89.3296 157.79 89.1425 157.577 88.8484C157.364 88.5542 157.263 88.1773 157.298 87.8003C157.333 87.4234 157.5 87.0774 157.763 86.8384L196.072 51.9962L234.973 41.8871L272.619 69.3728L311.052 23.4709L350.024 87.1355C350.156 87.3491 350.233 87.5991 350.248 87.8586C350.262 88.118 350.213 88.3768 350.106 88.6072C349.998 88.8376 349.837 89.0308 349.638 89.1658C349.44 89.3007 349.212 89.3725 348.98 89.3731H348.972Z" fill="#B7B6AF"/>
<path d="M161.768 87.9474C161.768 88.6465 161.583 89.3299 161.236 89.9112C160.889 90.4925 160.396 90.9456 159.819 91.2131C159.243 91.4806 158.608 91.5506 157.996 91.4142C157.383 91.2779 156.821 90.9412 156.38 90.4469C155.938 89.9525 155.638 89.3227 155.516 88.637C155.394 87.9514 155.456 87.2407 155.695 86.5948C155.934 85.9489 156.339 85.3968 156.858 85.0084C157.377 84.62 157.987 84.4127 158.611 84.4127C159.449 84.4127 160.251 84.7851 160.843 85.448C161.435 86.1109 161.768 87.01 161.768 87.9474Z" fill="black"/>
<path d="M196.646 56.8476C198.389 56.8476 199.803 55.2651 199.803 53.3129C199.803 51.3607 198.389 49.7782 196.646 49.7782C194.903 49.7782 193.49 51.3607 193.49 53.3129C193.49 55.2651 194.903 56.8476 196.646 56.8476Z" fill="black"/>
<path d="M234.726 46.9466C236.469 46.9466 237.882 45.3641 237.882 43.4119C237.882 41.4597 236.469 39.8772 234.726 39.8772C232.982 39.8772 231.569 41.4597 231.569 43.4119C231.569 45.3641 232.982 46.9466 234.726 46.9466Z" fill="black"/>
<path d="M272.805 74.7491C274.548 74.7491 275.961 73.1666 275.961 71.2144C275.961 69.2622 274.548 67.6797 272.805 67.6797C271.062 67.6797 269.649 69.2622 269.649 71.2144C269.649 73.1666 271.062 74.7491 272.805 74.7491Z" fill="black"/>
<path d="M314.041 25.7482C314.041 26.4473 313.856 27.1307 313.509 27.712C313.162 28.2933 312.669 28.7463 312.092 29.0139C311.516 29.2814 310.881 29.3514 310.269 29.215C309.656 29.0786 309.094 28.742 308.653 28.2476C308.211 27.7533 307.911 27.1235 307.789 26.4378C307.667 25.7521 307.729 25.0414 307.968 24.3955C308.207 23.7497 308.612 23.1976 309.131 22.8092C309.65 22.4208 310.26 22.2135 310.884 22.2135C311.722 22.2135 312.524 22.5859 313.116 23.2488C313.708 23.9117 314.041 24.8108 314.041 25.7482Z" fill="black"/>
<path d="M352.12 87.9472C352.12 88.6463 351.935 89.3297 351.588 89.911C351.241 90.4923 350.748 90.9453 350.172 91.2129C349.595 91.4804 348.96 91.5504 348.348 91.414C347.736 91.2776 347.173 90.941 346.732 90.4466C346.291 89.9523 345.99 89.3225 345.868 88.6368C345.746 87.9511 345.809 87.2404 346.048 86.5945C346.287 85.9486 346.691 85.3966 347.21 85.0082C347.729 84.6198 348.34 84.4125 348.964 84.4125C349.801 84.4125 350.604 84.7849 351.196 85.4478C351.788 86.1107 352.12 87.0097 352.12 87.9472Z" fill="black"/>
<path d="M417.033 424.845C450.734 424.845 478.055 420.735 478.055 415.666C478.055 410.597 450.734 406.488 417.033 406.488C383.331 406.488 356.011 410.597 356.011 415.666C356.011 420.735 383.331 424.845 417.033 424.845Z" fill="black"/>
<path opacity="0.7" d="M417.033 424.845C450.734 424.845 478.055 420.735 478.055 415.666C478.055 410.597 450.734 406.488 417.033 406.488C383.331 406.488 356.011 410.597 356.011 415.666C356.011 420.735 383.331 424.845 417.033 424.845Z" fill="white"/>
<path d="M82.7118 424.845C113.811 424.845 139.021 420.735 139.021 415.666C139.021 410.597 113.811 406.488 82.7118 406.488C51.6128 406.488 26.4021 410.597 26.4021 415.666C26.4021 420.735 51.6128 424.845 82.7118 424.845Z" fill="black"/>
<path opacity="0.7" d="M82.7118 424.845C113.811 424.845 139.021 420.735 139.021 415.666C139.021 410.597 113.811 406.488 82.7118 406.488C51.6128 406.488 26.4021 410.597 26.4021 415.666C26.4021 420.735 51.6128 424.845 82.7118 424.845Z" fill="white"/>
<path d="M399.809 92.3237C399.809 92.3237 422.99 89.8088 424.316 94.1356C425.643 98.4624 425.201 108.344 425.201 108.344C426.368 108.684 427.507 109.138 428.604 109.7C428.914 110.037 432.344 112.552 429.144 116.681C428.308 117.727 427.295 118.579 426.164 119.186C424.753 119.885 423.411 120.748 422.159 121.76L417.509 127.671L418.393 135.285C418.393 135.285 420.471 136.968 423.008 142.839C423.008 142.839 429.002 146.8 432.521 149.047C435.415 150.75 438.424 152.194 441.521 153.364C441.521 153.364 443.131 153.949 443.016 155.246C442.901 156.543 435.005 185.939 435.005 185.939L430.85 200.791C430.771 202.616 430.558 204.431 430.214 206.217C429.621 209.415 427.393 211.514 425.086 210.86L425.316 221.752C425.316 221.752 414.476 227.821 396.599 226.791C396.599 226.791 388.182 225.881 381.958 220.722L381.843 195.276L353.162 189.058C353.162 189.058 349.529 188.197 351.394 184.533C353.26 180.87 359.528 171.781 359.528 171.781L379.677 144.176C379.677 144.176 381.065 142.344 381.578 141.76C382.091 141.176 383.346 140.77 388.324 140.305C393.301 139.839 398.88 138.76 398.88 138.76C398.88 138.76 401.904 135.849 402.337 135.849C402.77 135.849 402.859 131.493 402.859 131.493C401.33 130.257 400.058 128.665 399.132 126.825C398.205 124.986 397.646 122.944 397.492 120.839C397.059 113.77 399.826 97.2049 399.826 97.2049L399.809 92.3237Z" fill="white"/>
<path d="M382.312 220.623C382.312 220.623 379.872 261.218 379.872 280.644C379.872 300.07 380.959 315.803 381.498 329.447C382.038 343.091 379.872 352.487 381.764 362.487C383.656 372.487 387.997 401.597 387.997 401.597L393.098 405.042C393.098 405.042 393.982 381.883 395.839 373.705C397.695 365.527 398.279 330.962 399.375 320.348C400.472 309.734 403.982 272.149 403.982 272.149C403.982 272.149 417.517 311.555 420.78 327.021C424.042 342.487 435.129 377.339 437.578 385.824C440.027 394.309 443.802 406.884 443.802 406.884C444.95 407.259 446.154 407.361 447.339 407.181C447.85 407.135 448.343 406.943 448.77 406.625C449.197 406.306 449.544 405.87 449.779 405.359C449.779 405.359 446.181 379.972 444.598 367.636C442.644 352.378 439.461 329.447 437.525 320.961C435.589 312.476 432.654 299.129 432.654 292.763C432.654 286.396 425.351 222.465 425.351 222.465C425.351 222.465 399.906 234.871 382.312 220.623Z" fill="#B7B6AF"/>
<path d="M403.964 272.148L393.107 257.97" stroke="white" stroke-width="0.530341" stroke-miterlimit="10" stroke-linecap="round"/>
<path d="M390.331 259.01L399.269 268.327" stroke="white" stroke-width="0.530341" stroke-miterlimit="10" stroke-linecap="round"/>
<path d="M409.438 260.05C411.726 253.564 415.98 248.187 421.453 244.861" stroke="white" stroke-width="0.530341" stroke-miterlimit="10" stroke-linecap="round"/>
<path d="M422.061 225.89C422.061 225.89 420.832 231.059 422.371 234.168C423.909 237.277 425.456 237.277 425.456 237.277C425.456 237.277 428.224 254.178 428.224 263.842C428.224 273.505 426.376 274.535 428.224 285.228C430.072 295.921 431.309 299.377 431.309 305.585C431.309 311.793 433.767 315.942 435.924 319.734C438.082 323.526 438.701 334.585 438.701 339.051C438.701 343.516 439.929 348.368 441.167 352.853C441.167 352.853 441.459 362.913 443.015 365.269C444.571 367.626 444.863 375.626 444.863 375.626" stroke="white" stroke-width="0.530341" stroke-miterlimit="10" stroke-linecap="round"/>
<path d="M401.736 270.743C401.736 270.743 402.346 278.664 400.189 292.476C398.032 306.288 396.494 310.07 396.184 325.942C395.875 341.813 397.112 344.576 396.494 352.853C395.875 361.13 392.179 374.21 392.179 380.151C392.179 386.091 392.745 405.082 392.745 405.082" stroke="white" stroke-width="0.530341" stroke-miterlimit="10" stroke-linecap="round"/>
<path d="M394.955 227.96L395.574 230.722L399.579 231.752L398.96 228.306" stroke="white" stroke-width="0.530341" stroke-miterlimit="10" stroke-linecap="round"/>
<path d="M399.597 231.752C399.597 231.752 406.988 231.405 410.683 230.029L409.799 227.267" stroke="white" stroke-width="0.530341" stroke-miterlimit="10" stroke-linecap="round"/>
<path d="M413.132 226.574L414.016 230.029C414.016 230.029 419.931 229.653 420.815 228.663" stroke="white" stroke-width="0.530341" stroke-miterlimit="10" stroke-linecap="round"/>
<path d="M395.573 230.722C393.53 230.65 391.528 230.058 389.72 228.99L386.944 227.267L387.828 224.851" stroke="white" stroke-width="0.530341" stroke-miterlimit="10" stroke-linecap="round"/>
<path d="M387.997 401.597C387.997 401.597 374.735 411.29 372.834 415.834C370.934 420.379 378.519 418.567 383.93 416.141C389.341 413.716 392.771 405.042 392.771 405.042L387.997 401.597Z" fill="white" stroke="#B7B6AF" stroke-width="1.06068" stroke-miterlimit="10" stroke-linecap="round"/>
<path d="M444.227 407.012C444.896 411.165 446.212 415.154 448.117 418.795C451.035 423.874 456.543 428.231 456.543 420.24C456.543 412.25 449.744 405.389 449.744 405.389C449.744 405.389 446.366 407.438 444.227 407.012Z" fill="white" stroke="#B7B6AF" stroke-width="1.06068" stroke-miterlimit="10" stroke-linecap="round"/>
<path d="M399.73 97.809C399.73 97.809 396.857 117.77 397.829 122.72C400.048 133.8 407.837 133.324 412.709 131.206C417.262 129.225 421.806 122.225 422.39 121.304C422.431 121.239 422.49 121.191 422.558 121.166C423.283 120.938 427.783 119.334 429.764 115.443C431.93 111.195 427.871 109.383 427.871 109.383" fill="white"/>
<mask id="mask0_1_6869" style="mask-type:luminance" maskUnits="userSpaceOnUse" x="397" y="97" width="34" height="36">
<path d="M399.728 97.8087C399.728 97.8087 396.855 117.769 397.828 122.72C400.047 133.799 407.836 133.324 412.707 131.205C417.261 129.225 421.805 122.225 422.389 121.304C422.43 121.239 422.489 121.191 422.556 121.166C423.281 120.938 427.782 119.334 429.762 115.443C431.928 111.195 427.87 109.383 427.87 109.383" fill="white"/>
</mask>
<g mask="url(#mask0_1_6869)">
<g style="mix-blend-mode:multiply" opacity="0.5">
<path d="M418.163 126.443L422.46 121.156C422.46 121.156 427.544 119.403 429.763 115.393C431.063 113.047 430.346 110.997 429.56 110.443C428.481 109.789 427.368 109.21 426.226 108.71L424.785 112.265L423.556 112.502C423.556 112.502 424.069 108.839 422.584 106.67C421.099 104.502 420.763 98.2247 420.763 98.2247C420.763 98.2247 418.685 110.74 418.428 115.978C418.362 118.892 417.549 121.725 416.086 124.136C416.086 124.136 416.351 127.334 416.864 130.532C416.925 130.908 416.987 131.473 417.049 132.176L417.757 130.909L418.146 132.116C417.703 130.037 417.5 127.829 418.163 126.443Z" fill="black"/>
</g>
</g>
<path d="M399.73 97.809C399.73 97.809 396.857 117.77 397.829 122.72C400.048 133.8 407.837 133.324 412.709 131.206C417.262 129.225 421.806 122.225 422.39 121.304C422.431 121.239 422.49 121.191 422.558 121.166C423.283 120.938 427.783 119.334 429.764 115.443C431.93 111.195 427.871 109.383 427.871 109.383" stroke="#B7B6AF" stroke-width="1.06068" stroke-miterlimit="10" stroke-linecap="round"/>
<path d="M410.727 107.958C410.559 108.75 410.727 109.463 411.054 109.552C411.382 109.641 411.824 109.086 411.992 108.304C412.16 107.522 411.992 106.809 411.664 106.71C411.337 106.611 410.895 107.175 410.727 107.958Z" fill="#B7B6AF"/>
<path d="M403.133 105.888C402.965 106.68 403.133 107.393 403.46 107.482C403.787 107.571 404.229 107.017 404.397 106.235C404.565 105.453 404.397 104.73 404.07 104.641C403.743 104.552 403.292 105.096 403.133 105.888Z" fill="#B7B6AF"/>
<path d="M415.44 104.492C415.022 103.669 414.427 102.976 413.709 102.476C412.991 101.976 412.173 101.686 411.329 101.631" stroke="#B7B6AF" stroke-width="1.06068" stroke-miterlimit="10" stroke-linecap="round"/>
<path d="M405.511 101.78C404.815 101.439 404.043 101.343 403.297 101.506C402.552 101.669 401.868 102.083 401.338 102.692" stroke="#B7B6AF" stroke-width="1.06068" stroke-miterlimit="10" stroke-linecap="round"/>
<path d="M406.024 105.383C406.041 106.71 405.952 108.035 405.759 109.344C405.467 110.997 404.318 111.324 404.61 112.601C404.901 113.878 406.378 114.007 406.378 114.007" stroke="#B7B6AF" stroke-width="1.06068" stroke-miterlimit="10" stroke-linecap="round"/>
<path d="M407.917 119.168C408.542 119.392 409.204 119.461 409.856 119.37C410.507 119.279 411.134 119.03 411.692 118.641" stroke="#B7B6AF" stroke-width="1.06068" stroke-miterlimit="10" stroke-linecap="round"/>
<path d="M421.921 83.8679C421.921 83.8679 415.971 78.1055 410.286 78.1055C404.601 78.1055 399.995 81.7491 396.476 82.0659C392.957 82.3828 390.526 78.7292 388.36 83.5808C386.194 88.4324 394.319 96.6207 399.73 97.8286C405.141 99.0365 412.718 97.2246 414.884 96.9177C416.959 96.7584 419.042 96.7584 421.117 96.9177C421.117 96.9177 419.49 102.68 421.117 104.502C422.744 106.324 423.009 107.532 423.009 108.74C423.102 110.073 423.282 111.397 423.548 112.7L425.175 113.314L425.988 109.977C428.183 107.356 429.683 104.103 430.32 100.581C431.125 95.1256 427.067 89.6898 427.067 89.6898L421.921 83.8679Z" fill="#B7B6AF"/>
<path d="M399.127 95.3436C399.127 95.3436 408.384 97.3239 415.633 93.9476C422.883 90.5713 416.632 83.8682 416.632 83.8682" stroke="white" stroke-width="0.530341" stroke-miterlimit="10" stroke-linecap="round"/>
<path d="M418.164 83.3036C418.915 83.3036 425.166 88.6205 423.91 92.5414C422.655 96.4622 420.162 96.7494 420.162 96.7494" stroke="white" stroke-width="0.530341" stroke-miterlimit="10" stroke-linecap="round"/>
<path d="M417.138 203.573L409.322 198.959C407.313 198.835 405.315 198.544 403.345 198.088C401.524 197.504 382.834 195.504 382.834 195.504L382.551 200.454C382.551 200.454 403.867 203.662 408.279 204.247C412.69 204.831 416.598 207.158 417.376 208.613C418.154 210.069 419.719 211.524 418.941 215.544C418.163 219.564 412.964 225.445 412.964 225.445C412.717 225.029 425.466 223.999 425.342 222.475C425.068 219.445 423.627 210.593 423.627 210.593L417.138 203.573Z" fill="black"/>
<path opacity="0.5" d="M417.138 203.573L409.322 198.959C407.313 198.835 405.315 198.544 403.345 198.088C401.524 197.504 382.834 195.504 382.834 195.504L382.551 200.454C382.551 200.454 403.867 203.662 408.279 204.247C412.69 204.831 416.598 207.158 417.376 208.613C418.154 210.069 419.719 211.524 418.941 215.544C418.163 219.564 412.964 225.445 412.964 225.445C412.761 224.999 425.492 223.99 425.342 222.475C424.927 218.613 423.627 210.593 423.627 210.593L417.138 203.573Z" fill="white"/>
<path d="M442.918 155.137C442.228 151.513 437.083 151.998 433.979 149.988C430.876 147.978 423.37 143.325 423.37 143.325L419.736 137.206C419.08 135.556 418.551 133.847 418.154 132.097L417.765 130.889L417.057 132.156C417.508 137.582 417.941 151.473 417.941 151.473L419.498 160.206C419.498 160.206 425.483 189.019 427.039 195.425C428.595 201.831 428.595 206.187 427.561 208.227C426.526 210.266 426.871 211.197 426.871 211.197C426.871 211.197 430.929 207.682 430.682 204.197C430.355 200.098 443.404 157.592 442.918 155.137Z" fill="black"/>
<path opacity="0.5" d="M442.918 155.137C442.564 151.454 437.083 151.998 433.979 149.988C430.876 147.978 423.37 143.325 423.37 143.325L419.736 137.206C419.08 135.556 418.551 133.847 418.154 132.097L417.765 130.889L417.057 132.156C417.508 137.582 417.941 151.473 417.941 151.473L419.498 160.206C419.498 160.206 425.483 189.019 427.039 195.425C428.595 201.831 428.595 206.187 427.561 208.227C426.526 210.266 426.871 211.197 426.871 211.197C426.871 211.197 431.044 207.672 430.682 204.197C430.266 200.464 443.236 158.196 442.918 155.137Z" fill="white"/>
<path d="M420.205 151.503C420.205 151.503 418.578 135.136 417.765 130.889C416.952 126.641 417.5 124.225 413.981 124.225C410.462 124.225 406.13 123.611 406.908 125.74C407.686 127.869 413.097 126.037 413.981 126.948C414.865 127.859 414.246 129.978 414.246 129.978C414.246 129.978 407.173 130.592 407.173 132.71C407.173 134.829 407.447 140.631 408.8 141.196C410.153 141.76 410.692 138.473 410.692 138.473C410.692 138.473 410.966 145.404 412.319 147.869C413.18 149.392 414.179 150.812 415.298 152.107L420.205 151.503Z" fill="white" stroke="#B7B6AF" stroke-width="1.06068" stroke-miterlimit="10" stroke-linecap="round"/>
<path d="M415.334 156.048C415.334 156.048 414.521 193.672 415.874 199.702C417.226 205.732 424.538 213.95 428.322 210.009C432.106 206.068 430.223 197.583 430.223 193.643C430.223 189.702 421.559 160.602 421.559 158.474C421.43 156.706 421.063 154.97 420.471 153.325" stroke="#B7B6AF" stroke-width="1.06068" stroke-miterlimit="10" stroke-linecap="round"/>
<path d="M415.874 160.604L421.285 159.988" stroke="#B7B6AF" stroke-width="1.06068" stroke-miterlimit="10" stroke-linecap="round"/>
<path d="M381.269 179.414L382.312 145.938C382.312 145.938 381.013 145.067 380.491 148.265C379.97 151.463 379.713 157.879 379.713 157.879C379.713 157.879 373.471 153.513 375.036 156.127C376.601 158.741 379.192 164.572 379.192 164.572L369.537 175.335L373.958 177.375L381.269 179.414Z" fill="black"/>
<path opacity="0.5" d="M381.269 179.414L382.312 145.938C382.312 145.938 381.013 145.067 380.491 148.265C379.97 151.463 379.713 157.879 379.713 157.879C379.713 157.879 373.471 153.513 375.036 156.127C376.601 158.741 379.192 164.572 379.192 164.572L369.537 175.335L373.958 177.375L381.269 179.414Z" fill="white"/>
<path d="M394.213 153.414C394.213 153.414 393.717 155.394 395.795 155.394C397.873 155.394 401.524 153.741 401.524 153.741L401.259 150.453C401.259 150.453 396.264 153.176 394.213 153.414Z" fill="black"/>
<path opacity="0.5" d="M394.213 153.414C394.213 153.414 393.717 155.394 395.795 155.394C397.873 155.394 401.524 153.741 401.524 153.741L401.259 150.453C401.259 150.453 396.264 153.176 394.213 153.414Z" fill="white"/>
<path d="M403.133 131.275C403.133 131.275 400.428 149.097 402.055 153.057C403.681 157.018 406.113 156.087 408.005 154.275C409.897 152.463 412.337 147.909 412.337 147.909" stroke="#B7B6AF" stroke-width="1.06068" stroke-miterlimit="10" stroke-linecap="round"/>
<path d="M381.764 195.761L382.312 220.623C382.312 220.623 388.501 227.286 400.446 227.286C412.39 227.286 425.351 222.435 425.351 222.435V213.643" stroke="#B7B6AF" stroke-width="1.06068" stroke-miterlimit="10" stroke-linecap="round"/>
<path d="M418.314 134.829C418.314 134.829 423.185 140.285 423.185 145.444C423.185 150.602 422.372 151.81 422.372 151.81" stroke="#B7B6AF" stroke-width="1.06068" stroke-miterlimit="10" stroke-linecap="round"/>
<path d="M422.637 142.414C422.637 142.414 429.949 147.255 434.007 149.988C438.065 152.721 442.946 152.711 442.946 155.137C442.946 157.562 431.576 198.791 431.576 198.791" stroke="#B7B6AF" stroke-width="1.06068" stroke-miterlimit="10" stroke-linecap="round"/>
<path d="M427.243 156.047L424.537 168.176" stroke="#B7B6AF" stroke-width="1.06068" stroke-miterlimit="10" stroke-linecap="round"/>
<path d="M381.835 163.166L377.458 152.889" stroke="#B7B6AF" stroke-width="0.530341" stroke-miterlimit="10" stroke-linecap="round"/>
<path d="M381.835 166.107L375.274 161.701" stroke="#B7B6AF" stroke-width="0.530341" stroke-miterlimit="10" stroke-linecap="round"/>
<path d="M403.239 189.098L401.931 196.444" stroke="#B7B6AF" stroke-width="0.530341" stroke-miterlimit="10" stroke-linecap="round"/>
<path d="M438.63 154.85C438.63 154.85 432.078 156.315 425.96 164.632" stroke="#B7B6AF" stroke-width="0.530341" stroke-miterlimit="10" stroke-linecap="round"/>
<path d="M434.263 154.404C434.263 154.404 432.495 153.909 426.403 159.78" stroke="#B7B6AF" stroke-width="0.530341" stroke-miterlimit="10" stroke-linecap="round"/>
<path d="M403.24 156.81L400.622 179.8L402.806 180.296L404.557 172.959" stroke="#B7B6AF" stroke-width="0.530341" stroke-miterlimit="10" stroke-linecap="round"/>
<path d="M404.99 216.989C397.121 224.336 386.202 223.841 386.202 223.841" stroke="#B7B6AF" stroke-width="0.530341" stroke-miterlimit="10" stroke-linecap="round"/>
<path d="M371.737 177.058C371.737 177.058 366.388 171.572 358.811 178.553" stroke="#B7B6AF" stroke-width="0.530341" stroke-miterlimit="10" stroke-linecap="round"/>
<path d="M402.611 135.74C402.611 135.74 400.445 136.344 398.004 140.592C395.564 144.839 392.594 152.107 394.76 152.711C396.926 153.315 400.949 150.592 400.949 150.592" stroke="#B7B6AF" stroke-width="1.06068" stroke-miterlimit="10" stroke-linecap="round"/>
<path d="M411.002 151.81L413.707 154.533" stroke="#B7B6AF" stroke-width="1.06068" stroke-miterlimit="10" stroke-linecap="round"/>
<path d="M398.818 138.77C398.818 138.77 388.801 140.285 384.743 140.592C380.685 140.899 381.472 142.572 380.146 143.622C378.006 145.295 353.463 180.137 351.854 183.474C350.245 186.811 350.501 188.325 353.207 189.236C355.912 190.147 382.86 195.454 382.86 195.454L406.669 198.187L408.561 191.514C408.561 191.514 414.096 192.335 415.069 192.335" stroke="#B7B6AF" stroke-width="1.06068" stroke-miterlimit="10" stroke-linecap="round"/>
<path d="M405.857 189.058C400.602 187.351 395.522 185.028 390.703 182.127" stroke="#B7B6AF" stroke-width="1.06068" stroke-miterlimit="10" stroke-linecap="round"/>
<path d="M388.536 181.514C388.536 181.514 380.579 178.207 376.274 177.603C371.968 176.999 365.372 176.801 365.372 176.801" stroke="#B7B6AF" stroke-width="1.06068" stroke-miterlimit="10" stroke-linecap="round"/>
<path d="M381.224 177.573L382.038 153.622" stroke="#B7B6AF" stroke-width="1.06068" stroke-miterlimit="10" stroke-linecap="round"/>
<path d="M406.669 198.187C408.527 199.233 410.472 200.069 412.478 200.682" stroke="#B7B6AF" stroke-width="1.06068" stroke-miterlimit="10" stroke-linecap="round"/>
<path d="M52.4294 178.89L55.6211 159.355L75.8232 150.444C75.8232 150.444 76.8046 144.374 77.7948 144.107C78.7851 143.84 79.7576 141.345 79.7576 141.345L79.2713 136.345C79.2713 136.345 81.1191 128.424 90.4112 134.592C90.4112 134.592 87.5998 136.691 88.086 137.562C88.5723 138.434 87.5467 141.206 88.7756 141.206C90.0046 141.206 92.4889 142.959 93.7444 144.374C94.6231 145.432 95.3995 146.59 96.0608 147.83L106.52 148.503C107.592 148.513 108.659 148.676 109.694 148.988C109.871 143.265 109.243 138.899 108.005 135.503C103.505 123.245 95.3004 118.869 94.1246 112.73C92.9487 106.592 93.541 105.948 93.541 105.948C94.7367 104.587 95.6121 102.914 96.0889 101.081C96.5656 99.2475 96.6289 97.3103 96.273 95.4428C95.1059 88.8784 90.6058 84.2743 74.3821 83.403C58.1585 82.5317 60.5103 94.9973 60.5103 94.9973L60.7048 95.8686C60.7048 95.8686 50.3429 99.8291 52.3056 114.473C54.2684 129.117 59.9267 135.483 59.7322 140.077C59.5377 144.671 53.4727 146.424 44.8702 156.909C36.2677 167.395 34.5171 183.167 38.0359 193.455C39.8042 198.514 43.2611 202.732 47.6021 205.88L52.4294 178.89Z" fill="#B7B6AF"/>
<path d="M65.9744 180.821V185.237L58.4859 211.148C63.1653 212.535 68.0726 212.65 72.7999 211.485C75.4683 210.706 78.0187 209.488 80.3679 207.871L65.9744 180.821Z" fill="#B7B6AF"/>
<path d="M87.5027 137.404L88.3868 141.859C88.3868 141.859 91.0392 138.889 96.2202 147.909C96.2202 147.909 106.989 147.622 109.924 149.265C109.924 149.265 110.534 149.463 112.523 151.83C114.513 154.196 121.992 161.731 121.992 161.731C121.992 161.731 131.594 171.711 132.549 172.484C133.504 173.256 137.084 177.088 139.763 178.424L146.942 160.117L150.143 151.058L151.911 143.602H152.477L152.601 137.592L152.167 130.424C152.238 130.059 152.387 129.719 152.601 129.433C153.342 128.283 153.912 127.006 154.289 125.651C154.289 124.978 153.679 120.998 153.679 120.998C153.679 120.998 153.379 120.008 154.033 119.889C154.687 119.77 157.101 120.71 157.401 122.602L158.285 122.265C159.018 120.306 159.93 118.438 161.009 116.691C162.441 114.611 163.908 113.304 164.819 113.978C165.069 114.171 165.249 114.457 165.327 114.786C165.405 115.115 165.375 115.463 165.243 115.77L162.397 121.631C162.397 121.631 161.141 123.522 162.697 124.196C162.697 124.196 166.066 126.621 166.287 128.75C166.508 130.879 165.288 132.711 164.209 134.275C163.13 135.839 161.23 139.226 161.23 139.226L159.019 141.414L158.135 145.186L159.178 146.642L157.622 154.196L156.5 159.86L155.934 163.295L152.397 176.86L148.861 188.682C148.861 188.682 147.039 195.454 142.628 195.266C138.216 195.078 133.38 192.405 131.815 191.534C130.25 190.662 117.351 183.118 117.351 183.118L114.698 181.712C115.052 183.064 115.205 184.472 115.149 185.88C115.105 188.494 112.594 194.256 111.86 195.563L111.427 205.781C111.256 207.554 111.285 209.344 111.515 211.108C111.904 213.772 113.894 228.841 114.327 230.722C114.327 230.722 110.03 235.079 97.228 237.148C84.426 239.218 78.4316 235.861 78.4316 235.861L72.729 232.109L79.7578 216.554C79.7578 216.554 81.526 211.93 81.3492 210.712C81.1724 209.494 78.1487 204.247 78.1487 204.247L67.053 182.127L66.5314 182.325L64.8073 188.781L58.5743 210.673L50.3696 238C50.3696 238 48.124 244.931 47.1956 246.98L44.6052 255.822C44.749 257.401 45.0975 258.949 45.6396 260.416L39.1236 255.693L40.2818 248.762L41.7229 238.425L43.4912 227.188L45.0472 217.89L47.5316 205.494L48.4157 202.068L50.1839 192.385L53.2961 174.82L55.9484 159.781L74.515 151.513L75.6732 150.523C75.9307 148.609 76.5583 146.781 77.5121 145.166C78.1741 144.104 78.9624 143.148 79.8551 142.325C79.8551 142.325 79.7666 141.028 79.7048 139.8C79.6429 138.572 79.36 136.315 79.36 136.315C79.36 136.315 85.0979 139.077 87.5027 137.404Z" fill="white"/>
<path d="M62.6325 97.6111C62.6325 97.6111 66.0718 89.0862 72.9502 89.0862C79.8287 89.0862 94.0719 104.215 94.0719 104.215" stroke="white" stroke-width="0.530341" stroke-miterlimit="10" stroke-linecap="round"/>
<path d="M65.5764 98.9578C65.5764 98.9578 69.7494 94.0072 74.9127 95.928C80.0759 97.8488 80.8098 104.73 80.8098 104.73" stroke="white" stroke-width="0.530341" stroke-miterlimit="10" stroke-linecap="round"/>
<path d="M62.1371 99.8091C62.1371 99.8091 56.0013 103.661 55.5062 110.819C55.0111 117.978 64.0999 126.493 65.3288 136.127C66.5577 145.76 60.1744 147.949 49.8567 155.929C39.539 163.909 41.263 181.781 43.4733 185.632" stroke="white" stroke-width="0.530341" stroke-miterlimit="10" stroke-linecap="round"/>
<path d="M44.702 187.841C44.702 187.841 46.1696 191.415 48.3799 192.514" stroke="white" stroke-width="0.530341" stroke-miterlimit="10" stroke-linecap="round"/>
<path d="M62.8796 118.513C62.589 119.211 62.4587 119.98 62.5004 120.75C62.542 121.519 62.7544 122.264 63.1183 122.919C64.3472 125.394 73.7278 137.77 72.9497 143.553C72.1717 149.335 67.3002 152.899 67.3002 152.899" stroke="white" stroke-width="0.530341" stroke-miterlimit="10" stroke-linecap="round"/>
<path d="M67.5399 99.8091C67.5399 99.8091 61.8904 102.562 62.1379 108.888C62.3855 115.215 63.6144 116.869 63.6144 116.869" stroke="white" stroke-width="0.530341" stroke-miterlimit="10" stroke-linecap="round"/>
<path d="M94.072 120.74C95.8274 125.191 98.2361 129.28 101.198 132.84C105.619 137.79 106.105 144.949 106.105 144.949" stroke="white" stroke-width="0.530341" stroke-miterlimit="10" stroke-linecap="round"/>
<path d="M99.2252 136.394C99.2252 136.394 101.435 142.176 101.435 145.751" stroke="white" stroke-width="0.530341" stroke-miterlimit="10" stroke-linecap="round"/>
<path d="M86.9981 137.929L80.0578 144.929C80.0578 144.929 79.3151 147.048 77.9182 150.444C76.5213 153.84 76.7512 160.345 76.7512 160.345L81.0303 169.88C81.0303 169.88 72.7991 159.305 72.3305 157.998C71.862 156.692 63.2506 159.048 61.6238 159.83C59.9971 160.612 57.8928 162.177 58.3614 164.523C58.83 166.87 60.9254 169.989 59.9882 170.514C59.0511 171.038 56.4959 169.731 56.4959 171.296C56.4959 172.86 59.5285 178.86 58.1316 180.939C56.7346 183.019 47.8846 216.663 47.8846 216.663C47.8846 216.663 53.4722 211.445 52.0753 213.534C50.6784 215.623 43.9326 232.564 43.9326 232.564L41.3686 242.465L47.4249 207.277L52.5439 177.573L55.6207 159.355C58.5913 158.246 75.8228 150.444 75.8228 150.444C75.8228 150.444 77.1844 144.028 79.7572 141.345L79.2709 136.345C79.2709 136.345 83.9656 138.186 86.9981 137.929Z" fill="black"/>
<path opacity="0.5" d="M86.9981 137.929L80.0578 144.929C80.0578 144.929 79.3151 147.048 77.9182 150.444C76.5213 153.84 76.7512 160.345 76.7512 160.345L81.0303 169.88C81.0303 169.88 72.7991 159.305 72.3305 157.998C71.862 156.692 63.2506 159.048 61.6238 159.83C59.9971 160.612 57.8928 162.177 58.3614 164.523C58.83 166.87 60.9254 169.989 59.9882 170.514C59.0511 171.038 56.4959 169.731 56.4959 171.296C56.4959 172.86 59.5285 178.86 58.1316 180.939C56.7346 183.019 47.8846 216.663 47.8846 216.663C47.8846 216.663 53.4722 211.445 52.0753 213.534C50.6784 215.623 43.9326 232.564 43.9326 232.564L41.3686 242.465L47.4249 207.277L52.5439 177.573L55.6207 159.355C58.5913 158.246 75.8228 150.444 75.8228 150.444C75.8228 150.444 76.1942 144.503 79.766 142.424L79.2709 136.345C79.2709 136.345 83.9656 138.186 86.9981 137.929Z" fill="white"/>
<path d="M112.832 173.117C112.832 173.117 117.023 165.305 117.491 167.127C117.96 168.949 116.324 175.197 116.324 175.197C116.324 175.197 120.745 173.375 120.285 174.939C119.826 176.504 118.888 177.286 119.118 178.068C119.348 178.85 134.484 187.712 136.35 188.751C138.215 189.791 142.636 183.801 144.731 185.623C146.827 187.444 144.731 193.692 140.541 193.702C136.35 193.712 124.246 187.761 124.246 187.761L114.715 181.553" fill="black"/>
<path opacity="0.5" d="M112.832 173.117C112.832 173.117 117.023 165.305 117.491 167.127C117.96 168.949 116.324 175.197 116.324 175.197C116.324 175.197 120.745 173.375 120.285 174.939C119.826 176.504 118.888 177.286 119.118 178.068C119.348 178.85 134.484 187.712 136.35 188.751C138.215 189.791 142.636 183.801 144.731 185.623C146.827 187.444 144.731 193.692 140.541 193.702C136.35 193.712 124.246 187.761 124.246 187.761L114.751 181.573" fill="white"/>
<path d="M87.6967 204.663C87.6967 204.663 114.91 188.504 110.489 194.494C106.069 200.484 91.4188 207.277 87.6967 204.663Z" fill="black"/>
<path opacity="0.5" d="M87.6967 204.663C87.6967 204.663 114.91 188.504 110.489 194.494C106.069 200.484 91.4188 207.277 87.6967 204.663Z" fill="white"/>
<path d="M79.2711 136.394C79.2711 136.394 79.4656 140.552 80.058 144.929C80.6503 149.305 80.447 149.305 84.1603 154.553C87.8736 159.8 91.7814 164.187 92.3649 163.315" stroke="#B7B6AF" stroke-width="1.06068" stroke-miterlimit="10" stroke-linecap="round"/>
<path d="M92.5594 161.781C92.5594 161.781 92.9484 154.117 91.5869 149.088C90.2254 144.058 88.2626 142.295 88.2626 141.167C88.1965 139.991 88.0666 138.82 87.8736 137.662" stroke="#B7B6AF" stroke-width="1.06068" stroke-miterlimit="10" stroke-linecap="round"/>
<path d="M79.2711 142.741C77.7095 144.315 76.617 146.389 76.1413 148.681C75.5578 152.177 74.9743 156.335 74.9743 156.335L81.0305 169.91C81.5578 167.546 82.3448 165.264 83.3735 163.117C83.8829 162.058 84.5428 161.098 85.3274 160.276" stroke="#B7B6AF" stroke-width="1.06068" stroke-miterlimit="10" stroke-linecap="round"/>
<path d="M93.9299 158.058C94.3575 157.938 94.8021 157.915 95.2378 157.99C95.6735 158.064 96.0915 158.236 96.4674 158.494C98.0322 159.375 101.162 163.969 101.162 163.969C101.162 163.969 99.0136 152.583 95.3003 146.681C91.587 140.78 89.0407 141.206 89.0407 141.206" stroke="#B7B6AF" stroke-width="1.06068" stroke-miterlimit="10" stroke-linecap="round"/>
<path d="M74.3819 151.275L55.6209 159.355C55.6209 159.355 48.7866 201.157 46.2404 212.316C43.6941 223.475 39.4061 255 39.4061 255L44.481 256.089L46.2492 250.406" stroke="#B7B6AF" stroke-linecap="round" stroke-linejoin="round"/>
<path d="M47.2221 247.138C47.2221 247.138 48.3891 245.158 51.5189 234.267C54.6487 223.376 63.0125 196.643 64.4182 191.365C65.824 186.088 66.9557 182.613 66.9557 182.613" stroke="#B7B6AF" stroke-width="1.06068" stroke-miterlimit="10" stroke-linecap="round"/>
<path d="M63.6317 176.187C63.6317 176.187 79.4575 207.871 80.8278 209.237C82.1982 210.603 80.2443 214.267 79.8465 216.237" stroke="#B7B6AF" stroke-width="1.06068" stroke-miterlimit="10" stroke-linecap="round"/>
<path d="M78.0955 220.217L73.0207 232.039C73.0207 232.039 76.345 237.732 90.4113 237.732C98.7824 237.761 107.034 235.504 114.451 231.158C114.451 231.158 111.126 211.464 111.321 207.959C111.515 204.454 111.913 195.266 111.913 195.266C111.913 195.266 115.45 189.325 115.034 184.761C114.619 180.197 112.886 174.909 112.886 174.038C112.886 173.167 112.497 163.751 112.497 163.751" stroke="#B7B6AF" stroke-width="1.06068" stroke-miterlimit="10" stroke-linecap="round"/>
<path d="M90.3848 200.762L104.389 191.138" stroke="#B7B6AF" stroke-width="0.530341" stroke-miterlimit="10" stroke-linecap="round"/>
<path d="M97.7577 197.742L105.37 192.791" stroke="#B7B6AF" stroke-width="0.530341" stroke-miterlimit="10" stroke-linecap="round"/>
<path d="M139.665 178.632L136.809 186.464" stroke="#B7B6AF" stroke-width="0.530341" stroke-miterlimit="10" stroke-linecap="round"/>
<path d="M138.526 182.058L135.83 185.088" stroke="#B7B6AF" stroke-width="0.530341" stroke-miterlimit="10" stroke-linecap="round"/>
<path d="M58.6978 209.851C58.6978 209.851 54.0296 215.9 50.8379 218.376" stroke="#B7B6AF" stroke-width="0.530341" stroke-miterlimit="10" stroke-linecap="round"/>
<path d="M56.0017 211.494C56.0017 211.494 47.8943 218.643 45.9315 220.297" stroke="#B7B6AF" stroke-width="0.530341" stroke-miterlimit="10" stroke-linecap="round"/>
<path d="M57.4422 160.602C59.8862 164.472 62.1012 168.517 64.0731 172.712" stroke="#B7B6AF" stroke-width="0.530341" stroke-miterlimit="10" stroke-linecap="round"/>
<path d="M64.8419 174.632L66.5571 177.93" stroke="#B7B6AF" stroke-width="0.530341" stroke-miterlimit="10" stroke-linecap="round"/>
<path d="M112.886 174.038L115.034 161.781" stroke="#B7B6AF" stroke-width="0.530341" stroke-miterlimit="10" stroke-linecap="round"/>
<path d="M113.672 174.909L116.988 169.662" stroke="#B7B6AF" stroke-width="0.530341" stroke-miterlimit="10" stroke-linecap="round"/>
<path d="M66.955 182.573L57.5745 176.88" stroke="#B7B6AF" stroke-width="0.530341" stroke-miterlimit="10" stroke-linecap="round"/>
<path d="M92.1704 164.405C92.1704 164.405 95.7069 172.325 96.8651 177.979" stroke="#B7B6AF" stroke-width="0.530341" stroke-miterlimit="10" stroke-linecap="round"/>
<path d="M150.213 150.612C151.148 150.535 152.088 150.67 152.975 151.011C153.863 151.351 154.679 151.889 155.376 152.592" stroke="#B7B6AF" stroke-width="0.530341" stroke-miterlimit="10" stroke-linecap="round"/>
<path d="M42.8018 249.564L45.2243 250.576" stroke="#B7B6AF" stroke-width="0.530341" stroke-miterlimit="10" stroke-linecap="round"/>
<path d="M39.3451 255.396C39.3755 259.161 39.1983 262.924 38.8146 266.664C38.2311 271.268 38.4256 281.773 39.2036 285.05C39.9817 288.327 40.3795 289.011 41.1575 287.03C41.9356 285.05 44.2873 273.466 44.2873 273.466C44.2873 273.466 44.6764 281.119 46.4358 280.466C48.1952 279.812 47.2226 276.09 47.2226 272.802C47.2226 269.515 47.4171 268.426 47.2226 265.802C47.0281 263.178 44.42 256.693 44.42 256.693" fill="white"/>
<path d="M39.3451 255.396C39.3755 259.161 39.1983 262.924 38.8146 266.664C38.2311 271.268 38.4256 281.773 39.2036 285.05C39.9817 288.327 40.3795 289.011 41.1575 287.03C41.9356 285.05 44.2873 273.466 44.2873 273.466C44.2873 273.466 44.6764 281.119 46.4358 280.466C48.1952 279.812 47.2226 276.09 47.2226 272.802C47.2226 269.515 47.4171 268.426 47.2226 265.802C47.0281 263.178 44.42 256.693 44.42 256.693" stroke="#B7B6AF" stroke-miterlimit="10" stroke-linecap="round"/>
<path d="M152.494 143.434C152.405 141.498 152.405 139.558 152.494 137.622C152.653 135.8 152.007 133.077 152.167 130.691C152.326 128.305 154.439 127.423 154.112 124.334C153.785 121.245 153.139 120.879 153.625 120.156C154.112 119.433 157.162 120.512 157.356 122.512C157.53 124.571 157.53 126.643 157.356 128.701C157.197 129.245 158.329 132.661 157.684 134.146C157.314 134.951 157.04 135.806 156.87 136.691" stroke="#B7B6AF" stroke-width="0.880843" stroke-miterlimit="10" stroke-linecap="round"/>
<path d="M158.011 122.354C158.011 122.354 161.742 113.998 163.855 113.81C165.968 113.621 165.314 115.79 164.66 116.899C164.005 118.008 161.901 121.988 161.742 123.632C161.583 125.275 159.629 130.711 159.629 130.711" stroke="#B7B6AF" stroke-width="0.880843" stroke-miterlimit="10" stroke-linecap="round"/>
<path d="M161.768 123.631C161.768 123.631 167.453 127.443 166.189 130.562C164.925 133.681 164.235 134.929 163.263 134.523C162.4 134.029 161.629 133.357 160.99 132.543" stroke="#B7B6AF" stroke-width="0.880843" stroke-miterlimit="10" stroke-linecap="round"/>
<path d="M163.856 134.533C163.856 134.533 162.388 137.255 161.257 138.899C160.606 139.848 159.834 140.686 158.967 141.384L158.277 144.067" stroke="#B7B6AF" stroke-width="0.880843" stroke-miterlimit="10" stroke-linecap="round"/>
<path d="M95.6896 147.77C95.6896 147.77 109.172 147.553 110.932 149.959C112.691 152.364 133.999 174.256 136.571 176.226C139.144 178.197 139.701 178.632 139.701 178.632C139.701 178.632 150.249 151.899 150.249 150.612C150.249 149.325 152.017 143.394 152.017 143.394C152.017 143.394 155.341 143.83 156.128 143.83C156.915 143.83 159.055 146.681 159.055 146.681C159.055 146.681 156.128 160.028 156.128 161.533C156.128 163.038 150.655 183.86 148.109 190.246C145.563 196.633 142.053 195.712 136.386 193.741C130.718 191.771 115.282 181.929 115.282 181.929" stroke="#B7B6AF" stroke-width="1.06068" stroke-miterlimit="10" stroke-linecap="round"/>
<path d="M73.0201 232.039C73.0201 232.039 65.1956 253.961 63.0826 268.882C60.9695 283.803 61.8713 318.694 61.2613 322.427C60.6512 326.16 52.1814 343.774 52.1814 352.249C52.1814 360.725 47.6458 404.439 47.6458 404.439L50.6695 406.468C50.6695 406.468 61.279 369.834 65.1956 360.378C69.1123 350.923 74.5761 328.526 76.088 324.12C77.5998 319.714 88.2005 284.466 88.8017 280.06C89.4029 275.654 93.0366 264.812 93.0366 264.812C93.0366 264.812 100.905 318.694 102.417 329.883C103.929 341.071 114.521 401.726 114.521 401.726C115.216 401.916 115.927 402.029 116.643 402.062C117.527 402.062 117.854 400.369 117.854 400.369C117.854 400.369 122.089 357.329 120.878 345.804C119.666 334.279 116.041 320.061 116.041 315.981C116.041 311.902 121.488 276.674 121.488 264.495C121.488 252.317 114.415 231.178 114.415 231.178C114.415 231.178 89.3145 245.356 73.0201 232.039Z" fill="#B7B6AF"/>
<path d="M115.927 318.219C115.927 318.219 113.23 331.15 109.543 338.021" stroke="white" stroke-width="0.530341" stroke-miterlimit="10" stroke-linecap="round"/>
<path d="M115.193 331.427C115.193 331.427 112.983 340.774 108.562 345.18" stroke="white" stroke-width="0.530341" stroke-miterlimit="10" stroke-linecap="round"/>
<path d="M62.8793 327.299C62.8793 327.299 64.5945 338.576 66.5573 343.249" stroke="white" stroke-width="0.530341" stroke-miterlimit="10" stroke-linecap="round"/>
<path d="M62.3842 333.903C62.3842 333.903 63.8607 341.883 66.5573 346.556" stroke="white" stroke-width="0.530341" stroke-miterlimit="10" stroke-linecap="round"/>
<path d="M93.8237 264.862L103.646 255.782" stroke="white" stroke-width="0.530341" stroke-miterlimit="10" stroke-linecap="round"/>
<path d="M98.4922 261.01L110.039 255.228" stroke="white" stroke-width="0.530341" stroke-miterlimit="10" stroke-linecap="round"/>
<path d="M73.1887 245.604C73.1887 245.604 80.8098 251.099 85.2304 255.782" stroke="white" stroke-width="0.530341" stroke-miterlimit="10" stroke-linecap="round"/>
<path d="M47.9648 404.409C47.9648 404.409 36.4712 415.3 36.4712 420.706C36.4712 426.112 41.0067 425.785 45.8517 420.706C50.6967 415.627 50.9443 405.161 50.9443 405.161L47.9648 404.409Z" fill="white" stroke="#B7B6AF" stroke-width="1.06068" stroke-miterlimit="10" stroke-linecap="round"/>
<path d="M114.521 401.725C114.521 401.725 118.455 412.567 122.699 417.32C126.943 422.072 129.357 423.755 129.357 418.666C129.357 413.577 126.634 407.824 117.863 400.369C117.854 400.369 120.277 402.399 114.521 401.725Z" fill="white" stroke="#B7B6AF" stroke-width="1.06068" stroke-miterlimit="10" stroke-linecap="round"/>
<path d="M73.9224 101.631C73.1355 101.304 72.3928 100.908 71.6236 100.542C70.8545 100.176 69.4487 99.9776 68.9182 102.681C68.1314 106.641 73.6041 109.908 71.8447 113.186C70.7501 115.179 69.1051 116.719 67.1588 117.572C66.842 117.694 66.5119 117.767 66.1775 117.79C64.6126 118.008 62.0751 117.79 62.8532 120.849C63.6312 123.909 66.1775 126.542 67.7424 126.542H69.3073C69.3073 126.542 71.0755 132.483 77.7064 135.731C84.3373 138.978 88.8463 138.8 90.4112 134.642C91.9761 130.483 93.152 126.978 93.152 121.503C93.152 116.027 91.3838 106.839 91.3838 106.839C91.3838 106.839 89.8189 109.255 83.7626 106.186C79.7576 104.156 76.0089 102.512 73.9224 101.631Z" fill="white"/>
<mask id="mask1_1_6869" style="mask-type:luminance" maskUnits="userSpaceOnUse" x="62" y="100" width="32" height="38">
<path d="M73.9239 101.631C73.137 101.304 72.3943 100.908 71.6251 100.542C70.856 100.176 69.4502 99.9776 68.9197 102.681C68.1329 106.641 73.6056 109.908 71.8462 113.186C70.7516 115.179 69.1066 116.719 67.1603 117.572C66.8435 117.694 66.5134 117.767 66.179 117.79C64.6141 118.008 62.0766 117.79 62.8547 120.849C63.6327 123.909 66.179 126.542 67.7439 126.542H69.3088C69.3088 126.542 71.077 132.483 77.7079 135.731C84.3388 138.978 88.8478 138.8 90.4127 134.642C91.9776 130.483 93.1535 126.978 93.1535 121.503C93.1535 116.027 91.3853 106.839 91.3853 106.839C91.3853 106.839 89.8204 109.255 83.7641 106.186C79.7591 104.156 76.0104 102.512 73.9239 101.631Z" fill="white"/>
</mask>
<g mask="url(#mask1_1_6869)">
<g style="mix-blend-mode:multiply" opacity="0.5">
<path d="M83.772 106.186C83.772 106.186 74.4268 105.601 73.0299 105.859C71.633 106.116 73.2598 110.809 72.8 115.503C72.3403 120.196 72.5613 127.76 74.4268 130.107C76.6282 132.526 78.9608 134.791 81.4114 136.889C81.4114 136.889 74.2411 135.592 71.633 132.196C69.0248 128.8 68.6093 126.978 68.6093 126.978C68.6093 126.978 62.5531 123.018 62.0845 119.938C61.6159 116.859 65.621 118.493 67.5395 116.968C68.6181 116.136 73.0829 114.572 71.9601 110.403C70.8373 106.235 69.0248 105.453 68.9541 102.661C68.9011 100.681 70.4571 100.106 71.412 99.928C71.8424 99.8469 72.2848 99.9196 72.6762 100.136L83.772 106.186Z" fill="black"/>
</g>
</g>
<path d="M73.9224 101.631C73.1355 101.304 72.3928 100.908 71.6236 100.542C70.8545 100.176 69.4487 99.9776 68.9182 102.681C68.1314 106.641 73.6041 109.908 71.8447 113.186C70.7501 115.179 69.1051 116.719 67.1588 117.572C66.842 117.694 66.5119 117.767 66.1775 117.79C64.6126 118.008 62.0751 117.79 62.8532 120.849C63.6312 123.909 66.1775 126.542 67.7424 126.542H69.3073C69.3073 126.542 71.0755 132.483 77.7064 135.731C84.3373 138.978 88.8463 138.8 90.4112 134.642C91.9761 130.483 93.152 126.978 93.152 121.503C93.152 116.027 91.3838 106.839 91.3838 106.839C91.3838 106.839 89.8189 109.255 83.7626 106.186C79.7576 104.156 76.0089 102.512 73.9224 101.631Z" stroke="#B7B6AF" stroke-width="1.06068" stroke-miterlimit="10" stroke-linecap="round"/>
<path d="M80.8284 114.602C80.9522 115.433 80.7489 116.166 80.3687 116.235C79.9885 116.305 79.5995 115.681 79.4846 114.849C79.3696 114.017 79.573 113.275 79.9443 113.205C80.3156 113.136 80.7046 113.809 80.8284 114.602Z" fill="#B7B6AF"/>
<path d="M88.9173 113.087C89.0323 113.918 88.8289 114.651 88.4576 114.72C88.0862 114.789 87.6884 114.166 87.5735 113.334C87.4585 112.502 87.653 111.77 88.0243 111.7C88.3957 111.631 88.7935 112.255 88.9173 113.087Z" fill="#B7B6AF"/>
<path d="M76.1414 110.562C76.6361 109.738 77.3071 109.067 78.0932 108.608C78.8793 108.15 79.7555 107.92 80.6416 107.938" stroke="#B7B6AF" stroke-width="1.06068" stroke-miterlimit="10" stroke-linecap="round"/>
<path d="M86.6991 108.592C87.4501 108.297 88.2631 108.266 89.0304 108.501C89.7978 108.737 90.4832 109.228 90.9959 109.91" stroke="#B7B6AF" stroke-width="1.06068" stroke-miterlimit="10" stroke-linecap="round"/>
<path d="M85.9201 112.314C85.812 113.698 85.812 115.089 85.9201 116.473C86.1146 118.225 87.2816 118.661 86.8926 119.978C86.5036 121.295 84.9387 121.285 84.9387 121.285" stroke="#B7B6AF" stroke-width="1.06068" stroke-miterlimit="10" stroke-linecap="round"/>
<path d="M82.9841 126.543C82.3145 126.721 81.6186 126.734 80.9442 126.581C80.2697 126.429 79.6325 126.115 79.0763 125.661" stroke="#B7B6AF" stroke-width="1.06068" stroke-miterlimit="10" stroke-linecap="round"/>
</svg>
