<svg width="64" height="65" viewBox="0 0 64 65" fill="none" xmlns="http://www.w3.org/2000/svg">
<g clip-path="url(#clip0_1_7381)">
<path d="M18.82 27.1856C23.7132 27.1856 27.68 23.2189 27.68 18.3256C27.68 13.4324 23.7132 9.46562 18.82 9.46562C13.9267 9.46562 9.95996 13.4324 9.95996 18.3256C9.95996 23.2189 13.9267 27.1856 18.82 27.1856Z" stroke="#171716" stroke-width="2" stroke-linecap="round" stroke-linejoin="round"/>
<path d="M49.1801 38.9956C54.0733 38.9956 58.0401 35.0289 58.0401 30.1356C58.0401 25.2424 54.0733 21.2756 49.1801 21.2756C44.2868 21.2756 40.3201 25.2424 40.3201 30.1356C40.3201 35.0289 44.2868 38.9956 49.1801 38.9956Z" stroke="#171716" stroke-width="2" stroke-linecap="round" stroke-linejoin="round"/>
<path d="M24.7201 57.5556C29.6133 57.5556 33.5801 53.5889 33.5801 48.6956C33.5801 43.8024 29.6133 39.8356 24.7201 39.8356C19.8269 39.8356 15.8601 43.8024 15.8601 48.6956C15.8601 53.5889 19.8269 57.5556 24.7201 57.5556Z" stroke="#171716" stroke-width="2" stroke-linecap="round" stroke-linejoin="round"/>
<path d="M27.9399 20.5856L40.3199 26.0756" stroke="#171716" stroke-linecap="round" stroke-linejoin="round"/>
<path d="M42.4601 35.9956L33.1001 44.6156" stroke="#171716" stroke-linecap="round" stroke-linejoin="round"/>
<path d="M18.47 27.4956L21.77 39.8356" stroke="#171716" stroke-linecap="round" stroke-linejoin="round"/>
<path d="M46.09 53.9256L34.53 49.4556" stroke="#171716" stroke-linecap="round" stroke-linejoin="round"/>
<path d="M44.12 57.5556C46.6826 57.5556 48.76 55.4782 48.76 52.9156C48.76 50.353 46.6826 48.2756 44.12 48.2756C41.5574 48.2756 39.48 50.353 39.48 52.9156C39.48 55.4782 41.5574 57.5556 44.12 57.5556Z" fill="#171716"/>
<path d="M41.55 10.1056L45.39 21.8856" stroke="#171716" stroke-linecap="round" stroke-linejoin="round"/>
<path d="M42 16.0756C44.0986 16.0756 45.7999 14.3743 45.7999 12.2756C45.7999 10.1769 44.0986 8.47562 42 8.47562C39.9013 8.47562 38.2 10.1769 38.2 12.2756C38.2 14.3743 39.9013 16.0756 42 16.0756Z" fill="#171716"/>
<path d="M32 63.0156C49.1208 63.0156 63 49.1365 63 32.0156C63 14.8948 49.1208 1.01562 32 1.01562C14.8792 1.01562 1 14.8948 1 32.0156C1 49.1365 14.8792 63.0156 32 63.0156Z" stroke="#171716" stroke-miterlimit="10" stroke-linecap="round"/>
<path d="M23.7699 19.0156C23.8794 18.235 23.8006 17.4395 23.5399 16.6956L22.5399 16.9556C22.4016 16.6201 22.22 16.3041 21.9999 16.0156L22.7899 15.3056C22.3158 14.6804 21.7031 14.1738 20.9999 13.8256L20.4499 14.7456C20.1313 14.5997 19.7952 14.4955 19.4499 14.4356V13.3756C18.6726 13.2662 17.8804 13.345 17.1399 13.6056L17.3899 14.6056C17.0641 14.7345 16.7552 14.9024 16.4699 15.1056L15.7499 14.3156C15.441 14.5577 15.1594 14.8327 14.9099 15.1356C14.6571 15.44 14.4453 15.7762 14.2799 16.1356L15.1899 16.6856C15.0426 17.0029 14.9416 17.3397 14.8899 17.6856L13.8199 17.6356C13.7224 18.4392 13.8148 19.2544 14.0899 20.0156L15.0899 19.7656C15.2112 20.0929 15.376 20.4023 15.5799 20.6856L14.7999 21.4056C15.0357 21.7167 15.3076 21.9987 15.6099 22.2456C15.9131 22.5 16.2495 22.712 16.6099 22.8756L17.1599 21.9656C17.4769 22.1137 17.8138 22.2147 18.1599 22.2656L18.1099 23.3356C18.9074 23.411 19.7116 23.3015 20.4599 23.0156L20.1999 22.0156C20.5313 21.8965 20.8443 21.7316 21.1299 21.5256L21.8399 22.3056C22.1541 22.0699 22.4394 21.7981 22.6899 21.4956C22.9374 21.1874 23.1488 20.8519 23.3199 20.4956L22.3999 19.9456C22.5466 19.6273 22.6508 19.2911 22.7099 18.9456L23.7699 19.0156ZM20.1299 19.4156C19.9165 19.6748 19.631 19.865 19.3096 19.9621C18.9882 20.0593 18.6453 20.0591 18.324 19.9616C18.0027 19.8641 17.7175 19.6736 17.5043 19.4142C17.2911 19.1548 17.1595 18.8381 17.1261 18.504C17.0927 18.1699 17.159 17.8334 17.3166 17.5369C17.4742 17.2405 17.716 16.9973 18.0116 16.8381C18.3073 16.6789 18.6434 16.6108 18.9777 16.6424C19.3119 16.674 19.6294 16.8039 19.8899 17.0156C20.236 17.3025 20.4553 17.7141 20.5002 18.1614C20.5451 18.6087 20.4121 19.0557 20.1299 19.4056V19.4156Z" fill="#171716"/>
<path d="M54.14 30.8156C54.2396 30.0348 54.1609 29.2417 53.91 28.4956L52.91 28.7556C52.7909 28.4243 52.626 28.1112 52.42 27.8256L53.2 27.1156C52.9643 26.8015 52.6924 26.5162 52.39 26.2656C52.0818 26.0182 51.7463 25.8068 51.39 25.6356L50.84 26.5556C50.5217 26.4089 50.1855 26.3047 49.84 26.2456V25.1856C49.0594 25.0761 48.2639 25.155 47.52 25.4156L47.78 26.4156C47.4482 26.5382 47.1352 26.7065 46.85 26.9156L46.14 26.1256C45.8258 26.3613 45.5405 26.6332 45.29 26.9356C45.0447 27.2454 44.8335 27.5807 44.66 27.9356L45.58 28.4856C45.4326 28.8037 45.3284 29.14 45.27 29.4856L44.21 29.4356C44.1005 30.2129 44.1794 31.0052 44.44 31.7456L45.44 31.4856C45.5666 31.8156 45.7346 32.1281 45.94 32.4156L45.15 33.1356C45.3992 33.4601 45.6844 33.7553 46 34.0156C46.3069 34.2649 46.6426 34.4764 47 34.6456L47.55 33.7356C47.8673 33.8829 48.204 33.9839 48.55 34.0356L48.5 35.1056C49.2775 35.2051 50.0674 35.1264 50.81 34.8756L50.56 33.8756C50.8854 33.7503 51.1944 33.5857 51.48 33.3856L52.2 34.1656C52.5111 33.9298 52.793 33.6579 53.04 33.3556C53.2944 33.0524 53.5064 32.716 53.67 32.3556L52.76 31.8056C52.9081 31.4886 53.0091 31.1518 53.06 30.8056L54.14 30.8156ZM50.5 31.2156C50.2873 31.4762 50.0022 31.6679 49.6805 31.7664C49.3589 31.8648 49.0153 31.8657 48.6932 31.7688C48.3711 31.6719 48.085 31.4817 47.871 31.2221C47.6571 30.9626 47.525 30.6454 47.4914 30.3107C47.4578 29.976 47.5242 29.6389 47.6822 29.342C47.8403 29.0451 48.0829 28.8017 48.3793 28.6427C48.6757 28.4838 49.0126 28.4163 49.3474 28.4488C49.6822 28.4814 49.9998 28.6125 50.26 28.8256C50.6084 29.111 50.8294 29.5229 50.8744 29.971C50.9194 30.4191 50.7847 30.8667 50.5 31.2156Z" fill="#171716"/>
<path d="M29.6799 49.3656C29.7855 48.575 29.7068 47.7707 29.4499 47.0156L28.4499 47.2756C28.3267 46.9461 28.1621 46.6335 27.9599 46.3456L28.7399 45.6256C28.5041 45.3145 28.2322 45.0326 27.9299 44.7856C27.6217 44.5382 27.2862 44.3268 26.9299 44.1556L26.3799 45.0656C26.0629 44.9176 25.726 44.8165 25.3799 44.7656V43.6956C24.5984 43.5942 23.8041 43.6764 23.0599 43.9356L23.3199 44.9356C22.9881 45.0582 22.6751 45.2265 22.3899 45.4356L21.6799 44.6456C21.3657 44.8813 21.0804 45.1532 20.8299 45.4556C20.5824 45.7638 20.3711 46.0993 20.1999 46.4556L21.1099 47.0056C20.9708 47.326 20.8701 47.6616 20.8099 48.0056H19.7499C19.6451 48.7911 19.7309 49.5903 19.9999 50.3356L20.9999 50.0756C21.1225 50.4074 21.2908 50.7204 21.4999 51.0056L20.7099 51.7256C20.9483 52.0344 21.22 52.3161 21.5199 52.5656C21.8297 52.8109 22.1649 53.0221 22.5199 53.1956L23.0699 52.2856C23.39 52.4253 23.7257 52.526 24.0699 52.5856L24.0199 53.6456C24.7972 53.7551 25.5894 53.6762 26.3299 53.4156L26.0699 52.4156C26.4017 52.2931 26.7147 52.1248 26.9999 51.9156L27.7199 52.7056C28.031 52.4698 28.313 52.1979 28.5599 51.8956C28.8051 51.5858 29.0164 51.2506 29.1899 50.8956L28.2799 50.3456C28.4285 50.0288 28.5296 49.6919 28.5799 49.3456L29.6799 49.3656ZM26.0299 49.7656C25.8173 50.0235 25.533 50.2125 25.213 50.3088C24.893 50.4051 24.5516 50.4044 24.232 50.3067C23.9125 50.2091 23.629 50.0188 23.4175 49.7601C23.206 49.5014 23.0759 49.1857 23.0438 48.8531C23.0116 48.5204 23.0788 48.1857 23.2369 47.8913C23.3949 47.5968 23.6367 47.3559 23.9317 47.1988C24.2267 47.0417 24.5616 46.9757 24.8941 47.0089C25.2267 47.0422 25.5419 47.1733 25.7999 47.3856C26.1418 47.6749 26.3548 48.088 26.3923 48.5342C26.4298 48.9805 26.2887 49.4234 25.9999 49.7656H26.0299Z" fill="#171716"/>
</g>
<defs>
<clipPath id="clip0_1_7381">
<rect width="64" height="64" fill="white" transform="translate(0 0.015625)"/>
</clipPath>
</defs>
</svg>
