<svg width="65" height="65" viewBox="0 0 65 65" fill="none" xmlns="http://www.w3.org/2000/svg">
<g clip-path="url(#clip0_1_7562)">
<g style="mix-blend-mode:multiply">
<path d="M53.9963 39.7156C53.7161 39.3769 53.3353 39.1363 52.9095 39.0284C52.4832 38.9205 52.034 38.9511 51.6262 39.1156L39.0963 44.3955L37.9963 44.7258C37.5945 44.8522 37.1773 44.9227 36.7563 44.9354C35.8563 44.9354 34.5563 44.9957 34.3163 45.0355H26.9663C26.8489 45.0347 26.7344 44.9998 26.6363 44.9354C26.5405 44.8829 26.4615 44.8046 26.4084 44.709C26.3553 44.6134 26.3303 44.5047 26.3363 44.3955C26.3362 44.3102 26.3534 44.2257 26.3869 44.1473C26.4205 44.069 26.4696 43.998 26.5313 43.9393C26.593 43.8803 26.666 43.8347 26.746 43.8048C26.8259 43.7748 26.911 43.7617 26.9963 43.7658H35.3563C35.9073 43.7629 36.4353 43.5438 36.8263 43.1557C37.1537 42.821 37.3642 42.3898 37.4263 41.9258V41.6858C37.4263 41.1972 37.2569 40.7238 36.9469 40.3463C36.6368 39.9688 36.2054 39.7106 35.7263 39.6156C31.0463 38.7156 26.4363 37.6156 21.6563 37.9156C21.4563 37.9156 19.7863 37.9856 18.9163 38.0856V50.4755V51.4757L31.9863 53.0757C33.768 53.4762 35.635 53.2017 37.2263 52.3057C37.2263 52.3057 48.5563 46.0156 53.4962 42.7557C53.7399 42.5982 53.9479 42.3914 54.107 42.1486C54.2658 41.9061 54.3725 41.6329 54.4196 41.3465C54.4668 41.0602 54.4533 40.7671 54.3803 40.4862C54.3076 40.2054 54.1768 39.9429 53.9963 39.7156Z" fill="#171716"/>
<path d="M3.0281 43.0926C3.0281 41.9927 0.756245 36.5457 1.85625 36.5457H15.1563C15.6867 36.5457 16.1954 36.7564 16.5705 37.1315C16.9456 37.5065 17.1563 38.0152 17.1563 38.5457V52.3258C17.1563 52.8563 16.9456 53.365 16.5705 53.74C16.1954 54.1149 15.6867 54.3258 15.1563 54.3258H11.8562C10.7563 54.3258 6.31015 50.3463 6.31015 49.2464L3.0281 43.0926Z" fill="#171716"/>
<path d="M31.6762 27.6256C32.2114 28.3394 32.8328 28.9844 33.5262 29.5456C34.215 30.1236 34.9703 30.6171 35.7763 31.0156L37.0262 28.9356C37.7555 29.2665 38.5256 29.4985 39.3162 29.6256L39.2062 32.0156C40.9834 32.2568 42.7925 32.0751 44.4861 31.4856L43.8961 29.1256C44.6494 28.8596 45.3603 28.4857 46.0061 28.0156L47.6463 29.8156C48.3601 29.2769 49.005 28.6522 49.5663 27.9556C50.1357 27.2669 50.6194 26.5113 51.0063 25.7056L48.9263 24.4556C49.2569 23.7264 49.4892 22.9563 49.6163 22.1656L52.0463 22.2756C52.2838 20.505 52.1021 18.7033 51.5162 17.0156L49.1564 17.5756C48.8795 16.8231 48.4992 16.1129 48.0262 15.4656L49.8264 13.8256C49.2824 13.1161 48.658 12.4719 47.9663 11.9056C47.275 11.3394 46.5197 10.8561 45.7164 10.4656L44.4664 12.5556C43.7324 12.2186 42.9546 11.9863 42.1562 11.8656L42.2662 9.43564C40.4897 9.19654 38.682 9.37459 36.9863 9.95564L37.5763 12.3156C36.8274 12.6002 36.1182 12.98 35.4663 13.4456L33.8262 11.6556C32.3996 12.7393 31.2485 14.1439 30.4662 15.7556L32.5662 17.0156C32.2385 17.7495 32.0066 18.5225 31.8762 19.3156L29.4563 19.1956C29.2168 20.9721 29.3948 22.78 29.9763 24.4756L32.3362 23.8856C32.6178 24.6421 32.9977 25.3583 33.4663 26.0156L31.6762 27.6256Z" stroke="#171716" stroke-width="0.410256" stroke-linecap="round" stroke-linejoin="round"/>
<path d="M36.9762 17.6456C37.5855 16.8993 38.4023 16.3505 39.3235 16.0686C40.2446 15.7866 41.2287 15.7842 42.1513 16.0617C43.074 16.3391 43.8933 16.8839 44.5062 17.6272C45.1191 18.3704 45.4978 19.2788 45.5942 20.2373C45.6906 21.1958 45.5011 22.1614 45.0486 23.0119C44.5965 23.8625 43.9019 24.5598 43.0531 25.0156C42.2047 25.4715 41.2397 25.6654 40.2809 25.5728C39.322 25.4803 38.4121 25.1054 37.6663 24.4956C36.6691 23.6769 36.0367 22.4967 35.9074 21.213C35.7781 19.9293 36.1624 18.6467 36.9762 17.6456Z" stroke="#171716" stroke-width="0.410256" stroke-linecap="round" stroke-linejoin="round"/>
<path d="M13.2762 30.6457C13.6328 31.1143 14.0422 31.5405 14.4962 31.9157C14.9512 32.2855 15.4479 32.601 15.9762 32.8556L16.7962 31.4857C17.2786 31.7007 17.7858 31.8552 18.3062 31.9456L18.2362 33.5356C19.4036 33.6942 20.5918 33.5778 21.7062 33.1957L21.3162 31.6357C21.8109 31.4532 22.2786 31.2043 22.7062 30.8956L23.7862 32.0757C24.2549 31.719 24.6811 31.3097 25.0562 30.8556C25.4283 30.4021 25.7439 29.9052 25.9962 29.3756L24.6262 28.5557C24.845 28.0642 24.9996 27.5466 25.0862 27.0156L26.6762 27.0857C26.8344 25.9183 26.718 24.7301 26.3362 23.6156L24.7762 24.0156C24.5938 23.5209 24.3448 23.0533 24.0362 22.6256L25.2162 21.5456C24.4992 20.6101 23.575 19.8536 22.5162 19.3356L21.6962 20.7056C21.2046 20.4935 20.6866 20.3489 20.1562 20.2757L20.2262 18.6757C19.0581 18.5161 17.8689 18.6361 16.7562 19.0256L17.1562 20.5756C16.6614 20.7581 16.1938 21.007 15.7662 21.3157L14.6862 20.1356C13.7506 20.8526 12.9941 21.7768 12.4762 22.8357L13.8462 23.6556C13.6298 24.1367 13.4785 24.6446 13.3962 25.1657L11.7962 25.0956C11.6391 26.2645 11.7625 27.454 12.1562 28.5657L13.7062 28.1756C13.8886 28.6704 14.1376 29.1381 14.4462 29.5657L13.2762 30.6457Z" stroke="#171716" stroke-width="0.410256" stroke-linecap="round" stroke-linejoin="round"/>
<path d="M17.2763 24.4956C17.5946 24.1074 18.0208 23.8223 18.501 23.6762C18.9813 23.5301 19.4941 23.5296 19.9747 23.6747C20.4553 23.8198 20.882 24.1041 21.2011 24.4917C21.5202 24.8792 21.7174 25.3526 21.7676 25.8521C21.8178 26.3516 21.7189 26.8548 21.4834 27.298C21.2478 27.7414 20.8861 28.1049 20.4441 28.3428C20.0021 28.5808 19.4994 28.6824 18.9997 28.6348C18.4999 28.5872 18.0255 28.3927 17.6363 28.0756C17.3771 27.8645 17.1621 27.6043 17.0037 27.31C16.8453 27.0157 16.7465 26.693 16.7131 26.3604C16.6796 26.0278 16.7122 25.6919 16.8088 25.3719C16.9054 25.0519 17.0643 24.7541 17.2763 24.4956Z" stroke="#171716" stroke-width="0.410256" stroke-linecap="round" stroke-linejoin="round"/>
<path d="M22.1562 7.51562V13.5156" stroke="#171716" stroke-width="0.410256" stroke-miterlimit="10" stroke-linecap="round"/>
<path d="M25.1563 10.5156H19.1562" stroke="#171716" stroke-width="0.410256" stroke-miterlimit="10" stroke-linecap="round"/>
<path d="M55.156 29.5156V33.5156" stroke="#171716" stroke-width="0.410256" stroke-miterlimit="10" stroke-linecap="round"/>
<path d="M57.1565 31.5156H53.1565" stroke="#171716" stroke-width="0.410256" stroke-miterlimit="10" stroke-linecap="round"/>
<path d="M32.1563 63.0154C49.2771 63.0154 63.156 49.1364 63.156 32.0156C63.156 14.8948 49.2771 1.01562 32.1563 1.01562C15.0354 1.01562 1.15625 14.8948 1.15625 32.0156C1.15625 49.1364 15.0354 63.0154 32.1563 63.0154Z" stroke="#171716" stroke-width="0.410256" stroke-miterlimit="10" stroke-linecap="round"/>
</g>
</g>
<defs>
<clipPath id="clip0_1_7562">
<rect width="64" height="64" fill="white" transform="translate(0.15625 0.015625)"/>
</clipPath>
</defs>
</svg>
