<svg width="65" height="64" viewBox="0 0 65 64" fill="none" xmlns="http://www.w3.org/2000/svg">
<g clip-path="url(#clip0_1_7513)">
<g style="mix-blend-mode:multiply">
<path d="M10.6562 38.5V43.4999" stroke="#171716" stroke-width="0.410256" stroke-miterlimit="10" stroke-linecap="round"/>
<path d="M13.1563 41H8.15625" stroke="#171716" stroke-width="0.410256" stroke-miterlimit="10" stroke-linecap="round"/>
<path d="M50.6564 42V48" stroke="#171716" stroke-width="0.410256" stroke-miterlimit="10" stroke-linecap="round"/>
<path d="M53.6561 45.0002H47.6561" stroke="#171716" stroke-width="0.410256" stroke-miterlimit="10" stroke-linecap="round"/>
<path d="M15.8062 29.28C15.8067 26.7009 16.4176 24.1584 17.5892 21.8606C18.7607 19.5629 20.4595 17.5751 22.5467 16.0599C24.6339 14.5446 27.0501 13.545 29.5977 13.1427C32.1453 12.7404 34.7519 12.947 37.2044 13.7454C39.6569 14.5438 41.8855 15.9114 43.7082 17.7364C45.5306 19.5614 46.8951 21.7918 47.6902 24.2454C48.4857 26.699 48.6883 29.3059 48.283 31.853C47.8773 34.4 46.8742 36.8149 45.3562 38.9C43.0161 42.4099 36.9562 46.3799 36.9562 48.7598V51.4798C36.9562 51.7452 36.8509 51.9996 36.6633 52.1871C36.4758 52.3746 36.2214 52.48 35.9562 52.48H28.3162C28.051 52.48 27.7966 52.3746 27.6091 52.1871C27.4216 51.9996 27.3162 51.7452 27.3162 51.4798V48.7598C27.3162 46.3799 21.2562 42.4099 18.9262 38.9C16.8907 36.1062 15.7979 32.7367 15.8062 29.28Z" stroke="#171716" stroke-width="1.23077" stroke-linejoin="round"/>
<path d="M33.9963 50.48C33.8211 46.2429 33.8946 41.9988 34.2162 37.77C32.8402 37.9167 31.4523 37.9167 30.0763 37.77C30.397 41.9988 30.4671 46.2429 30.2863 50.48H29.9963C30.1718 46.2326 30.0984 41.9787 29.7762 37.74C24.9263 37.06 22.7762 34.32 22.3663 31.74C22.2201 31.0864 22.2577 30.4051 22.4748 29.7715C22.6918 29.1379 23.08 28.5767 23.5963 28.15C23.897 27.9784 24.2304 27.8719 24.575 27.8374C24.9195 27.8029 25.2675 27.8413 25.5963 27.95C26.238 28.1767 26.8283 28.5285 27.333 28.9851C27.8377 29.4418 28.2467 29.9941 28.5362 30.61C29.4219 32.8029 29.9356 35.1281 30.0562 37.49C31.4509 37.6637 32.8617 37.6637 34.2562 37.49C34.3718 35.1274 34.8857 32.8014 35.7762 30.61C36.0637 29.9944 36.4708 29.4422 36.9739 28.9855C37.4769 28.5288 38.0658 28.1768 38.7062 27.95C39.0352 27.8426 39.383 27.8048 39.7273 27.8392C40.0717 27.8737 40.4051 27.9796 40.7062 28.15C41.2209 28.5781 41.6077 29.1395 41.8244 29.7726C42.0414 30.4058 42.0799 31.0864 41.9364 31.74C41.5462 34.33 39.3762 37.07 34.5263 37.74C34.2034 41.9787 34.1266 46.2326 34.2962 50.48H33.9963ZM39.5062 28.1C39.2591 28.1037 39.0135 28.1407 38.7762 28.21C38.1724 28.4243 37.6177 28.7578 37.1453 29.1907C36.6729 29.6236 36.2923 30.1471 36.0262 30.73C35.1609 32.8646 34.6606 35.1295 34.5462 37.43C39.1862 36.76 41.2664 34.15 41.6361 31.67C41.7694 31.0743 41.7386 30.4536 41.5466 29.8742C41.3546 29.2947 41.0089 28.7783 40.5462 28.38C40.2317 28.1933 39.872 28.0965 39.5062 28.1ZM24.7862 28.1C24.4341 28.1037 24.0891 28.2003 23.7862 28.38C23.3236 28.7783 22.9779 29.2947 22.7859 29.8742C22.5939 30.4536 22.5629 31.0743 22.6962 31.67C23.0662 34.15 25.1462 36.76 29.7862 37.43C29.667 35.1302 29.1669 32.8661 28.3062 30.73C28.0367 30.1477 27.6537 29.6249 27.1798 29.1923C26.706 28.7596 26.1506 28.4257 25.5462 28.21C25.2995 28.1371 25.0436 28.1 24.7862 28.1Z" stroke="#171716" stroke-width="1.23077" stroke-miterlimit="10"/>
<path d="M39.4763 45.6099H24.8163V52.6101C24.816 53.7526 25.1384 54.8722 25.7463 55.84C26.3161 56.7348 27.1023 57.4712 28.0322 57.9816C28.962 58.4919 30.0055 58.7598 31.0663 58.7598H33.2163C34.2773 58.7615 35.3216 58.4944 36.2517 57.984C37.1819 57.4737 37.9678 56.736 38.5363 55.84C39.1512 54.8751 39.4773 53.7543 39.4763 52.6101V45.6099Z" fill="#171716" stroke="#171716" stroke-width="0.820513" stroke-linejoin="round"/>
<path d="M32.1763 4.75V10.49" stroke="#171716" stroke-width="0.410256" stroke-linecap="round" stroke-linejoin="round"/>
<path d="M49.9064 12.12L45.8461 16.18" stroke="#171716" stroke-width="0.410256" stroke-linecap="round" stroke-linejoin="round"/>
<path d="M14.4263 12.08L18.4863 16.14" stroke="#171716" stroke-width="0.410256" stroke-linecap="round" stroke-linejoin="round"/>
<path d="M22.5663 6.65002L24.7663 11.95" stroke="#171716" stroke-width="0.410256" stroke-linecap="round" stroke-linejoin="round"/>
<path d="M41.7764 6.66998L39.5763 11.98" stroke="#171716" stroke-width="0.410256" stroke-linecap="round" stroke-linejoin="round"/>
<path d="M55.3362 20.27L50.0365 22.47" stroke="#171716" stroke-width="0.410256" stroke-linecap="round" stroke-linejoin="round"/>
<path d="M8.9762 20.21L14.2762 22.41" stroke="#171716" stroke-width="0.410256" stroke-linecap="round" stroke-linejoin="round"/>
<path d="M39.4763 52.16C39.4369 52.1703 39.3956 52.1703 39.3563 52.16L24.6863 49.8499C24.1863 49.7699 23.8363 48.96 23.9062 48.0402C23.9762 47.12 24.4363 46.43 24.9062 46.51L39.5762 48.8201C40.0763 48.9001 40.4263 49.71 40.3563 50.6302C40.2863 51.55 39.9263 52.1202 39.4763 52.16Z" fill="white" stroke="#171716" stroke-width="1.23077" stroke-linejoin="round"/>
<path d="M39.4763 57.4302H39.3563L24.6863 55.12C24.1863 55.04 23.8363 54.2302 23.9062 53.31C23.9762 52.3902 24.4363 51.7001 24.9062 51.7801L39.5762 54.0899C40.0763 54.1699 40.4263 54.9801 40.3563 55.8999C40.2863 56.8201 39.9263 57.39 39.4763 57.4302Z" fill="white" stroke="#171716" stroke-width="1.23077" stroke-linejoin="round"/>
<path d="M45.156 29.21C44.756 29.21 44.5062 28.89 44.4061 28.5C43.1462 23.11 39.5562 19.68 36.7062 19.06C36.6123 19.039 36.5235 18.9997 36.4448 18.9443C36.3661 18.889 36.299 18.8187 36.2475 18.7374C36.196 18.6562 36.1609 18.5656 36.1444 18.4708C36.1279 18.376 36.1302 18.2789 36.1512 18.185C36.1722 18.0911 36.2115 18.0022 36.2669 17.9236C36.3222 17.8448 36.3925 17.7778 36.4738 17.7263C36.555 17.6747 36.6456 17.6397 36.7404 17.6232C36.8352 17.6067 36.9323 17.609 37.0262 17.63C42.1661 18.74 45.8264 24.8 45.876 28.46C45.8789 28.5567 45.8625 28.653 45.8276 28.7432C45.7927 28.8334 45.7402 28.9158 45.6729 28.9856C45.6061 29.0554 45.5261 29.1112 45.437 29.1497C45.3484 29.1882 45.2528 29.2087 45.156 29.21Z" fill="#171716"/>
<path d="M34.5685 18.7763C35.0544 18.7646 35.4388 18.3613 35.4271 17.8754C35.4154 17.3895 35.012 17.0051 34.5262 17.0168C34.0403 17.0285 33.6559 17.4319 33.6676 17.9178C33.6793 18.4036 34.0827 18.788 34.5685 18.7763Z" fill="#171716"/>
<path d="M32.1563 62.9998C49.2771 62.9998 63.156 49.1208 63.156 32C63.156 14.8792 49.2771 1 32.1563 1C15.0354 1 1.15625 14.8792 1.15625 32C1.15625 49.1208 15.0354 62.9998 32.1563 62.9998Z" stroke="#171716" stroke-width="0.410256" stroke-miterlimit="10" stroke-linecap="round"/>
</g>
</g>
<defs>
<clipPath id="clip0_1_7513">
<rect width="64" height="64" fill="white" transform="translate(0.15625)"/>
</clipPath>
</defs>
</svg>
