<svg id="Layer_1" data-name="Layer 1" xmlns="http://www.w3.org/2000/svg" viewBox="0 0 64 64"><defs><style>.cls-1,.cls-2,.cls-3,.cls-5{fill:none;}.cls-1,.cls-2,.cls-3,.cls-4,.cls-5,.cls-6{stroke:#d69434;}.cls-1,.cls-5{stroke-linecap:round;}.cls-1,.cls-3{stroke-miterlimit:10;}.cls-2,.cls-4,.cls-5,.cls-6{stroke-linejoin:round;}.cls-2,.cls-3,.cls-4,.cls-6{stroke-width:2px;}.cls-4,.cls-7{fill:#d69434;}.cls-6{fill:#fff;}</style></defs><line class="cls-1" x1="10.5" y1="38.5" x2="10.5" y2="43.5"/><line class="cls-1" x1="13" y1="41" x2="8" y2="41"/><line class="cls-1" x1="50.5" y1="42" x2="50.5" y2="48"/><line class="cls-1" x1="53.5" y1="45" x2="47.5" y2="45"/><path class="cls-2" d="M15.65,29.28A16.34,16.34,0,1,1,45.2,38.9h0c-2.34,3.51-8.4,7.48-8.4,9.86v2.72a1,1,0,0,1-1,1H28.16a1,1,0,0,1-1-1V48.76c0-2.38-6.06-6.35-8.39-9.86h0A16.27,16.27,0,0,1,15.65,29.28Z"/><path class="cls-3" d="M33.84,50.48a108.48,108.48,0,0,1,.22-12.71,19.53,19.53,0,0,1-4.14,0,107.47,107.47,0,0,1,.21,12.71h-.29a108.81,108.81,0,0,0-.22-12.74c-4.85-.68-7-3.42-7.41-6a3.63,3.63,0,0,1,1.23-3.59,2.47,2.47,0,0,1,2-.2,5.14,5.14,0,0,1,2.94,2.66,21.27,21.27,0,0,1,1.52,6.88,17,17,0,0,0,4.2,0,21,21,0,0,1,1.52-6.88,5.12,5.12,0,0,1,2.93-2.66,2.49,2.49,0,0,1,2,.2,3.65,3.65,0,0,1,1.23,3.59c-.39,2.59-2.56,5.33-7.41,6a109.94,109.94,0,0,0-.23,12.74ZM39.35,28.1a2.75,2.75,0,0,0-.73.11,4.78,4.78,0,0,0-2.75,2.52,20.55,20.55,0,0,0-1.48,6.7c4.64-.67,6.72-3.28,7.09-5.76a3.37,3.37,0,0,0-1.09-3.29A2,2,0,0,0,39.35,28.1Zm-14.72,0a2,2,0,0,0-1,.28,3.37,3.37,0,0,0-1.09,3.29c.37,2.48,2.45,5.09,7.09,5.76a20.81,20.81,0,0,0-1.48-6.7,4.83,4.83,0,0,0-2.76-2.52A2.68,2.68,0,0,0,24.63,28.1Z"/><path class="cls-4" d="M39.32,45.61H24.66v7a6.07,6.07,0,0,0,.93,3.23h0a6.31,6.31,0,0,0,5.32,2.92h2.15a6.29,6.29,0,0,0,5.32-2.92h0a6,6,0,0,0,.94-3.23Z"/><line class="cls-5" x1="32.02" y1="4.75" x2="32.02" y2="10.49"/><line class="cls-5" x1="49.75" y1="12.12" x2="45.69" y2="16.18"/><line class="cls-5" x1="14.27" y1="12.08" x2="18.33" y2="16.14"/><line class="cls-5" x1="22.41" y1="6.65" x2="24.61" y2="11.95"/><line class="cls-5" x1="41.62" y1="6.67" x2="39.42" y2="11.98"/><line class="cls-5" x1="55.18" y1="20.27" x2="49.88" y2="22.47"/><line class="cls-5" x1="8.82" y1="20.21" x2="14.12" y2="22.41"/><path class="cls-6" d="M39.32,52.16a.24.24,0,0,1-.12,0L24.53,49.85c-.5-.08-.85-.89-.78-1.81s.53-1.61,1-1.53l14.67,2.31c.5.08.85.89.78,1.81S39.77,52.12,39.32,52.16Z"/><path class="cls-6" d="M39.32,57.43H39.2L24.53,55.12c-.5-.08-.85-.89-.78-1.81s.53-1.61,1-1.53l14.67,2.31c.5.08.85.89.78,1.81S39.77,57.39,39.32,57.43Z"/><path class="cls-7" d="M45,29.21c-.4,0-.65-.32-.75-.71-1.26-5.39-4.85-8.82-7.7-9.44a.73.73,0,1,1,.32-1.43c5.14,1.11,8.8,7.17,8.85,10.83A.73.73,0,0,1,45,29.21Z"/><circle class="cls-7" cx="34.39" cy="17.9" r="0.88" transform="translate(-0.42 0.83) rotate(-1.38)"/><circle class="cls-1" cx="32" cy="32" r="31"/></svg>