<svg width="156" height="156" viewBox="0 0 156 156" fill="none" xmlns="http://www.w3.org/2000/svg">
<g style="mix-blend-mode:multiply">
<path d="M25.5938 93.8438V106.031" stroke="#28459C" stroke-miterlimit="10" stroke-linecap="round"/>
<path d="M31.6875 99.9375H19.5" stroke="#28459C" stroke-miterlimit="10" stroke-linecap="round"/>
<path d="M123.094 102.375V117" stroke="#28459C" stroke-miterlimit="10" stroke-linecap="round"/>
<path d="M130.406 109.688H115.781" stroke="#28459C" stroke-miterlimit="10" stroke-linecap="round"/>
<path d="M38.1468 71.37C38.1479 65.0833 39.6372 58.8861 42.4928 53.2853C45.3484 47.6845 49.4893 42.8393 54.5767 39.1459C59.6642 35.4525 65.5537 33.0159 71.7635 32.0354C77.9733 31.0548 84.327 31.5582 90.3049 33.5043C96.2829 35.4504 101.715 38.784 106.158 43.2324C110.6 47.6808 113.926 53.1176 115.864 59.0981C117.803 65.0787 118.297 71.4331 117.309 77.6416C116.32 83.85 113.875 89.7363 110.175 94.8188C104.471 103.374 89.7 113.051 89.7 118.852V125.482C89.7 126.129 89.4432 126.749 88.986 127.206C88.5289 127.663 87.9089 127.92 87.2625 127.92H68.64C67.9935 127.92 67.3735 127.663 66.9164 127.206C66.4593 126.749 66.2025 126.129 66.2025 125.482V118.852C66.2025 113.051 51.4312 103.374 45.7518 94.8188C40.7903 88.0088 38.1265 79.7957 38.1468 71.37V71.37Z" stroke="#28459C" stroke-width="3" stroke-linejoin="round"/>
<path d="M82.485 123.045C82.058 112.717 82.2371 102.372 83.0212 92.0644C79.667 92.4219 76.2842 92.4219 72.93 92.0644C73.7117 102.372 73.8827 112.717 73.4419 123.045H72.735C73.163 112.692 72.9839 102.323 72.1987 91.9913C60.3769 90.3338 55.1362 83.655 54.1369 77.3663C53.7807 75.7731 53.8722 74.1124 54.4014 72.568C54.9305 71.0236 55.8766 69.6557 57.135 68.6156C57.868 68.1972 58.6808 67.9376 59.5207 67.8536C60.3605 67.7696 61.2086 67.8631 62.01 68.1281C63.5743 68.6806 65.0132 69.5382 66.2434 70.6512C67.4736 71.7643 68.4705 73.1105 69.1762 74.6119C71.335 79.957 72.5871 85.6248 72.8812 91.3819C76.2806 91.8051 79.7194 91.8051 83.1187 91.3819C83.4004 85.6231 84.6531 79.9533 86.8237 74.6119C87.5244 73.1113 88.5168 71.7653 89.7429 70.6521C90.9691 69.5389 92.4045 68.681 93.9656 68.1281C94.7675 67.8662 95.6151 67.7742 96.4545 67.8581C97.2939 67.9421 98.1065 68.2001 98.8406 68.6156C100.095 69.6591 101.038 71.0274 101.566 72.5707C102.095 74.114 102.189 75.773 101.839 77.3663C100.888 83.6794 95.5987 90.3581 83.7769 91.9913C82.9898 102.323 82.8026 112.692 83.2162 123.045H82.485ZM95.9156 68.4938C95.3131 68.5028 94.7146 68.5929 94.1362 68.7619C92.6643 69.2842 91.3123 70.0971 90.1608 71.1523C89.0093 72.2075 88.0817 73.4835 87.4331 74.9044C85.3239 80.1075 84.1044 85.6282 83.8256 91.2356C95.1356 89.6025 100.206 83.2406 101.107 77.1956C101.432 75.7436 101.357 74.2306 100.889 72.8182C100.421 71.4058 99.5782 70.147 98.4506 69.1763C97.6839 68.7212 96.8071 68.4852 95.9156 68.4938V68.4938ZM60.0356 68.4938C59.1772 68.5027 58.3363 68.7381 57.5981 69.1763C56.4705 70.147 55.6277 71.4058 55.1597 72.8182C54.6918 74.2306 54.6163 75.7436 54.9412 77.1956C55.8431 83.2406 60.9131 89.6025 72.2231 91.2356C71.9325 85.6298 70.7135 80.111 68.6156 74.9044C67.9585 73.485 67.0251 72.2107 65.87 71.1561C64.715 70.1014 63.3613 69.2875 61.8881 68.7619C61.2867 68.584 60.6628 68.4937 60.0356 68.4938V68.4938Z" stroke="#28459C" stroke-width="3" stroke-miterlimit="10"/>
<path d="M95.8425 111.174H60.1088V128.237C60.1082 131.022 60.894 133.751 62.3756 136.11C63.7647 138.291 65.681 140.086 67.9476 141.33C70.2141 142.574 72.7576 143.227 75.3431 143.227H80.5838C83.1701 143.231 85.7154 142.58 87.9827 141.336C90.2499 140.092 92.1656 138.294 93.5513 136.11C95.0501 133.758 95.8451 131.026 95.8425 128.237V111.174Z" fill="#28459C" stroke="#28459C" stroke-width="2" stroke-linejoin="round"/>
<path d="M78.0488 11.5781V25.5694" stroke="#28459C" stroke-linecap="round" stroke-linejoin="round"/>
<path d="M121.266 29.5425L111.369 39.4387" stroke="#28459C" stroke-linecap="round" stroke-linejoin="round"/>
<path d="M34.7832 29.445L44.6795 39.3412" stroke="#28459C" stroke-linecap="round" stroke-linejoin="round"/>
<path d="M54.6244 16.2094L59.9869 29.1281" stroke="#28459C" stroke-linecap="round" stroke-linejoin="round"/>
<path d="M101.449 16.2581L96.0863 29.2013" stroke="#28459C" stroke-linecap="round" stroke-linejoin="round"/>
<path d="M134.501 49.4081L121.583 54.7706" stroke="#28459C" stroke-linecap="round" stroke-linejoin="round"/>
<path d="M21.4987 49.2619L34.4174 54.6244" stroke="#28459C" stroke-linecap="round" stroke-linejoin="round"/>
<path d="M95.8425 127.14C95.7466 127.165 95.6459 127.165 95.55 127.14L59.7919 121.509C58.5731 121.314 57.72 119.34 57.8906 117.098C58.0612 114.855 59.1825 113.173 60.3281 113.368L96.0862 118.999C97.305 119.194 98.1581 121.168 97.9875 123.411C97.8169 125.653 96.9394 127.043 95.8425 127.14Z" fill="white" stroke="#28459C" stroke-width="3" stroke-linejoin="round"/>
<path d="M95.8425 139.986H95.55L59.7919 134.355C58.5731 134.16 57.72 132.186 57.8906 129.943C58.0612 127.701 59.1825 126.019 60.3281 126.214L96.0862 131.844C97.305 132.039 98.1581 134.014 97.9875 136.256C97.8169 138.499 96.9394 139.888 95.8425 139.986Z" fill="white" stroke="#28459C" stroke-width="3" stroke-linejoin="round"/>
<path d="M109.687 71.1994C108.712 71.1994 108.103 70.4194 107.859 69.4687C104.788 56.3306 96.0375 47.97 89.0906 46.4587C88.8617 46.4075 88.6452 46.3117 88.4534 46.1768C88.2615 46.0419 88.0981 45.8706 87.9725 45.6725C87.8469 45.4745 87.7615 45.2536 87.7212 45.0226C87.681 44.7915 87.6866 44.5548 87.7378 44.3259C87.789 44.0971 87.8848 43.8805 88.0197 43.6887C88.1546 43.4968 88.326 43.3334 88.524 43.2078C88.7221 43.0822 88.9429 42.9968 89.174 42.9565C89.405 42.9163 89.6417 42.9219 89.8706 42.9731C102.399 45.6787 111.321 60.45 111.442 69.3712C111.449 69.6069 111.409 69.8416 111.324 70.0615C111.239 70.2815 111.111 70.4823 110.947 70.6524C110.784 70.8225 110.589 70.9585 110.372 71.0524C110.156 71.1463 109.923 71.1962 109.687 71.1994Z" fill="#28459C"/>
<path d="M83.88 45.7673C85.0643 45.7388 86.0013 44.7556 85.9727 43.5713C85.9442 42.3869 84.961 41.45 83.7767 41.4785C82.5924 41.5071 81.6555 42.4903 81.684 43.6746C81.7125 44.8589 82.6957 45.7958 83.88 45.7673Z" fill="#28459C"/>
<path d="M78 153.562C119.732 153.562 153.562 119.732 153.562 78C153.562 36.268 119.732 2.4375 78 2.4375C36.268 2.4375 2.4375 36.268 2.4375 78C2.4375 119.732 36.268 153.562 78 153.562Z" stroke="#28459C" stroke-miterlimit="10" stroke-linecap="round"/>
</g>
</svg>
