<svg width="65" height="64" viewBox="0 0 65 64" fill="none" xmlns="http://www.w3.org/2000/svg">
<g clip-path="url(#clip0_1_7367)">
<path d="M10.0962 16.03V21.03" stroke="#171716" stroke-miterlimit="10" stroke-linecap="round"/>
<path d="M12.5962 18.53H7.59619" stroke="#171716" stroke-miterlimit="10" stroke-linecap="round"/>
<path d="M6.21631 28.28V31.28" stroke="#171716" stroke-miterlimit="10" stroke-linecap="round"/>
<path d="M7.71631 29.78H4.71631" stroke="#171716" stroke-miterlimit="10" stroke-linecap="round"/>
<path d="M50.2163 47.28V52.28" stroke="#171716" stroke-miterlimit="10" stroke-linecap="round"/>
<path d="M52.7163 49.78H47.7163" stroke="#171716" stroke-miterlimit="10" stroke-linecap="round"/>
<path d="M32.1562 63C49.2771 63 63.1562 49.1208 63.1562 32C63.1562 14.8792 49.2771 1 32.1562 1C15.0354 1 1.15625 14.8792 1.15625 32C1.15625 49.1208 15.0354 63 32.1562 63Z" stroke="#171716" stroke-miterlimit="10" stroke-linecap="round"/>
<path d="M47.8563 19.58C47.7452 19.6784 47.6737 19.8139 47.6553 19.9611C47.6369 20.1084 47.6728 20.2573 47.7563 20.38C50.2006 23.6443 51.5421 27.6022 51.5863 31.68C51.6551 35.5305 50.5799 39.3149 48.4967 42.554C46.4136 45.7931 43.4162 48.3413 39.884 49.876C36.3518 51.4106 32.4437 51.8627 28.6545 51.175C24.8652 50.4873 21.3652 48.6908 18.5976 46.0128C15.8299 43.3348 13.9191 39.8959 13.107 36.1313C12.2949 32.3668 12.618 28.4459 14.0355 24.8651C15.453 21.2843 17.9011 18.2046 21.0699 16.016C24.2387 13.8273 27.9856 12.628 31.8363 12.57C35.7399 12.4842 39.577 13.59 42.8363 15.74C42.899 15.7833 42.97 15.813 43.0448 15.8274C43.1196 15.8418 43.1966 15.8405 43.2708 15.8236C43.3451 15.8066 43.4151 15.7745 43.4762 15.7291C43.5374 15.6837 43.5885 15.6261 43.6263 15.56C43.6681 15.4968 43.6967 15.4259 43.7103 15.3513C43.7238 15.2768 43.7222 15.2003 43.7053 15.1265C43.6885 15.0526 43.6569 14.983 43.6124 14.9217C43.5678 14.8604 43.5113 14.8088 43.4463 14.77C40.0087 12.5134 35.9675 11.3523 31.8563 11.44C27.2385 11.5126 22.7792 13.1363 19.1959 16.05C15.6126 18.9637 13.1135 22.998 12.1007 27.504C11.0878 32.01 11.62 36.7257 13.6117 40.8926C15.6034 45.0595 18.9388 48.4353 23.0814 50.4771C27.2239 52.5189 31.9329 53.1079 36.4508 52.1494C40.9686 51.1909 45.0328 48.7406 47.9894 45.1927C50.9461 41.6447 52.6235 37.2054 52.7517 32.5888C52.8799 27.9721 51.4515 23.4466 48.6963 19.74C48.654 19.6716 48.598 19.6127 48.5317 19.5672C48.4655 19.5216 48.3905 19.4903 48.3115 19.4752C48.2325 19.4602 48.1512 19.4617 48.0729 19.4798C47.9945 19.4978 47.9208 19.5319 47.8563 19.58Z" fill="#171716" stroke="#171716" stroke-width="2" stroke-miterlimit="10"/>
<path d="M31.3163 20.41C32.7929 20.2971 34.2774 20.4737 35.6863 20.93C35.762 20.9608 35.8433 20.9752 35.925 20.9724C36.0067 20.9695 36.0869 20.9495 36.1602 20.9135C36.2336 20.8775 36.2986 20.8264 36.3508 20.7635C36.4031 20.7007 36.4414 20.6275 36.4634 20.5488C36.4854 20.47 36.4905 20.3876 36.4784 20.3067C36.4663 20.2259 36.4372 20.1485 36.3931 20.0797C36.349 20.0109 36.2908 19.9522 36.2224 19.9075C36.154 19.8627 36.077 19.8329 35.9963 19.82C33.3897 18.9883 30.5849 19.0157 27.9952 19.8983C25.4054 20.7808 23.1675 22.4719 21.6113 24.7222C20.0551 26.9725 19.2627 29.6632 19.351 32.3978C19.4393 35.1324 20.4036 37.7663 22.1017 39.9116C23.7999 42.0569 26.1422 43.6 28.7835 44.3136C31.4248 45.0273 34.2255 44.8737 36.773 43.8756C39.3205 42.8775 41.48 41.0875 42.9335 38.7695C44.3869 36.4515 45.0574 33.7279 44.8463 31C44.7347 29.6573 44.4212 28.3391 43.9163 27.09C43.886 27.0206 43.8421 26.9579 43.7873 26.9057C43.7325 26.8534 43.6679 26.8126 43.5971 26.7856C43.5264 26.7586 43.4509 26.7459 43.3752 26.7484C43.2995 26.7509 43.2251 26.7684 43.1563 26.8C43.0865 26.8313 43.0236 26.8761 42.9713 26.9319C42.9189 26.9876 42.878 27.0531 42.8511 27.1247C42.8241 27.1962 42.8116 27.2724 42.8142 27.3489C42.8168 27.4253 42.8345 27.5004 42.8663 27.57C43.3424 28.7092 43.6295 29.9184 43.7163 31.15C43.8703 33.4347 43.3442 35.7138 42.2042 37.6998C41.0642 39.6857 39.3615 41.2894 37.3109 42.3086C35.2603 43.3277 32.9538 43.7166 30.6824 43.4262C28.411 43.1357 26.2766 42.1789 24.5485 40.6766C22.8203 39.1742 21.576 37.1936 20.9724 34.9847C20.3688 32.7758 20.4331 30.4376 21.1571 28.2652C21.8811 26.0928 23.2324 24.1836 25.0405 22.7784C26.8486 21.3733 29.0324 20.5352 31.3163 20.37V20.41Z" fill="#171716" stroke="#171716" stroke-width="2" stroke-miterlimit="10"/>
<path d="M55.6163 12.61C55.6671 12.4781 55.6671 12.3319 55.6163 12.2C55.5565 12.0901 55.4662 11.9998 55.3563 11.94H51.3563V8.41C51.3807 8.34213 51.3807 8.26787 51.3563 8.2C51.2907 8.09455 51.2017 8.00559 51.0963 7.94C50.9644 7.88915 50.8182 7.88915 50.6863 7.94C50.6863 7.94 50.5763 8 50.5763 8.05L45.5763 13.05C45.5263 13.1 45.4663 13.15 45.4663 13.2C45.4419 13.2679 45.4419 13.3421 45.4663 13.41V17.26L33.6263 29C33.1158 28.6803 32.5285 28.5041 31.9263 28.49C31.3147 28.49 30.7169 28.6715 30.2085 29.0115C29.7002 29.3514 29.3041 29.8346 29.0706 30.3998C28.837 30.965 28.7764 31.5868 28.8964 32.1865C29.0165 32.7862 29.3117 33.3368 29.7449 33.7685C30.178 34.2002 30.7296 34.4937 31.3296 34.6118C31.9297 34.7299 32.5513 34.6673 33.1157 34.4319C33.6802 34.1965 34.1621 33.7989 34.5004 33.2894C34.8387 32.78 35.0183 32.1816 35.0163 31.57C35.0287 30.9004 34.8097 30.2469 34.3963 29.72L46.1563 18H50.1563C50.2242 18.0244 50.2984 18.0244 50.3663 18C50.4163 17.94 50.4663 17.94 50.5163 17.89L55.5163 12.89C55.5163 12.89 55.5663 12.71 55.6163 12.61Z" fill="#171716"/>
</g>
<defs>
<clipPath id="clip0_1_7367">
<rect width="64" height="64" fill="white" transform="translate(0.15625)"/>
</clipPath>
</defs>
</svg>
