<svg width="65" height="65" viewBox="0 0 65 65" fill="none" xmlns="http://www.w3.org/2000/svg">
<g clip-path="url(#clip0_1_7399)">
<path d="M10.6562 38.5156V43.5156" stroke="#171716" stroke-miterlimit="10" stroke-linecap="round"/>
<path d="M13.1562 41.0156H8.15625" stroke="#171716" stroke-miterlimit="10" stroke-linecap="round"/>
<path d="M50.6562 42.0156V48.0156" stroke="#171716" stroke-miterlimit="10" stroke-linecap="round"/>
<path d="M53.6562 45.0156H47.6562" stroke="#171716" stroke-miterlimit="10" stroke-linecap="round"/>
<path d="M15.8062 29.2956C15.8066 26.7165 16.4176 24.174 17.5891 21.8763C18.7607 19.5785 20.4595 17.5907 22.5467 16.0755C24.6338 14.5603 27.05 13.5606 29.5976 13.1584C32.1453 12.7561 34.7519 12.9626 37.2044 13.761C39.6569 14.5594 41.8855 15.927 43.7081 17.752C45.5306 19.577 46.8952 21.8075 47.6903 24.261C48.4855 26.7146 48.6885 29.3215 48.2828 31.8686C47.8771 34.4156 46.8742 36.8305 45.3562 38.9156C43.0162 42.4256 36.9562 46.3956 36.9562 48.7756V51.4956C36.9562 51.7608 36.8508 52.0152 36.6633 52.2027C36.4758 52.3903 36.2214 52.4956 35.9562 52.4956H28.3162C28.051 52.4956 27.7966 52.3903 27.6091 52.2027C27.4216 52.0152 27.3162 51.7608 27.3162 51.4956V48.7756C27.3162 46.3956 21.2562 42.4256 18.9262 38.9156C16.8907 36.1218 15.7979 32.7523 15.8062 29.2956V29.2956Z" stroke="#171716" stroke-width="2" stroke-linejoin="round"/>
<path d="M33.9963 50.4956C33.8211 46.2583 33.8945 42.0143 34.2163 37.7856C32.8402 37.9323 31.4524 37.9323 30.0763 37.7856C30.397 42.0144 30.4671 46.2585 30.2863 50.4956H29.9963C30.1718 46.2483 30.0984 41.9943 29.7763 37.7556C24.9263 37.0756 22.7763 34.3356 22.3663 31.7556C22.2201 31.102 22.2577 30.4207 22.4748 29.7871C22.6919 29.1535 23.08 28.5923 23.5963 28.1656C23.897 27.994 24.2304 27.8874 24.575 27.853C24.9195 27.8185 25.2675 27.8569 25.5963 27.9656C26.238 28.1923 26.8284 28.5441 27.333 29.0007C27.8377 29.4574 28.2467 30.0097 28.5363 30.6256C29.4219 32.8185 29.9356 35.1437 30.0563 37.5056C31.4509 37.6792 32.8616 37.6792 34.2563 37.5056C34.3718 35.1431 34.8857 32.817 35.7763 30.6256C36.0637 30.01 36.4708 29.4578 36.9739 29.0011C37.4769 28.5444 38.0658 28.1924 38.7063 27.9656C39.0352 27.8581 39.383 27.8204 39.7273 27.8549C40.0717 27.8893 40.4051 27.9951 40.7063 28.1656C41.2207 28.5937 41.6076 29.1551 41.8245 29.7882C42.0414 30.4214 42.0801 31.102 41.9363 31.7556C41.5463 34.3456 39.3763 37.0856 34.5263 37.7556C34.2034 41.9943 34.1266 46.2481 34.2963 50.4956H33.9963ZM39.5063 28.1156C39.2591 28.1193 39.0135 28.1563 38.7763 28.2256C38.1724 28.4399 37.6177 28.7734 37.1453 29.2063C36.6729 29.6392 36.2923 30.1627 36.0263 30.7456C35.1609 32.8802 34.6606 35.1451 34.5463 37.4456C39.1863 36.7756 41.2663 34.1656 41.6363 31.6856C41.7696 31.0899 41.7386 30.4692 41.5466 29.8898C41.3546 29.3103 41.0089 28.7939 40.5463 28.3956C40.2317 28.2089 39.872 28.1121 39.5063 28.1156V28.1156ZM24.7863 28.1156C24.4341 28.1193 24.0891 28.2159 23.7863 28.3956C23.3236 28.7939 22.9779 29.3103 22.7859 29.8898C22.5939 30.4692 22.5629 31.0899 22.6963 31.6856C23.0663 34.1656 25.1463 36.7756 29.7863 37.4456C29.667 35.1458 29.1669 32.8817 28.3063 30.7456C28.0367 30.1633 27.6538 29.6405 27.1799 29.2079C26.706 28.7752 26.1506 28.4413 25.5463 28.2256C25.2995 28.1527 25.0436 28.1156 24.7863 28.1156V28.1156Z" stroke="#171716" stroke-width="2" stroke-miterlimit="10"/>
<path d="M39.4763 45.6256H24.8163V52.6256C24.8161 53.7684 25.1384 54.888 25.7463 55.8556C26.3161 56.7503 27.1023 57.4868 28.0322 57.9972C28.9621 58.5076 30.0056 58.7753 31.0663 58.7756H33.2163C34.2774 58.7771 35.3216 58.5102 36.2517 57.9997C37.1819 57.4891 37.9678 56.7516 38.5363 55.8556C39.1512 54.8906 39.4774 53.7699 39.4763 52.6256V45.6256Z" fill="#171716" stroke="#171716" stroke-width="2" stroke-linejoin="round"/>
<path d="M32.1763 4.76562V10.5056" stroke="#171716" stroke-linecap="round" stroke-linejoin="round"/>
<path d="M49.9062 12.1356L45.8462 16.1956" stroke="#171716" stroke-linecap="round" stroke-linejoin="round"/>
<path d="M14.4263 12.0956L18.4863 16.1556" stroke="#171716" stroke-linecap="round" stroke-linejoin="round"/>
<path d="M22.5663 6.66563L24.7663 11.9656" stroke="#171716" stroke-linecap="round" stroke-linejoin="round"/>
<path d="M41.7763 6.68562L39.5763 11.9956" stroke="#171716" stroke-linecap="round" stroke-linejoin="round"/>
<path d="M55.3363 20.2856L50.0363 22.4856" stroke="#171716" stroke-linecap="round" stroke-linejoin="round"/>
<path d="M8.9762 20.2256L14.2762 22.4256" stroke="#171716" stroke-linecap="round" stroke-linejoin="round"/>
<path d="M39.4763 52.1756C39.4369 52.1858 39.3956 52.1858 39.3563 52.1756L24.6863 49.8656C24.1863 49.7856 23.8363 48.9756 23.9063 48.0556C23.9763 47.1356 24.4363 46.4456 24.9063 46.5256L39.5763 48.8356C40.0763 48.9156 40.4263 49.7256 40.3563 50.6456C40.2863 51.5656 39.9263 52.1356 39.4763 52.1756Z" fill="white" stroke="#171716" stroke-width="2" stroke-linejoin="round"/>
<path d="M39.4763 57.4456H39.3563L24.6863 55.1356C24.1863 55.0556 23.8363 54.2456 23.9063 53.3256C23.9763 52.4056 24.4363 51.7156 24.9063 51.7956L39.5763 54.1056C40.0763 54.1856 40.4263 54.9956 40.3563 55.9156C40.2863 56.8356 39.9263 57.4056 39.4763 57.4456Z" fill="white" stroke="#171716" stroke-width="2" stroke-linejoin="round"/>
<path d="M45.1562 29.2256C44.7562 29.2256 44.5062 28.9056 44.4062 28.5156C43.1462 23.1256 39.5562 19.6956 36.7062 19.0756C36.6123 19.0546 36.5235 19.0153 36.4448 18.96C36.3661 18.9046 36.299 18.8343 36.2475 18.7531C36.196 18.6718 36.1609 18.5812 36.1444 18.4864C36.1279 18.3916 36.1302 18.2945 36.1512 18.2006C36.1722 18.1067 36.2115 18.0179 36.2669 17.9392C36.3222 17.8605 36.3925 17.7934 36.4738 17.7419C36.555 17.6904 36.6456 17.6553 36.7404 17.6388C36.8352 17.6223 36.9323 17.6246 37.0262 17.6456C42.1662 18.7556 45.8262 24.8156 45.8762 28.4756C45.8789 28.5723 45.8623 28.6686 45.8274 28.7588C45.7926 28.8491 45.7401 28.9315 45.6731 29.0012C45.6061 29.071 45.5259 29.1268 45.4372 29.1653C45.3485 29.2038 45.253 29.2243 45.1562 29.2256Z" fill="#171716"/>
<path d="M34.5686 18.792C35.0545 18.7803 35.4389 18.3769 35.4272 17.891C35.4155 17.4052 35.0121 17.0208 34.5262 17.0325C34.0404 17.0442 33.656 17.4475 33.6677 17.9334C33.6794 18.4193 34.0827 18.8037 34.5686 18.792Z" fill="#171716"/>
<path d="M32.1562 63.0156C49.2771 63.0156 63.1562 49.1365 63.1562 32.0156C63.1562 14.8948 49.2771 1.01562 32.1562 1.01562C15.0354 1.01562 1.15625 14.8948 1.15625 32.0156C1.15625 49.1365 15.0354 63.0156 32.1562 63.0156Z" stroke="#171716" stroke-miterlimit="10" stroke-linecap="round"/>
</g>
<defs>
<clipPath id="clip0_1_7399">
<rect width="64" height="64" fill="white" transform="translate(0.15625 0.015625)"/>
</clipPath>
</defs>
</svg>
