<svg width="64" height="64" viewBox="0 0 64 64" fill="none" xmlns="http://www.w3.org/2000/svg">
<g clip-path="url(#clip0_1_7497)">
<g style="mix-blend-mode:multiply">
<path d="M47.9402 15.03V20.03" stroke="#171716" stroke-width="0.410256" stroke-miterlimit="10" stroke-linecap="round"/>
<path d="M50.4397 17.53H45.4399" stroke="#171716" stroke-width="0.410256" stroke-miterlimit="10" stroke-linecap="round"/>
<path d="M17.0601 20.28V25.28" stroke="#171716" stroke-width="0.410256" stroke-miterlimit="10" stroke-linecap="round"/>
<path d="M19.5601 22.78H14.5601" stroke="#171716" stroke-width="0.410256" stroke-miterlimit="10" stroke-linecap="round"/>
<path d="M47.5102 29.91C47.2964 29.9087 47.0847 29.9496 46.887 30.0305C46.6892 30.1113 46.5095 30.2304 46.3582 30.3809C46.2064 30.5315 46.0862 30.7105 46.0041 30.9077C45.9221 31.105 45.8798 31.3164 45.8802 31.53V31.64C43.449 31.2479 41.09 30.4963 38.88 29.41C36.88 28.47 35.66 28 35.61 27.98H35.47C31.33 27.25 29.8 28.21 29.47 28.49L24.75 31.98H18.26V31.17C18.26 30.7377 18.0883 30.3231 17.7826 30.0174C17.4769 29.7118 17.0623 29.54 16.63 29.54H13V48.19H16.63C17.0623 48.19 17.4769 48.0185 17.7826 47.7124C18.0883 47.4068 18.26 46.9924 18.26 46.56V45.5602H20L28.44 52.1801C28.9794 52.6183 29.6457 52.8706 30.34 52.9001C30.9302 52.8923 31.4952 52.6597 31.92 52.2499C32.1564 52.0431 32.3501 51.7916 32.49 51.5102C32.9661 51.8355 33.5368 51.9934 34.1125 51.959C34.6882 51.9245 35.2361 51.6997 35.67 51.3202C35.8814 51.129 36.0574 50.9022 36.19 50.6499C36.6665 50.976 37.2383 51.1331 37.8144 51.097C38.3905 51.0605 38.938 50.8328 39.37 50.4501C39.7606 50.1054 40.0334 49.6476 40.15 49.1401C40.561 49.3054 41.0113 49.3485 41.4462 49.2632C41.881 49.1779 42.2818 48.9686 42.5998 48.6601C43.0753 48.2306 43.3715 47.6382 43.4302 47.0002L45.8802 46.4402V47.0002C45.8798 47.2135 45.9221 47.4252 46.0041 47.6222C46.0862 47.8195 46.2064 47.9984 46.3582 48.1489C46.5095 48.2995 46.6892 48.4189 46.887 48.4997C47.0847 48.5805 47.2964 48.6211 47.5102 48.6199H50.8402V29.91H47.5102ZM41.5102 47.4101C41.2702 47.6201 40.98 47.8802 40.07 47.2402L39.85 47.0601C39.825 47.0023 39.7874 46.951 39.74 46.91L36.27 43.1799C36.1228 43.0224 35.9189 42.9292 35.7033 42.9219C35.4876 42.9145 35.2778 42.9928 35.12 43.1401C34.9622 43.2874 34.8693 43.4909 34.8618 43.7067C34.8543 43.9225 34.9328 44.1321 35.08 44.2901L38.17 47.6C38.2004 47.7157 38.2588 47.8224 38.34 47.9102C38.4218 47.998 38.4854 48.1009 38.5271 48.2133C38.5689 48.3258 38.588 48.4455 38.5833 48.5653C38.5787 48.6851 38.5504 48.8033 38.5001 48.912C38.4497 49.0207 38.3783 49.1188 38.29 49.2C38.1026 49.344 37.8702 49.417 37.634 49.4064C37.3979 49.3953 37.1733 49.3009 37 49.1401L36.44 48.5202C36.4119 48.4529 36.3711 48.3918 36.32 48.3401L32.55 44.3401C32.3983 44.19 32.1935 44.1054 31.98 44.1054C31.7665 44.1054 31.5617 44.19 31.41 44.3401C31.3344 44.4144 31.2744 44.503 31.2334 44.601C31.1925 44.6991 31.1713 44.8041 31.1713 44.91C31.1713 45.0162 31.1925 45.1212 31.2334 45.2189C31.2744 45.3169 31.3344 45.4055 31.41 45.4802L34.94 49.2501C34.9734 49.4051 34.965 49.5668 34.9159 49.7178C34.8667 49.8687 34.7784 50.0041 34.66 50.11C34.5651 50.2035 34.4512 50.2753 34.3262 50.3208C34.2011 50.3664 34.0676 50.3848 33.9349 50.3742C33.8022 50.3639 33.6733 50.3249 33.5568 50.2605C33.4404 50.1957 33.3392 50.1071 33.26 50L32.38 49.0002C32.3259 48.9395 32.2616 48.8886 32.19 48.8501L28.44 45.1299C28.2862 44.9789 28.0786 44.8948 27.8629 44.8968C27.6473 44.8989 27.4412 44.9863 27.29 45.1401C27.1388 45.294 27.0549 45.5015 27.0568 45.7169C27.0587 45.9327 27.1462 46.1387 27.3 46.2901L31.06 50H31.11C31.1551 50.1633 31.1537 50.336 31.106 50.4985C31.0583 50.6609 30.9662 50.807 30.84 50.9202C30.62 51.12 30.31 51.4002 29.42 50.7602L20.79 43.9902C20.6465 43.872 20.4659 43.808 20.28 43.8101H18.28V33.56H22.69C22.508 33.8071 22.3911 34.0959 22.35 34.4C22.3192 34.6907 22.3525 34.9846 22.4475 35.261C22.5425 35.5375 22.697 35.7897 22.9 36C24.47 37.63 27.36 36.92 27.48 36.89C28.7935 36.2576 30.0175 35.4539 31.12 34.5L31.73 35.13L41.7899 46.5301C41.8306 46.6872 41.8269 46.8529 41.7793 47.008C41.7317 47.1635 41.6418 47.3026 41.52 47.4101H41.5102ZM45.8699 44.8099L42.9998 45.4601L32.93 34L31.78 32.81C31.637 32.6658 31.446 32.579 31.2433 32.5661C31.0406 32.5532 30.8402 32.6151 30.68 32.74C29.5657 33.7021 28.36 34.5528 27.08 35.28C26.54 35.42 24.83 35.63 24.08 34.82C24.0307 34.76 23.9995 34.6871 23.99 34.61C23.99 34.56 24.1 34.4 24.43 34.21H24.51L30.51 29.82C30.51 29.82 31.63 29.02 35.14 29.63C35.42 29.74 36.57 30.19 38.2 30.97C38.4 31.06 42.6002 33.13 45.9298 33.37L45.8699 44.8099Z" fill="#171716"/>
<path d="M62.9103 28.86H51.4999C51.2841 28.86 51.0773 28.945 50.9239 29.0966C50.77 29.2483 50.6826 29.4543 50.6802 29.67V48.67C50.6826 48.8858 50.77 49.0917 50.9239 49.2435C51.0773 49.3949 51.2841 49.4802 51.4999 49.4798H57.8002L62.9103 28.86Z" fill="#171716"/>
<path d="M1.08984 28.86H12.5001C12.7159 28.86 12.9229 28.945 13.0764 29.0966C13.2299 29.2483 13.3175 29.4543 13.3201 29.67V48.67C13.3175 48.8858 13.2299 49.0917 13.0764 49.2435C12.9229 49.3949 12.7159 49.4802 12.5001 49.4798H6.58008L1.08984 28.86Z" fill="#171716"/>
<path d="M32 7C29.8783 7 27.8434 7.84287 26.3431 9.34314C24.8429 10.8434 24 12.8783 24 15C24 17.1217 24.8429 19.1566 26.3431 20.6569C27.8434 22.1571 29.8783 23 32 23C34.1217 23 36.1566 22.1571 37.6569 20.6569C39.1571 19.1566 40 17.1217 40 15C40 12.8783 39.1571 10.8434 37.6569 9.34314C36.1566 7.84287 34.1217 7 32 7ZM31.11 18.55L27.93 15.36L29.35 13.94L31.12 15.71L34.66 12.18L36.07 13.59L31.11 18.55Z" fill="#171716"/>
<path d="M62.9103 28.5897C62.9103 28.5897 63.9101 41.5897 57.8301 49.0597L57.9101 36.5897L62.9103 28.5897Z" fill="#171716"/>
<path d="M1.24516 28.9234C1.24516 28.9234 -0.253516 43.1048 6.83486 49.401L1.24516 28.9234Z" fill="#171716"/>
<path d="M32 62.9998C49.1208 62.9998 62.9998 49.1208 62.9998 32C62.9998 14.8792 49.1208 1 32 1C14.8792 1 1 14.8792 1 32C1 49.1208 14.8792 62.9998 32 62.9998Z" stroke="#171716" stroke-width="0.410256" stroke-miterlimit="10" stroke-linecap="round"/>
</g>
</g>
<defs>
<clipPath id="clip0_1_7497">
<rect width="64" height="64" fill="white"/>
</clipPath>
</defs>
</svg>
