<svg width="64" height="65" viewBox="0 0 64 65" fill="none" xmlns="http://www.w3.org/2000/svg">
<g clip-path="url(#clip0_1_7537)">
<g style="mix-blend-mode:multiply">
<path d="M18.5301 19.7057C20.3029 19.7057 21.7401 18.2685 21.7401 16.4957C21.7401 14.7228 20.3029 13.2856 18.5301 13.2856C16.7572 13.2856 15.3201 14.7228 15.3201 16.4957C15.3201 18.2685 16.7572 19.7057 18.5301 19.7057Z" fill="#171716"/>
<path d="M13.3 25.5956C13.2157 24.8387 13.2891 24.0725 13.5154 23.3453C13.7416 22.618 14.1159 21.9455 14.6147 21.37C15.1135 20.7944 15.726 20.3284 16.4137 20.001C17.1014 19.6737 17.8493 19.4922 18.6106 19.468C19.3718 19.4438 20.1298 19.5773 20.8369 19.8603C21.544 20.1432 22.1849 20.5695 22.7192 21.1121C23.2536 21.6548 23.6699 22.3021 23.942 23.0135C24.214 23.7249 24.3359 24.4849 24.3 25.2456" fill="#171716"/>
<path d="M23.0801 24.0156C23.13 25.7056 21.27 27.1456 18.9201 27.2256C16.57 27.3056 14.61 25.9856 14.55 24.2856" fill="#171716"/>
<path d="M18.82 27.1856C23.7132 27.1856 27.68 23.2189 27.68 18.3256C27.68 13.4324 23.7132 9.46564 18.82 9.46564C13.9267 9.46564 9.95996 13.4324 9.95996 18.3256C9.95996 23.2189 13.9267 27.1856 18.82 27.1856Z" stroke="#171716" stroke-width="0.820513" stroke-linecap="round" stroke-linejoin="round"/>
<path d="M48.8898 31.5157C50.6629 31.5157 52.1 30.0785 52.1 28.3057C52.1 26.5328 50.6629 25.0956 48.8898 25.0956C47.1171 25.0956 45.6799 26.5328 45.6799 28.3057C45.6799 30.0785 47.1171 31.5157 48.8898 31.5157Z" fill="#171716"/>
<path d="M43.6598 37.4056C43.6434 35.9618 44.1919 34.5688 45.1888 33.5242C46.1857 32.4796 47.5515 31.8663 48.9943 31.8153C50.4376 31.7644 51.8432 32.2799 52.9111 33.2516C53.979 34.2233 54.6247 35.5743 54.71 37.0156" fill="#171716"/>
<path d="M53.44 35.7856C53.4999 37.4756 51.6402 38.9156 49.28 38.9956C46.9202 39.0756 45.0002 37.7556 44.9202 36.0156" fill="#171716"/>
<path d="M49.18 38.9956C54.0731 38.9956 58.0399 35.0289 58.0399 30.1356C58.0399 25.2424 54.0731 21.2756 49.18 21.2756C44.2869 21.2756 40.3201 25.2424 40.3201 30.1356C40.3201 35.0289 44.2869 38.9956 49.18 38.9956Z" stroke="#171716" stroke-width="0.820513" stroke-linecap="round" stroke-linejoin="round"/>
<path d="M24.43 50.0657C26.2028 50.0657 27.6399 48.6285 27.6399 46.8558C27.6399 45.0827 26.2028 43.6456 24.43 43.6456C22.6571 43.6456 21.22 45.0827 21.22 46.8558C21.22 48.6285 22.6571 50.0657 24.43 50.0657Z" fill="#171716"/>
<path d="M19.2 56.0156C19.1925 54.5752 19.7473 53.1885 20.7465 52.151C21.7456 51.1135 23.1102 50.5067 24.5499 50.4595C25.9896 50.4128 27.3908 50.9297 28.4553 51.8999C29.5199 52.8702 30.1638 54.2179 30.25 55.6554" fill="#171716"/>
<path d="M29 54.3356C29.06 56.0357 27.19 57.4757 24.84 57.5557C22.49 57.6357 20.53 56.3155 20.48 54.6158" fill="#171716"/>
<path d="M24.7201 57.5557C29.6133 57.5557 33.5801 53.5889 33.5801 48.6958C33.5801 43.8023 29.6133 39.8356 24.7201 39.8356C19.8268 39.8356 15.8601 43.8023 15.8601 48.6958C15.8601 53.5889 19.8268 57.5557 24.7201 57.5557Z" stroke="#171716" stroke-width="0.820513" stroke-linecap="round" stroke-linejoin="round"/>
<path d="M27.9399 20.5856L40.3199 26.0756" stroke="#171716" stroke-width="0.410256" stroke-linecap="round" stroke-linejoin="round"/>
<path d="M42.46 35.9957L33.1001 44.6158" stroke="#171716" stroke-width="0.410256" stroke-linecap="round" stroke-linejoin="round"/>
<path d="M18.47 27.4956L21.77 39.8356" stroke="#171716" stroke-width="0.410256" stroke-linecap="round" stroke-linejoin="round"/>
<path d="M46.0899 53.9258L34.53 49.4556" stroke="#171716" stroke-width="0.410256" stroke-linecap="round" stroke-linejoin="round"/>
<path d="M44.1198 57.5558C46.6827 57.5558 48.7598 55.4782 48.7598 52.9158C48.7598 50.3529 46.6827 48.2758 44.1198 48.2758C41.5574 48.2758 39.48 50.3529 39.48 52.9158C39.48 55.4782 41.5574 57.5558 44.1198 57.5558Z" fill="#171716"/>
<path d="M41.55 10.1057L45.39 21.8856" stroke="#171716" stroke-width="0.410256" stroke-linecap="round" stroke-linejoin="round"/>
<path d="M42 16.0756C44.0985 16.0756 45.7998 14.3743 45.7998 12.2756C45.7998 10.1769 44.0985 8.47559 42 8.47559C39.9013 8.47559 38.2 10.1769 38.2 12.2756C38.2 14.3743 39.9013 16.0756 42 16.0756Z" fill="#171716"/>
<path d="M32 63.0154C49.1208 63.0154 62.9998 49.1364 62.9998 32.0156C62.9998 14.8948 49.1208 1.01562 32 1.01562C14.8792 1.01562 1 14.8948 1 32.0156C1 49.1364 14.8792 63.0154 32 63.0154Z" stroke="#171716" stroke-width="0.410256" stroke-miterlimit="10" stroke-linecap="round"/>
</g>
</g>
<defs>
<clipPath id="clip0_1_7537">
<rect width="64" height="64" fill="white" transform="translate(0 0.015625)"/>
</clipPath>
</defs>
</svg>
