<svg width="64" height="64" viewBox="0 0 64 64" fill="none" xmlns="http://www.w3.org/2000/svg">
<g clip-path="url(#clip0_1_7352)">
<path d="M47.9399 15.03V20.03" stroke="#171716" stroke-miterlimit="10" stroke-linecap="round"/>
<path d="M50.4399 17.53H45.4399" stroke="#171716" stroke-miterlimit="10" stroke-linecap="round"/>
<path d="M17.0601 20.28V25.28" stroke="#171716" stroke-miterlimit="10" stroke-linecap="round"/>
<path d="M19.5601 22.78H14.5601" stroke="#171716" stroke-miterlimit="10" stroke-linecap="round"/>
<path d="M47.51 29.91C47.2964 29.9087 47.0847 29.9496 46.887 30.0304C46.6893 30.1113 46.5095 30.2304 46.358 30.3809C46.2065 30.5315 46.0863 30.7105 46.0043 30.9077C45.9222 31.1049 45.88 31.3164 45.88 31.53V31.64C43.449 31.2479 41.0898 30.4963 38.88 29.41C36.88 28.47 35.66 28 35.61 27.98H35.47C31.33 27.25 29.8 28.21 29.47 28.49L24.75 31.98H18.26V31.17C18.26 30.7377 18.0883 30.3231 17.7826 30.0174C17.4769 29.7117 17.0623 29.54 16.63 29.54H13V48.19H16.63C17.0623 48.19 17.4769 48.0183 17.7826 47.7126C18.0883 47.4069 18.26 46.9923 18.26 46.56V45.56H20L28.44 52.18C28.9794 52.6181 29.6457 52.8706 30.34 52.9C30.9302 52.8922 31.4952 52.6598 31.92 52.25C32.1564 52.0429 32.3501 51.7915 32.49 51.51C32.9661 51.8355 33.5368 51.9935 34.1125 51.9591C34.6882 51.9247 35.2361 51.6999 35.67 51.32C35.8814 51.129 36.0575 50.9022 36.19 50.65C36.6665 50.9758 37.2383 51.1331 37.8144 51.0969C38.3905 51.0606 38.938 50.833 39.37 50.45C39.7606 50.1056 40.0334 49.6475 40.15 49.14C40.561 49.3056 41.0113 49.3484 41.4462 49.2632C41.881 49.178 42.2819 48.9685 42.6 48.66C43.0754 48.2306 43.3717 47.6379 43.43 47L45.88 46.44V47C45.88 47.2136 45.9222 47.4251 46.0043 47.6223C46.0863 47.8195 46.2065 47.9985 46.358 48.1491C46.5095 48.2996 46.6893 48.4187 46.887 48.4996C47.0847 48.5804 47.2964 48.6213 47.51 48.62H50.84V29.91H47.51ZM41.51 47.41C41.27 47.62 40.98 47.88 40.07 47.24L39.85 47.06C39.825 47.0024 39.7874 46.9511 39.74 46.91L36.27 43.18C36.1228 43.0222 35.919 42.9293 35.7033 42.9218C35.4876 42.9143 35.2778 42.9928 35.12 43.14C34.9622 43.2872 34.8693 43.491 34.8618 43.7067C34.8543 43.9224 34.9328 44.1322 35.08 44.29L38.17 47.6C38.2004 47.7157 38.2588 47.8222 38.34 47.91C38.4218 47.9978 38.4854 48.1009 38.5271 48.2134C38.5689 48.3259 38.588 48.4455 38.5834 48.5654C38.5787 48.6853 38.5504 48.8031 38.5 48.912C38.4497 49.0209 38.3783 49.1188 38.29 49.2C38.1026 49.3441 37.8702 49.4171 37.634 49.4062C37.3979 49.3952 37.1732 49.3009 37 49.14L36.44 48.52C36.4119 48.4529 36.3711 48.3918 36.32 48.34L32.55 44.34C32.3983 44.1898 32.1935 44.1055 31.98 44.1055C31.7665 44.1055 31.5617 44.1898 31.41 44.34C31.3344 44.4144 31.2744 44.5032 31.2334 44.601C31.1924 44.6989 31.1713 44.8039 31.1713 44.91C31.1713 45.0161 31.1924 45.1211 31.2334 45.219C31.2744 45.3168 31.3344 45.4056 31.41 45.48L34.94 49.25C34.9734 49.4053 34.9651 49.5667 34.9159 49.7177C34.8667 49.8688 34.7784 50.0041 34.66 50.11C34.5651 50.2034 34.4512 50.2753 34.3262 50.3209C34.2011 50.3664 34.0676 50.3846 33.9349 50.3742C33.8022 50.3638 33.6733 50.325 33.5568 50.2604C33.4404 50.1959 33.3392 50.107 33.26 50L32.38 49C32.3259 48.9393 32.2616 48.8886 32.19 48.85L28.44 45.13C28.2862 44.9788 28.0786 44.895 27.8629 44.8968C27.6473 44.8987 27.4412 44.9862 27.29 45.14C27.1388 45.2938 27.055 45.5014 27.0568 45.7171C27.0587 45.9327 27.1462 46.1388 27.3 46.29L31.06 50H31.11C31.1551 50.1633 31.1537 50.3359 31.106 50.4984C31.0583 50.661 30.9662 50.807 30.84 50.92C30.62 51.12 30.31 51.4 29.42 50.76L20.79 43.99C20.6465 43.8719 20.4659 43.8081 20.28 43.81H18.28V33.56H22.69C22.508 33.8071 22.3911 34.0959 22.35 34.4C22.3192 34.6907 22.3525 34.9846 22.4475 35.261C22.5425 35.5375 22.697 35.7897 22.9 36C24.47 37.63 27.36 36.92 27.48 36.89C28.7935 36.2575 30.0175 35.4539 31.12 34.5L31.73 35.13L41.79 46.53C41.8306 46.6873 41.8269 46.8528 41.7792 47.0081C41.7316 47.1634 41.6419 47.3025 41.52 47.41H41.51ZM45.87 44.81L43 45.46L32.93 34L31.78 32.81C31.637 32.6657 31.446 32.5789 31.2433 32.566C31.0406 32.5531 30.8402 32.615 30.68 32.74C29.5657 33.702 28.36 34.5528 27.08 35.28C26.54 35.42 24.83 35.63 24.08 34.82C24.0307 34.7599 23.9995 34.6871 23.99 34.61C23.99 34.56 24.1 34.4 24.43 34.21H24.51L30.51 29.82C30.51 29.82 31.63 29.02 35.14 29.63C35.42 29.74 36.57 30.19 38.2 30.97C38.4 31.06 42.6 33.13 45.93 33.37L45.87 44.81Z" fill="#171716"/>
<path d="M62.4999 28.86H51.4999C51.2842 28.86 51.0771 28.945 50.9236 29.0966C50.7701 29.2482 50.6826 29.4543 50.6799 29.67V48.67C50.6826 48.8857 50.7701 49.0918 50.9236 49.2434C51.0771 49.395 51.2842 49.48 51.4999 49.48H57.3899L62.4999 28.86Z" fill="#171716"/>
<path d="M1.5 28.86H12.5C12.7158 28.86 12.9228 28.945 13.0763 29.0966C13.2298 29.2482 13.3174 29.4543 13.32 29.67V48.67C13.3174 48.8857 13.2298 49.0918 13.0763 49.2434C12.9228 49.395 12.7158 49.48 12.5 49.48H6.58L1.5 28.86Z" fill="#171716"/>
<path d="M32 7C29.8783 7 27.8434 7.84285 26.3431 9.34315C24.8429 10.8434 24 12.8783 24 15C24 17.1217 24.8429 19.1566 26.3431 20.6569C27.8434 22.1571 29.8783 23 32 23C34.1217 23 36.1566 22.1571 37.6569 20.6569C39.1571 19.1566 40 17.1217 40 15C40 12.8783 39.1571 10.8434 37.6569 9.34315C36.1566 7.84285 34.1217 7 32 7ZM31.11 18.55L27.93 15.36L29.35 13.94L31.12 15.71L34.66 12.18L36.07 13.59L31.11 18.55Z" fill="#171716"/>
<path d="M62.4999 29C62.4999 29 63.4999 43 57.4199 49.47L57.4999 37L62.4999 29Z" fill="#171716"/>
<path d="M1.50001 28.86C1.50001 28.86 -0.349987 43 6.58001 49.47L1.50001 28.86Z" fill="#171716"/>
<path d="M32 63C49.1208 63 63 49.1208 63 32C63 14.8792 49.1208 1 32 1C14.8792 1 1 14.8792 1 32C1 49.1208 14.8792 63 32 63Z" stroke="#171716" stroke-miterlimit="10" stroke-linecap="round"/>
</g>
<defs>
<clipPath id="clip0_1_7352">
<rect width="64" height="64" fill="white"/>
</clipPath>
</defs>
</svg>
