<svg id="Layer_1" data-name="Layer 1" xmlns="http://www.w3.org/2000/svg" xmlns:xlink="http://www.w3.org/1999/xlink" viewBox="0 0 400 300"><defs><style>.cls-1,.cls-11,.cls-12,.cls-4{fill:none;}.cls-2{fill:#231f20;}.cls-19,.cls-20,.cls-3{opacity:0.5;}.cls-10,.cls-11,.cls-16,.cls-17,.cls-21,.cls-22,.cls-23,.cls-24,.cls-25,.cls-4,.cls-9{stroke:#28459c;}.cls-10,.cls-11,.cls-12,.cls-16,.cls-17,.cls-21,.cls-22,.cls-23,.cls-24,.cls-25,.cls-4,.cls-9{stroke-miterlimit:10;}.cls-24,.cls-25,.cls-4{stroke-width:0.5px;}.cls-19,.cls-20,.cls-23,.cls-24,.cls-5{fill:#b0c1ed;}.cls-17,.cls-6{fill:#fff;}.cls-7{fill:#ffcbc2;}.cls-13,.cls-18,.cls-22,.cls-8{fill:#28459c;}.cls-9{fill:url(#_10_dpi_10_);}.cls-10,.cls-21{fill:#e5eaf9;}.cls-12{stroke:#b0c1ed;stroke-linecap:round;stroke-width:4px;}.cls-13{opacity:0.1;}.cls-14{fill:#927cb9;}.cls-15{fill:#f3f5fb;}.cls-16{fill:#b5a9e0;}.cls-18,.cls-19,.cls-21,.cls-22{fill-rule:evenodd;}.cls-25{fill:#bbcff9;}</style><pattern id="_10_dpi_10_" data-name="10 dpi 10%" width="28.8" height="28.8" patternTransform="translate(-85.65 -23.15) scale(0.72)" patternUnits="userSpaceOnUse" viewBox="0 0 28.8 28.8"><rect class="cls-1" width="28.8" height="28.8"/><circle class="cls-2" cx="28.8" cy="28.8" r="0.72"/><path class="cls-2" d="M14.4,29.52a.72.72,0,1,0-.72-.72A.72.72,0,0,0,14.4,29.52Z"/><path class="cls-2" d="M28.8,15.12a.72.72,0,1,0-.72-.72A.72.72,0,0,0,28.8,15.12Z"/><path class="cls-2" d="M14.4,15.12a.72.72,0,1,0-.72-.72A.72.72,0,0,0,14.4,15.12Z"/><path class="cls-2" d="M7.2,22.32a.72.72,0,1,0-.72-.72A.72.72,0,0,0,7.2,22.32Z"/><path class="cls-2" d="M21.6,22.32a.72.72,0,1,0-.72-.72A.72.72,0,0,0,21.6,22.32Z"/><path class="cls-2" d="M7.2,7.92a.72.72,0,1,0-.72-.72A.72.72,0,0,0,7.2,7.92Z"/><path class="cls-2" d="M21.6,7.92a.72.72,0,1,0-.72-.72A.72.72,0,0,0,21.6,7.92Z"/><circle class="cls-2" cy="28.8" r="0.72"/><path class="cls-2" d="M0,15.12a.72.72,0,0,0,0-1.44.72.72,0,0,0-.72.72A.72.72,0,0,0,0,15.12Z"/><path class="cls-2" d="M28.8.72A.72.72,0,0,0,29.52,0a.72.72,0,0,0-.72-.72.72.72,0,0,0-.72.72A.72.72,0,0,0,28.8.72Z"/><path class="cls-2" d="M14.4.72A.72.72,0,0,0,15.12,0a.72.72,0,0,0-.72-.72.72.72,0,0,0-.72.72A.72.72,0,0,0,14.4.72Z"/><path class="cls-2" d="M0,.72A.72.72,0,0,0,.72,0,.72.72,0,0,0,0-.72.72.72,0,0,0-.72,0,.72.72,0,0,0,0,.72Z"/></pattern></defs><g class="cls-3"><line class="cls-4" x1="198.55" y1="81.59" x2="165.16" y2="81.26"/><line class="cls-4" x1="165.49" y1="47.87" x2="198.88" y2="48.2"/><polyline class="cls-4" points="98.72 47.21 132.11 47.54 131.78 80.93 98.39 80.6"/><polyline class="cls-4" points="166.06 14.49 165.73 47.88 132.11 47.54 132.44 14.16"/><polyline class="cls-4" points="132.34 47.55 165.73 47.88 165.4 81.26 132.01 80.93"/></g><g class="cls-3"><line class="cls-4" x1="123.31" y1="239.57" x2="156.7" y2="239.99"/><line class="cls-4" x1="156.28" y1="273.39" x2="122.9" y2="272.97"/><polyline class="cls-4" points="223.05 274.22 189.66 273.8 190.08 240.4 223.47 240.82"/><polyline class="cls-4" points="155.63 299.58 156.05 273.38 189.66 273.8 189.25 300"/><polyline class="cls-4" points="189.43 273.8 156.05 273.38 156.47 239.98 189.85 240.4"/></g><g class="cls-3"><line class="cls-4" x1="330.38" y1="195.78" x2="330.7" y2="162.4"/><line class="cls-4" x1="364.09" y1="162.73" x2="363.76" y2="196.11"/><polyline class="cls-4" points="364.75 95.96 364.42 129.34 331.04 129.01 331.37 95.63"/><polyline class="cls-4" points="390.27 163.29 364.09 162.96 364.42 129.34 390.6 129.67"/><polyline class="cls-4" points="364.42 129.58 364.09 162.96 330.7 162.63 331.03 129.25"/></g><rect class="cls-5" x="73.89" y="73.02" width="260.13" height="172.22"/><rect class="cls-6" x="64.52" y="65.81" width="260.13" height="172.22"/><path class="cls-7" d="M247.47,262.46s-.16-66,2.09-67.54,3.92,8.81,5.53,7.17-1.7-25.05,1-26c3.62-1.31,6,22,6,22s-1.06-25.77,2.41-26c2.45-.16,5.27,26.49,5.27,26.49s.66-24.24,3.21-24.36,5,23.64,5,23.64-1.13-18,1.79-18.55,14.48,44.92,18.93,80.05"/><polygon class="cls-6" points="238.18 248.12 303.02 241.63 305.92 264.69 238.18 269.74 238.18 248.12"/><polygon class="cls-8" points="238.18 260.37 308.96 253.16 311.68 279.82 238.18 284.87 238.18 260.37"/><path class="cls-9" d="M138.26,95.16V130.9H102.52a35.41,35.41,0,1,0,35.74-35.74Z"/><path class="cls-10" d="M132,88.88h-.34a35.41,35.41,0,0,0-35.41,35.41c0,.11,0,.23,0,.34H132Z"/><polyline class="cls-11" points="195.67 168.06 229.23 131.08 253.21 149.57 292.25 113.95"/><polygon class="cls-8" points="295.77 109.77 288.86 110.89 295.29 116.75 295.77 109.77"/><line class="cls-12" x1="95.51" y1="187.23" x2="179.1" y2="187.23"/><line class="cls-12" x1="95.51" y1="201.64" x2="210.08" y2="201.64"/><line class="cls-12" x1="95.51" y1="216.05" x2="167.57" y2="216.05"/><rect class="cls-13" x="205.04" y="24.02" width="105.2" height="54.76"/><rect class="cls-14" x="200.71" y="20.42" width="105.2" height="54.76"/><path class="cls-15" d="M253.08,60a1.31,1.31,0,0,1,0,.28,1.45,1.45,0,0,1-.1.55,1.48,1.48,0,0,1-.14.25,1,1,0,0,1-.18.22,1.5,1.5,0,0,1-1,.43h-.28c-.09,0-.18,0-.27-.09l-.25-.13a.91.91,0,0,1-.21-.18,1.24,1.24,0,0,1-.18-.22,1.19,1.19,0,0,1-.13-.25,1.07,1.07,0,0,1-.09-.27,1.31,1.31,0,0,1,0-.28,1.31,1.31,0,0,1,0-.28,1.39,1.39,0,0,1,.12-.28.8.8,0,0,1,.13-.24,1.3,1.3,0,0,1,.18-.23l.21-.18.25-.13.27-.08a1.42,1.42,0,0,1,1.3.39,1,1,0,0,1,.18.23.92.92,0,0,1,.13.24A.73.73,0,0,1,253.08,60Zm7.57-25.56a9.67,9.67,0,0,0-10.32-3.18,8.52,8.52,0,0,0-6.48,7.16,1.08,1.08,0,0,0,2.14.26h0a6.34,6.34,0,0,1,4.92-5.32,7.59,7.59,0,0,1,8,2.41,7.1,7.1,0,0,1,1.59,5.85,10.16,10.16,0,0,1-5,6.49c-3.25,2-5,4.45-5,7.21a1.08,1.08,0,0,0,2.16,0c0-2,1.33-3.74,3.93-5.32a12.47,12.47,0,0,0,6-7.93A9.4,9.4,0,0,0,260.65,34.46Z"/><rect class="cls-16" x="9.4" y="102.56" width="64.49" height="86.47"/><rect class="cls-10" x="9.4" y="97.52" width="64.49" height="86.47"/><rect class="cls-17" x="15.71" y="105.08" width="51.88" height="12.97"/><path class="cls-18" d="M67,177H16a.44.44,0,0,1-.44-.44V151.07h0V125.58a.43.43,0,0,1,.44-.44H67a.44.44,0,0,1,.44.44v25.49h0v25.49A.44.44,0,0,1,67,177Zm-25.06-.88H66.53V151.5H41.91Zm-.88,0V151.5H16.41v24.62Zm.88-25.5H66.53V126H41.91Zm-25.5,0H41V126H16.41Zm7.91-11.87a.44.44,0,0,1-.44-.44.44.44,0,0,1,.44-.44h8.79a.43.43,0,0,1,.44.44.44.44,0,0,1-.44.44Zm0,25.5a.44.44,0,0,1-.44-.44.44.44,0,0,1,.44-.44h4v-4a.44.44,0,0,1,.44-.44.44.44,0,0,1,.44.44v4h3.95a.43.43,0,0,1,.44.44.44.44,0,0,1-.44.44H29.16v3.95a.44.44,0,0,1-.44.44.43.43,0,0,1-.44-.44v-3.95Zm25.19-30a.44.44,0,0,1,.62-.62l4.09,4.08,4.08-4.08a.44.44,0,0,1,.62,0,.42.42,0,0,1,0,.62l-4.08,4.09,4.08,4.08a.42.42,0,0,1,0,.62.44.44,0,0,1-.62,0l-4.08-4.08L50.13,143a.44.44,0,0,1-.62-.62l4.08-4.08Zm.31,27.62a.44.44,0,0,1-.44-.44.44.44,0,0,1,.44-.44h8.79a.44.44,0,0,1,.44.44.43.43,0,0,1-.44.44Zm0,4.81a.44.44,0,1,1,0-.88h8.79a.44.44,0,0,1,0,.88Z"/><polygon class="cls-19" points="99.86 274.79 95.08 258.85 83.66 270.96 99.86 274.79"/><rect class="cls-20" x="57.96" y="211.4" width="16.93" height="63.62" transform="translate(-156.14 124.77) rotate(-46.71)"/><polygon class="cls-21" points="99.14 268.31 94.36 252.36 82.94 264.48 99.14 268.31"/><polygon class="cls-22" points="92.97 266.85 99.14 268.31 97.32 262.23 92.97 266.85"/><rect class="cls-10" x="57.23" y="204.92" width="16.93" height="63.62" transform="translate(-151.65 122.21) rotate(-46.71)"/><rect class="cls-23" x="63.18" y="204.92" width="5.03" height="63.62" transform="translate(-151.65 122.21) rotate(-46.71)"/><circle class="cls-20" cx="75.62" cy="38.02" r="31.38"/><circle class="cls-17" cx="72.73" cy="34.42" r="31.38"/><circle class="cls-16" cx="72.73" cy="34.42" r="27.41"/><path class="cls-24" d="M51.94,47.42a61.88,61.88,0,0,0,3.79,16.17s1.84-4.53,10.77-7c0,0,14-1.93,11.07-13.87l-2-8.25S50.5,21.61,51.94,47.42Z"/><path class="cls-4" d="M75.57,34.5s-19.18,4.31-20,24.42"/><path class="cls-24" d="M78.11,58.9a56.38,56.38,0,0,0,15.07.89S89.71,57,89.9,48.6c0,0,2-12.73-9.21-13.25L73,35S55.25,53.46,78.11,58.9Z"/><path class="cls-4" d="M73,35S71.76,52.79,89.07,58.72"/><path class="cls-24" d="M74.39,44.19a11.81,11.81,0,0,0,11.09,2.29"/><path class="cls-24" d="M77.71,50.63s-.58,3.62-2.37,5.28"/><path class="cls-25" d="M50,23.46A60.31,60.31,0,0,0,38.66,35s4.7-.84,11.35,5.25c0,0,8.9,10.57,17.2,1.92L73,36.23S70.57,8.84,50,23.46Z"/><path class="cls-4" d="M73,36.23S59.45,22.65,42.43,32.44"/><path class="cls-4" d="M64.53,30.84a12.69,12.69,0,0,0-9.68,7.34"/><path class="cls-24" d="M57,29s-2.5-3-2.58-5.64"/><path class="cls-24" d="M66.52,8.09A64.56,64.56,0,0,1,82,0s-2.34,4.57,1.85,13.33c0,0,8.1,12.47-3.41,18.31l-7.93,4.07S45,24.66,66.52,8.09Z"/><path class="cls-4" d="M72.47,35.71S62.73,17.53,78.14,3.08"/><path class="cls-24" d="M70,17s-2.33-3.52-5-4.43"/><path class="cls-25" d="M93.58,16.71a65,65,0,0,1,14.9,9s-5.12.36-10.46,8.48c0,0-6.49,13.37-17.44,6.54L73,36.08S68.29,6.88,93.58,16.71Z"/><path class="cls-4" d="M73,36.08s10.54-17.73,30.87-12"/><path class="cls-4" d="M80.39,28.24a13.65,13.65,0,0,1,12,5.1"/><path class="cls-24" d="M87.78,24.3s1.81-3.82,1.21-6.58"/></svg>