<svg id="Layer_1" data-name="Layer 1" xmlns="http://www.w3.org/2000/svg" viewBox="0 0 400 300"><defs><style>.cls-1{opacity:0.7;}.cls-18,.cls-2,.cls-8{fill:none;}.cls-11,.cls-12,.cls-13,.cls-14,.cls-17,.cls-18,.cls-2,.cls-20,.cls-21,.cls-22,.cls-23,.cls-24,.cls-8{stroke:#f3b046;}.cls-11,.cls-12,.cls-13,.cls-14,.cls-2,.cls-22,.cls-23,.cls-3,.cls-4,.cls-8{stroke-miterlimit:10;}.cls-2{stroke-width:0.5px;}.cls-20,.cls-22,.cls-3,.cls-6{fill:#fff;}.cls-3,.cls-4{stroke:#f4cc92;}.cls-4{fill:#fcecd4;}.cls-12,.cls-17,.cls-19,.cls-21,.cls-23,.cls-5{fill:#f3b046;}.cls-5{opacity:0.8;}.cls-7{opacity:0.6;}.cls-8{stroke-linecap:round;stroke-width:4px;}.cls-9{fill:#e2afaa;}.cls-10{fill:#efb9b1;}.cls-11,.cls-13{fill:#fff5e6;}.cls-11,.cls-12{fill-rule:evenodd;}.cls-14{fill:#ffe0b3;}.cls-15{fill:#ffcbc2;}.cls-16{opacity:0.3;}.cls-17,.cls-18,.cls-20,.cls-21,.cls-24{stroke-linejoin:round;}.cls-21{opacity:0.16;}.cls-24{fill:#f9cd93;}</style></defs><g class="cls-1"><line class="cls-2" x1="296.24" y1="74.49" x2="262.86" y2="74.16"/><line class="cls-2" x1="263.19" y1="40.78" x2="296.57" y2="41.11"/><polyline class="cls-2" points="196.43 40.12 229.81 40.45 229.48 73.83 196.1 73.5"/><polyline class="cls-2" points="263.76 14.61 263.43 40.78 229.81 40.45 230.14 14.28"/><polyline class="cls-2" points="230.05 40.45 263.43 40.78 263.1 74.17 229.72 73.83"/></g><g class="cls-1"><line class="cls-2" x1="332.95" y1="213.17" x2="333.28" y2="179.79"/><line class="cls-2" x1="366.66" y1="180.12" x2="366.33" y2="213.5"/><polyline class="cls-2" points="367.32 113.36 366.99 146.74 333.61 146.41 333.94 113.03"/><polyline class="cls-2" points="392.83 180.68 366.66 180.35 366.99 146.74 393.16 147.07"/><polyline class="cls-2" points="366.99 146.97 366.66 180.35 333.28 180.02 333.61 146.64"/></g><g class="cls-1"><line class="cls-2" x1="133.75" y1="239.78" x2="167.13" y2="240.11"/><line class="cls-2" x1="166.8" y1="273.49" x2="133.42" y2="273.16"/><polyline class="cls-2" points="233.56 274.15 200.18 273.82 200.51 240.44 233.89 240.77"/><polyline class="cls-2" points="166.24 299.67 166.57 273.49 200.18 273.82 199.85 300"/><polyline class="cls-2" points="199.95 273.82 166.57 273.49 166.9 240.11 200.28 240.44"/></g><polygon class="cls-3" points="34.72 27.02 54.17 7.57 54.17 27.02 34.72 27.02"/><polygon class="cls-4" points="54.17 7.57 54.17 27.02 34.72 27.02 34.72 199.21 184.57 199.21 184.57 7.57 54.17 7.57"/><rect class="cls-5" x="82.99" y="76.01" width="260.09" height="172.19"/><rect class="cls-6" x="73.62" y="67.36" width="260.09" height="172.19"/><g class="cls-7"><line class="cls-8" x1="88.03" y1="83.94" x2="144.8" y2="83.94"/><line class="cls-8" x1="88.03" y1="98.34" x2="165.84" y2="98.34"/><line class="cls-8" x1="88.03" y1="112.75" x2="136.97" y2="112.75"/></g><g class="cls-7"><line class="cls-8" x1="75.06" y1="33.23" x2="131.3" y2="33.23"/><line class="cls-8" x1="75.06" y1="45.98" x2="152.15" y2="45.98"/></g><path class="cls-9" d="M281.12,193.45s-8.65-10.81-20.18,1.44c0,0-2.88,6.48,5.05,2.88,0,0,5.14-5.08,9.36-.72Z"/><path class="cls-10" d="M282.56,187.68s-8.65-10.8-20.17,1.44c0,0-2.89,6.49,5,2.89,0,0,5.14-5.09,9.36-.72Z"/><polygon class="cls-11" points="247.09 215.81 263.73 215.44 255.1 201.21 247.09 215.81"/><polygon class="cls-12" points="250.14 210.25 247.09 215.81 253.43 215.67 250.14 210.25"/><rect class="cls-13" x="277.97" y="160.19" width="16.93" height="63.61" transform="translate(302.03 -152.48) rotate(58.76)"/><rect class="cls-14" x="283.92" y="160.19" width="5.03" height="63.61" transform="matrix(0.52, 0.85, -0.85, 0.52, 302.03, -152.48)"/><path class="cls-15" d="M265.18,256.78s-4.48-66.69-2.23-68.26,8.08,5.65,11,15.73c1.83,6.39,18-7.2,20.18-5.76,6.37,4.25,11.52,19.45,22.27,55.19"/><polygon class="cls-3" points="255.85 242.67 320.63 235.75 325.85 273.19 256 278.69 255.85 242.67"/><g class="cls-16"><path class="cls-17" d="M170.94,148a32.71,32.71,0,1,1,59.14,19.25h0c-4.67,7-16.8,15-16.8,19.74v5.43a2,2,0,0,1-2,2H196a2,2,0,0,1-2-2V187c0-4.76-12.13-12.7-16.8-19.74h0A32.54,32.54,0,0,1,170.94,148Z"/></g><path class="cls-18" d="M170.94,148a32.71,32.71,0,1,1,59.14,19.25h0c-4.67,7-16.8,15-16.8,19.74v5.43a2,2,0,0,1-2,2H196a2,2,0,0,1-2-2V187c0-4.76-12.13-12.7-16.8-19.74h0A32.54,32.54,0,0,1,170.94,148Z"/><path class="cls-19" d="M207.36,193.83a213.1,213.1,0,0,1,.42-25.45,35.83,35.83,0,0,1-8.28,0,214.08,214.08,0,0,1,.43,25.45l-.58,0a219.26,219.26,0,0,0-.45-25.51c-9.7-1.34-14.05-6.84-14.82-12-.46-3,.57-6,2.46-7.17a5,5,0,0,1,4-.4A10.28,10.28,0,0,1,196.4,154c1.58,3.08,2.51,8.2,3,13.76a35.32,35.32,0,0,0,8.39,0c.54-5.56,1.47-10.68,3-13.76a10.28,10.28,0,0,1,5.87-5.33,5,5,0,0,1,4,.4c1.88,1.13,2.92,4.14,2.46,7.17-.78,5.19-5.12,10.69-14.82,12a220.39,220.39,0,0,0-.46,25.51Zm11-44.79a5.07,5.07,0,0,0-1.46.22,9.67,9.67,0,0,0-5.52,5c-1.51,3-2.42,8-3,13.42,9.29-1.34,13.45-6.58,14.19-11.52.42-2.76-.52-5.6-2.18-6.59A4,4,0,0,0,218.38,149Zm-29.47,0a4,4,0,0,0-2.08.56c-1.66,1-2.6,3.83-2.18,6.59.74,4.94,4.9,10.18,14.19,11.52-.53-5.46-1.44-10.45-3-13.42a9.63,9.63,0,0,0-5.51-5A5.13,5.13,0,0,0,188.91,149Z"/><path class="cls-6" d="M230.9,149.86A1.87,1.87,0,0,1,229,148a25.35,25.35,0,0,0-19.14-24.61,1.88,1.88,0,0,1,.92-3.64,29.1,29.1,0,0,1,22,28.25A1.88,1.88,0,0,1,230.9,149.86Z"/><circle class="cls-6" cx="204.89" cy="120.68" r="1.88"/><path class="cls-20" d="M214.05,189.3H193.24v9.92a8.51,8.51,0,0,0,1.33,4.57h0a8.93,8.93,0,0,0,7.55,4.15h3a8.93,8.93,0,0,0,7.55-4.15h0a8.51,8.51,0,0,0,1.33-4.57Z"/><path class="cls-20" d="M213.22,205H213l-19.73-1.7a1.23,1.23,0,0,1-1.11-1.41,1.37,1.37,0,0,1,1.47-1.18l19.73,1.7a1.22,1.22,0,0,1,1.11,1.4A1.38,1.38,0,0,1,213.22,205Z"/><path class="cls-20" d="M214.05,196.17h-.18l-20.81-1.79A1.22,1.22,0,0,1,192,193a1.39,1.39,0,0,1,1.46-1.18l20.82,1.79a1.22,1.22,0,0,1,1.11,1.41A1.4,1.4,0,0,1,214.05,196.17Z"/><path class="cls-20" d="M214.05,200.71h-.18l-20.81-1.79A1.22,1.22,0,0,1,192,197.5a1.39,1.39,0,0,1,1.46-1.18l20.82,1.79a1.22,1.22,0,0,1,1.11,1.41A1.4,1.4,0,0,1,214.05,200.71Z"/><line class="cls-18" x1="203.7" y1="98.98" x2="203.7" y2="110.25"/><line class="cls-18" x1="238.52" y1="113.45" x2="230.54" y2="121.42"/><line class="cls-18" x1="168.85" y1="113.36" x2="176.83" y2="121.34"/><line class="cls-18" x1="184.85" y1="102.71" x2="189.16" y2="113.12"/><line class="cls-18" x1="222.55" y1="102.75" x2="218.23" y2="113.17"/><line class="cls-18" x1="249.18" y1="129.44" x2="238.76" y2="133.76"/><line class="cls-18" x1="158.16" y1="129.33" x2="168.57" y2="133.65"/><path class="cls-21" d="M93.75,217.7a27.55,27.55,0,0,0,4.47,4.64,27.12,27.12,0,0,0,5.43,3.47l3-5a21.58,21.58,0,0,0,5.53,1.66l-.26,5.86A27.65,27.65,0,0,0,124.66,227l-1.42-5.69a21.58,21.58,0,0,0,5.09-2.73l3.95,4.33a27.27,27.27,0,0,0,8.1-9.9l-5-3A21.89,21.89,0,0,0,137,204.5l5.86.27A27.66,27.66,0,0,0,141.61,192l-5.69,1.42a21,21,0,0,0-2.72-5.09l4.33-4a27.61,27.61,0,0,0-4.48-4.64,27.12,27.12,0,0,0-5.43-3.47l-3,5a21.46,21.46,0,0,0-5.53-1.66l.27-5.86a27.71,27.71,0,0,0-12.74,1.27l1.42,5.69a21.58,21.58,0,0,0-5.09,2.73l-4-4.33a27.54,27.54,0,0,0-8.1,9.9l5,3a21.46,21.46,0,0,0-1.66,5.53l-5.86-.27a27.52,27.52,0,0,0,1.27,12.73l5.69-1.42a21.72,21.72,0,0,0,2.72,5.09Zm11.63-25a13.25,13.25,0,1,1,1.86,18.64A13.24,13.24,0,0,1,105.38,192.67Zm3.51,2.87a8.72,8.72,0,1,1,1.22,12.27A8.72,8.72,0,0,1,108.89,195.54Z"/><path class="cls-21" d="M111,162.84a14.14,14.14,0,0,0,2.32,2.32,13.82,13.82,0,0,0,2.79,1.72l1.5-2.58a11.27,11.27,0,0,0,2.83.8l-.09,3a14.14,14.14,0,0,0,6.48-.75l-.78-2.89a10.71,10.71,0,0,0,2.58-1.43l2,2.17a14.2,14.2,0,0,0,2.33-2.32,14.78,14.78,0,0,0,1.72-2.79l-2.59-1.5a10.49,10.49,0,0,0,.8-2.83l3,.09a14.14,14.14,0,0,0-.75-6.48l-2.89.77a11.6,11.6,0,0,0-1.43-2.57L133,145.5a14.54,14.54,0,0,0-2.32-2.32,13.61,13.61,0,0,0-2.8-1.72l-1.49,2.59a11,11,0,0,0-2.83-.81l.08-3a14.11,14.11,0,0,0-6.47.75l.77,2.89a11,11,0,0,0-2.57,1.43l-2-2.17a14.14,14.14,0,0,0-2.32,2.32,13.82,13.82,0,0,0-1.72,2.79l2.58,1.5a11,11,0,0,0-.8,2.83l-3-.09a14.28,14.28,0,0,0,.76,6.48l2.89-.77a10.84,10.84,0,0,0,1.43,2.57ZM116.67,150a6.75,6.75,0,1,1,1.11,9.49A6.77,6.77,0,0,1,116.67,150Zm1.81,1.43a4.45,4.45,0,1,1,.73,6.25A4.44,4.44,0,0,1,118.48,151.41Z"/><path class="cls-21" d="M152.76,220.73a10.73,10.73,0,0,0,1.75,1.82,10.91,10.91,0,0,0,2.13,1.35l1.18-2a8.67,8.67,0,0,0,2.16.65l-.1,2.29a10.68,10.68,0,0,0,5-.5l-.55-2.22a8.33,8.33,0,0,0,2-1.07l1.54,1.69a10.73,10.73,0,0,0,1.82-1.75,10.45,10.45,0,0,0,1.36-2.12l-2-1.18a8.08,8.08,0,0,0,.65-2.17l2.3.11a11,11,0,0,0-.5-5l-2.23.56a8.59,8.59,0,0,0-1.07-2l1.7-1.54a10.73,10.73,0,0,0-1.75-1.82,10.91,10.91,0,0,0-2.13-1.35l-1.18,2a8.39,8.39,0,0,0-2.16-.65l.1-2.29a10.81,10.81,0,0,0-5,.49l.55,2.23a8.33,8.33,0,0,0-2,1.07l-1.55-1.7A11.14,11.14,0,0,0,153,207.4a10.45,10.45,0,0,0-1.36,2.12l2,1.18a8.49,8.49,0,0,0-.66,2.17l-2.29-.11a10.84,10.84,0,0,0,.5,5l2.23-.56a8.29,8.29,0,0,0,1.06,2Zm4.55-9.8a5.19,5.19,0,1,1,.73,7.3A5.19,5.19,0,0,1,157.31,210.93Zm1.38,1.12a3.41,3.41,0,1,1,.48,4.81A3.41,3.41,0,0,1,158.69,212.05Z"/><line class="cls-17" x1="278.22" y1="92.57" x2="306.43" y2="120.77"/><circle class="cls-19" cx="278.22" cy="92.57" r="3.95"/><circle class="cls-19" cx="306.71" cy="121.05" r="3.95"/><line class="cls-17" x1="278.22" y1="121.39" x2="306.43" y2="149.59"/><circle class="cls-19" cx="278.22" cy="121.39" r="3.95"/><circle class="cls-19" cx="306.71" cy="149.87" r="3.95"/><line class="cls-17" x1="306.71" y1="92.57" x2="278.5" y2="120.77"/><circle class="cls-19" cx="306.71" cy="92.57" r="3.95"/><circle class="cls-19" cx="292.3" cy="106.98" r="3.95"/><circle class="cls-19" cx="292.3" cy="135.8" r="3.95"/><circle class="cls-19" cx="278.22" cy="121.05" r="3.95"/><path class="cls-22" d="M362.53,24.68h-15.2a29.72,29.72,0,1,0,0,10.08h15.2Z"/><circle class="cls-23" cx="318.04" cy="29.72" r="25.59"/><path class="cls-6" d="M337.86,33.7a1.62,1.62,0,0,1-1.61-1.62A21.8,21.8,0,0,0,319.8,10.93a1.61,1.61,0,0,1,.79-3.13,25,25,0,0,1,18.89,24.28A1.63,1.63,0,0,1,337.86,33.7Z"/><path class="cls-6" d="M297.86,25.76a1.61,1.61,0,0,1,1.61,1.61,21.8,21.8,0,0,0,16.45,21.16,1.61,1.61,0,0,1-.79,3.13,25,25,0,0,1-18.88-24.29A1.61,1.61,0,0,1,297.86,25.76Z"/><circle class="cls-6" cx="322.37" cy="49.46" r="1.88"/><path class="cls-24" d="M64.21,198.92a4.61,4.61,0,0,0-1.56-3.44l-12.07-9L54,184.89A3.77,3.77,0,1,0,50.9,178l-7.36,3.33-10.43-8a10.8,10.8,0,0,0-.52-8.34,12.22,12.22,0,0,0-11.68-6.84h0l-3.33-7.37a3.69,3.69,0,0,0-5-1.88,3.69,3.69,0,0,0-1.88,5L14,161.28h0a11.18,11.18,0,0,0-2.57,13.29,14.06,14.06,0,0,0,5.93,5.9l-.87,13.11-7.45,2.49a3.77,3.77,0,1,0,3.11,6.87L16,201.52l-1.18,15a4.15,4.15,0,0,0,1.78,3.93l.7,10,1.93-9.46c.36.14,2.68-.62,3.26-3.25L23.84,198l18.66-8.44,15.82,12.06c1.87,1.52,4.46,0,4.59-.3l8.38,4.78ZM20.5,165.75a3.78,3.78,0,1,1-1.88,5C18,169.27,18.89,166.78,20.5,165.75Zm4.16,23.56.45-8.79A16.69,16.69,0,0,0,28.55,179l6.91,5.45Z"/></svg>