<svg xmlns="http://www.w3.org/2000/svg" viewBox="0 0 500 500"><g id="freepik--Shadow--inject-9"><ellipse id="freepik--path--inject-9" cx="250" cy="415.69" rx="193.89" ry="11.32" style="fill:#f5f5f5"></ellipse></g><g id="freepik--paper-crumple--inject-9"><path d="M253.83,417l-8.14.48s-6-6.45-6-7.14,2.2-6.61,2.2-6.61l5.8-2.19s3.63,1.75,4.25,2.53,2.83,4.25,2.83,4.25a2.42,2.42,0,0,1,1.28,2.25c.07,1.75-1.83,4.36-1.83,4.36Z" style="fill:#407BFF"></path><path d="M253.83,417l-8.14.48s-6-6.45-6-7.14,2.2-6.61,2.2-6.61l5.8-2.19s3.63,1.75,4.25,2.53,2.83,4.25,2.83,4.25a2.42,2.42,0,0,1,1.28,2.25c.07,1.75-1.83,4.36-1.83,4.36Z" style="fill:#fff;opacity:0.8"></path><path d="M244.26,403.94l-.12,1.87-1.67,4.36,3.91,4.41,2.88.42,3.78-2.39.15-2.43-2.76-.76-1.89,1.85.6,2.35,2.21-1.17-1.6.32-.12-1.35,1-.89,1.83.33s.3,1.44.07,1.55-3.3,2-3.3,2l-2.23-.52-3.68-4,1.43-3.8Z" style="fill:#407BFF"></path><path d="M244.26,403.94l-.12,1.87-1.67,4.36,3.91,4.41,2.88.42,3.78-2.39.15-2.43-2.76-.76-1.89,1.85.6,2.35,2.21-1.17-1.6.32-.12-1.35,1-.89,1.83.33s.3,1.44.07,1.55-3.3,2-3.3,2l-2.23-.52-3.68-4,1.43-3.8Z" style="fill:#fff;opacity:0.6000000000000001"></path><path d="M262.05,409.65l3.59-6.27s7.54-1.4,8.08-1.13,3.71,4.74,3.71,4.74l-1.23,5.34s-3,1.88-3.88,2-4.44.11-4.44.11a2.08,2.08,0,0,1-2.24-.11c-1.3-.77-2.27-3.41-2.27-3.41Z" style="fill:#407BFF"></path><path d="M262.05,409.65l3.59-6.27s7.54-1.4,8.08-1.13,3.71,4.74,3.71,4.74l-1.23,5.34s-3,1.88-3.88,2-4.44.11-4.44.11a2.08,2.08,0,0,1-2.24-.11c-1.3-.77-2.27-3.41-2.27-3.41Z" style="fill:#fff;opacity:0.8"></path><path d="M263.74,408.92l.86.73,1.58,2.68,6,.4,2.89-1.51.7-3.88-2.44-1.13-2.73,1.49.21,1.95,2.66.84.65-2.05-1,1.21-1.36-.59-.08-1,1.73-1.06s1.76.42,1.67.64-.74,3.25-.74,3.25l-2.37,1.06-5.46-.15L265,409.47Z" style="fill:#407BFF"></path><path d="M263.74,408.92l.86.73,1.58,2.68,6,.4,2.89-1.51.7-3.88-2.44-1.13-2.73,1.49.21,1.95,2.66.84.65-2.05-1,1.21-1.36-.59-.08-1,1.73-1.06s1.76.42,1.67.64-.74,3.25-.74,3.25l-2.37,1.06-5.46-.15L265,409.47Z" style="fill:#fff;opacity:0.6000000000000001"></path><path d="M212.61,410.37l.4-1.62a7.84,7.84,0,0,1,4.45-5.54,15.07,15.07,0,0,1,3.68-1.25,35.2,35.2,0,0,1,3.69,3.77,3,3,0,0,1,.74,2l.05,5s-2.34,2.62-3.1,2.87-4,.92-4,.92a1.64,1.64,0,0,1-2.06.29c-1.35-.62-2.81-3.38-2.81-3.38h0A3,3,0,0,1,212.61,410.37Z" style="fill:#407BFF;opacity:0.8"></path><path d="M213.94,411.07l.94.66,2,2.69,5.52-.64,2.3-2.2-.22-4.43-2.47-.81-2.16,2.14.63,2.13,2.61.45.13-2.39-.65,1.52-1.37-.4-.29-1.11,1.34-1.48s1.69.14,1.66.4.05,3.73.05,3.73l-1.93,1.61-5,.83-1.82-2.32Z" style="fill:#407BFF"></path><path d="M213.94,411.07l.94.66,2,2.69,5.52-.64,2.3-2.2-.22-4.43-2.47-.81-2.16,2.14.63,2.13,2.61.45.13-2.39-.65,1.52-1.37-.4-.29-1.11,1.34-1.48s1.69.14,1.66.4.05,3.73.05,3.73l-1.93,1.61-5,.83-1.82-2.32Z" style="fill:#407BFF;opacity:0.6000000000000001"></path><path d="M212.61,410.37l.4-1.62a7.84,7.84,0,0,1,4.45-5.54,15.07,15.07,0,0,1,3.68-1.25,35.2,35.2,0,0,1,3.69,3.77,3,3,0,0,1,.74,2l.05,5s-2.34,2.62-3.1,2.87-4,.92-4,.92a1.64,1.64,0,0,1-2.06.29c-1.35-.62-2.81-3.38-2.81-3.38h0A3,3,0,0,1,212.61,410.37Z" style="fill:#fff;opacity:0.8"></path><path d="M213.68,411.63l1,.54,2.34,2.42,5.4-1.29,2-2.46-.74-4.37-2.56-.5-1.88,2.38.87,2,2.65.14-.15-2.39-.47,1.58-1.41-.23-.42-1.07,1.15-1.63s1.7-.06,1.7.19.49,3.71.49,3.71L222,412.51l-4.87,1.42L215,411.85Z" style="fill:#407BFF"></path><path d="M213.68,411.63l1,.54,2.34,2.42,5.4-1.29,2-2.46-.74-4.37-2.56-.5-1.88,2.38.87,2,2.65.14-.15-2.39-.47,1.58-1.41-.23-.42-1.07,1.15-1.63s1.7-.06,1.7.19.49,3.71.49,3.71L222,412.51l-4.87,1.42L215,411.85Z" style="fill:#fff;opacity:0.6000000000000001"></path></g><g id="freepik--Balloon--inject-9"><polygon points="229.47 107.27 217.99 114.77 217.53 114.05 228.98 106.56 229.47 107.27" style="fill:#407BFF"></polygon><path d="M238.38,92.59c.66-5.19-4.59-10.54-9.72-11.61S216.42,84.19,215,89.24c-3.54,12.82,9.13,19.37,12.81,22.06s7.92,5.91,7.88,8.67c1.87-3,3.71-4.4,6.29-6.84a50.4,50.4,0,0,0,7.24-7.8,15.86,15.86,0,0,0,3.13-10c-.27-3.55-2.4-7.18-5.78-8.27C239.61,84.82,238.38,92.59,238.38,92.59Z" style="fill:#407BFF"></path><g style="opacity:0.5"><path d="M238.38,92.59c.66-5.19-4.59-10.54-9.72-11.61S216.42,84.19,215,89.24c-3.54,12.82,9.13,19.37,12.81,22.06s7.92,5.91,7.88,8.67c1.87-3,3.71-4.4,6.29-6.84a50.4,50.4,0,0,0,7.24-7.8,15.86,15.86,0,0,0,3.13-10c-.27-3.55-2.4-7.18-5.78-8.27C239.61,84.82,238.38,92.59,238.38,92.59Z" style="fill:#fff"></path></g><path d="M261.31,77.12a6.49,6.49,0,0,0-3.84-.41c-1.92.48-2.68,4.67-2.68,4.67a5,5,0,0,0,2.5,3.83l2.25,1.07S262.17,79,261,77.51Z" style="fill:#407BFF"></path><path d="M267.6,84.5c-2.26,2.27-6.61,3.35-8.63,1.33s-1-6.36,1.3-8.63,4-.71,6,1.31S269.85,82.23,267.6,84.5Z" style="fill:#407BFF"></path><path d="M262.94,77.53s.08,2.77,3.74,5.55C266.68,83.08,258.52,80.71,262.94,77.53Z" style="fill:#407BFF"></path><path d="M264.66,78.58s1.95,1.64,1.18,2.34c0,0,1.46,1.55,2,.75S264.66,78.58,264.66,78.58Z" style="fill:#407BFF"></path><g style="opacity:0.2"><path d="M262.94,77.53s.08,2.77,3.74,5.55C266.68,83.08,258.52,80.71,262.94,77.53Z"></path></g><g style="opacity:0.2"><path d="M264.66,78.58s1.95,1.64,1.18,2.34c0,0,1.46,1.55,2,.75S264.66,78.58,264.66,78.58Z"></path></g><path d="M255.12,82.83a4.65,4.65,0,0,0,1.34,4.71,6.2,6.2,0,0,0,4.79,1.51A9.49,9.49,0,0,0,266,87.12c.36-.27,1.23-1,1-1.52s-1-.28-1.45-.25a16.77,16.77,0,0,1-3.68,0,15.71,15.71,0,0,1-3.5-.86C258,84.36,255,83.12,255.12,82.83Z" style="fill:#407BFF"></path><path d="M267.86,88.06a4.13,4.13,0,0,1-3.37,2.18,6.94,6.94,0,0,1-2.69-.5c-.61-.2-1.3-.54-1.38-1.18s.59-1.19,1.2-1.52q1.39-.78,2.82-1.47a10.5,10.5,0,0,1,2.82-1.28c.81-.08.93.68,1,1.54A4,4,0,0,1,267.86,88.06Z" style="fill:#407BFF"></path><g style="opacity:0.2"><path d="M256.94,82.25a2.94,2.94,0,0,1-.25-3.11c.39-.71,1.86-2,2.68-1.36A13.6,13.6,0,0,0,256.94,82.25Z"></path></g><g style="opacity:0.2"><path d="M261.78,87.87a3.33,3.33,0,0,0,3.09.29c.55-.24,2.63-2.28,1.14-2.16-.49,0-1.43.91-1.92,1.13A10.54,10.54,0,0,1,261.78,87.87Z"></path></g><g style="opacity:0.2"><path d="M257.84,86a2.4,2.4,0,0,0,1.83,2.28c-.5.28-2-.77-2.48-1.09-1.25-.82-1.25-1.8-1.7-3.24C255.49,83.94,256.65,85.84,257.84,86Z"></path></g><polygon points="236.52 100.72 244.72 93.98 256.24 87.18 256.68 87.91 245.21 94.69 236.43 101.89 236.52 100.72" style="fill:#407BFF"></polygon><path d="M245.39,94.43l-.84-.19a26,26,0,0,1,1.29-3.71,30.29,30.29,0,0,0,2.24-7.43l.85.12a31.12,31.12,0,0,1-2.29,7.63A23.89,23.89,0,0,0,245.39,94.43Z" style="fill:#407BFF"></path><path d="M250.17,91.07a5,5,0,0,0,3.39.88,9.92,9.92,0,0,0,3.75-1.51c-1.31-.85-1.79-2.55-2.93-3.62a4.07,4.07,0,0,0-3.45-1c-1.59.28-3,1-3,2A5.27,5.27,0,0,0,250.17,91.07Z" style="fill:#407BFF"></path><path d="M248.74,84.74a5.64,5.64,0,0,1-3.49-3.23c-.62-1.51.88-3.37,1.65-4.81a29.81,29.81,0,0,1,3.75,4.44,2.72,2.72,0,0,1,.47,2.31,1.68,1.68,0,0,1-1.88,1.19S248.74,84.74,248.74,84.74Z" style="fill:#407BFF"></path><path d="M242.22,80.93a5.94,5.94,0,0,1,4.38,2.54,4.45,4.45,0,0,1,.2,4.08,2.82,2.82,0,0,1-2.74-.87,8.29,8.29,0,0,1-1.51-2.61,8.16,8.16,0,0,0-1.52-2.6Z" style="fill:#407BFF"></path><path d="M219.55,137.45a3.78,3.78,0,0,1-3.73-3.35,3.78,3.78,0,0,1,3.33-4.15,3.76,3.76,0,1,1,.82,7.47A3,3,0,0,1,219.55,137.45Zm0-6.52-.3,0a2.76,2.76,0,1,0,3,2.44h0a2.77,2.77,0,0,0-2.74-2.46Z" style="fill:#407BFF"></path><path d="M212.06,144a2.36,2.36,0,0,1-1.47-.52,2.33,2.33,0,0,1-.87-1.58,2.37,2.37,0,0,1,2.09-2.6,2.35,2.35,0,0,1,2.6,2.08,2.35,2.35,0,0,1-2.08,2.61Zm0-3.72h-.15a1.36,1.36,0,0,0-.7,2.41,1.3,1.3,0,0,0,1,.29,1.37,1.37,0,0,0,.91-.5,1.34,1.34,0,0,0,.29-1h0a1.36,1.36,0,0,0-1.35-1.21Z" style="fill:#407BFF"></path><path d="M237.35,129.5A27.84,27.84,0,0,1,215,118.21l-.94,0a24.52,24.52,0,0,1,0-49c.79,0,1.61,0,2.44.13a31.07,31.07,0,0,1,56.31,7.38,27.74,27.74,0,0,1-21.68,49.13A27.77,27.77,0,0,1,237.35,129.5ZM215.5,117.19l.16.21a26.75,26.75,0,0,0,35.13,7.48l.16-.09.18,0a27.53,27.53,0,0,0,4.41.37,26.76,26.76,0,0,0,16.54-47.8l-.13-.1-.05-.16a30.07,30.07,0,0,0-54.7-7l-.16.27-.32,0a24.13,24.13,0,0,0-2.65-.16,23.52,23.52,0,0,0,0,47c.39,0,.78,0,1.16,0Z" style="fill:#407BFF"></path></g><g id="freepik--Character--inject-9"><path d="M211.67,357.34h31l-16.3-153.25c-.69-6.49-5.8-11.75-11.42-11.75H79.7l19.83,165Z" style="fill:#407BFF"></path><path d="M211.67,357.34h31l-16.3-153.25c-.69-6.49-5.8-11.75-11.42-11.75H79.7l19.83,165Z" style="fill:#fff;opacity:0.1"></path><path d="M218.57,344.13h51.17l3.39-44.73.73-9.6v0l.33-4.41a27.71,27.71,0,0,1,.5-3.46l.18-.77a2.64,2.64,0,0,1,.15-.55,26.44,26.44,0,0,1,23.78-18.54H250.67c-.53,0-1.06,0-1.59,0a26.44,26.44,0,0,0-25.23,18.58,2.64,2.64,0,0,0-.15.55,25.23,25.23,0,0,0-.68,4.23l-.34,4.41v0Z" style="fill:#407BFF"></path><path d="M218.57,344.13h51.17l3.39-44.73.73-9.6v0l.33-4.41a27.71,27.71,0,0,1,.5-3.46l.18-.77a2.64,2.64,0,0,1,.15-.55,26.44,26.44,0,0,1,23.78-18.54H250.67c-.53,0-1.06,0-1.59,0a26.44,26.44,0,0,0-25.23,18.58,2.64,2.64,0,0,0-.15.55,25.23,25.23,0,0,0-.68,4.23l-.34,4.41v0Z" style="fill:#407BFF"></path><path d="M113.36,357.34h-31L66.07,204.09c-.69-6.49,3.31-11.75,8.93-11.75H85.65c5.62,0,10.73,5.26,11.42,11.75Z" style="fill:#407BFF"></path><path d="M171.18,308.89H152.54c-4.53,0-8.2,4.24-8.2,9.47v16.3c0,5.23,3.67,9.47,8.2,9.47h18.64Z" style="fill:#407BFF"></path><g style="opacity:0.1"><path d="M171.18,308.89H152.54c-4.53,0-8.2,4.24-8.2,9.47v16.3c0,5.23,3.67,9.47,8.2,9.47h18.64Z"></path></g><rect x="163.62" y="308.89" width="106.12" height="35.24" rx="5.42" style="fill:#407BFF"></rect><path d="M53.73,288.44a26.44,26.44,0,0,0,21.93,26.05l4.8,63.56c.42,5.41,4.34,9.55,9,9.55h51.18c-4.7,0-8.62-4.14-9-9.55l-2.57-33.92-2.23-29.64a26.39,26.39,0,0,1-19-13.91c-.25-.46-.47-.94-.68-1.43a26.07,26.07,0,0,1-2.28-10.71,26.49,26.49,0,0,1,.56-5.39c.14-.71.32-1.42.51-2.1a26.92,26.92,0,0,1,4.39-8.6l0,0a26.49,26.49,0,0,1,9.14-7.53A26.21,26.21,0,0,1,131.33,262H80.16a26.5,26.5,0,0,0-21,10.32v0A26.34,26.34,0,0,0,53.73,288.44Z" style="fill:#407BFF"></path><path d="M53.73,288.44a26.44,26.44,0,0,0,21.93,26.05l4.8,63.56c.42,5.41,4.34,9.55,9,9.55h51.18c-4.7,0-8.62-4.14-9-9.55l-2.57-33.92-2.23-29.64a26.39,26.39,0,0,1-19-13.91c-.25-.46-.47-.94-.68-1.43a26.07,26.07,0,0,1-2.28-10.71,26.49,26.49,0,0,1,.56-5.39c.14-.71.32-1.42.51-2.1a26.92,26.92,0,0,1,4.39-8.6l0,0a26.49,26.49,0,0,1,9.14-7.53A26.21,26.21,0,0,1,131.33,262H80.16a26.5,26.5,0,0,0-21,10.32v0A26.34,26.34,0,0,0,53.73,288.44Z" style="opacity:0.1"></path><path d="M104.9,288.44a26.45,26.45,0,0,0,21.93,26.05l4.8,63.56c.42,5.41,4.34,9.55,9,9.55H291.4c4.7,0,8.61-4.14,9-9.55l4.82-63.66A26.43,26.43,0,1,0,275,280.58a3.68,3.68,0,0,0-.15.57,26,26,0,0,0-.68,4.21l-.34,4.42v0l-4.1,54.32H162.33l-4.45-58.76c-.64-8.29-5.09-15.21-11.28-18.49a26.14,26.14,0,0,0-13.69-4.8c-.52-.05-1-.07-1.58-.07a26,26,0,0,0-11.48,2.65,3.31,3.31,0,0,0-.33.15,26.53,26.53,0,0,0-9.15,7.54h0A26.32,26.32,0,0,0,104.9,288.44Z" style="fill:#407BFF"></path><circle cx="134.44" cy="288.07" r="9.8" transform="translate(-164.32 179.44) rotate(-45)" style="opacity:0.1"></circle><path d="M321.81,273.17A26.42,26.42,0,0,0,275,280.59a2,2,0,0,0-.15.55,26.29,26.29,0,0,0-.68,4.23l-.34,4.42h0l-4.1,54.33H263a6.79,6.79,0,0,0,6.7-6.8V315.7a6.8,6.8,0,0,0-6.8-6.82H165.59c11.78,2.79,24,6.72,30.6,16.66,3.65,5.5,4.94,11.95,5.59,18.59.44,4.34.6,8.77,1,13.08.91,10.87,4.53,23.11,14.47,27.59,6.78,3.06,28.66,1.59,36.09,2a25.83,25.83,0,0,1,5.43.84H291.4c4.71,0,8.62-4.14,9-9.54l4.82-63.67a26.41,26.41,0,0,0,16.55-41.22Zm-18.53,24.7a9.8,9.8,0,1,1,9.81-9.8A9.8,9.8,0,0,1,303.28,297.87Z" style="opacity:0.1"></path><path d="M97.67,407.41H95.93a2,2,0,0,1-1.86-1.76l-2.56-18h10.58l-2.56,18A2,2,0,0,1,97.67,407.41Z" style="fill:#407BFF"></path><path d="M97.67,407.41H95.93a2,2,0,0,1-1.86-1.76l-2.56-18h10.58l-2.56,18A2,2,0,0,1,97.67,407.41Z" style="opacity:0.5"></path><path d="M285,407.41h-1.74a2,2,0,0,1-1.86-1.76l-2.56-18h10.58l-2.57,18A2,2,0,0,1,285,407.41Z" style="fill:#407BFF"></path><path d="M285,407.41h-1.74a2,2,0,0,1-1.86-1.76l-2.56-18h10.58l-2.57,18A2,2,0,0,1,285,407.41Z" style="opacity:0.5"></path><path d="M230.81,407.41h-1.74a2,2,0,0,1-1.85-1.76l-2.57-18h10.59l-2.57,18A2,2,0,0,1,230.81,407.41Z" style="fill:#407BFF"></path><path d="M230.81,407.41h-1.74a2,2,0,0,1-1.85-1.76l-2.57-18h10.59l-2.57,18A2,2,0,0,1,230.81,407.41Z" style="opacity:0.5"></path><path d="M150.5,407.41h-1.74a2,2,0,0,1-1.85-1.76l-2.57-18h10.59l-2.57,18A2,2,0,0,1,150.5,407.41Z" style="fill:#407BFF"></path><path d="M150.5,407.41h-1.74a2,2,0,0,1-1.85-1.76l-2.57-18h10.59l-2.57,18A2,2,0,0,1,150.5,407.41Z" style="opacity:0.5"></path><rect x="97.28" y="187.8" width="7.68" height="1.2" style="fill:#407BFF"></rect><rect x="113.35" y="187.8" width="30.05" height="1.2" style="fill:#407BFF"></rect><g id="freepik--group--inject-9"><polygon points="290.86 383.05 293.65 401.38 284.79 401.38 278.97 383.05 290.86 383.05" style="fill:#ffc3bd"></polygon><path d="M294.78,397.29,282.94,397a.66.66,0,0,0-.74.65l0,8.69a2,2,0,0,0,1.95,1.78c4.12,0,6.07-.15,11.28,0A134,134,0,0,0,312,407c4.22-.72,3.08-4.68,1.17-4.75-8.61-.31-13.42-2.11-16.51-4.33A3.18,3.18,0,0,0,294.78,397.29Z" style="fill:#263238"></path><polygon points="291.98 390.4 290.86 383.05 278.97 383.05 281.83 392.21 291.98 390.4" style="opacity:0.2"></polygon><path d="M212.88,280.32s72,.72,73.15,23.53c1.6,32.8,7.14,82.81,7.14,82.81l-13.59,3.74s-19.37-49.59-20.13-75.21c-20.26-4-72.36,0-78.48-13.3a35.87,35.87,0,0,1-2.31-21.57Z" style="fill:#407BFF"></path><path d="M212.88,280.32s72,.72,73.15,23.53c1.6,32.8,7.14,82.81,7.14,82.81l-13.59,3.74s-19.37-49.59-20.13-75.21c-20.26-4-72.36,0-78.48-13.3a35.87,35.87,0,0,1-2.31-21.57Z" style="opacity:0.7000000000000001"></path><polygon points="302.2 383.05 311.89 397.55 306.35 405.52 293.12 391.06 302.2 383.05" style="fill:#ffc3bd"></polygon><polygon points="298.1 396.5 293.12 391.06 301.38 381.86 306.71 389.78 298.1 396.5" style="opacity:0.2"></polygon><path d="M311.42,396.85l-7.73,5.74a.76.76,0,0,0-.31,1h0l4.51,8.15a1.93,1.93,0,0,0,2.64.53c3.59-2.39,5.2-3.72,9.79-6.66,2.81-1.81,6.47-3.93,10.37-6.44s1.45-6.07-.4-5.32c-8.37,3.27-11.11,2.44-15,2.17A12.3,12.3,0,0,0,311.42,396.85Z" style="fill:#263238"></path><path d="M305.48,386.42,294.84,395s-28.24-16.44-51.58-59.68l.29-.54c-21-1.64-76.13-20.21-82-32.95a35.69,35.69,0,0,1-2.3-21.56h34.2s42.08,18.73,59.94,35.87C272.9,331.89,305.48,386.42,305.48,386.42Z" style="fill:#407BFF"></path><g style="opacity:0.6000000000000001"><path d="M305.48,386.42,294.84,395s-28.24-16.44-51.58-59.68l.29-.54c-21-1.64-76.13-20.21-82-32.95a35.69,35.69,0,0,1-2.3-21.56h34.2s42.08,18.73,59.94,35.87C272.9,331.89,305.48,386.42,305.48,386.42Z"></path></g></g><g id="freepik--group--inject-9"><path d="M214,284.57h0a91.84,91.84,0,0,1-31-.27l-22.07-4c0-4.94.66-21.13,1.56-41.52a324.65,324.65,0,0,0-1.58-42.07s0-.08,0-.12a6.61,6.61,0,0,1,6.13-7h.12c3.35-.21,7.55-.36,11.64-.22a207.28,207.28,0,0,1,23.35,2,62.16,62.16,0,0,1,7.59,2,10,10,0,0,1,7,7.49C219.1,212.33,221.53,235.24,214,284.57Z" style="fill:#fff"></path><path d="M178.06,188.48c-4.31-.15-8.74,0-12.28.23h-.33a6.94,6.94,0,0,0-6.26,7.54c.94,10.11,2.39,28,1.68,44.35-.5,37.92-1.75,39.39-1.75,39.39l.42.46c5.34,5.84,23,9.18,30.88,8.11h0c-1.33-14.65-2.68-68.58-4.35-90.57-.33-4.29-5.21-6.57-5.67-9.49Z" style="fill:#263238"></path><path d="M162,234.47c.21-12.25-.6-24.76-1.36-33.87a2.3,2.3,0,0,1,.32-.38c2.68-2.93,11.91,2.25,11.32,13.93C171.74,225.25,166.29,232.45,162,234.47Z" style="opacity:0.30000000000000004;isolation:isolate"></path><path d="M160.84,242.62l.95,6.88a5.56,5.56,0,0,0,6.28,4.75c4.86-.68,12.41-1.83,20.49-3.44C202.35,248.05,160.84,242.62,160.84,242.62Z" style="opacity:0.30000000000000004;isolation:isolate"></path><path d="M219,281.33h0a12.25,12.25,0,0,1-10.93,6.74h-3.93c1-64.55,1-80-3.28-97.48a104.48,104.48,0,0,1,10.95,2,11.72,11.72,0,0,1,7.68,8.59C222,211,217.65,226.87,219,281.33Z" style="fill:#263238"></path><path d="M193.1,197c-11.62-.33-15.25-7.62-15.25-7.62,5.5-4.65,4.69-18.51,3.59-26.18l5.81,5.7,7.92,7.77a30.8,30.8,0,0,0-.83,3.41,14.34,14.34,0,0,0-.26,2.5v.17c0,3.52,1.59,6.63,6.92,8.37C201,191.12,203,197.24,193.1,197Z" style="fill:#f7978d"></path><path d="M195.17,176.67a30.8,30.8,0,0,0-.83,3.41,14.34,14.34,0,0,0-.26,2.5v.17c-3.11-.93-7-4.62-7.22-7.91a15.3,15.3,0,0,1,.14-3.24Z" style="opacity:0.2;isolation:isolate"></path><path d="M175.55,188.32l3.68-1a35.27,35.27,0,0,0,13.1,9.63,13.65,13.65,0,0,0-5.51,5.73C174.85,197.45,175.55,188.32,175.55,188.32Z" style="fill:#fff"></path><path d="M201,190.47l-3.27-1s-1.92,6.81-5.42,7.5c5.78,2.81,6.52,5.84,6.52,5.84C207.66,200.77,201,190.47,201,190.47Z" style="fill:#fff"></path><path d="M199.25,159.86s3.28,4,6.5-.74c-3-4.59-1.29-5.3-1.66-9a11.88,11.88,0,0,0-6.49-10.31l-3.78.59C180.59,144.81,199.25,159.86,199.25,159.86Z" style="fill:#263238"></path><path d="M175.83,151.06a13.5,13.5,0,0,1,14.87-12c10.85.89,17.2,14.79,18.13,24.11a13.32,13.32,0,0,1-19.47,13.34c-6.66-3.42-8.5-9.13-12.46-18.59A13.56,13.56,0,0,1,175.83,151.06Z" style="fill:#f7978d"></path><path d="M180.87,166.28s3.68,2.83,6.24-1.93c-3.48-3.41-1.91-4.37-2.71-7.54a9.72,9.72,0,0,0-7.6-7.79l-3.61,1.26C158,159.08,180.87,166.28,180.87,166.28Z" style="fill:#263238"></path><path d="M180.87,166.28s3.68,2.83,6.24-1.93c-3.48-3.41-1.91-4.37-2.71-7.54a9.72,9.72,0,0,0-7.6-7.79l-3.61,1.26C158,159.08,180.87,166.28,180.87,166.28Z" style="fill:#fff;opacity:0.2"></path><path d="M202.45,167.08c.26.69.84,1.11,1.29.95s.6-.88.34-1.56-.83-1.12-1.28-.95S202.18,166.39,202.45,167.08Z" style="fill:#263238"></path><path d="M201.46,162a4.73,4.73,0,0,0,3.51-1.87,30.76,30.76,0,0,1-6.14-5.53Z" style="fill:#ff5652"></path><path d="M177.31,160.32c2.46-.74,5.59,2,7,4.14,1.55,2.39,1,4.91-1.7,4.68a9.65,9.65,0,0,1-5.75-3C174.93,164.13,174.86,161.06,177.31,160.32Z" style="fill:#f7978d"></path><path d="M193,155.23c.52-.16,1.2.43,1.44,1.14s0,1.48-.47,1.65-1.1-.37-1.44-1.13S192.47,155.39,193,155.23Z" style="fill:#263238"></path><path d="M201.77,152c.53-.16,1.16.34,1.43,1.13s.08,1.57-.44,1.72-1.16-.35-1.43-1.14S201.25,152.15,201.77,152Z" style="fill:#263238"></path><path d="M199.34,149.13a.5.5,0,0,0,.46.05,4.12,4.12,0,0,1,3.61,0,.47.47,0,0,0,.66-.15v0a.5.5,0,0,0-.17-.67h0a5.05,5.05,0,0,0-4.5,0,.5.5,0,0,0-.25.65A.66.66,0,0,0,199.34,149.13Z" style="fill:#263238"></path><path d="M190,154.41a.5.5,0,0,0,.39-.24,4.13,4.13,0,0,1,2.83-2.23.47.47,0,0,0,.43-.52v0a.5.5,0,0,0-.55-.42h0a5,5,0,0,0-3.57,2.74.49.49,0,0,0,.21.66A.46.46,0,0,0,190,154.41Z" style="fill:#263238"></path><path d="M200.89,144.57c-.09-1.2.53-3.89-.28-5.67a7,7,0,0,0-4.27-3.72c-2.79-.83-5.76.17-8.49,1.17a5.73,5.73,0,0,0-1.83.92,1.76,1.76,0,0,0,.66,3.2c.67.2,5.82.71,8,1.2C195.6,141.88,199.41,142.89,200.89,144.57Z" style="fill:#263238"></path><path d="M169.14,143.41c-3.3,3.35-5.9,11.3-3.57,15.16,1,1.63,5.58,2.86,5.58,2.86l6.19-5.58a14.91,14.91,0,0,0,5.79-8.56,8.17,8.17,0,0,1,1.45-2.92,8.28,8.28,0,0,1,6.91-3.1c1,.06,2.31.1,2.59-.85s-1.33-2.5-2.49-3.29C187.05,134,179.28,133.1,169.14,143.41Z" style="fill:#263238"></path><path d="M183.29,146.76c2-4.73,5.11-5.58,9.46-5.49A4,4,0,0,0,191,138.8C187.21,136.41,183.5,143.5,183.29,146.76Z" style="opacity:0.2"></path><path d="M168.7,203.86c.05,1.18.15,2.65.23,4l.29,4.17c.26,2.78.51,5.53.87,8.26s.78,5.42,1.36,8a45.1,45.1,0,0,0,2.08,7.28c.39,1,4-.23,13.93,3.33a28.41,28.41,0,0,0,7.14,1.34c1.33.09,2.66.11,4,.1l2-.06,1.92-.1,2.15,6.86c-.87.39-1.57.66-2.33,1a17.48,17.48,0,0,1-2.29.84,38.89,38.89,0,0,1-4.76,1.17c-3.4.65-27.31,3-31.69-1.81-3.94-5.88-6.93-19.31-7.84-25.73-.48-3.12-.87-6.15-1.12-9.18-.13-1.57-.23-3-.31-4.59,0-.27,0-.83-.08-1.58-.39-7.47-.07-17.17,10.3-17.92h0Z" style="fill:#263238"></path><path d="M199.56,233l24.65,12a1.08,1.08,0,0,0,.4.11l2.41.15-1.43-1.76a1.16,1.16,0,0,0-.34-.28l-24.38-12.7a1.08,1.08,0,0,0-1.44.41l-.34.56A1.1,1.1,0,0,0,199.56,233Z" style="fill:#407BFF"></path><path d="M199.56,233l24.65,12a1.08,1.08,0,0,0,.4.11l2.41.15-1.43-1.76a1.16,1.16,0,0,0-.34-.28l-24.38-12.7a1.08,1.08,0,0,0-1.44.41l-.34.56A1.1,1.1,0,0,0,199.56,233Z" style="opacity:0.6000000000000001"></path><path d="M205.22,238.22l5.35-1.81,2.73,9a12.35,12.35,0,0,1-8.16,1.93,3.76,3.76,0,0,1-3.07-3l-.15-.78a4.18,4.18,0,0,1-.07-1.06A4.83,4.83,0,0,1,205.22,238.22Z" style="fill:#f7978d"></path><polygon points="219.07 238.79 218.39 244.66 213.3 245.37 210.57 236.41 219.07 238.79" style="fill:#f7978d"></polygon><path d="M194.61,178.29l2.08,6.32,9.57-.36-3.8-9.55A29.36,29.36,0,0,1,194.61,178.29Z" style="fill:#f7978d"></path><polygon points="206.26 184.25 212.19 184.2 214.34 178.89 202.46 174.7 206.26 184.25" style="fill:#f7978d"></polygon><path d="M216.79,217.83l12,12.37c6.79,3.18,12.87-.57,11.71-8a2.15,2.15,0,0,0-.14-.73C223.32,193,212.63,193,212.63,193S208.41,202.74,216.79,217.83Z" style="fill:#263238"></path><path d="M221.16,212.14l1.24,6a24.46,24.46,0,0,0,6.4,12.08h0s2.83,1.49,5,1.13S221.16,212.14,221.16,212.14Z" style="opacity:0.30000000000000004;isolation:isolate"></path><path d="M210.57,184.53s15.07,45.32,23.22,46.8,17.49-16.56-18.94-53.87Z" style="fill:#263238"></path></g></g><g id="freepik--Desk--inject-9"><g id="freepik--Group--inject-9"><polygon points="357.14 264.6 357.14 421.1 353.66 421.1 349.28 264.6 357.14 264.6" style="fill:#407BFF"></polygon><polygon points="357.14 264.6 357.14 421.1 353.66 421.1 349.28 264.6 357.14 264.6" style="fill:#fff;opacity:0.6000000000000001"></polygon><polygon points="339.15 268.72 339.15 413.7 335.67 413.7 331.29 268.72 339.15 268.72" style="fill:#407BFF"></polygon><polygon points="339.15 268.72 339.15 413.7 335.67 413.7 331.29 268.72 339.15 268.72" style="fill:#fff;opacity:0.30000000000000004"></polygon><polygon points="148.32 263.6 148.32 413.7 151.81 413.7 156.19 263.6 148.32 263.6" style="fill:#407BFF"></polygon><polygon points="148.32 263.6 148.32 413.7 151.81 413.7 156.19 263.6 148.32 263.6" style="fill:#fff;opacity:0.30000000000000004"></polygon><polygon points="168.06 270.72 168.06 421.14 171.54 421.14 175.92 270.72 168.06 270.72" style="fill:#407BFF"></polygon><g style="opacity:0.6000000000000001"><polygon points="168.06 270.72 168.06 421.14 171.54 421.14 175.92 270.72 168.06 270.72" style="fill:#fff"></polygon></g><rect x="124.27" y="258.9" width="259.45" height="6.56" style="fill:#407BFF"></rect><rect x="124.27" y="258.9" width="259.45" height="6.56" style="fill:#fff;opacity:0.6000000000000001"></rect><polygon points="141.34 272.48 365.35 272.48 374.44 265.46 132.25 265.46 141.34 272.48" style="fill:#407BFF"></polygon><polygon points="141.34 272.48 365.35 272.48 374.44 265.46 132.25 265.46 141.34 272.48" style="opacity:0.5"></polygon></g><path d="M384,257.69a1.3,1.3,0,0,1-1.3-1.31,1.33,1.33,0,0,1,.09-.49L412,176.54a1.31,1.31,0,0,1,2.4,1l-29.19,79.33A1.31,1.31,0,0,1,384,257.69Z" style="fill:#263238"></path><path d="M411.64,173a1.35,1.35,0,0,1-.71-.41L361.3,117.66a1.29,1.29,0,1,1,1.93-1.72l49.65,54.87a1.29,1.29,0,0,1-.13,1.84,1.28,1.28,0,0,1-1.11.3Z" style="fill:#263238"></path><path d="M362.66,113.54a4.1,4.1,0,1,1-4.83,3.2A4.1,4.1,0,0,1,362.66,113.54Z" style="fill:#263238"></path><path d="M354.92,145.29a9.19,9.19,0,1,1,4.56-12.17A9.19,9.19,0,0,1,354.92,145.29Z" style="fill:#407BFF"></path><path d="M354.92,145.29a9.19,9.19,0,1,1,4.56-12.17A9.19,9.19,0,0,1,354.92,145.29Z" style="fill:#fff;opacity:0.7000000000000001"></path><path d="M359.59,122a19.67,19.67,0,0,0-26.71,7.77v0l34.52,19A19.69,19.69,0,0,0,359.62,122Z" style="fill:#263238"></path><polygon points="374.82 258.9 374.82 252.42 386.69 252.42 386.69 272.48 374.82 272.48 374.82 265.46 384.11 265.46 384.11 258.9 374.82 258.9" style="fill:#263238"></polygon><polygon points="357.83 116.74 352.64 124.22 360.44 127.71 364.76 119.91 357.83 116.74" style="fill:#263238"></polygon><polygon points="409.07 166.59 407.33 181.21 412.41 183.84 417.16 174.19 409.07 166.59" style="fill:#263238"></polygon><path d="M356.53,244.5l8.11,14H349S351.32,254.18,356.53,244.5Z" style="fill:#407BFF"></path><path d="M356.53,244.5l8.11,14H349S351.32,254.18,356.53,244.5Z" style="fill:#fff;opacity:0.30000000000000004"></path><path d="M340.52,258.07a51.69,51.69,0,0,0,8.44.54,54.85,54.85,0,0,0,8.63-.52,1.07,1.07,0,0,0,.23.48c.45.55,2,0,2,0s.81-1.45.36-2c-.1-.12-.31-.13-.35-.27-.38-1.19,1.07-3.45,1.51-5.9s-.21-4.71.59-5.89c.32-.48.94-.72,1-1.28s-.44-.8-.59-1.28c-.37-1.19,1.07-3.45,1.51-5.9s-.21-4.71.59-5.89c.09-.15.3-.16.44-.28.65-.55.36-2,.36-2s-1.35-.56-2,0c-.16.14-.21.39-.39.48-1.67.83-4.79-.54-8.44-.55s-7.26,1.36-8.63.52c-.15-.09-.12-.33-.23-.47-.46-.56-2,0-2,0s-.81,1.45-.35,2c.09.12.3.13.34.28.38,1.18-1.07,3.45-1.5,5.89s.2,4.71-.59,5.9c-.32.48-.94.71-1,1.28s.43.8.58,1.28c.38,1.18-1.07,3.45-1.5,5.89s.21,4.71-.59,5.9c-.1.14-.31.15-.45.27-.65.56-.35,2-.35,2s1.35.55,2,0A2,2,0,0,0,340.52,258.07Z" style="fill:#263238"></path><path d="M339.82,258.07a51.69,51.69,0,0,0,8.44.54,54.85,54.85,0,0,0,8.63-.52,1.07,1.07,0,0,0,.23.48c.45.55,2,0,2,0s.81-1.45.36-2c-.1-.12-.31-.13-.35-.27-.38-1.19,1.07-3.45,1.5-5.9s-.2-4.71.59-5.89c.32-.48.94-.72,1-1.28s-.43-.8-.58-1.28c-.38-1.19,1.07-3.45,1.51-5.9s-.21-4.71.59-5.89c.09-.15.3-.16.44-.28.65-.55.36-2,.36-2s-1.36-.56-2,0c-.16.14-.22.39-.39.48-1.67.83-4.79-.54-8.44-.55s-7.26,1.36-8.64.52c-.14-.09-.11-.33-.22-.47-.46-.56-2,0-2,0s-.81,1.45-.36,2c.1.12.31.13.35.28.38,1.18-1.07,3.45-1.5,5.89s.2,4.71-.59,5.9c-.32.48-.94.71-1,1.28s.43.8.58,1.28c.38,1.18-1.07,3.45-1.5,5.89s.2,4.71-.59,5.9c-.1.14-.31.15-.45.27-.65.56-.36,2-.36,2s1.36.55,2,0A2,2,0,0,0,339.82,258.07Z" style="fill:#407BFF"></path><path d="M341.05,247.62l1.58-8.86a11.38,11.38,0,0,1,10.78-9.14h0c5.06,0,8.43,4.11,7.53,9.17l-1.58,8.85a11.39,11.39,0,0,1-10.78,9.15h0C343.52,256.78,340.16,252.68,341.05,247.62Z" style="fill:#fff;opacity:0.5"></path><rect x="301.51" y="251.61" width="10.34" height="8.22" style="fill:#407BFF"></rect><rect x="302.59" y="253.21" width="8.22" height="5.33" style="fill:#407BFF"></rect><rect x="302.59" y="253.21" width="8.22" height="5.33" style="fill:#263238"></rect><path d="M308.14,251.61h-2.93a2,2,0,0,1-2-2h0a2,2,0,0,1,2-2h2.93a2,2,0,0,1,2,2h0A2,2,0,0,1,308.14,251.61Z" style="fill:#407BFF"></path><path d="M310,239.65a4.57,4.57,0,0,0,.93,1.07A1.47,1.47,0,0,1,310,239.65Z" style="fill:#407BFF"></path><path d="M316.19,243.65c-2.5,3.59-6.64.07-8.65,6.09.11-.38,2.34-7,2.46-7.36,10.83-34.59,18.2-37,18.2-37s-2.69,7.15-4.4,19.7A40.25,40.25,0,0,1,316.19,243.65Z" style="fill:#407BFF"></path><path d="M328.2,205.35s-9.64,9.21-20.66,44.86c0,0,.75-4.78-.84-6.25-3.67-3.39-1.18-15.26,7.73-26.6,6.92-8.81,13.68-12.11,13.77-12Z" style="fill:#407BFF"></path><path d="M328.2,205.35s-5.13,3.55-9,11.77-10.53,27.25-10.53,27.25l-3,8.95L304.45,257l.56.08a11.61,11.61,0,0,1,1.47-2.93l4.55-12S320,211.36,328.2,205.35Z" style="fill:#407BFF"></path><path d="M328.2,205.35s-5.13,3.55-9,11.77-10.53,27.25-10.53,27.25l-3,8.95L304.45,257l.56.08a11.61,11.61,0,0,1,1.47-2.93L310.65,242S320,211.36,328.2,205.35Z" style="fill:#fff;opacity:0.5"></path><path d="M308.14,251.61h-2.93a2,2,0,0,1-2-2h0a2,2,0,0,1,2-2h2.93a2,2,0,0,1,2,2h0A2,2,0,0,1,308.14,251.61Z" style="opacity:0.6000000000000001"></path><path d="M310.82,258.54h-8.23v-5.33h0a7.51,7.51,0,0,0,8.18,0l.05,0Z" style="opacity:0.8"></path><path d="M275.69,258.51H212.14s1.47-7.72,2.31-7.89,11.64-8.71,23.61-3.93c2.61,1,4.5,1.83,5.85,2.4,1.36-.57,3.25-1.36,5.86-2.4,12-4.78,22.78,3.75,23.62,3.93S275.69,258.51,275.69,258.51Z" style="fill:#407BFF"></path><path d="M275.69,258.51H212.14l0-.19c.23-1.19,1.51-7.54,2.28-7.7l.14-.06c1.51-.75,11.94-8.47,23.45-3.87,2.62,1,4.51,1.82,5.86,2.4,1.36-.58,3.25-1.36,5.86-2.4,12-4.78,22.78,3.75,23.62,3.93S275.69,258.51,275.69,258.51Z" style="fill:#fff;opacity:0.6000000000000001"></path><path d="M282.94,258.51H218.63s1.49-7.81,2.34-8,11.78-7.63,23.89-2.79c2.64,1.05,5.93,5.14,5.93,5.14s3.28-4.09,5.93-5.14c12.12-4.84,23,2.61,23.9,2.79S282.94,258.51,282.94,258.51Z" style="fill:#407BFF"></path><path d="M282.94,258.51H218.63s1.49-7.81,2.34-8,11.78-7.63,23.89-2.79c2.64,1.05,5.93,5.14,5.93,5.14s3.28-4.09,5.93-5.14c12.12-4.84,23,2.61,23.9,2.79S282.94,258.51,282.94,258.51Z" style="fill:#fff;opacity:0.8"></path><polygon points="251.07 255.02 249.03 258.72 253.87 258.72 251.07 255.02" style="fill:#407BFF"></polygon><g style="opacity:0.30000000000000004"><polygon points="251.07 255.02 249.03 258.72 253.87 258.72 251.07 255.02"></polygon></g><path d="M220.88,250.56a14,14,0,0,0-1,2.75c-.61,2.35-1.23,5.2-1.23,5.2h-6.49l0-.19c.23-1.19,1.51-7.54,2.28-7.7l.14-.06Z" style="opacity:0.1"></path><path d="M285.4,260.89l-31.53.73-.07-.06a3.53,3.53,0,0,0-4.69,0l-.07.06-32.48-.42-8.2-.1.62-2.81H249a3.52,3.52,0,0,1,4.83,0l30.74-.05Z" style="fill:#407BFF"></path><g style="opacity:0.30000000000000004"><polygon points="217.19 258.29 216.56 261.19 208.36 261.1 208.98 258.29 217.19 258.29"></polygon></g><path d="M253.87,253.29s4.94-5.68,10.94-4.63C264.81,248.66,260.61,248.14,253.87,253.29Z" style="fill:#407BFF"></path><path d="M253.87,253.29s4.94-5.68,10.94-4.63C264.81,248.66,260.61,248.14,253.87,253.29Z" style="fill:#fff;opacity:0.4"></path><path d="M242.08,255.91s-6.61-3.6-11.87-.52C230.21,255.39,234,253.43,242.08,255.91Z" style="fill:#407BFF"></path><path d="M242.08,255.91s-6.61-3.6-11.87-.52C230.21,255.39,234,253.43,242.08,255.91Z" style="fill:#fff;opacity:0.4"></path><path d="M248.35,254s-5.3-5.36-11.22-3.93C237.13,250,241.29,249.24,248.35,254Z" style="fill:#407BFF"></path><path d="M248.35,254s-5.3-5.36-11.22-3.93C237.13,250,241.29,249.24,248.35,254Z" style="fill:#fff;opacity:0.4"></path><path d="M261.75,253.2s6.6-3.63,11.87-.57C273.62,252.63,269.85,250.68,261.75,253.2Z" style="fill:#407BFF"></path><path d="M261.75,253.2s6.6-3.63,11.87-.57C273.62,252.63,269.85,250.68,261.75,253.2Z" style="fill:#fff;opacity:0.4"></path><path d="M137.14,244.33l.55,1a3.71,3.71,0,0,1,.46,1.77v5.57c0,3.4,3.72,6.18,8.3,6.18h1.21c3.33,0,6.19-1.48,7.5-3.59a2.71,2.71,0,0,0,1.05-.46l3.23-2.41a1.7,1.7,0,0,0,.75-1.34v-3c0-1-1.14-1.88-2.54-1.88H156c-.09-.2.09-.52.34-.84l.07-.07a8.94,8.94,0,0,1,.88-.85l.06,0s-.14-.7-1.84-.35c-.49.11-1,.23-1.39.35l-.18,0h0l-.13,0a7,7,0,0,0-4.42-.07,7.09,7.09,0,0,0-4.08,0c.11,0-.09,0,0,0a7.06,7.06,0,0,0-4.29.11h-.58c-.43-.12-.91-.24-1.4-.35C137.29,243.63,137.14,244.33,137.14,244.33Zm18.72,9.58c0-.07.06-4.46.08-6.34,0-.45.5-.82,1.12-.82h.71c.88,0,1.59.54,1.59,1.19v2.74c0,.91,0,.87-.9,1.52Z" style="fill:#407BFF"></path><path d="M157.65,246.14H156c-.1-.2.09-.52.34-.84l.07-.07a8.94,8.94,0,0,1,.88-.85l.06,0s-.14-.71-1.84-.35c-.5.11-1,.23-1.39.35l-.18,0h0l-.14,0a6.93,6.93,0,0,0-4.41-.07,7.09,7.09,0,0,0-4.08,0,7.06,7.06,0,0,0-4.29.11h-.59c-.42-.12-.9-.24-1.39-.35-1.7-.36-1.85.35-1.85.35l.55,1a3.71,3.71,0,0,1,.46,1.77v5.57c0,3.4,3.72,6.18,8.29,6.18h1.21c3.34,0,6.2-1.48,7.51-3.59a2.71,2.71,0,0,0,1.05-.46l3.23-2.41a1.7,1.7,0,0,0,.75-1.34v-3C160.19,247,159,246.14,157.65,246.14Zm1.71,4.54c0,.91,0,.87-.9,1.52l-2.61,1.71c0-.07.07-4.46.08-6.34a1,1,0,0,1,1.13-.82h.71c.88,0,1.59.54,1.59,1.19Z" style="fill:#fff;opacity:0.8"></path><path d="M139.56,226.42c.41,2.17,2.15,3.81,3.89,5.15s3.67,2.61,4.76,4.52,1,4.75-.9,5.92a6.59,6.59,0,0,0,.62-11.18c-1.58-1.11-3.66-1.53-5-3A5.83,5.83,0,0,1,141.8,223a28.31,28.31,0,0,1,1.46-4.12C140.94,219.49,139.1,224,139.56,226.42Z" style="fill:#407BFF"></path><path d="M145.09,220.63a15.37,15.37,0,0,0,2-5.32c.23-1.9-2-5.05-2-5.05a8,8,0,0,1,1.85,11.8,14.77,14.77,0,0,1-3.36,3C143.29,223.52,144.36,222,145.09,220.63Z" style="fill:#407BFF"></path><path d="M139.56,226.42c.41,2.17,2.15,3.81,3.89,5.15s3.67,2.61,4.76,4.52,1,4.75-.9,5.92a6.59,6.59,0,0,0,.62-11.18c-1.58-1.11-3.66-1.53-5-3A5.83,5.83,0,0,1,141.8,223a28.31,28.31,0,0,1,1.46-4.12C140.94,219.49,139.1,224,139.56,226.42Z" style="fill:#fff;opacity:0.8"></path><path d="M145.09,220.63a15.37,15.37,0,0,0,2-5.32c.23-1.9-2-5.05-2-5.05a8,8,0,0,1,1.85,11.8,14.77,14.77,0,0,1-3.36,3C143.29,223.52,144.36,222,145.09,220.63Z" style="fill:#fff;opacity:0.8"></path></g></svg>