<svg width="156" height="156" viewBox="0 0 156 156" fill="none" xmlns="http://www.w3.org/2000/svg">
<g style="mix-blend-mode:multiply">
<path d="M45.1669 47.9944C49.4882 47.9944 52.9913 44.4913 52.9913 40.17C52.9913 35.8487 49.4882 32.3456 45.1669 32.3456C40.8456 32.3456 37.3425 35.8487 37.3425 40.17C37.3425 44.4913 40.8456 47.9944 45.1669 47.9944Z" fill="#28459C"/>
<path d="M32.4188 62.3512C32.2135 60.5062 32.3923 58.6386 32.9438 56.866C33.4953 55.0934 34.4077 53.4541 35.6235 52.0513C36.8393 50.6484 38.3323 49.5123 40.0085 48.7144C41.6847 47.9166 43.5079 47.4742 45.3634 47.4152C47.2189 47.3561 49.0665 47.6817 50.7901 48.3714C52.5136 49.0611 54.0758 50.1 55.3783 51.4227C56.6809 52.7455 57.6956 54.3234 58.3587 56.0574C59.0218 57.7913 59.3189 59.6438 59.2313 61.4981" fill="#28459C"/>
<path d="M56.2575 58.5C56.3793 62.6194 51.8456 66.1294 46.1175 66.3244C40.3893 66.5194 35.6118 63.3019 35.4656 59.1581" fill="#28459C"/>
<path d="M45.8738 66.2269C57.8011 66.2269 67.47 56.5579 67.47 44.6306C67.47 32.7034 57.8011 23.0344 45.8738 23.0344C33.9465 23.0344 24.2775 32.7034 24.2775 44.6306C24.2775 56.5579 33.9465 66.2269 45.8738 66.2269Z" stroke="#28459C" stroke-width="2" stroke-linecap="round" stroke-linejoin="round"/>
<path d="M119.169 76.7813C123.491 76.7813 126.994 73.2782 126.994 68.9569C126.994 64.6356 123.491 61.1325 119.169 61.1325C114.848 61.1325 111.345 64.6356 111.345 68.9569C111.345 73.2782 114.848 76.7813 119.169 76.7813Z" fill="#28459C"/>
<path d="M106.421 91.1382C106.381 87.6189 107.718 84.2233 110.148 81.6771C112.578 79.1309 115.907 77.636 119.424 77.5118C122.942 77.3877 126.368 78.6442 128.971 81.0127C131.574 83.3813 133.148 86.6742 133.356 90.1875" fill="#28459C"/>
<path d="M130.26 87.1893C130.406 91.3087 125.873 94.8187 120.12 95.0137C114.368 95.2087 109.688 91.9912 109.493 87.75" fill="#28459C"/>
<path d="M119.876 95.0138C131.803 95.0138 141.472 85.3448 141.472 73.4175C141.472 61.4902 131.803 51.8213 119.876 51.8213C107.949 51.8213 98.2799 61.4902 98.2799 73.4175C98.2799 85.3448 107.949 95.0138 119.876 95.0138Z" stroke="#28459C" stroke-width="2" stroke-linecap="round" stroke-linejoin="round"/>
<path d="M59.5481 121.997C63.8694 121.997 67.3724 118.494 67.3724 114.173C67.3724 109.851 63.8694 106.348 59.5481 106.348C55.2268 106.348 51.7237 109.851 51.7237 114.173C51.7237 118.494 55.2268 121.997 59.5481 121.997Z" fill="#28459C"/>
<path d="M46.8 136.5C46.7817 132.989 48.1341 129.609 50.5695 127.08C53.0049 124.551 56.3311 123.072 59.8403 122.957C63.3496 122.843 66.7649 124.103 69.3598 126.468C71.9546 128.833 73.5242 132.118 73.7344 135.622" fill="#28459C"/>
<path d="M70.6875 132.405C70.8337 136.549 66.2756 140.059 60.5475 140.254C54.8194 140.449 50.0419 137.231 49.92 133.088" fill="#28459C"/>
<path d="M60.255 140.254C72.1823 140.254 81.8513 130.585 81.8513 118.658C81.8513 106.73 72.1823 97.0613 60.255 97.0613C48.3277 97.0613 38.6588 106.73 38.6588 118.658C38.6588 130.585 48.3277 140.254 60.255 140.254Z" stroke="#28459C" stroke-width="2" stroke-linecap="round" stroke-linejoin="round"/>
<path d="M68.1038 50.1394L98.28 63.5212" stroke="#28459C" stroke-linecap="round" stroke-linejoin="round"/>
<path d="M103.496 87.7013L80.6812 108.713" stroke="#28459C" stroke-linecap="round" stroke-linejoin="round"/>
<path d="M45.0206 66.9825L53.0643 97.0613" stroke="#28459C" stroke-linecap="round" stroke-linejoin="round"/>
<path d="M112.344 131.406L84.1669 120.51" stroke="#28459C" stroke-linecap="round" stroke-linejoin="round"/>
<path d="M107.542 140.254C113.789 140.254 118.852 135.19 118.852 128.944C118.852 122.697 113.789 117.634 107.542 117.634C101.296 117.634 96.2324 122.697 96.2324 128.944C96.2324 135.19 101.296 140.254 107.542 140.254Z" fill="#28459C"/>
<path d="M101.278 24.5944L110.638 53.3081" stroke="#28459C" stroke-linecap="round" stroke-linejoin="round"/>
<path d="M102.375 39.1462C107.49 39.1462 111.637 34.9993 111.637 29.8837C111.637 24.7682 107.49 20.6212 102.375 20.6212C97.2594 20.6212 93.1124 24.7682 93.1124 29.8837C93.1124 34.9993 97.2594 39.1462 102.375 39.1462Z" fill="#28459C"/>
<path d="M78 153.562C119.732 153.562 153.562 119.732 153.562 78C153.562 36.268 119.732 2.4375 78 2.4375C36.268 2.4375 2.4375 36.268 2.4375 78C2.4375 119.732 36.268 153.562 78 153.562Z" stroke="#28459C" stroke-miterlimit="10" stroke-linecap="round"/>
</g>
</svg>
