<svg width="156" height="156" viewBox="0 0 156 156" fill="none" xmlns="http://www.w3.org/2000/svg">
<g style="mix-blend-mode:multiply">
<path d="M116.854 36.6356V48.8231" stroke="#28459C" stroke-miterlimit="10" stroke-linecap="round"/>
<path d="M122.947 42.7294H110.76" stroke="#28459C" stroke-miterlimit="10" stroke-linecap="round"/>
<path d="M41.5837 49.4325V61.62" stroke="#28459C" stroke-miterlimit="10" stroke-linecap="round"/>
<path d="M47.6775 55.5262H35.49" stroke="#28459C" stroke-miterlimit="10" stroke-linecap="round"/>
<path d="M115.806 72.9056C115.285 72.9024 114.769 73.0022 114.287 73.1992C113.805 73.3962 113.367 73.6865 112.998 74.0535C112.628 74.4205 112.335 74.8569 112.135 75.3376C111.935 75.8183 111.832 76.3338 111.833 76.8544V77.1225C105.907 76.1667 100.157 74.3348 94.77 71.6869C89.895 69.3956 86.9213 68.25 86.7994 68.2013H86.4581C76.3669 66.4219 72.6375 68.7619 71.8331 69.4444L60.3281 77.9513H44.5088V75.9769C44.5088 74.9231 44.0902 73.9126 43.345 73.1675C42.5999 72.4224 41.5894 72.0038 40.5356 72.0038H31.6875V117.463H40.5356C41.5894 117.463 42.5999 117.045 43.345 116.299C44.0902 115.554 44.5088 114.544 44.5088 113.49V111.053H48.75L69.3225 127.189C70.6373 128.257 72.2614 128.872 73.9538 128.944C75.3923 128.925 76.7695 128.358 77.805 127.359C78.3813 126.855 78.8533 126.242 79.1944 125.556C80.3548 126.349 81.746 126.734 83.1492 126.65C84.5524 126.566 85.8879 126.018 86.9456 125.093C87.461 124.627 87.89 124.074 88.2131 123.459C89.3747 124.254 90.7683 124.637 92.1726 124.549C93.5769 124.46 94.9115 123.905 95.9644 122.972C96.9164 122.132 97.5813 121.016 97.8656 119.779C98.8675 120.182 99.965 120.287 101.025 120.079C102.085 119.871 103.062 119.361 103.837 118.609C104.996 117.562 105.718 116.118 105.861 114.563L111.833 113.198V114.563C111.832 115.083 111.935 115.599 112.135 116.079C112.335 116.56 112.628 116.996 112.998 117.363C113.367 117.73 113.805 118.021 114.287 118.218C114.769 118.415 115.285 118.514 115.806 118.511H123.923V72.9056H115.806ZM101.181 115.562C100.596 116.074 99.8887 116.708 97.6706 115.148L97.1344 114.709C97.0734 114.568 96.9818 114.443 96.8663 114.343L88.4081 105.251C88.0493 104.867 87.5524 104.64 87.0268 104.622C86.5011 104.604 85.9896 104.795 85.605 105.154C85.2204 105.513 84.994 106.009 84.9757 106.535C84.9574 107.061 85.1487 107.572 85.5075 107.957L93.0394 116.025C93.1135 116.307 93.2558 116.567 93.4538 116.781C93.6531 116.995 93.8081 117.246 93.9099 117.52C94.0117 117.794 94.0583 118.086 94.0469 118.378C94.0356 118.67 93.9666 118.958 93.8439 119.223C93.7212 119.488 93.5472 119.727 93.3319 119.925C92.875 120.276 92.3085 120.454 91.7329 120.428C91.1573 120.401 90.6098 120.171 90.1875 119.779L88.8225 118.268C88.7539 118.104 88.6546 117.955 88.53 117.829L79.3406 108.079C78.9709 107.713 78.4716 107.507 77.9512 107.507C77.4309 107.507 76.9316 107.713 76.5619 108.079C76.3776 108.26 76.2313 108.476 76.1314 108.715C76.0316 108.954 75.9801 109.21 75.9801 109.468C75.9801 109.727 76.0316 109.983 76.1314 110.221C76.2313 110.46 76.3776 110.676 76.5619 110.858L85.1662 120.047C85.2476 120.425 85.2273 120.819 85.1074 121.187C84.9876 121.555 84.7724 121.885 84.4837 122.143C84.2524 122.371 83.9749 122.546 83.67 122.657C83.3651 122.768 83.0399 122.813 82.7164 122.787C82.3928 122.762 82.0786 122.667 81.7947 122.51C81.5109 122.352 81.2642 122.136 81.0712 121.875L78.9263 119.438C78.7943 119.29 78.6376 119.166 78.4631 119.072L69.3225 110.004C68.9476 109.636 68.4416 109.431 67.9159 109.436C67.3902 109.441 66.8879 109.654 66.5194 110.029C66.1509 110.404 65.9464 110.91 65.951 111.435C65.9556 111.961 66.1688 112.463 66.5437 112.832L75.7087 121.875H75.8306C75.9405 122.273 75.9371 122.694 75.8209 123.09C75.7046 123.486 75.48 123.842 75.1725 124.118C74.6362 124.605 73.8806 125.288 71.7113 123.728L50.6756 107.226C50.3258 106.938 49.8856 106.782 49.4325 106.787H44.5575V81.8025H55.3069C54.8633 82.4047 54.5784 83.1088 54.4781 83.85C54.403 84.5586 54.4841 85.2749 54.7157 85.9487C54.9474 86.6226 55.3239 87.2374 55.8187 87.75C59.6456 91.7231 66.69 89.9925 66.9825 89.9194C70.1842 88.3778 73.1677 86.4188 75.855 84.0938L77.3419 85.6294L101.863 113.417C101.962 113.8 101.953 114.204 101.837 114.582C101.721 114.961 101.502 115.3 101.205 115.562H101.181ZM111.808 109.224L104.812 110.809L80.2669 82.875L77.4638 79.9744C77.1151 79.6228 76.6497 79.4112 76.1555 79.3798C75.6614 79.3483 75.1729 79.4992 74.7825 79.8038C72.0664 82.1488 69.1274 84.2224 66.0075 85.995C64.6912 86.3363 60.5231 86.8481 58.695 84.8738C58.5749 84.7274 58.4988 84.5499 58.4756 84.3619C58.4756 84.24 58.7438 83.85 59.5481 83.3869H59.7431L74.3681 72.6863C74.3681 72.6863 77.0981 70.7363 85.6537 72.2231C86.3363 72.4913 89.1394 73.5881 93.1125 75.4894C93.6 75.7088 103.838 80.7544 111.954 81.3394L111.808 109.224Z" fill="#28459C"/>
<path d="M153.344 70.3463H125.531C125.005 70.3462 124.501 70.5534 124.127 70.923C123.752 71.2926 123.539 71.7948 123.533 72.3206V118.633C123.539 119.159 123.752 119.661 124.127 120.031C124.501 120.4 125.005 120.608 125.531 120.607H140.888L153.344 70.3463Z" fill="#28459C"/>
<path d="M2.65625 70.3463H30.4688C30.9947 70.3462 31.4994 70.5534 31.8735 70.923C32.2477 71.2926 32.4611 71.7948 32.4675 72.3206V118.633C32.4611 119.159 32.2477 119.661 31.8735 120.031C31.4994 120.4 30.9947 120.608 30.4688 120.607H16.0387L2.65625 70.3463Z" fill="#28459C"/>
<path d="M78 17.0625C72.8283 17.0625 67.8684 19.117 64.2114 22.7739C60.5545 26.4309 58.5 31.3908 58.5 36.5625C58.5 41.7342 60.5545 46.6941 64.2114 50.3511C67.8684 54.008 72.8283 56.0625 78 56.0625C83.1717 56.0625 88.1316 54.008 91.7886 50.3511C95.4455 46.6941 97.5 41.7342 97.5 36.5625C97.5 31.3908 95.4455 26.4309 91.7886 22.7739C88.1316 19.117 83.1717 17.0625 78 17.0625ZM75.8306 45.2156L68.0794 37.44L71.5406 33.9787L75.855 38.2931L84.4837 29.6888L87.9206 33.1256L75.8306 45.2156Z" fill="#28459C"/>
<path d="M153.344 69.6875C153.344 69.6875 155.781 101.375 140.961 119.583L141.156 89.1875L153.344 69.6875Z" fill="#28459C"/>
<path d="M3.03499 70.5008C3.03499 70.5008 -0.618024 105.068 16.6599 120.415L3.03499 70.5008Z" fill="#28459C"/>
<path d="M78 153.562C119.732 153.562 153.562 119.732 153.562 78C153.562 36.268 119.732 2.4375 78 2.4375C36.268 2.4375 2.4375 36.268 2.4375 78C2.4375 119.732 36.268 153.562 78 153.562Z" stroke="#28459C" stroke-miterlimit="10" stroke-linecap="round"/>
</g>
</svg>
