<svg id="Layer_1" data-name="Layer 1" xmlns="http://www.w3.org/2000/svg" viewBox="0 0 64 64"><defs><style>.cls-1{fill:none;stroke-linecap:round;}.cls-1,.cls-2{stroke:#d69434;stroke-miterlimit:10;}.cls-2,.cls-3{fill:#d69434;}.cls-2{stroke-width:2px;}</style></defs><line class="cls-1" x1="9.94" y1="16.03" x2="9.94" y2="21.03"/><line class="cls-1" x1="12.44" y1="18.53" x2="7.44" y2="18.53"/><line class="cls-1" x1="6.06" y1="28.28" x2="6.06" y2="31.28"/><line class="cls-1" x1="7.56" y1="29.78" x2="4.56" y2="29.78"/><line class="cls-1" x1="50.06" y1="47.28" x2="50.06" y2="52.28"/><line class="cls-1" x1="52.56" y1="49.78" x2="47.56" y2="49.78"/><circle class="cls-1" cx="32" cy="32" r="31"/><path class="cls-2" d="M47.7,19.58a.61.61,0,0,0-.1.8,19.2,19.2,0,0,1,3.83,11.3A19.46,19.46,0,1,1,31.68,12.57a19.21,19.21,0,0,1,11,3.17.55.55,0,0,0,.79-.18.56.56,0,0,0-.18-.79,20.33,20.33,0,0,0-11.59-3.33,20.58,20.58,0,1,0,16.84,8.3A.58.58,0,0,0,47.7,19.58Z"/><path class="cls-2" d="M31.16,20.41a11.37,11.37,0,0,1,4.37.52.58.58,0,1,0,.31-1.11A12.77,12.77,0,1,0,44.69,31a13.39,13.39,0,0,0-.93-3.91.57.57,0,0,0-.76-.29.58.58,0,0,0-.29.77,11.35,11.35,0,0,1,.85,3.58,11.59,11.59,0,1,1-12.4-10.78Z"/><path class="cls-3" d="M55.46,12.61a.57.57,0,0,0,0-.41.65.65,0,0,0-.26-.26h-4V8.41a.31.31,0,0,0,0-.21.81.81,0,0,0-.26-.26.57.57,0,0,0-.41,0s-.11.06-.11.11l-5,5c-.05.05-.11.1-.11.15a.31.31,0,0,0,0,.21v3.85L33.47,29a3.35,3.35,0,0,0-1.7-.51,3.09,3.09,0,1,0,3.09,3.08,2.91,2.91,0,0,0-.62-1.85L46,18H50a.31.31,0,0,0,.21,0c.05-.06.1-.06.15-.11l5-5S55.41,12.71,55.46,12.61Z"/></svg>