<svg width="156" height="156" viewBox="0 0 156 156" fill="none" xmlns="http://www.w3.org/2000/svg">
<g style="mix-blend-mode:multiply">
<path d="M131.235 96.7687C130.552 95.9432 129.624 95.3565 128.586 95.0936C127.547 94.8306 126.452 94.9051 125.458 95.3062L94.9163 108.176L92.235 108.981C91.2557 109.289 90.2387 109.461 89.2125 109.492C87.0188 109.492 83.85 109.639 83.265 109.736H65.3494C65.0634 109.734 64.7841 109.649 64.545 109.492C64.3115 109.364 64.119 109.173 63.9896 108.94C63.8602 108.707 63.7993 108.442 63.8138 108.176C63.8136 107.968 63.8556 107.762 63.9373 107.571C64.019 107.38 64.1387 107.207 64.2891 107.064C64.4395 106.92 64.6176 106.809 64.8124 106.736C65.0072 106.663 65.2148 106.631 65.4225 106.641H85.8C87.1432 106.634 88.4301 106.1 89.3832 105.154C90.1813 104.338 90.6943 103.287 90.8457 102.156V101.571C90.8458 100.38 90.4328 99.2261 89.6771 98.306C88.9214 97.3858 87.8699 96.7564 86.7019 96.525C75.2944 94.3312 64.0575 91.65 52.4063 92.3812C51.9188 92.3812 47.8482 92.5519 45.7275 92.7956V122.996V125.434L77.5857 129.334C81.9287 130.31 86.4795 129.641 90.3582 127.457C90.3582 127.457 117.975 112.125 130.016 104.179C130.61 103.795 131.117 103.291 131.505 102.699C131.892 102.108 132.152 101.442 132.267 100.744C132.382 100.046 132.349 99.3316 132.171 98.6471C131.994 97.9625 131.675 97.3227 131.235 96.7687Z" fill="#28459C"/>
<path d="M7 105C7 102.319 1.46236 89.0419 4.14361 89.0419H36.5624C37.8553 89.0419 39.0953 89.5556 40.0095 90.4698C40.9238 91.384 41.4374 92.624 41.4374 93.9169V127.506C41.4374 128.799 40.9238 130.039 40.0095 130.953C39.0953 131.867 37.8553 132.381 36.5624 132.381H28.5186C25.8374 132.381 15 122.681 15 120L7 105Z" fill="#28459C"/>
<path d="M76.83 67.2994C78.1345 69.0393 79.6491 70.6113 81.3394 71.9794C83.0182 73.3881 84.8594 74.591 86.8238 75.5625L89.8706 70.4925C91.6482 71.299 93.5254 71.8646 95.4525 72.1744L95.1844 78C99.5163 78.5878 103.926 78.1451 108.054 76.7082L106.616 70.9557C108.452 70.3072 110.185 69.3959 111.759 68.25L115.757 72.6375C117.497 71.3244 119.069 69.8017 120.437 68.1038C121.825 66.425 123.004 64.5833 123.947 62.6194L118.877 59.5725C119.683 57.795 120.249 55.9178 120.559 53.9907L126.482 54.2588C127.061 49.9428 126.618 45.5512 125.19 41.4375L119.438 42.8025C118.763 40.9683 117.836 39.2372 116.683 37.6594L121.071 33.6619C119.745 31.9325 118.223 30.3621 116.537 28.9819C114.852 27.6017 113.011 26.4237 111.053 25.4719L108.006 30.5663C106.217 29.7447 104.321 29.1785 102.375 28.8844L102.643 22.9613C98.3129 22.3785 93.9065 22.8125 89.7732 24.2288L91.2113 29.9813C89.3859 30.675 87.6573 31.6008 86.0682 32.7357L82.0706 28.3725C78.5933 31.014 75.7875 34.4378 73.8806 38.3663L78.9994 41.4375C78.2006 43.2264 77.6354 45.1106 77.3175 47.0438L71.4188 46.7513C70.8351 51.0815 71.2691 55.4881 72.6863 59.6213L78.4388 58.1832C79.1252 60.0271 80.0512 61.7727 81.1932 63.375L76.83 67.2994Z" stroke="#28459C" stroke-linecap="round" stroke-linejoin="round"/>
<path d="M89.7487 42.9731C91.2337 41.1541 93.2247 39.8164 95.4701 39.1292C97.7154 38.4419 100.114 38.436 102.363 39.1123C104.612 39.7885 106.609 41.1165 108.103 42.9282C109.597 44.7399 110.52 46.954 110.755 49.2903C110.99 51.6266 110.528 53.9803 109.425 56.0535C108.323 58.1268 106.63 59.8264 104.561 60.9376C102.493 62.0487 100.141 62.5213 97.8037 62.2957C95.4664 62.0701 93.2485 61.1563 91.4306 59.67C89 57.6745 87.4586 54.7977 87.1434 51.6687C86.8282 48.5397 87.765 45.4133 89.7487 42.9731V42.9731Z" stroke="#28459C" stroke-linecap="round" stroke-linejoin="round"/>
<path d="M31.98 74.6607C32.8492 75.8031 33.847 76.8418 34.9537 77.7563C36.0629 78.6579 37.2736 79.4269 38.5612 80.0475L40.56 76.7082C41.7359 77.2324 42.9721 77.609 44.2406 77.8294L44.07 81.705C46.9154 82.0916 49.8118 81.8078 52.5281 80.8763L51.5774 77.0738C52.7834 76.6291 53.9233 76.0223 54.9656 75.27L57.5981 78.1463C58.7406 77.277 59.7793 76.2792 60.6937 75.1725C61.6006 74.0671 62.3699 72.8558 62.9849 71.565L59.6456 69.5663C60.1788 68.3683 60.5557 67.1067 60.7668 65.8125L64.6424 65.9832C65.0281 63.1377 64.7443 60.2415 63.8137 57.525L60.0112 58.5C59.5665 57.294 58.9597 56.1542 58.2074 55.1119L61.0837 52.4794C59.3361 50.1989 57.0833 48.355 54.5025 47.0925L52.5037 50.4319C51.3054 49.9149 50.0427 49.5624 48.75 49.3838L48.9206 45.4838C46.0734 45.0949 43.1746 45.3873 40.4625 46.3369L41.4375 50.115C40.2315 50.5597 39.0916 51.1665 38.0493 51.9188L35.4168 49.0425C33.1364 50.7901 31.2924 53.0429 30.03 55.6238L33.3693 57.6225C32.8419 58.7952 32.473 60.033 32.2725 61.3032L28.3725 61.1325C27.9895 63.9816 28.2903 66.8809 29.25 69.5907L33.0281 68.64C33.4728 69.846 34.0796 70.9859 34.8318 72.0282L31.98 74.6607Z" stroke="#28459C" stroke-linecap="round" stroke-linejoin="round"/>
<path d="M41.73 59.67C42.5059 58.7238 43.5448 58.0288 44.7154 57.6726C45.8861 57.3165 47.1361 57.3152 48.3074 57.669C49.4788 58.0228 50.5191 58.7157 51.2969 59.6604C52.0747 60.605 52.5552 61.7589 52.6776 62.9764C52.8 64.1939 52.5589 65.4204 51.9848 66.5009C51.4106 67.5815 50.5291 68.4677 49.4517 69.0476C48.3742 69.6276 47.149 69.8752 45.9309 69.7593C44.7127 69.6433 43.5563 69.169 42.6075 68.3963C41.9758 67.8817 41.4518 67.2475 41.0656 66.5301C40.6795 65.8126 40.4388 65.026 40.3572 64.2153C40.2757 63.4046 40.355 62.5858 40.5906 61.8058C40.8261 61.0259 41.2134 60.3001 41.73 59.67V59.67Z" stroke="#28459C" stroke-linecap="round" stroke-linejoin="round"/>
<path d="M53.625 18.2812V32.9062" stroke="#28459C" stroke-miterlimit="10" stroke-linecap="round"/>
<path d="M60.9375 25.5938H46.3125" stroke="#28459C" stroke-miterlimit="10" stroke-linecap="round"/>
<path d="M134.062 71.9062V81.6562" stroke="#28459C" stroke-miterlimit="10" stroke-linecap="round"/>
<path d="M138.938 76.7812H129.188" stroke="#28459C" stroke-miterlimit="10" stroke-linecap="round"/>
<path d="M78 153.562C119.732 153.562 153.562 119.732 153.562 78C153.562 36.268 119.732 2.4375 78 2.4375C36.268 2.4375 2.4375 36.268 2.4375 78C2.4375 119.732 36.268 153.562 78 153.562Z" stroke="#28459C" stroke-miterlimit="10" stroke-linecap="round"/>
</g>
</svg>
