<svg id="Layer_1" data-name="Layer 1" xmlns="http://www.w3.org/2000/svg" viewBox="0 0 64 64"><defs><style>.cls-1,.cls-2,.cls-4{fill:none;stroke:#d69434;stroke-linecap:round;}.cls-1,.cls-2{stroke-linejoin:round;}.cls-1{stroke-width:2px;}.cls-3{fill:#d69434;}.cls-4{stroke-miterlimit:10;}</style></defs><circle class="cls-1" cx="18.82" cy="18.31" r="8.86"/><circle class="cls-1" cx="49.18" cy="30.12" r="8.86"/><circle class="cls-1" cx="24.72" cy="48.68" r="8.86"/><line class="cls-2" x1="27.94" y1="20.57" x2="40.32" y2="26.06"/><line class="cls-2" x1="42.46" y1="35.98" x2="33.1" y2="44.6"/><line class="cls-2" x1="18.47" y1="27.48" x2="21.77" y2="39.82"/><line class="cls-2" x1="46.09" y1="53.91" x2="34.53" y2="49.44"/><circle class="cls-3" cx="44.12" cy="52.9" r="4.64"/><line class="cls-2" x1="41.55" y1="10.09" x2="45.39" y2="21.87"/><circle class="cls-3" cx="42" cy="12.26" r="3.8"/><circle class="cls-4" cx="32" cy="32" r="31"/><path class="cls-3" d="M23.77,19a4.94,4.94,0,0,0-.23-2.32l-1,.26A4.17,4.17,0,0,0,22,16l.79-.71A5.07,5.07,0,0,0,21,13.81l-.55.92a4.07,4.07,0,0,0-1-.31l0-1.06a4.9,4.9,0,0,0-2.31.23l.25,1a4.33,4.33,0,0,0-.92.5l-.72-.79a5.42,5.42,0,0,0-.84.82,4.53,4.53,0,0,0-.63,1l.91.55a3.66,3.66,0,0,0-.3,1l-1.07-.05A5.17,5.17,0,0,0,14.09,20l1-.25a3.89,3.89,0,0,0,.49.92l-.78.72a4.93,4.93,0,0,0,.81.84,4.36,4.36,0,0,0,1,.63l.55-.91a3.6,3.6,0,0,0,1,.3l-.05,1.07A5.21,5.21,0,0,0,20.46,23l-.26-1a3.77,3.77,0,0,0,.93-.49l.71.78a5,5,0,0,0,.85-.81,5.18,5.18,0,0,0,.63-1l-.92-.55a4,4,0,0,0,.31-1Zm-3.64.4A1.7,1.7,0,1,1,19.89,17,1.71,1.71,0,0,1,20.13,19.39Z"/><path class="cls-3" d="M54.14,30.8a5.21,5.21,0,0,0-.23-2.32l-1,.26a3.77,3.77,0,0,0-.49-.93l.78-.71a5,5,0,0,0-.81-.85,5.18,5.18,0,0,0-1-.63l-.55.92a4,4,0,0,0-1-.31l0-1.06a4.94,4.94,0,0,0-2.32.23l.26,1a3.8,3.8,0,0,0-.93.5l-.71-.79a5,5,0,0,0-.85.81,5.51,5.51,0,0,0-.63,1l.92.55a3.94,3.94,0,0,0-.31,1l-1.06-.05a4.9,4.9,0,0,0,.23,2.31l1-.26a4.17,4.17,0,0,0,.5.93l-.79.72A5.42,5.42,0,0,0,46,34a4.94,4.94,0,0,0,1,.63l.55-.91a3.66,3.66,0,0,0,1,.3l-.05,1.07a5.17,5.17,0,0,0,2.31-.23l-.25-1a4.29,4.29,0,0,0,.92-.49l.72.78a4.93,4.93,0,0,0,.84-.81,4.36,4.36,0,0,0,.63-1l-.91-.55a3.6,3.6,0,0,0,.3-1Zm-3.64.4a1.7,1.7,0,1,1-.24-2.39A1.7,1.7,0,0,1,50.5,31.2Z"/><path class="cls-3" d="M29.68,49.35A5.17,5.17,0,0,0,29.45,47l-1,.26a4.14,4.14,0,0,0-.49-.93l.78-.72a4.93,4.93,0,0,0-.81-.84,5.18,5.18,0,0,0-1-.63l-.55.91a3.6,3.6,0,0,0-1-.3l0-1.07a5.07,5.07,0,0,0-2.32.24l.26,1a3.8,3.8,0,0,0-.93.5l-.71-.79a5,5,0,0,0-.85.81,5.18,5.18,0,0,0-.63,1l.91.55a4.43,4.43,0,0,0-.3,1l-1.06,0A4.94,4.94,0,0,0,20,50.32l1-.26a3.8,3.8,0,0,0,.5.93l-.79.72a5.33,5.33,0,0,0,.81.84,5.51,5.51,0,0,0,1,.63l.55-.91a4.36,4.36,0,0,0,1,.3l-.05,1.06a4.9,4.9,0,0,0,2.31-.23l-.26-1a3.8,3.8,0,0,0,.93-.5l.72.79a4.93,4.93,0,0,0,.84-.81,5.51,5.51,0,0,0,.63-1l-.91-.55a3.56,3.56,0,0,0,.3-1Zm-3.65.4a1.69,1.69,0,1,1-.23-2.38A1.69,1.69,0,0,1,26,49.75Z"/></svg>