<svg id="Layer_1" data-name="Layer 1" xmlns="http://www.w3.org/2000/svg" viewBox="0 0 64 64"><defs><style>.cls-1{fill:none;stroke:#d69434;stroke-linecap:round;stroke-miterlimit:10;}.cls-2{fill:#d69434;}</style></defs><line class="cls-1" x1="47.94" y1="15.03" x2="47.94" y2="20.03"/><line class="cls-1" x1="50.44" y1="17.53" x2="45.44" y2="17.53"/><line class="cls-1" x1="17.06" y1="20.28" x2="17.06" y2="25.28"/><line class="cls-1" x1="19.56" y1="22.78" x2="14.56" y2="22.78"/><path class="cls-2" d="M47.51,29.91a1.62,1.62,0,0,0-1.63,1.62h0v.11a24.83,24.83,0,0,1-7-2.23c-2-.94-3.22-1.41-3.27-1.43l-.14,0c-4.14-.73-5.67.23-6,.51l-4.72,3.49H18.26v-.81a1.63,1.63,0,0,0-1.63-1.63H13V48.19h3.63a1.63,1.63,0,0,0,1.63-1.63h0v-1H20l8.44,6.62a3.23,3.23,0,0,0,1.9.72,2.32,2.32,0,0,0,1.58-.65,2.41,2.41,0,0,0,.57-.74,2.6,2.6,0,0,0,3.18-.19,2.42,2.42,0,0,0,.52-.67,2.59,2.59,0,0,0,3.18-.2,2.49,2.49,0,0,0,.78-1.31,2.29,2.29,0,0,0,2.45-.48A2.55,2.55,0,0,0,43.43,47l2.45-.56V47a1.62,1.62,0,0,0,1.63,1.62h3.33V29.91Zm-6,17.5c-.24.21-.53.47-1.44-.17l-.22-.18a.42.42,0,0,0-.11-.15l-3.47-3.73a.81.81,0,1,0-1.19,1.11l3.09,3.31a.73.73,0,0,0,.17.31.91.91,0,0,1-.05,1.29h0A1,1,0,0,1,37,49.14l-.56-.62a.57.57,0,0,0-.12-.18l-3.77-4a.81.81,0,0,0-1.14,0,.8.8,0,0,0,0,1.14l3.53,3.77a.9.9,0,0,1-.28.86A.93.93,0,0,1,33.26,50l-.88-1a.7.7,0,0,0-.19-.15l-3.75-3.72a.81.81,0,0,0-1.14,1.16L31.06,50l.05,0a.91.91,0,0,1-.27.92c-.22.2-.53.48-1.42-.16l-8.63-6.77a.79.79,0,0,0-.51-.18h-2V33.56h4.41a1.83,1.83,0,0,0-.34.84A2,2,0,0,0,22.9,36c1.57,1.63,4.46.92,4.58.89a16.51,16.51,0,0,0,3.64-2.39l.61.63L41.79,46.53A.88.88,0,0,1,41.52,47.41Zm4.36-2.6L43,45.46,32.93,34l-1.15-1.19a.83.83,0,0,0-1.1-.07,22.57,22.57,0,0,1-3.6,2.54c-.54.14-2.25.35-3-.46a.41.41,0,0,1-.09-.21c0-.05.11-.21.44-.4l.08,0,6-4.39,0,0s1.12-.8,4.63-.19c.28.11,1.43.56,3.06,1.34.2.09,4.4,2.16,7.73,2.4Z"/><path class="cls-2" d="M62.5,28.86h-11a.82.82,0,0,0-.82.81v19a.82.82,0,0,0,.82.81h5.89Z"/><path class="cls-2" d="M1.5,28.86h11a.82.82,0,0,1,.82.81v19a.82.82,0,0,1-.82.81H6.58Z"/><path class="cls-2" d="M32,7a8,8,0,0,0-8,8h0a8,8,0,1,0,16,0h0A8,8,0,0,0,32,7Zm-.89,11.55-3.18-3.19,1.42-1.42,1.77,1.77,3.54-3.53,1.41,1.41Z"/><path class="cls-2" d="M62.5,29s1,14-5.08,20.47L57.5,37Z"/><path class="cls-2" d="M1.5,28.86S-.35,43,6.58,49.47"/><circle class="cls-1" cx="32" cy="32" r="31"/></svg>